<?xml version="1.0" standalone="no"?><!DOCTYPE svg PUBLIC "-//W3C//DTD SVG 1.1//EN" "http://www.w3.org/Graphics/SVG/1.1/DTD/svg11.dtd"><svg t="1652242357416" class="icon" viewBox="0 0 1024 1024" version="1.1" xmlns="http://www.w3.org/2000/svg" p-id="1949" xmlns:xlink="http://www.w3.org/1999/xlink" width="64" height="64"><defs><style type="text/css">@font-face { font-family: feedback-iconfont; src: url("//at.alicdn.com/t/font_1031158_u69w8yhxdu.woff2?t=1630033759944") format("woff2"), url("//at.alicdn.com/t/font_1031158_u69w8yhxdu.woff?t=1630033759944") format("woff"), url("//at.alicdn.com/t/font_1031158_u69w8yhxdu.ttf?t=1630033759944") format("truetype"); }
</style></defs><path d="M417.04067755 877.78890525c0 18.15252423-14.85174784 33.00427207-33.00427208 33.00427206L254.42242333 910.79317731c-18.15252423 0-33.00427207-14.85174784-33.00427208-33.00427206l0-727.5214063c0-18.15252423 14.85174784-33.00427207 33.00427208-33.00427207l129.61398214 0c18.15252423 0 33.00427207 14.85174784 33.00427208 33.00427207L417.04067755 877.78890525z" fill="#409EFF" p-id="1950"></path><path d="M794.31069582 877.78890525c0 18.15252423-14.85174784 33.00427207-33.00427207 33.00427206l-129.61398215 0c-18.15252423 0-33.00427207-14.85174784-33.00427207-33.00427206l0-727.5214063c0-18.15252423 14.85174784-33.00427207 33.00427207-33.00427207l129.61398215 0c18.15252423 0 33.00427207 14.85174784 33.00427207 33.00427207L794.31069582 877.78890525z" fill="#409EFF" p-id="1951"></path></svg>