<?xml version="1.0" standalone="no"?><!DOCTYPE svg PUBLIC "-//W3C//DTD SVG 1.1//EN" "http://www.w3.org/Graphics/SVG/1.1/DTD/svg11.dtd"><svg class="icon" width="64px" height="64.00px" viewBox="0 0 1024 1024" version="1.1" xmlns="http://www.w3.org/2000/svg"><path d="M300.3392 153.6h334.4896l191.1296 191.1296v430.08c0 52.5824-43.008 95.5904-95.5392 95.5904h-430.08a95.8464 95.8464 0 0 1-95.5904-95.5904V249.1904C204.7488 196.608 247.7568 153.6 300.3392 153.6z" fill="#2F77F1" /><path d="M636.8256 563.2c10.0352-9.0624 10.0352-23.3984 0-31.6928L529.5104 415.6416A26.9312 26.9312 0 0 0 512 409.6c-6.656 0-13.312 2.2528-17.5104 6.8096L388.7616 531.456a22.016 22.016 0 0 0-7.5264 15.872 22.016 22.016 0 0 0 7.5264 15.8208 26.0096 26.0096 0 0 0 35.0208 0l63.1808-61.3376v192.3072c0 12.8 10.8544 22.6304 25.0368 22.6304s25.088-9.8304 25.088-22.6304V501.8624L601.7536 563.2c9.1648 8.2944 25.0368 8.2944 35.0208 0z" fill="#FFFFFF" /></svg>