<?xml version="1.0" standalone="no"?><!DOCTYPE svg PUBLIC "-//W3C//DTD SVG 1.1//EN" "http://www.w3.org/Graphics/SVG/1.1/DTD/svg11.dtd"><svg class="icon" width="64px" height="64.00px" viewBox="0 0 1024 1024" version="1.1" xmlns="http://www.w3.org/2000/svg"><path d="M496.9984 259.0208h243.9168c19.9168 0 36.1472 16.2304 36.1472 36.1472v45.1584a36.2496 36.2496 0 0 1-36.1472 36.1472H496.9984a36.2496 36.2496 0 0 1-36.1472-36.1472v-45.1584c0-19.9168 16.2816-36.1472 36.1472-36.1472z" fill="#AFFCFE" /><path d="M804.1984 819.2H225.8944a72.4992 72.4992 0 0 1-72.2944-72.2944V277.0944C153.6512 237.312 186.1632 204.8 225.8944 204.8h207.7696c49.7152 13.568 39.7824 38.8608 72.2944 72.2944l22.5792 36.1472h275.6096c39.7312 0 72.2944 32.512 72.2944 72.2432v361.472c0 39.7312-32.5632 72.2432-72.2944 72.2432z" fill="#2F77F1" /><path d="M606.464 547.5328H551.7824a8.0384 8.0384 0 0 1-7.936-9.3184L563.3024 418.9184c1.3312-7.7824-8.3456-12.544-13.7216-6.7584l-137.728 147.3536a8.0384 8.0384 0 0 0 5.888 13.5168h54.6816c4.9152 0 8.704 4.4544 7.8848 9.2672L460.9024 701.5936c-1.28 7.8336 8.3456 12.544 13.7728 6.8096l137.728-147.3536a8.0384 8.0384 0 0 0-5.888-13.5168z" fill="#FFFFFF" /></svg>