<?xml version="1.0" standalone="no"?><!DOCTYPE svg PUBLIC "-//W3C//DTD SVG 1.1//EN" "http://www.w3.org/Graphics/SVG/1.1/DTD/svg11.dtd"><svg class="icon" width="64px" height="64.00px" viewBox="0 0 1024 1024" version="1.1" xmlns="http://www.w3.org/2000/svg"><path fill="#8a8a8a" d="M425.472 204.8a35.84 35.84 0 0 1 25.344 10.496L512.0512 276.48h235.52a71.68 71.68 0 0 1 71.68 71.68V460.8h-51.2V348.16a20.48 20.48 0 0 0-20.48-20.48H490.8032L419.1232 256H288.3584a20.48 20.48 0 0 0-20.48 20.48v430.08c0 11.3152 9.216 20.48 20.48 20.48H614.4v51.2H288.3584a71.68 71.68 0 0 1-71.68-71.68V276.48a71.68 71.68 0 0 1 71.68-71.68H425.472zM460.8 545.7408h230.6048v42.4448H460.8zM645.2736 460.8v204.8L819.2 566.9376z" /></svg>