<?xml version="1.0" standalone="no"?><!DOCTYPE svg PUBLIC "-//W3C//DTD SVG 1.1//EN" "http://www.w3.org/Graphics/SVG/1.1/DTD/svg11.dtd"><svg class="icon" width="64px" height="64.00px" viewBox="0 0 1024 1024" version="1.1" xmlns="http://www.w3.org/2000/svg"><path fill="#8a8a8a" d="M537.6 204.8c86.016 0 157.3888 60.5696 165.376 138.9568h94.5664c11.5712 0 21.0944 9.216 21.6576 20.8896a21.8624 21.8624 0 0 1-19.5584 22.8864l-2.048 0.1024h-37.0176l-23.6544 387.3792a47.2576 47.2576 0 0 1-44.8512 44.1344l-2.6624 0.0512h-303.616a47.3088 47.3088 0 0 1-47.2576-41.472l-0.2048-2.6624-23.7568-387.4304h-36.9152A21.8112 21.8112 0 0 1 256 366.7456a21.8624 21.8624 0 0 1 19.5584-22.8864l2.048-0.1024h94.6688C380.2112 265.3696 451.584 204.8 537.6 204.8z m179.5584 182.8352H358.0416l23.552 384.768c0 1.1776 1.1776 2.4064 3.072 2.816l1.1264 0.1024h303.616c2.048 0 3.584-1.024 4.096-2.2528l0.1536-0.7168 23.552-384.7168zM537.6 248.6784c-62.6688 0-113.664 41.8304-121.6512 95.0784h243.3024c-7.9872-53.248-58.9824-95.0784-121.6512-95.0784z"  /><path fill="#8a8a8a" d="M464.896 372.8384l9.9328 413.1328M588.8 384v409.6"  /></svg>