<?xml version="1.0" encoding="UTF-8"?><svg version="1.1" width="20px" height="20px" viewBox="0 0 20.0 20.0" xmlns="http://www.w3.org/2000/svg" xmlns:xlink="http://www.w3.org/1999/xlink"><defs><clipPath id="i0"><path d="M1440,0 L1440,1024 L0,1024 L0,0 L1440,0 Z"></path></clipPath><clipPath id="i1"><path d="M7.922,0 C11.747,0 14.161,2.55 14.161,6.29 C14.161,9.605 12.087,11.339 10.37,11.339 C9.333,11.339 8.534,10.863 8.415,9.894 L8.364,9.894 C7.752,10.625 6.885,11.203 6.052,11.203 C4.76,11.203 3.774,10.234 3.774,8.5 C3.774,6.494 5.202,4.097 7.429,4.097 C8.075,4.097 8.602,4.403 8.942,5.032 L8.976,5.032 L9.197,4.25 L10.217,4.25 L9.469,8.041 C9.112,9.571 9.469,10.268 10.506,10.268 C11.713,10.268 13.073,8.823 13.073,6.358 C13.073,3.281 11.254,1.037 7.803,1.037 C4.42,1.037 1.156,3.927 1.156,8.364 C1.156,12.07 3.57,14.178 6.8,14.178 C7.956,14.178 9.044,13.821 9.894,13.328 L10.302,14.246 C9.197,14.909 8.007,15.215 6.698,15.215 C2.975,15.215 0,12.835 0,8.415 C0,3.332 3.689,0 7.922,0 Z M7.429,5.185 C5.933,5.185 5.015,6.987 5.015,8.415 C5.015,9.639 5.593,10.132 6.358,10.132 C6.885,10.132 7.463,9.792 8.109,9.01 L8.653,5.984 C8.296,5.406 7.939,5.185 7.429,5.185 Z"></path></clipPath></defs><g transform="translate(-1007.0 -986.0)"><g clip-path="url(#i0)"><g transform="translate(1007.0 986.0)"><g transform="translate(2.999999999999999 2.0000000000000577)"><g transform=""><g clip-path="url(#i1)"><polygon points="0,0 14.161,0 14.161,15.215 0,15.215 0,0" stroke="none" fill="#D0D4DD"></polygon></g></g></g></g></g></g></svg>