<?xml version="1.0" encoding="UTF-8"?><svg version="1.1" width="16px" height="16px" viewBox="0 0 16.0 16.0" xmlns="http://www.w3.org/2000/svg" xmlns:xlink="http://www.w3.org/1999/xlink"><defs><clipPath id="i0"><path d="M1440,0 L1440,1080 L0,1080 L0,0 L1440,0 Z"></path></clipPath><clipPath id="i1"><path d="M8.58454316,0 C9.36486103,0 10,0.63469043 10,1.41545684 L10,8.58454316 C9.99985049,9.36516006 9.36471151,10 8.58439364,10 L7.5250236,10 C7.20012789,10 6.93683228,9.73685391 6.93683228,9.41180868 C6.93683228,9.08676345 7.2002774,8.82361736 7.5250236,8.82361736 L8.58439364,8.82361736 C8.71626572,8.82361736 8.82331833,8.71626572 8.82331833,8.58469267 L8.82331833,1.41545684 C8.82331833,1.2838838 8.7161162,1.17653215 8.58439364,1.17653215 L1.41530733,1.17653215 C1.28343525,1.17653215 1.17638264,1.2838838 1.17638264,1.41545684 L1.17638264,2.52417054 C1.17638264,2.84936528 0.912937518,3.11236186 0.588191319,3.11236186 C0.263445121,3.11236186 0,2.84921577 0,2.52417054 L0,1.41545684 C0,0.634839944 0.634989459,0 1.41545684,0 L8.58454316,0 Z"></path></clipPath><clipPath id="i2"><path d="M8.58454316,0 C9.36486103,0 10,0.63469043 10,1.41545684 L10,8.58454316 C9.99985049,9.36530957 9.36486103,10 8.58454316,10 L1.41545684,10 C0.635138974,10 0,9.36530957 0,8.58454316 L0,1.41545684 C0,0.634839944 0.634989459,0 1.41545684,0 L8.58454316,0 Z M8.58454316,1.17653215 L1.41545684,1.17653215 C1.28358477,1.17653215 1.17653215,1.2838838 1.17653215,1.41545684 L1.17653215,8.58454316 C1.17653215,8.7161162 1.28373428,8.82346785 1.41545684,8.82346785 L8.58454316,8.82346785 C8.71641523,8.82346785 8.82346785,8.7161162 8.82346785,8.58454316 L8.82346785,1.41545684 C8.82346785,1.2838838 8.71626572,1.17653215 8.58454316,1.17653215 Z"></path></clipPath></defs><g transform="translate(-838.0 -881.0)"><g clip-path="url(#i0)"><g transform="translate(352.0 69.0)"><g transform="translate(205.0 810.0)"><g transform="translate(281.0 0.0)"><g transform="translate(0.0 2.0)"><g transform="translate(2.0 2.0)"><g transform="translate(2.0 0.0)"><g clip-path="url(#i1)"><polygon points="0,0 10,0 10,10 0,10 0,0" stroke="none" fill="#3368FE"></polygon></g></g><g transform="translate(0.0 2.0)"><g clip-path="url(#i2)"><polygon points="0,0 10,0 10,10 0,10 0,0" stroke="none" fill="#3368FE"></polygon></g></g></g></g></g></g></g></g></g></svg>