<?xml version="1.0" encoding="UTF-8"?><svg version="1.1" width="39px" height="31px" viewBox="0 0 39.0 31.0" xmlns="http://www.w3.org/2000/svg" xmlns:xlink="http://www.w3.org/1999/xlink"><defs><clipPath id="i0"><path d="M1440,0 L1440,985 L0,985 L0,0 L1440,0 Z"></path></clipPath><clipPath id="i1"><path d="M9.44871795,0 C9.47607692,0 9.50287179,0.00211538462 9.52994872,0.00408974359 C9.84921221,-0.013795423 10.1610339,0.104842419 10.3876667,0.330423077 L17.489795,7.43275469 C17.6709251,7.63761249 17.7723757,7.90290711 17.7720521,8.17948718 C17.7716879,8.22994109 17.7678713,8.28031096 17.7606282,8.33024359 C17.7661096,8.37379801 17.7689823,8.41764118 17.7692308,8.46153846 L17.7692308,20.8717949 C17.7692308,21.4948854 17.2641161,22 16.6410256,22 L1.12820513,22 C0.828986524,22 0.542023135,21.8811359 0.330443631,21.6695564 C0.118864128,21.4579769 0,21.1710135 0,20.8717949 L0,1.12820513 C0,0.828986524 0.118864128,0.542023135 0.330443631,0.330443631 C0.542023135,0.118864128 0.828986524,0 1.12820513,0 Z"></path></clipPath><clipPath id="i2"><path d="M5,0 C5.55228475,-1.01453063e-16 6,0.44771525 6,1 C6,1.55228475 5.55228475,2 5,2 L1,2 C0.44771525,2 -2.65431532e-16,1.55228475 0,1 C-6.76353751e-17,0.44771525 0.44771525,1.01453063e-16 1,0 L5,0 Z"></path></clipPath><clipPath id="i3"><path d="M9,0 C9.55228475,-1.01453063e-16 10,0.44771525 10,1 C10,1.55228475 9.55228475,2 9,2 L1,2 C0.44771525,2 -1.5440923e-16,1.55228475 0,1 C-6.76353751e-17,0.44771525 0.44771525,1.01453063e-16 1,0 L9,0 Z"></path></clipPath><clipPath id="i4"><path d="M6,0 C9.3137085,0 12,2.6862915 12,6 C12,9.3137085 9.3137085,12 6,12 C2.6862915,12 0,9.3137085 0,6 C0,2.6862915 2.6862915,0 6,0 Z M6,2.8 C5.5581722,2.8 5.2,3.1581722 5.2,3.6 L5.2,7 C5.2,7.05168819 5.20490194,7.10223147 5.21407452,7.14981592 C5.20483502,7.19846096 5.2,7.24866584 5.2,7.3 C5.2,7.7418278 5.5581722,8.1 6,8.1 L8.7,8.1 C9.1418278,8.1 9.5,7.7418278 9.5,7.3 C9.5,6.8581722 9.1418278,6.5 8.7,6.5 L6.8,6.5 L6.8,3.6 C6.8,3.1581722 6.4418278,2.8 6,2.8 Z"></path></clipPath></defs><g transform="translate(-1019.0 -769.0)"><g clip-path="url(#i0)"><g transform="translate(1019.0 769.0)"><g transform="translate(9.99999999999994 4.0)"><g clip-path="url(#i1)"><polygon points="0,0 17.7720528,0 17.7720528,22 0,22 0,0" stroke="none" fill="#F88211" opacity="13.7276786%"></polygon></g><g transform="translate(1.87602328032699 4.0)"><g clip-path="url(#i2)"><polygon points="0,0 6,0 6,2 0,2 0,0" stroke="none" fill="#F88211" opacity="54.1922433%"></polygon></g></g><g transform="translate(1.87602328032699 9.0)"><g clip-path="url(#i3)"><polygon points="0,0 10,0 10,2 0,2 0,0" stroke="none" fill="#F88211" opacity="54.1922433%"></polygon></g></g><g transform="translate(9.87602328032699 11.0)"><g clip-path="url(#i4)"><polygon points="0,0 12,0 12,12 0,12 0,0" stroke="none" fill="#F88211"></polygon></g></g></g></g></g></g></svg>