<?xml version="1.0" standalone="no"?><!DOCTYPE svg PUBLIC "-//W3C//DTD SVG 1.1//EN" "http://www.w3.org/Graphics/SVG/1.1/DTD/svg11.dtd"><svg class="icon" width="64px" height="64.00px" viewBox="0 0 1024 1024" version="1.1" xmlns="http://www.w3.org/2000/svg"><path d="M304.128 726.4q-100.565333-68.778667-100.565333-190.634667v-13.397333q0-138.496 115.882666-214.4l50.005334-32.810667q81.152-53.162667 143.786666 20.906667l28.928 34.133333q-2.474667-2.901333-6.272-2.901333h242.090667q74.112 0 74.112 74.154667 0 74.112-74.112 74.112h-134.4v-51.2q74.112 0 74.112 74.154666 0 74.112-74.112 74.112h-22.4v-51.2q30.72 0 52.394667 21.717334 21.76 21.717333 21.76 52.437333 0 30.72-21.76 52.394667-21.717333 21.76-52.394667 21.76h-59.733333v-51.2q30.72 0 52.394666 21.674666 21.76 21.717333 21.76 52.437334 0 74.112-74.154666 74.112H408.832q-45.738667 0-83.456-25.813334l-21.248-14.506666z m28.928-42.24l21.248 14.506667q24.661333 16.896 54.528 16.896h152.618667q22.912 0 22.912-22.912 0-22.954667-22.912-22.954667-2.56 0-4.992-0.469333-2.474667-0.512-4.821334-1.493334-2.346667-0.938667-4.437333-2.346666-2.090667-1.408-3.84-3.2-1.792-1.749333-3.2-3.84-1.408-2.133333-2.389333-4.437334-0.938667-2.346667-1.450667-4.821333-0.469333-2.474667-0.469333-4.992 0-2.517333 0.469333-4.992 0.512-2.474667 1.450667-4.821333 0.981333-2.304 2.389333-4.394667 1.408-2.133333 3.157333-3.882667 1.792-1.792 3.882667-3.2 2.133333-1.408 4.437333-2.346666 2.346667-0.981333 4.821334-1.450667 2.432-0.512 4.992-0.512h59.733333q22.912 0 22.912-22.912 0-9.514667-6.698667-16.213333-6.741333-6.741333-16.213333-6.741334-2.56 0-4.992-0.469333-2.474667-0.512-4.821333-1.493333-2.346667-0.938667-4.437334-2.346667-2.090667-1.408-3.84-3.2-1.792-1.749333-3.2-3.84-1.408-2.133333-2.389333-4.437333-0.938667-2.346667-1.450667-4.821334-0.469333-2.474667-0.469333-4.992 0-2.517333 0.469333-4.992 0.512-2.474667 1.450667-4.821333 0.981333-2.304 2.389333-4.394667 1.408-2.133333 3.157334-3.882666 1.792-1.792 3.882666-3.2 2.133333-1.408 4.437334-2.346667 2.346667-0.981333 4.821333-1.450667 2.432-0.512 4.992-0.512h22.4q22.912 0 22.912-22.912 0-22.954667-22.912-22.954666-2.56 0-4.992-0.469334-2.474667-0.512-4.821333-1.493333-2.346667-0.938667-4.437334-2.346667-2.090667-1.408-3.84-3.2-1.792-1.749333-3.2-3.84-1.408-2.133333-2.389333-4.437333-0.938667-2.346667-1.450667-4.821333-0.469333-2.474667-0.469333-4.992 0-2.517333 0.469333-4.992 0.512-2.474667 1.450667-4.821334 0.981333-2.304 2.389333-4.394666 1.408-2.133333 3.157334-3.882667 1.792-1.792 3.882666-3.2 2.133333-1.408 4.437334-2.346667 2.346667-0.981333 4.821333-1.450666 2.432-0.512 4.992-0.512h134.4q22.912 0 22.912-22.912 0-22.954667-22.912-22.954667H535.893333q-19.925333 0-32.810666-15.189333l-28.885334-34.133334q-33.408-39.509333-76.672-11.178666l-50.048 32.768q-92.714667 60.757333-92.714666 171.605333v13.397333q0 94.848 78.293333 148.394667z" /></svg>