<?xml version="1.0" encoding="UTF-8"?><svg version="1.1" width="39px" height="31px" viewBox="0 0 39.0 31.0" xmlns="http://www.w3.org/2000/svg" xmlns:xlink="http://www.w3.org/1999/xlink"><defs><clipPath id="i0"><path d="M1440,0 L1440,985 L0,985 L0,0 L1440,0 Z"></path></clipPath><clipPath id="i1"><path d="M24.8,0 C26.5673112,8.00948658e-16 28,1.4326888 28,3.2 L28,15.8 C28,17.5673112 26.5673112,19 24.8,19 L3.2,19 C1.4326888,19 1.10461162e-15,17.5673112 0,15.8 L0,3.2 C-2.164332e-16,1.4326888 1.4326888,-5.63528619e-16 3.2,0 L24.8,0 Z"></path></clipPath><clipPath id="i2"><path d="M5.5,0 C8.53747182,0 11,2.46244289 11,5.50007653 C11,8.53755711 8.53747182,11 5.5,11 C2.4623241,11 0,8.53755711 0,5.50007653 C0,2.46244289 2.4623241,0 5.5,0 Z M8.09982282,2.82437328 L4.78908823,6.1878667 L3.68578214,5.06661719 C3.380887,4.75713457 2.88701404,4.75713457 2.58232298,5.06661719 C2.27758091,5.37630389 2.27758091,5.87812899 2.58232298,6.1878667 L4.23746069,7.86951137 C4.38276547,8.01797732 4.58164117,8.10164885 4.78929231,8.10164885 C4.99699446,8.10164885 5.19587017,8.01797732 5.34097086,7.86951137 L9.20333299,3.94557176 C9.50807506,3.63588507 9.50807506,3.13385589 9.20333299,2.82437328 C8.89859092,2.51489066 8.40456489,2.51489066 8.09982282,2.82437328 Z"></path></clipPath><clipPath id="i3"><path d="M3.03443335,0 C4.71015216,0 6.06886671,1.29956253 6.06886671,2.90249825 C6.06886671,4.50543397 4.71015216,5.8049965 3.03443335,5.8049965 C1.35863506,5.8049965 0,4.50543397 0,2.90249825 C0,1.29956253 1.35863506,0 3.03443335,0 Z"></path></clipPath><clipPath id="i4"><path d="M6.31393293,0 C8.7681722,0 10.7611337,1.90281137 10.7611337,4.25376348 C10.7611337,4.42613115 10.6134422,4.56747721 10.4332394,4.56747721 L0.327973805,4.56747721 C0.147771038,4.56747721 0,4.42613115 0,4.25376348 C0,1.90623287 1.989305,0 4.44704181,0 L6.31393293,0 Z"></path></clipPath><clipPath id="i5"><path d="M7.39374392,0 C7.82768194,4.23050916e-16 8.1794582,0.351776268 8.1794582,0.785714286 C8.1794582,1.2196523 7.82768194,1.57142857 7.39374392,1.57142857 L0.785714286,1.57142857 C0.351776268,1.57142857 5.31420804e-17,1.2196523 0,0.785714286 C-5.31420804e-17,0.351776268 0.351776268,7.97131207e-17 0.785714286,0 L7.39374392,0 Z"></path></clipPath><clipPath id="i6"><path d="M7.39374392,0 C7.82768194,2.53353787e-16 8.1794582,0.351776268 8.1794582,0.785714286 C8.1794582,1.2196523 7.82768194,1.57142857 7.39374392,1.57142857 L0.785714286,1.57142857 C0.351776268,1.57142857 5.31420804e-17,1.2196523 0,0.785714286 C-5.31420804e-17,0.351776268 0.351776268,1.90735423e-16 0.785714286,0 L7.39374392,0 Z"></path></clipPath></defs><g transform="translate(-1017.0 -633.0)"><g clip-path="url(#i0)"><g transform="translate(1017.0 633.0)"><g transform="translate(6.0 6.0)"><g clip-path="url(#i1)"><polygon points="0,0 28,0 28,19 0,19 0,0" stroke="none" fill="#676B7E" opacity="13.8764881%"></polygon></g></g><g transform="translate(26.0 17.0)"><g clip-path="url(#i2)"><polygon points="0,0 11,0 11,11 0,11 0,0" stroke="none" fill="#666A7A"></polygon></g></g><g transform="translate(8.999999999999716 9.99999999999995)"><g opacity="54.171317%"><g transform="translate(2.3641537821386014 0.0)"><g clip-path="url(#i3)"><polygon points="0,0 6.06886671,0 6.06886671,5.8049965 0,5.8049965 0,0" stroke="none" fill="#676B7E"></polygon></g></g><g transform="translate(0.0 6.432522794461875)"><g clip-path="url(#i4)"><polygon points="0,0 10.7611337,0 10.7611337,4.56747721 0,4.56747721 0,0" stroke="none" fill="#676B7E"></polygon></g></g><g transform="translate(13.82054179554996 0.11658863170432465)"><g clip-path="url(#i5)"><polygon points="0,0 8.1794582,0 8.1794582,1.57142857 0,1.57142857 0,0" stroke="none" fill="#676B7E"></polygon></g></g><g transform="translate(13.82054179554996 4.045160060275883)"><g clip-path="url(#i6)"><polygon points="0,0 8.1794582,0 8.1794582,1.57142857 0,1.57142857 0,0" stroke="none" fill="#676B7E"></polygon></g></g></g></g></g></g></g></svg>