<?xml version="1.0" standalone="no"?><!DOCTYPE svg PUBLIC "-//W3C//DTD SVG 1.1//EN" "http://www.w3.org/Graphics/SVG/1.1/DTD/svg11.dtd"><svg t="1661736514606" class="icon" viewBox="0 0 1024 1024" version="1.1" xmlns="http://www.w3.org/2000/svg" p-id="1489" xmlns:xlink="http://www.w3.org/1999/xlink" width="64" height="64"><path d="M340.11999969 118.80000031l2.56000031 2.55999938 40.60000031 48.40000031 8.88-3.67999969a379.00000031 379.00000031 0 0 1 139.83999938-26.56000031 379.99999969 379.99999969 0 0 1 10.8 759.84l-10.8 0.16000031A379.99999969 379.99999969 0 0 1 166.08000031 416.67999969l69.67999969 19.52000062A307.60000031 307.60000031 0 1 0 531.99999969 211.88c-31.24000031 0-61.72000031 4.68-90.75999938 13.60000031l-8.80000031 2.83999969 40.63999969 48.48a19.99999969 19.99999969 0 0 1-10.59999938 32.28l-3.6 0.52000031-169.76000062 9.63999938a19.99999969 19.99999969 0 0 1-21.12-21.03999938l0.52000031-3.6 39.36-165.04000031a19.99999969 19.99999969 0 0 1 32.23999969-10.75999969z m173.80000031 219.75999938a19.99999969 19.99999969 0 0 1 19.87999969 18l16.28000062 162.96 116.59999969 66.64000031a19.99999969 19.99999969 0 0 1 10.08 17.35999969v6.48a13.84000031 13.84000031 0 0 1-17.44000031 13.32l-165.63999938-45.19999969a19.99999969 19.99999969 0 0 1-14.68000031-20.80000031l15.43999969-200.71999969a19.56 19.56 0 0 1 19.48000031-18z" p-id="1490"></path></svg>