<?xml version="1.0" encoding="UTF-8"?>
<svg width="20px" height="20px" viewBox="0 0 20 20" version="1.1" xmlns="http://www.w3.org/2000/svg" xmlns:xlink="http://www.w3.org/1999/xlink">
    <title>切片</title>
    <defs>
        <linearGradient x1="50%" y1="-18.8635281%" x2="50%" y2="100%" id="linearGradient-1">
            <stop stop-color="#AFFCFE" offset="0%"></stop>
            <stop stop-color="#2F77F1" offset="100%"></stop>
        </linearGradient>
    </defs>
    <g id="2-项目" stroke="none" stroke-width="1" fill="none" fill-rule="evenodd">
        <g id="画板" transform="translate(-60.000000, -142.000000)">
            <g id="icon_doc" transform="translate(60.000000, 142.000000)">
                <rect id="矩形" fill="#DEDEDE" opacity="0" x="0" y="0" width="20" height="20"></rect>
                <path d="M15.60003,17 L4.39997003,17 C3.6299777,17 3,16.3647289 3,15.5882667 L3,4.41173333 C3,3.63527111 3.6299777,3 4.39997003,3 L15.60003,3 C16.3700223,3 17,3.63521778 17,4.41173333 L17,15.5882667 C17,16.3647289 16.3700223,17 15.60003,17 Z" id="Fill-3" fill="url(#linearGradient-1)"></path>
                <polygon id="路径" fill="#FFFFFF" fill-rule="nonzero" points="6 7 7.73913043 13.0572641 8.79957582 13.0572641 9.98727466 8.50159067 10.0212089 8.50159067 11.2004242 13.0572641 12.252386 13.0572641 14 7 12.8801697 7 11.7433722 11.6065748 11.709438 11.6065748 10.5132556 7 9.48674443 7 8.29056204 11.6065748 8.25662778 11.6065748 7.11983033 7"></polygon>
            </g>
        </g>
    </g>
</svg>