<?xml version="1.0" standalone="no"?><!DOCTYPE svg PUBLIC "-//W3C//DTD SVG 1.1//EN" "http://www.w3.org/Graphics/SVG/1.1/DTD/svg11.dtd"><svg t="1658997680204" class="icon" viewBox="0 0 1024 1024" version="1.1" xmlns="http://www.w3.org/2000/svg" p-id="2123" xmlns:xlink="http://www.w3.org/1999/xlink" width="64" height="64"><defs><style type="text/css">@font-face { font-family: feedback-iconfont; src: url("//at.alicdn.com/t/font_1031158_u69w8yhxdu.woff2?t=1630033759944") format("woff2"), url("//at.alicdn.com/t/font_1031158_u69w8yhxdu.woff?t=1630033759944") format("woff"), url("//at.alicdn.com/t/font_1031158_u69w8yhxdu.ttf?t=1630033759944") format("truetype"); }
</style></defs><path d="M475.734613 221.866667a81.493333 81.493333 0 0 1 72.490667 0l217.216 108.586666A81.493333 81.493333 0 0 1 810.667947 403.370667v258.816a81.493333 81.493333 0 0 1-45.141334 72.874666L548.267947 843.648a81.493333 81.493333 0 0 1-72.874667 0L258.134613 735.018667A81.408 81.408 0 0 1 213.334613 661.888V403.370667c0-30.890667 17.493333-59.093333 45.141334-72.874667l103.68-51.882667a27.392 27.392 0 0 1 4.138666-2.048L475.734613 221.824zM267.52128 413.610667v248.405333a27.136 27.136 0 0 0 14.933333 24.405333l202.368 101.205334V522.24L267.52128 413.653333z m488.789333 0L539.094613 522.282667v265.216l202.24-101.077334a27.136 27.136 0 0 0 14.762667-20.48l0.256-3.754666V413.653333zM376.363947 332.288l-75.093334 37.504 210.688 105.258667 75.050667-37.504-210.773333-105.386667 0.128 0.128z m147.712-61.824a27.136 27.136 0 0 0-24.106667 0l-62.890667 31.445333 210.688 105.301334 74.922667-37.418667-198.613333-99.328z" p-id="2124"></path></svg>