<?xml version="1.0" encoding="UTF-8"?><svg version="1.1" width="25px" height="24px" viewBox="0 0 25.0 24.0" xmlns="http://www.w3.org/2000/svg" xmlns:xlink="http://www.w3.org/1999/xlink"><defs><clipPath id="i0"><path d="M1397,0 L1397,915 L0,915 L0,0 L1397,0 Z"></path></clipPath><clipPath id="i1"><path d="M14.4189347,0 C15.292921,0.00193204376 16.0003152,0.711147746 16.0000001,1.58513605 L16.0000001,10.079337 C16.0000001,10.9531251 15.2927208,11.6620254 14.4189347,11.663905 L8.54684026,11.663905 L8.54684026,14.2398102 L11.0518343,14.2398102 C11.3547347,14.2398102 11.6002839,14.4853595 11.6002839,14.7882599 C11.6002839,15.0911603 11.3547347,15.3367096 11.0518343,15.3367096 L4.94816581,15.3367096 C4.64526541,15.3367096 4.39971613,15.0911603 4.39971613,14.7882599 C4.39971613,14.4853595 4.64526541,14.2398102 4.94816581,14.2398102 L7.45306514,14.2398102 L7.45306514,11.663905 L1.58106533,11.663905 C0.707279228,11.6620254 1.43074452e-07,10.9531251 1.43074452e-07,10.079337 L1.43074452e-07,1.58513605 C-0.000367299031,0.711126201 0.707057426,0.00187996316 1.58106533,0 Z M14.4189347,1.09708872 L1.58106533,1.09708872 C1.31203565,1.09776741 1.09443808,1.31610554 1.09443808,1.58513605 L1.09443808,10.0792423 C1.09443808,10.3482728 1.31203565,10.5666109 1.58106533,10.5672896 L14.4189347,10.5672896 C14.6879644,10.5666109 14.905562,10.3482728 14.905562,10.0792423 L14.905562,1.58513605 C14.905562,1.31610554 14.6879644,1.09776741 14.4189347,1.09708872 Z"></path></clipPath><clipPath id="i2"><path d="M10.0091562,0.146625522 C10.1150543,0.244675805 10.1773415,0.381005171 10.182143,0.525245227 C10.1869444,0.669485282 10.1338614,0.809655111 10.0347184,0.914530824 L7.14506166,3.97961949 C6.80971344,4.33608819 6.2530672,4.36509758 5.88248182,4.0454183 L3.67883692,2.15192724 L0.952209782,5.12215199 C0.848102363,5.23556719 0.701048961,5.29990091 0.547097368,5.29938586 C0.410880288,5.29954827 0.279496723,5.24891226 0.178624007,5.15737093 C0.0714146431,5.06072222 0.00730918011,4.92521238 0.000587134088,4.78102627 C-0.00613491194,4.63684016 0.0450847878,4.49595379 0.142837026,4.38974965 L2.98989019,1.28906336 C3.32306328,0.923349307 3.88717665,0.890277404 4.2608014,1.21455448 L6.46605576,3.10956034 L9.2354758,0.171998303 C9.44283986,-0.0470494156 9.78788588,-0.0583651686 10.0091562,0.146625522 Z"></path></clipPath></defs><g transform="translate(-438.0 -367.0)"><g clip-path="url(#i0)"><g transform="translate(438.2857142857156 367.0)"><g transform="translate(4.0 4.0)"><g clip-path="url(#i1)"><polygon points="8.8817842e-16,0 16.0000002,0 16.0000002,15.3367096 8.8817842e-16,15.3367096 8.8817842e-16,0" stroke="none" fill="#9094A6"></polygon></g><g transform="translate(2.970441270069613 3.3429838367157894)"><g clip-path="url(#i2)"><polygon points="-5.25838054e-17,-2.22044605e-16 10.1824425,-2.22044605e-16 10.1824425,5.29938893 -5.25838054e-17,5.29938893 -5.25838054e-17,-2.22044605e-16" stroke="none" fill="#9094A6"></polygon></g></g></g></g></g></g></svg>