<?xml version="1.0" encoding="UTF-8"?><svg version="1.1" width="25px" height="24px" viewBox="0 0 25.0 24.0" xmlns="http://www.w3.org/2000/svg" xmlns:xlink="http://www.w3.org/1999/xlink"><defs><clipPath id="i0"><path d="M1397,0 L1397,915 L0,915 L0,0 L1397,0 Z"></path></clipPath><clipPath id="i1"><path d="M7,0 C9.13705413,0 10.9118325,1.48620729 11.1100187,3.41037203 L13.4617499,3.41037203 C13.7490168,3.41054031 13.9855698,3.63607125 13.9993684,3.92300164 C14.013167,4.20993203 13.7992891,4.45708635 13.5134314,4.48485177 L13.4617499,4.4873128 L12.543051,4.4873128 L11.9543399,13.9933097 C11.9184342,14.5856387 11.4312772,15.043705 10.8401051,15.0756773 L10.7736154,15.0774863 L3.22630072,15.0774863 C2.62747209,15.0774863 2.12026936,14.6406016 2.05165511,14.0593577 L2.04599686,13.9943824 L1.45652854,4.4873128 L0.538166194,4.4873128 C0.251004426,4.48722866 0.0144514486,4.26161358 0.000631841091,3.97476733 C-0.013166732,3.68783694 0.200627013,3.44059848 0.486484648,3.4129172 L0.538166194,3.41037203 L2.88991843,3.41037203 C3.08808361,1.48620729 4.86294611,0 7,0 Z M11.4636492,4.4873128 L2.53593034,4.4873128 L3.12112867,13.928734 C3.12251694,13.9574039 3.15160753,13.9883035 3.19721013,13.9976638 L3.22596417,14.0005455 L10.7736154,14.0005455 C10.8252969,14.0005455 10.8626961,13.9746522 10.874854,13.9455616 L10.8792081,13.9276613 L11.4636492,4.4873128 Z M8.92340762,8.58229178 L8.95464372,8.62255164 L8.982325,8.66634528 L10.3392969,11.041004 C10.4304179,11.2004028 10.43412,11.3952235 10.3489937,11.5579246 C10.2639516,11.7206048 10.1018394,11.8287427 9.91894522,11.8447498 L9.87184918,11.8465588 L8.67141539,11.8465588 C8.38408534,11.8466429 8.14736409,11.621091 8.13348138,11.3341816 C8.11959867,11.0471671 8.33339241,10.7998655 8.61939729,10.7721632 L8.67141539,10.769618 L8.9438741,10.769618 L8.04753478,9.20082965 C7.90891802,8.95983841 7.97662778,8.65294637 8.20373631,8.49255899 C8.4308238,8.33217161 8.74265893,8.37112734 8.92340762,8.58229178 Z M4.98677568,9.80573722 C5.2274514,9.94328123 5.324399,10.2410443 5.21077111,10.4939621 L5.1871074,10.5406164 L5.05570544,10.769618 L6.91561006,10.769618 C7.19301186,10.769618 7.42495831,10.9802987 7.45158787,11.2563753 L7.45413303,11.308141 C7.45413303,11.5853535 7.24362066,11.8172368 6.96762816,11.8440978 L6.91561006,11.8465589 L4.12806692,11.8465589 C3.94441548,11.8466429 3.7734478,11.753145 3.67435469,11.5985 C3.57534572,11.4438761 3.56186266,11.249476 3.63876447,11.0826732 L3.6603037,11.041004 L4.25189649,10.0060479 C4.32280349,9.88198695 4.44004929,9.79126554 4.57784571,9.75363498 C4.71564213,9.71608856 4.86279887,9.73483022 4.98677568,9.80573722 Z M7.40672147,5.92907438 L7.43900929,5.96998631 L7.46776333,6.01518926 L8.09921633,7.12048441 C8.24119859,7.36993148 8.16263507,7.6868359 7.92059211,7.8410602 C7.67852812,7.9952845 7.35806888,7.93260195 7.19202325,7.69851 L7.16400541,7.65471636 L7.00000012,7.36747045 L6.03569861,9.05474567 C5.89815461,9.29540036 5.60039149,9.39234795 5.34755788,9.27872007 L5.30090356,9.25505636 C5.06031198,9.11742821 4.96361679,8.8196651 5.07724468,8.56683149 L5.10090839,8.52017717 L6.53255242,6.01518926 C6.72104177,5.68497005 7.17229297,5.65619498 7.40672147,5.92907438 Z M7.00000012,1.07694077 C5.44271756,1.07694077 4.17440572,2.10295723 3.97548331,3.41037203 L10.0244328,3.41037203 C9.82519486,2.10295723 8.55728268,1.07694077 7.00000012,1.07694077 Z"></path></clipPath></defs><g transform="translate(-404.0 -367.0)"><g clip-path="url(#i0)"><g transform="translate(404.1428571428578 367.0)"><g transform="translate(5.0 3.99999999999984)"><g clip-path="url(#i1)"><polygon points="1.08420217e-19,0 14,0 14,15.0774863 1.08420217e-19,15.0774863 1.08420217e-19,0" stroke="none" fill="#9094A6"></polygon></g><path d="M7,0 C9.13705413,0 10.9118325,1.48620729 11.1100187,3.41037203 L13.4617499,3.41037203 C13.7490168,3.41054031 13.9855698,3.63607125 13.9993684,3.92300164 C14.013167,4.20993203 13.7992891,4.45708635 13.5134314,4.48485177 L13.4617499,4.4873128 L12.543051,4.4873128 L11.9543399,13.9933097 C11.9184342,14.5856387 11.4312772,15.043705 10.8401051,15.0756773 L10.7736154,15.0774863 L3.22630072,15.0774863 C2.62747209,15.0774863 2.12026936,14.6406016 2.05165511,14.0593577 L2.04599686,13.9943824 L1.45652854,4.4873128 L0.538166194,4.4873128 C0.251004426,4.48722866 0.0144514486,4.26161358 0.000631841091,3.97476733 C-0.013166732,3.68783694 0.200627013,3.44059848 0.486484648,3.4129172 L0.538166194,3.41037203 L2.88991843,3.41037203 C3.08808361,1.48620729 4.86294611,0 7,0 Z M11.4636492,4.4873128 L2.53593034,4.4873128 L3.12112867,13.928734 C3.12251694,13.9574039 3.15160753,13.9883035 3.19721013,13.9976638 L3.22596417,14.0005455 L10.7736154,14.0005455 C10.8252969,14.0005455 10.8626961,13.9746522 10.874854,13.9455616 L10.8792081,13.9276613 L11.4636492,4.4873128 Z M8.9230921,8.58229178 L8.95464372,8.62255164 L8.982325,8.66634528 L10.3392969,11.041004 C10.4304179,11.2004028 10.43412,11.3952235 10.3489937,11.5579246 C10.2639516,11.7206048 10.1018394,11.8287427 9.91894522,11.8447498 L9.87184918,11.8465588 L8.67141539,11.8465588 C8.38408534,11.8466429 8.14736409,11.621091 8.13348138,11.3341816 C8.11959867,11.0471671 8.33339241,10.7998655 8.61939729,10.7721632 L8.67141539,10.769618 L8.9438741,10.769618 L8.04753478,9.20082965 C7.90891802,8.95983841 7.97662778,8.65294637 8.20373631,8.49255899 C8.4308238,8.33217161 8.74265893,8.37112734 8.92340762,8.58229178 L8.9230921,8.58229178 Z M4.98677568,9.80573722 C5.2274514,9.94328123 5.324399,10.2410443 5.21077111,10.4939621 L5.1871074,10.5406164 L5.05570544,10.769618 L6.91561006,10.769618 C7.19301186,10.769618 7.42495831,10.9802987 7.45158787,11.2563753 L7.45413303,11.308141 C7.45413303,11.5853535 7.24362066,11.8172368 6.96762816,11.8440978 L6.91561006,11.8465589 L4.12806692,11.8465589 C3.94441548,11.8466429 3.7734478,11.753145 3.67435469,11.5985 C3.57534572,11.4438761 3.56186266,11.249476 3.63876447,11.0826732 L3.6603037,11.041004 L4.25189649,10.0060479 C4.32280349,9.88198695 4.44004929,9.79126554 4.57784571,9.75363498 C4.71564213,9.71608856 4.86279887,9.73483022 4.98677568,9.80573722 Z M7.40672147,5.92865369 L7.43900929,5.96998631 L7.46776333,6.01518926 L8.09921633,7.12048441 C8.24119859,7.36993148 8.16263507,7.6868359 7.92059211,7.8410602 C7.67852812,7.9952845 7.35806888,7.93260195 7.19202325,7.69851 L7.16400541,7.65471636 L7.00000012,7.36747045 L6.03569861,9.05474567 C5.89815461,9.29540036 5.60039149,9.39234795 5.34755788,9.27872007 L5.30090356,9.25505636 C5.06031198,9.11742821 4.96361679,8.8196651 5.07724468,8.56683149 L5.10090839,8.52017717 L6.53255242,6.01518926 C6.72104177,5.68497005 7.17229297,5.65619498 7.40672147,5.92907438 L7.40672147,5.92865369 Z M7.00000012,1.07694077 C5.44271756,1.07694077 4.17440572,2.10295723 3.97548331,3.41037203 L10.0244328,3.41037203 C9.82519486,2.10295723 8.55728268,1.07694077 7.00000012,1.07694077 Z" stroke="#9094A6" stroke-width="0.2" fill="none" stroke-miterlimit="10"></path></g></g></g></g></svg>