<?xml version="1.0" standalone="no"?><!DOCTYPE svg PUBLIC "-//W3C//DTD SVG 1.1//EN" "http://www.w3.org/Graphics/SVG/1.1/DTD/svg11.dtd"><svg t="1657092444837" class="icon" viewBox="0 0 1024 1024" version="1.1" xmlns="http://www.w3.org/2000/svg" p-id="13776" xmlns:xlink="http://www.w3.org/1999/xlink" width="64" height="64"><defs><style type="text/css">@font-face { font-family: feedback-iconfont; src: url("//at.alicdn.com/t/font_1031158_u69w8yhxdu.woff2?t=1630033759944") format("woff2"), url("//at.alicdn.com/t/font_1031158_u69w8yhxdu.woff?t=1630033759944") format("woff"), url("//at.alicdn.com/t/font_1031158_u69w8yhxdu.ttf?t=1630033759944") format("truetype"); }
</style></defs><path d="M533.8624 204.8c93.696 0 156.8768 52.7872 156.8768 140.8a19.5072 19.5072 0 0 1-39.0656 0.4096V345.6c0-64.6656-44.3392-101.6832-117.76-101.6832a124.6208 124.6208 0 0 0-124.672 122.5216V437.6576h283.8528c53.9136 0 97.6384 43.7248 97.6384 97.6384v186.2656A97.6384 97.6384 0 0 1 693.0944 819.2h-339.456A97.6384 97.6384 0 0 1 256 721.5616v-186.2656c0-53.9136 43.7248-97.6384 97.6384-97.6384h16.5376V368.4864A163.6864 163.6864 0 0 1 533.8624 204.8z m159.232 271.872h-339.456c-32.0512 0-58.0608 25.7536-58.5728 57.6512v187.2384c0 32.0512 25.7024 58.0608 57.6 58.5728h340.4288c32.0512 0 58.0608-25.7024 58.5728-57.6v-187.2384c0-32.0512-25.7024-58.0608-57.6-58.5728h-0.9728z m-169.728 93.184c10.752 0 19.5072 8.704 19.5072 19.456v105.216c0 10.752-8.704 19.5072-19.456 19.5072h-0.0512a19.5072 19.5072 0 0 1-19.5072-19.5072V589.312c0-10.752 8.704-19.5072 19.5072-19.5072z" p-id="13777"></path></svg>