<?xml version="1.0" encoding="UTF-8"?>
<svg width="24px" height="24px" viewBox="0 0 24 24" version="1.1" xmlns="http://www.w3.org/2000/svg" xmlns:xlink="http://www.w3.org/1999/xlink">
    <g id="10-人才端-应用主页"  stroke-width="1" fill-rule="evenodd">
        <g id="画板" transform="translate(-181.000000, -102.000000)">
            <g id="icon_Collection_nor" transform="translate(181.000000, 102.000000)">
                <rect id="矩形" opacity="0" x="0" y="0" width="24" height="24"></rect>
                <path d="M10.9977418,18.6654257 L6.99898281,18.6654257 C6.63112603,18.6654257 6.33170583,18.3659851 6.33170583,17.9981284 L6.33170583,15.9995931 C6.33170583,14.1621402 7.82736242,12.6664632 9.66481538,12.6664632 L13.6652426,12.6664632 C14.365029,12.6664632 15.0372495,12.8845285 15.6084834,13.2963279 C15.9079036,13.5128064 16.3229783,13.446038 16.5394365,13.1466178 C16.755915,12.8487641 16.6874987,12.4321025 16.3897264,12.2156444 C15.5906012,11.6379005 14.6482555,11.3335358 13.6652426,11.3335358 L9.66481538,11.3335358 C7.09173024,11.3318686 4.99877937,13.4264876 4.99877937,15.9995931 L4.99877937,17.9997966 C4.99877937,19.1032042 5.89549385,20 6.99898281,20 L10.9977418,20 C11.3655986,20 11.6650392,19.7021666 11.6650392,19.332723 C11.6650392,18.9632794 11.3671854,18.6654257 10.9977418,18.6654257 Z M11.6650392,10.6662598 C13.5057471,10.6662598 14.9981691,9.17383786 14.9981691,7.3331299 C14.9981691,5.49240159 13.5057471,4 11.6650392,4 C9.82431085,4 8.33190927,5.49240159 8.33190927,7.3331299 C8.33190927,9.17383786 9.82431085,10.6662598 11.6650392,10.6662598 Z M11.6650392,5.33292646 C12.7685281,5.33292646 13.6652426,6.22972231 13.6652426,7.3331299 C13.6652426,8.43653748 12.7685281,9.33333333 11.6650392,9.33333333 C10.5616112,9.33333333 9.66481538,8.43495067 9.66481538,7.3331299 C9.66481538,6.23130912 10.5616112,5.33292646 11.6650392,5.33292646 Z" id="Fill-1" ></path>
                <g id="编组" transform="translate(15.004283, 17.332713) scale(-1, 1) translate(-15.004283, -17.332713) translate(11.997945, 14.641589)">
                    <path d="M0,2.69001534 C0,3.05620392 0.29952192,3.35731266 0.667297325,3.35731266 L4.66772454,3.35731266 C5.03391313,3.35731266 5.33500153,3.05779074 5.33500153,2.69001534 C5.33500153,2.32382675 5.03549995,2.02271801 4.66772454,2.02271801 L0.667297325,2.02271801 C0.301108738,2.0243862 0,2.32382675 0,2.69001534 Z" id="Fill-3"></path>
                    <path d="M5.32185489,1.02383692 L2.66729732,1.02383692 C2.30110874,1.02383692 2,1.32335884 2,1.69113425 C2,2.05732283 2.29952192,2.35841123 2.66729732,2.35841123 L5.32352308,2.35841123 C5.68971167,2.35841123 5.99080006,2.05899102 5.99080006,1.69113425 C5.98913187,1.32335884 5.68971167,1.02383692 5.32185489,1.02383692 Z" id="路径" transform="translate(3.995400, 1.691124) rotate(35.000000) translate(-3.995400, -1.691124) "></path>
                    <path d="M5.32185489,3.02383692 L2.66729732,3.02383692 C2.30110874,3.02383692 2,3.32335884 2,3.69113425 C2,4.05732283 2.29952192,4.35841123 2.66729732,4.35841123 L5.32352308,4.35841123 C5.68971167,4.35841123 5.99080006,4.05899102 5.99080006,3.69113425 C5.98913187,3.32335884 5.68971167,3.02383692 5.32185489,3.02383692 Z" id="路径" transform="translate(3.995400, 3.691124) scale(-1, 1) rotate(35.000000) translate(-3.995400, -3.691124) "></path>
                </g>
            </g>
        </g>
    </g>
</svg>