<?xml version="1.0" standalone="no"?><!DOCTYPE svg PUBLIC "-//W3C//DTD SVG 1.1//EN" "http://www.w3.org/Graphics/SVG/1.1/DTD/svg11.dtd"><svg t="1657092455052" class="icon" viewBox="0 0 1024 1024" version="1.1" xmlns="http://www.w3.org/2000/svg" p-id="14225" xmlns:xlink="http://www.w3.org/1999/xlink" width="64" height="64"><defs><style type="text/css">@font-face { font-family: feedback-iconfont; src: url("//at.alicdn.com/t/font_1031158_u69w8yhxdu.woff2?t=1630033759944") format("woff2"), url("//at.alicdn.com/t/font_1031158_u69w8yhxdu.woff?t=1630033759944") format("woff"), url("//at.alicdn.com/t/font_1031158_u69w8yhxdu.ttf?t=1630033759944") format("truetype"); }
</style></defs><path d="M531.7632 627.5072a19.0464 19.0464 0 0 1-12.5952-5.4272L393.4208 498.4832a17.8176 17.8176 0 0 1 0.3072-25.856 19.3536 19.3536 0 0 1 13.312-5.2224c4.9152 0 9.8304 1.8432 13.568 5.4784l93.0816 91.4944V274.2784c0-8.8064 6.5536-16.1792 15.2576-17.92L532.7872 256c10.496 0 18.9952 8.192 18.9952 18.2784v291.0208l94.0032-92.416a19.1488 19.1488 0 0 1 9.9328-5.12l3.6864-0.3584c4.8128 0 9.5744 1.7408 13.312 5.2224 7.4752 7.0656 7.6288 18.6368 0.256 25.856l-125.7472 123.5968a19.3024 19.3024 0 0 1-12.3392 5.4784c-0.1024-0.1024-0.1536-0.0512-0.256-0.0512h-2.8672z" p-id="14226"></path><path d="M809.5232 516.8128v189.6448c0 35.9424-30.3104 65.024-67.7888 65.024H323.7888C286.3104 771.4816 256 742.4 256 706.4576v-189.6448h48.384v189.6448c0 10.24 8.704 18.5856 19.4048 18.5856h417.9456a18.9952 18.9952 0 0 0 19.4048-18.5856l-0.0512-189.6448h48.4352z" p-id="14227"></path></svg>