<?xml version="1.0" standalone="no"?><!DOCTYPE svg PUBLIC "-//W3C//DTD SVG 1.1//EN" "http://www.w3.org/Graphics/SVG/1.1/DTD/svg11.dtd"><svg t="1657092488767" class="icon" viewBox="0 0 1024 1024" version="1.1" xmlns="http://www.w3.org/2000/svg" p-id="15423" xmlns:xlink="http://www.w3.org/1999/xlink" width="64" height="64"><defs><style type="text/css">@font-face { font-family: feedback-iconfont; src: url("//at.alicdn.com/t/font_1031158_u69w8yhxdu.woff2?t=1630033759944") format("woff2"), url("//at.alicdn.com/t/font_1031158_u69w8yhxdu.woff?t=1630033759944") format("woff"), url("//at.alicdn.com/t/font_1031158_u69w8yhxdu.ttf?t=1630033759944") format("truetype"); }
</style></defs><path d="M920.722389 0.500598a103.948788 103.948788 0 0 1 39.500539 7.556277c12.393894 5.037518 23.244548 12.201988 32.535971 21.493411a105.132205 105.132205 0 0 1 22.077123 32.535971c5.421329 12.393894 8.131994 25.947217 8.131994 40.667964v817.996998c0 29.433499-9.491324 53.837476-28.465976 73.203935-18.974652 19.366459-42.794916 29.049688-71.460793 29.049688H103.884819c-30.984735 0-55.972424-10.075036-74.947076-30.217113-18.974652-20.134081-28.465976-45.313675-28.465975-75.522792V101.586796c0-27.106645 9.299418-50.735004 27.890259-70.869085C46.952868 10.559642 71.740656 0.500598 102.72539 0.500598h817.996999zM651.151198 871.951262c13.94513 0 24.01217-3.294377 30.209117-9.875135 6.196947-6.588754 9.299418-15.30446 9.299419-26.147118 0-10.075036-3.102472-18.590841-9.299419-25.563406-6.196947-6.972565-16.263987-10.450851-30.209117-10.450851H580.274117c0.775618-1.551236 1.159429-3.878089 1.159429-6.972565V216.618124h72.044506c13.937134 0 23.620363-3.486282 29.049688-10.458847 5.421329-6.972565 8.131994-15.496365 8.131994-25.563406 0-10.075036-2.718661-18.590841-8.131994-25.563406-5.429325-6.972565-15.112555-10.458847-29.049688-10.458847H369.961731c-13.937134 0-23.620363 3.486282-29.041692 10.458847-5.421329 6.972565-8.13999 15.496365-8.139989 25.563406 0 10.075036 2.718661 18.590841 8.139989 25.563406 5.421329 6.972565 15.104558 10.458847 29.041692 10.458847h65.071942v576.316067c0 1.54324 0.191905 2.710665 0.583712 3.486282 0.383811 0.767622 0.575716 1.935047 0.575716 3.486283H372.296581c-13.94513 0-24.01217 3.478286-30.209117 10.450851-6.196947 6.972565-9.299418 15.496365-9.299418 25.563406 0 10.842658 3.102472 19.558364 9.299418 26.147118 6.196947 6.580758 16.263987 9.875135 30.209117 9.875135h278.862613z" p-id="15424"></path></svg>