<?xml version="1.0" standalone="no"?><!DOCTYPE svg PUBLIC "-//W3C//DTD SVG 1.1//EN" "http://www.w3.org/Graphics/SVG/1.1/DTD/svg11.dtd"><svg t="1658997663953" class="icon" viewBox="0 0 1024 1024" version="1.1" xmlns="http://www.w3.org/2000/svg" p-id="1818" xmlns:xlink="http://www.w3.org/1999/xlink" width="64" height="64"><defs><style type="text/css">@font-face { font-family: feedback-iconfont; src: url("//at.alicdn.com/t/font_1031158_u69w8yhxdu.woff2?t=1630033759944") format("woff2"), url("//at.alicdn.com/t/font_1031158_u69w8yhxdu.woff?t=1630033759944") format("woff"), url("//at.alicdn.com/t/font_1031158_u69w8yhxdu.ttf?t=1630033759944") format("truetype"); }
</style></defs><path d="M538.885547 810.666667H293.040213A81.493333 81.493333 0 0 1 213.33888 728.234667V295.893333A81.621333 81.621333 0 0 1 293.08288 213.333333h412.330667a81.792 81.792 0 0 1 80.725333 82.56V461.226667a23.424 23.424 0 0 1-46.848 0V295.893333a34.816 34.816 0 0 0-33.877333-35.754666H293.040213a34.816 34.816 0 0 0-32.938666 35.754666v432.341334a34.645333 34.645333 0 0 0 33.706666 35.626666H538.885547a23.424 23.424 0 0 1 0 46.805334z" p-id="1819"></path><path d="M650.33088 804.693333a19.498667 19.498667 0 0 1-19.498667-17.749333c-4.864-59.946667-4.864-59.946667-1.28-66.005333l112.725334-187.306667a18.901333 18.901333 0 0 1 11.861333-8.746667 23.424 23.424 0 0 1 16.512 1.706667l54.016 32.298667a19.2 19.2 0 0 1 8.917333 12.032v0.938666a20.906667 20.906667 0 0 1-2.048 15.616l-112.512 187.306667c-3.925333 6.4-3.925333 6.4-61.525333 28.544a18.56 18.56 0 0 1-7.168 1.408z m15.616-68.650666c0 4.864 0 12.672 1.536 21.546666l21.077333-8.277333 99.882667-165.76-22.442667-13.568-100.053333 166.058667z m-39.04-319.786667H371.54688a23.424 23.424 0 1 1 0-46.848h255.36a23.424 23.424 0 1 1 0 46.848zM566.49088 530.474667H371.54688a23.424 23.424 0 1 1 0-46.805334h194.986667a23.424 23.424 0 1 1 0 46.805334zM509.872213 644.608H371.54688a23.424 23.424 0 1 1 0-46.848H509.872213a23.424 23.424 0 0 1 0 46.848z" p-id="1820"></path></svg>