<?xml version="1.0" standalone="no"?><!DOCTYPE svg PUBLIC "-//W3C//DTD SVG 1.1//EN" "http://www.w3.org/Graphics/SVG/1.1/DTD/svg11.dtd"><svg class="icon" width="64px" height="64.00px" viewBox="0 0 1024 1024" version="1.1" xmlns="http://www.w3.org/2000/svg"><path d="M358.4 360.533333q0 32.682667 23.125333 55.808t55.808 23.125334q32.682667 0 55.808-23.125334T516.266667 360.533333q0-78.933333-78.933334-78.933333T358.4 360.533333z m-51.2 0q0-53.888 38.101333-92.032 38.144-38.101333 92.032-38.101333t92.032 38.101333q38.101333 38.144 38.101334 92.032t-38.101334 92.032q-38.144 38.101333-92.032 38.101334t-92.032-38.101334Q307.2 414.421333 307.2 360.533333zM627.328 428.202667q38.272-23.04 38.272-67.669334t-38.272-67.669333l26.453333-43.861333q63.018667 37.973333 63.018667 111.530666 0 73.557333-63.061333 111.530667l-26.410667-43.861333z m38.826667 21.930666q0 2.56-0.512 4.992-0.469333 2.474667-1.450667 4.821334-0.981333 2.304-2.346667 4.394666-1.408 2.133333-3.2 3.882667-1.792 1.792-3.84 3.2-2.133333 1.408-4.48 2.346667-2.304 0.981333-4.778666 1.450666-2.474667 0.512-4.992 0.512-2.56 0-4.992-0.512-2.474667-0.469333-4.821334-1.450666-2.304-0.938667-4.437333-2.346667-2.090667-1.408-3.84-3.2-1.792-1.792-3.2-3.84-1.408-2.133333-2.389333-4.437333-0.938667-2.346667-1.450667-4.821334-0.469333-2.474667-0.469333-4.992 0-2.56 0.469333-4.992 0.512-2.474667 1.450667-4.821333 0.981333-2.304 2.389333-4.394667 1.408-2.133333 3.157333-3.882666 1.792-1.792 3.882667-3.2 2.133333-1.408 4.437333-2.346667 2.346667-0.981333 4.821334-1.450667 2.474667-0.512 4.992-0.512 2.517333 0 4.992 0.512 2.474667 0.469333 4.778666 1.450667 2.346667 0.938667 4.437334 2.346667 2.133333 1.408 3.882666 3.2 1.792 1.792 3.2 3.84 1.365333 2.133333 2.346667 4.437333 0.981333 2.346667 1.450667 4.821333 0.512 2.474667 0.512 4.992z m0-179.2q0 2.56-0.512 4.992-0.469333 2.474667-1.450667 4.821334-0.981333 2.304-2.346667 4.394666-1.408 2.133333-3.2 3.882667-1.792 1.792-3.84 3.2-2.133333 1.408-4.48 2.346667-2.304 0.981333-4.778666 1.450666-2.474667 0.512-4.992 0.512-2.56 0-4.992-0.512-2.474667-0.469333-4.821334-1.450666-2.304-0.938667-4.437333-2.346667-2.090667-1.408-3.84-3.2-1.792-1.792-3.2-3.84-1.408-2.133333-2.389333-4.437333-0.938667-2.346667-1.450667-4.821334-0.469333-2.474667-0.469333-4.992 0-2.56 0.469333-4.992 0.512-2.474667 1.450667-4.821333 0.981333-2.304 2.389333-4.394667 1.408-2.133333 3.157333-3.882666 1.792-1.792 3.882667-3.2 2.133333-1.408 4.437333-2.346667 2.346667-0.981333 4.821334-1.450667 2.474667-0.512 4.992-0.512 2.517333 0 4.992 0.512 2.474667 0.469333 4.778666 1.450667 2.346667 0.938667 4.437334 2.346667 2.133333 1.408 3.882666 3.2 1.792 1.792 3.2 3.84 1.365333 2.133333 2.346667 4.437333 0.981333 2.346667 1.450667 4.821333 0.512 2.474667 0.512 4.992zM249.173333 661.376q-10.24 20.053333-10.24 114.304v17.92H213.333333V768h448v25.6h-25.6v-17.92q0-94.208-10.24-114.304-13.824-27.178667-41.002666-41.002667-20.053333-10.24-114.304-10.24H404.48q-94.208 0-114.304 10.24-27.178667 13.824-41.002667 41.002667z m-45.653333-23.253333q21.418667-41.984 63.402667-63.36 31.061333-15.829333 137.557333-15.829334h65.706667q106.496 0 137.557333 15.786667 41.984 21.418667 63.402667 63.402667 15.786667 31.061333 15.786666 137.557333v17.92q0 2.56-0.512 4.992-0.469333 2.474667-1.450666 4.821333-0.938667 2.304-2.346667 4.394667-1.408 2.133333-3.2 3.882667-1.749333 1.792-3.84 3.2-2.133333 1.408-4.437333 2.346666-2.346667 0.981333-4.821334 1.450667-2.474667 0.512-4.992 0.512H213.333333q-2.56 0-4.992-0.512-2.474667-0.469333-4.821333-1.450667-2.304-0.938667-4.394667-2.346666-2.133333-1.408-3.882666-3.2-1.792-1.749333-3.2-3.84-1.408-2.133333-2.346667-4.437334-0.981333-2.346667-1.450667-4.821333Q187.733333 796.16 187.733333 793.6v-17.92q0-106.496 15.786667-137.557333zM757.077333 574.72q41.984 21.418667 63.36 63.402667 15.829333 31.061333 15.829334 137.557333v17.92h-51.2v-17.92q0-94.208-10.24-114.304-13.824-27.178667-41.002667-41.002667l23.253333-45.653333z m13.952 22.826667q0 2.56-0.469333 4.992-0.512 2.474667-1.493333 4.821333-0.938667 2.304-2.346667 4.437333-1.408 2.090667-3.2 3.84-1.749333 1.792-3.84 3.2-2.133333 1.408-4.437333 2.389334-2.346667 0.938667-4.821334 1.450666-2.474667 0.469333-4.992 0.469334-2.517333 0-4.992-0.469334-2.474667-0.512-4.778666-1.450666-2.346667-0.981333-4.437334-2.389334-2.133333-1.408-3.882666-3.157333-1.792-1.792-3.2-3.882667-1.408-2.133333-2.346667-4.437333-0.981333-2.346667-1.450667-4.821333-0.512-2.474667-0.512-4.992 0-2.517333 0.512-4.992 0.469333-2.474667 1.450667-4.778667 0.938667-2.346667 2.346667-4.437333 1.408-2.133333 3.2-3.882667 1.792-1.792 3.84-3.2 2.133333-1.365333 4.48-2.346667 2.304-0.981333 4.778666-1.450666 2.474667-0.512 4.992-0.512 2.56 0 4.992 0.512 2.474667 0.469333 4.821334 1.450666 2.304 0.981333 4.437333 2.346667 2.090667 1.408 3.84 3.2 1.792 1.792 3.2 3.84 1.408 2.133333 2.346667 4.48 0.981333 2.304 1.493333 4.778667 0.469333 2.474667 0.469333 4.992zM836.266667 793.6q0 2.56-0.512 4.992-0.469333 2.474667-1.450667 4.821333-0.938667 2.304-2.346667 4.394667-1.408 2.133333-3.2 3.882667-1.792 1.792-3.84 3.2-2.133333 1.408-4.437333 2.346666-2.346667 0.981333-4.821333 1.493334-2.474667 0.469333-4.992 0.469333-2.56 0-4.992-0.469333-2.474667-0.512-4.821334-1.493334-2.304-0.938667-4.394666-2.346666-2.133333-1.408-3.882667-3.2-1.792-1.749333-3.2-3.84-1.408-2.133333-2.346667-4.437334-0.981333-2.346667-1.450666-4.821333-0.512-2.474667-0.512-4.992 0-2.517333 0.512-4.992 0.469333-2.474667 1.450666-4.821333 0.938667-2.304 2.346667-4.394667 1.408-2.133333 3.2-3.882667 1.792-1.792 3.84-3.2 2.133333-1.408 4.437333-2.346666 2.346667-0.981333 4.821334-1.450667Q808.106667 768 810.666667 768q2.56 0 4.992 0.512 2.474667 0.469333 4.821333 1.450667 2.304 0.938667 4.394667 2.346666 2.133333 1.408 3.882666 3.2 1.792 1.792 3.2 3.84 1.408 2.133333 2.346667 4.437334 0.981333 2.346667 1.450667 4.821333 0.512 2.474667 0.512 4.992z" /></svg>