<?xml version="1.0" encoding="UTF-8"?>
<svg width="42px" height="41px" viewBox="0 0 42 41" version="1.1" xmlns="http://www.w3.org/2000/svg" xmlns:xlink="http://www.w3.org/1999/xlink">
    <title>编组</title>
    <defs>
        <polygon id="path-1" points="0 0 12.4532638 0 12.4532638 3.11466135 0 3.11466135"></polygon>
        <polygon id="path-3" points="0 0 12.4530805 0 12.4530805 3.11466135 0 3.11466135"></polygon>
        <polygon id="path-5" points="0 0 33 0 33 18.0309902 0 18.0309902"></polygon>
    </defs>
    <g id="首页" stroke="none" stroke-width="1" fill="none" fill-rule="evenodd">
        <g id="登录注册页" transform="translate(-1102.000000, -693.000000)">
            <g id="编组" transform="translate(1102.000000, 693.000000)">
                <g transform="translate(8.550070, 36.885339)">
                    <mask id="mask-2" fill="white">
                        <use xlink:href="#path-1"></use>
                    </mask>
                    <g id="Clip-2"></g>
                    <path d="M12.4532638,2.68969717 C8.99860158,2.68969717 5.82762146,1.6111451 3.78603669,0 C2.74919089,0.288824734 1.42306042,0.75410257 0.585966492,1.33072803 C-0.130134262,1.82381582 -0.0409246891,2.32692813 0.0883106761,2.52989771 C0.654974622,3.42213385 9.81005314,3.09957068 12.4532638,2.82168668 L12.4532638,2.68969717 Z" id="Fill-1" fill="#FAAD08" mask="url(#mask-2)"></path>
                </g>
                <g transform="translate(20.380693, 36.885339)">
                    <mask id="mask-4" fill="white">
                        <use xlink:href="#path-3"></use>
                    </mask>
                    <g id="Clip-4"></g>
                    <path d="M0,2.68969717 C3.45444677,2.68969717 6.62542688,1.6111451 8.66701166,0 C9.70380358,0.288824734 11.0299879,0.75410257 11.8670819,1.33072803 C12.5831826,1.82381582 12.4939192,2.32692813 12.3649531,2.52989771 C11.7980199,3.42213385 2.6429952,3.09957068 0,2.82168668 L0,2.68969717 Z" id="Fill-3" fill="#FAAD08" mask="url(#mask-4)"></path>
                </g>
                <path d="M20.4012769,18.9950906 C26.0871481,18.9572022 30.6438395,17.8832851 32.1879839,17.4713097 C32.5560273,17.3730047 32.6701789,17.2326614 32.6701789,17.2326614 C32.6714179,17.1821616 32.7763577,16.2935903 32.7763577,15.8535894 C32.7763577,8.44487654 29.1927294,1.00043116 20.3802674,1 C11.5675899,1.00043116 7.98390773,8.44487654 7.98390773,15.8535894 C7.98390773,16.2935903 8.13388325,17.1342487 8.13517614,17.1847486 C8.13517614,17.1847486 8.28455908,17.3595309 8.57809951,17.4392959 C10.0037827,17.8264795 14.5293908,18.9563938 20.3594195,18.9950906 L20.4012769,18.9950906 Z" id="Fill-5" fill="#000000"></path>
                <g transform="translate(4.000000, 21.567102)">
                    <mask id="mask-6" fill="white">
                        <use xlink:href="#path-5"></use>
                    </mask>
                    <g id="Clip-8"></g>
                    <path d="M31.8604124,3.70029276 C31.5104695,2.57544465 30.8176408,1.29333015 30.3338836,0.0337438749 C30.3338836,0.0337438749 30.0556962,-0.000533514632 29.9151481,0.0400496211 C25.5749623,1.29947421 20.5295037,2.07249402 16.5207832,2.02409607 L16.4793029,2.02409607 C12.4928848,2.07190117 7.26809135,1.27861674 2.94245062,0.0316419595 C2.77728362,-0.0159475609 2.45088217,0.00426316409 2.45088217,0.00426316409 C1.96734043,1.26384944 1.4896167,2.57544465 1.13967384,3.70029276 C-0.528803748,9.06330294 0.0115713866,11.28271 0.423357602,11.3324015 C1.30656469,11.4391141 3.86164321,7.29526872 3.86164321,7.29526872 C3.86164321,11.5058364 7.66791831,17.9715977 16.384437,18.0309902 C16.4614179,18.0307747 16.5384528,18.0307747 16.6157031,18.0309902 C25.3319524,17.9715977 29.138443,11.506052 29.138443,7.29526872 C29.138443,7.29526872 31.693306,11.4391141 32.5767286,11.332617 C32.9882993,11.28271 33.5288899,9.06330294 31.8604124,3.70029276" id="Fill-7" fill="#000000" mask="url(#mask-6)"></path>
                </g>
                <path d="M26.6037664,9.18345728 C26.5393911,10.9015306 25.5118649,12.2529544 24.3094211,12.199652 C23.1074622,12.1461879 22.1861687,10.7095556 22.2518368,8.99040443 C22.317074,7.2714149 23.3439538,5.92047615 24.5453201,5.97329351 C25.748141,6.0269732 26.669219,7.46403659 26.6039818,9.18345728 M17.6970309,12.199652 C16.494641,12.25317 15.4671148,10.9015306 15.4026857,9.18345728 C15.337233,7.46403659 16.2585266,6.0269732 17.4611319,5.97329351 C18.6624983,5.92047615 19.6894319,7.2714149 19.7546152,8.99018885 C19.8204989,10.7095556 18.8990437,12.1464035 17.6970309,12.199652" id="Fill-9" fill="#FFFFFF"></path>
                <path d="M28.45222,14.4291914 C28.1365387,13.6700226 24.9588248,12.8240825 21.0243918,12.8240825 L20.9823189,12.8240825 C17.047832,12.8240825 13.8699025,13.6700226 13.5544907,14.4291914 C13.5392992,14.4632532 13.5315418,14.499902 13.5313264,14.5371436 C13.5313264,14.5919012 13.5483494,14.6411614 13.5746921,14.6832536 C13.8406509,15.1041218 17.3696005,17.1847486 20.9823189,17.1847486 L21.0246072,17.1847486 C24.6370562,17.1847486 28.1660059,15.1043374 28.4320185,14.6832536 C28.4599773,14.6394907 28.4748994,14.5887752 28.4751149,14.5369819 C28.4751149,14.4982312 28.4664956,14.4620136 28.45222,14.4291914" id="Fill-11" fill="#FAAD08"></path>
                <path d="M22.2802266,9.9314104 C22.389476,9.75393328 23.1348284,8.82046727 24.677249,9.16027692 C25.0823553,9.24952748 25.2698247,9.38092414 25.3094195,9.43271749 C25.3677074,9.5089254 25.3837069,9.61752436 25.3245571,9.76385001 C25.2073349,10.0539682 24.965133,10.0459378 24.8308877,9.98934781 C24.7443717,9.95269903 23.6699243,9.30428507 22.680269,10.2718668 C22.612069,10.3383736 22.4904832,10.3613329 22.3749309,10.2821608 C22.2594326,10.2032042 22.2116494,10.0428119 22.2802266,9.9314104 M19.1300944,9.58933714 C19.184342,10.2743999 18.8120967,10.8828235 18.2997342,10.9493303 C17.7866715,11.015891 17.3271021,10.5146111 17.2723696,9.82933276 C17.2189301,9.14383887 17.5905828,8.5354152 18.1021372,8.46950129 C18.6162235,8.40277895 19.0764393,8.90448999 19.1300944,9.58933714" id="Fill-13" fill="#000000"></path>
                <path d="M20.7116788,23.7366344 L20.6700369,23.7366344 C17.930398,23.7690255 14.608742,23.4130472 11.3918642,22.7915809 C11.1166398,24.3549748 10.9501799,26.3199962 11.0930445,28.6638475 C11.4537615,34.5872607 15.0415916,38.3104535 20.5793189,38.3647799 L20.8044977,38.3647799 C26.342225,38.3104535 29.9300552,34.5872607 30.2907183,28.6638475 C30.4336367,26.3198345 30.2671769,24.3547592 29.9917369,22.7911498 C26.7744282,23.4130472 23.4521258,23.7692411 20.7116788,23.7366344" id="Fill-15" fill="#FFFFFF"></path>
                <path d="M12.9086425,23.270408 L12.9086425,29.1975939 C12.9086425,29.1975939 15.7082393,29.7453854 18.5126844,29.3660166 L18.5126844,23.8988268 C16.7359809,23.8013303 14.8198067,23.5838629 12.9086425,23.270408" id="Fill-17" fill="#EB1C26"></path>
                <path d="M32.6291835,17.1128846 C32.6291835,17.1128846 27.3723909,18.8541868 20.4010075,18.9038782 L20.3595272,18.9038782 C13.3995106,18.8544024 8.14902086,17.1188131 8.13113585,17.1128846 L6.37043194,21.7241097 C10.7743465,23.1171946 16.232561,24.0150897 20.3595272,23.9630808 L20.4007921,23.9628652 C24.5279738,24.0153053 29.9855418,23.1174101 34.3898335,21.7241097 L32.6291835,17.1128846 Z" id="Fill-19" fill="#EB1C26"></path>
            </g>
        </g>
    </g>
</svg>