<?xml version="1.0" standalone="no"?><!DOCTYPE svg PUBLIC "-//W3C//DTD SVG 1.1//EN" "http://www.w3.org/Graphics/SVG/1.1/DTD/svg11.dtd"><svg t="1662519756190" class="icon" viewBox="0 0 1087 1024" version="1.1" xmlns="http://www.w3.org/2000/svg" p-id="1288" xmlns:xlink="http://www.w3.org/1999/xlink" width="67.9375" height="64"><path d="M709.75390625 416.31119792q0 3.95507813-8.30566406 13.84277344t-17.79785157 23.33496093-17.79785156 29.26757813-8.30566406 32.43164063 8.30566406 32.03613281 17.79785156 28.08105469 17.79785157 20.96191406 8.30566406 10.67871095l0 83.05664061q0 13.44726563-9.88769531 30.45410156t-24.52148438 32.03613282-32.43164062 24.91699218-33.61816406 9.88769532l-393.13476563 0q-21.35742188 0-39.15527344-7.51464844t-31.24511718-20.96191407-20.96191407-31.64062499-7.51464843-39.55078125l0-340.92773438q0-15.8203125 7.11914062-32.82714844t20.17089844-31.24511718 30.84960937-23.73046875 39.15527344-9.4921875l393.13476563 0q21.35742188 0 39.94628906 7.51464843t32.43164062 20.56640625 21.7529297 31.24511719 7.91015624 38.75976563l0 68.81835937zM955.75976563 341.95572917l-1e-8 361.49414063q0 17.40234375-9.09667968 30.84960937t-27.29003907 13.44726562q-6.328125 0-16.21582031-4.74609375t-19.77539062-11.07421875-18.58886719-12.65625-12.65625-10.28320312q-10.28320313-8.70117188-31.24511719-30.05859375t-42.31933594-48.25195313-37.57324219-55.37109375-16.21582032-52.20703125 17.40234376-54.18457031 41.92382813-59.72167969 51.41601563-54.18457031 45.08789062-37.57324219q7.11914063-4.74609375 19.37988281-11.46972656t21.75292969-6.72363281q21.35742188 0 27.68554688 11.86523437t6.32812499 29.26757813l0 1.58203125z" p-id="1289"></path></svg>