<?xml version="1.0" encoding="UTF-8"?><svg version="1.1" width="14px" height="14px" viewBox="0 0 14.0 14.0" xmlns="http://www.w3.org/2000/svg" xmlns:xlink="http://www.w3.org/1999/xlink"><defs><clipPath id="i0"><path d="M1124,0 L1124,915 L0,915 L0,0 L1124,0 Z"></path></clipPath><clipPath id="i1"><path d="M2.39397284,0.606027156 C2.72878067,0.271219333 3.27151886,0.270919477 3.60669643,0.605357143 L5.57109357,2.57109357 C5.73849748,2.73849748 5.7386474,3.00986657 5.57142857,3.17745536 L5.50394458,3.232641 C5.33779521,3.342343 5.11200577,3.32405934 4.96573642,3.17778999 L3.42857143,1.640625 L3.42857143,6.42857143 C3.42857143,6.66526489 3.23669346,6.85714286 3,6.85714286 C2.76330654,6.85714286 2.57142857,6.66526489 2.57142857,6.42857143 L2.57142857,1.640625 L0.908138824,3.30278172 C0.740900434,3.46990618 0.46986001,3.46986001 0.302678571,3.30267857 C0.135513812,3.13551381 0.135513812,2.86448619 0.302678571,2.69732143 Z"></path></clipPath><clipPath id="i2"><path d="M6,0 C9.31339286,0 12,2.68660714 12,6 C12,9.31339286 9.31339286,12 6,12 C2.68660714,12 0,9.31339286 0,6 C0,2.68660714 2.68660714,0 6,0 Z M6,0.857142857 C5.30491071,0.857142857 4.63125,0.992410714 3.99776786,1.26160714 C3.38571429,1.52008929 2.83526786,1.89107143 2.3625,2.36383929 C1.88973214,2.83660714 1.51875,3.38705357 1.26026786,3.99910714 C0.991071429,4.63258929 0.855803571,5.30625 0.855803571,6.00133929 C0.855803571,6.69642857 0.992410714,7.37008929 1.26026786,8.00357143 C1.51875,8.615625 1.88973214,9.16607143 2.3625,9.63883929 C2.83526786,10.1116071 3.38571429,10.4825893 3.99776786,10.7410714 C4.63125,11.0102679 5.30491071,11.1455357 6,11.1455357 C6.69508929,11.1455357 7.36875,11.0089286 8.00223214,10.7410714 C8.61428571,10.4825893 9.16473214,10.1116071 9.6375,9.63883929 C10.1102679,9.16607143 10.48125,8.615625 10.7397321,8.00357143 C11.0089286,7.37008929 11.1441964,6.69642857 11.1441964,6.00133929 C11.1441964,5.30625 11.0075893,4.63258929 10.7397321,3.99910714 C10.48125,3.38705357 10.1102679,2.83660714 9.6375,2.36383929 C9.16473214,1.89107143 8.61428571,1.52008929 8.00223214,1.26160714 C7.36875,0.992410714 6.69508929,0.857142857 6,0.857142857 Z"></path></clipPath></defs><g transform="translate(-610.0 -450.0)"><g clip-path="url(#i0)"><g transform="translate(610.0 450.0)"><g transform="translate(1.0 1.0)"><g transform="translate(3.0 2.1428571428571423)"><g clip-path="url(#i1)"><polygon points="0.177305002,0.354724959 5.69674466,0.354724959 5.69674466,6.85714286 0.177305002,6.85714286 0.177305002,0.354724959" stroke="none" fill="#FFFFFF"></polygon></g></g><g clip-path="url(#i2)"><polygon points="0,0 12,0 12,12 0,12 0,0" stroke="none" fill="#FFFFFF"></polygon></g></g></g></g></g></svg>