<?xml version="1.0" standalone="no"?><!DOCTYPE svg PUBLIC "-//W3C//DTD SVG 1.1//EN" "http://www.w3.org/Graphics/SVG/1.1/DTD/svg11.dtd"><svg t="1662522715787" class="icon" viewBox="0 0 1024 1024" version="1.1" xmlns="http://www.w3.org/2000/svg" p-id="1060" xmlns:xlink="http://www.w3.org/1999/xlink" width="64" height="64"><path d="M833.76208497 234.56774902c-59.57336426-59.57336426-156.22558594-59.57336426-215.88134767 1e-8L337.31738281 515.13110352c-35.76049805 35.76049805-35.76049805 93.76831055 0 129.52880859 35.76049805 35.76049805 93.76831055 35.76049805 129.5288086 0l215.88134765-215.88134766c11.94763184-11.94763184 11.94763184-31.2286377 0-43.17626953s-31.2286377-11.94763184-43.17626953 0l-215.88134766 215.88134766c-11.94763184 11.94763184-31.2286377 11.94763184-43.17626953 0s-11.94763184-31.2286377 0-43.17626953L661.1394043 277.66162109c35.76049805-35.76049805 93.76831055-35.76049805 129.52880859 0 35.76049805 35.76049805 35.76049805 93.76831055 0 129.5288086l-323.82202148 323.82202148c-59.57336426 59.57336426-156.22558594 59.57336426-215.88134766 0-59.57336426-59.57336426-59.57336426-156.22558594 0-215.88134765l259.05761719-259.05761719c11.94763184-11.94763184 11.94763184-31.2286377 0-43.17626953s-31.2286377-11.94763184-43.17626953 0L207.78857422 471.95483398c-83.46862793 83.46862793-83.46862793 218.76525879 0 302.23388672 83.46862793 83.46862793 218.76525879 83.46862793 302.23388672 0l323.82202148-323.82202148c59.57336426-59.57336426 59.57336426-156.22558594-0.08239746-215.7989502z m-1e-8 1e-8" p-id="1061"></path></svg>