<?xml version="1.0" standalone="no"?><!DOCTYPE svg PUBLIC "-//W3C//DTD SVG 1.1//EN" "http://www.w3.org/Graphics/SVG/1.1/DTD/svg11.dtd"><svg t="1657092518044" class="icon" viewBox="0 0 1024 1024" version="1.1" xmlns="http://www.w3.org/2000/svg" p-id="16622" xmlns:xlink="http://www.w3.org/1999/xlink" width="64" height="64"><defs><style type="text/css">@font-face { font-family: feedback-iconfont; src: url("//at.alicdn.com/t/font_1031158_u69w8yhxdu.woff2?t=1630033759944") format("woff2"), url("//at.alicdn.com/t/font_1031158_u69w8yhxdu.woff?t=1630033759944") format("woff"), url("//at.alicdn.com/t/font_1031158_u69w8yhxdu.ttf?t=1630033759944") format("truetype"); }
</style></defs><path d="M678.4 204.8c28.2624 0 51.2 22.9376 51.2 51.2l0.0512 171.6736a228.8128 228.8128 0 0 0-57.6-15.872V262.4h-409.6v499.2h181.9136c13.6704 22.016 30.8736 41.472 50.8928 57.6512H256c-28.2624 0-51.2-22.9888-51.2-51.2V256C204.8 227.6864 227.7376 204.8 256 204.8z" p-id="16623"></path><path d="M640 460.8l9.8304 0.256A179.2 179.2 0 1 1 640.0512 460.8z m0.1024 53.0432c-33.7408 0-65.9968 13.312-89.2416 36.864a125.5424 125.5424 0 0 0-36.9152 89.2416c-0.2048 33.28 13.0048 65.2288 36.864 89.2416 23.2448 23.552 55.5008 36.9152 89.2416 36.9152s65.9456-13.312 89.2416-36.9152a125.1328 125.1328 0 0 0 36.864-89.1904 125.2864 125.2864 0 0 0-36.864-89.1904 125.2864 125.2864 0 0 0-89.1904-36.9664z" p-id="16624"></path><path d="M613.0176 566.016a7.68 7.68 0 0 0-5.5296 2.4064 8.192 8.192 0 0 0-2.2528 5.7856v88.1152a8.192 8.192 0 0 0 3.1744 6.6048l68.352 53.3504a7.424 7.424 0 0 0 10.8032-1.7408l17.8688-25.8048a8.6016 8.6016 0 0 0-1.7408-11.5712l-52.8384-40.8064v-68.096a8.192 8.192 0 0 0-2.2016-5.8368 7.68 7.68 0 0 0-5.5296-2.4064h-30.1056z" p-id="16625"></path></svg>