<?xml version="1.0" standalone="no"?><!DOCTYPE svg PUBLIC "-//W3C//DTD SVG 1.1//EN" "http://www.w3.org/Graphics/SVG/1.1/DTD/svg11.dtd"><svg class="icon" width="64px" height="64.00px" viewBox="0 0 1024 1024" version="1.1" xmlns="http://www.w3.org/2000/svg"><path d="M457.301333 256h-179.626666C242.133333 256 213.333333 284.8 213.333333 320.341333v385.962667c0 35.541333 28.8 64.341333 64.341334 64.341333h468.650666c35.541333 0 64.341333-28.8 64.341334-64.341333V384.64c0-35.541333-28.8-64.298667-64.341334-64.298667h-211.370666L480.042667 265.386667a32.170667 32.170667 0 0 0-22.741334-9.386667zM259.285333 706.304V320.341333c0-10.154667 8.234667-18.389333 18.346667-18.389333h173.994667l64.298666 64.341333h230.4c10.154667 0 18.389333 8.234667 18.389334 18.346667v321.664c0 10.112-8.234667 18.346667-18.346667 18.346667H277.632a18.432 18.432 0 0 1-18.389333-18.346667zM457.301333 251.733333h-179.626666Q209.066667 251.733333 209.066667 320.341333v385.962667q0 68.608 68.608 68.608h468.650666q28.416 0 48.512-20.096t20.096-48.512V384.64q0-68.565333-68.608-68.565333h-211.370666v4.266666l3.029333-3.029333-54.912-54.912q-10.666667-10.666667-25.770667-10.666667z m0 8.533334q11.562667 0 19.712 8.149333l56.192 56.192h213.12q60.074667 0 60.074667 60.032v321.664q0 60.074667-60.074667 60.074667H277.674667q-24.917333 0-42.496-17.621334-17.578667-17.578667-17.578667-42.453333V320.341333Q217.6 260.266667 277.674667 260.266667h179.626666zM263.552 706.304V320.341333q0-14.122667 14.08-14.122666h173.994667v-4.266667l-2.986667 2.986667 65.536 65.621333h232.149333q5.845333 0 9.984 4.138667t4.138667 9.941333v321.664q0 14.08-14.08 14.08H277.632q-5.845333 0-9.984-4.138667t-4.138667-9.941333z m-8.533333 0q0 9.386667 6.656 16 6.613333 6.613333 16 6.613333h468.650666q9.386667 0 16-6.613333 6.656-6.656 6.656-16V384.64q0-22.613333-22.613333-22.613333h-230.4v4.266666l2.986667-3.029333-65.578667-65.578667H277.674667q-22.656 0-22.656 22.613334v386.005333z" /></svg>