<?xml version="1.0" encoding="UTF-8"?><svg version="1.1" width="14px" height="14px" viewBox="0 0 14.0 14.0" xmlns="http://www.w3.org/2000/svg" xmlns:xlink="http://www.w3.org/1999/xlink"><defs><clipPath id="i0"><path d="M1440,0 L1440,1024 L0,1024 L0,0 L1440,0 Z"></path></clipPath><clipPath id="i1"><path d="M0.475035631,0 C0.737390566,0 0.950071263,0.212063061 0.950071263,0.473656103 L0.950071263,12.5751216 C0.950071263,12.8361061 1.16431232,13.0501986 1.42653199,13.0501986 L1.85021377,13.0501986 L1.85021377,5.99567665 C1.85021377,5.47465494 2.2758457,5.05073274 2.79553468,5.05073274 L3.7051779,5.05073274 C4.22724205,5.05073274 4.65049879,5.47607591 4.65049879,5.99567665 L4.65049879,13.0501986 L5.60057006,13.0501986 L5.60057006,8.36395714 C5.60057006,7.84293542 6.02620199,7.41901322 6.54589095,7.41901322 L7.45553417,7.41901322 C7.97759832,7.41901322 8.40085506,7.84435639 8.40085506,8.36395714 L8.40085506,13.0501986 L9.82596194,13.0501986 L9.82596194,10.2585815 C9.82596194,9.73755983 10.2515939,9.31363763 10.7712829,9.31363763 L11.6809261,9.31363763 C12.2029902,9.31363763 12.626247,9.7389808 12.626247,10.2585815 L12.626247,13.0501986 L13.5249644,13.0501986 C13.7873193,13.0501986 14,13.2622617 14,13.5238547 C14,13.7854478 13.7873193,13.9975108 13.5249644,13.9975108 L12.20014,13.9975108 C12.1676058,14.0008297 12.1348169,14.0008297 12.1022827,13.9975108 L10.3499262,13.9975108 C10.317392,14.0008297 10.2846031,14.0008297 10.2520689,13.9975108 L1.42653199,13.9975108 C0.639005747,13.9967275 0.000785562923,13.3603608 0,12.5751216 L0,0.473656103 C0,0.212063061 0.212680697,0 0.475035631,0 Z M10.7760332,10.2595288 L10.7760332,13.0501986 L11.6761757,13.0501986 L11.6761757,10.2609498 L10.8544829,10.2601715 C10.80579,10.2599986 10.7760332,10.2597872 10.7760332,10.2595288 Z M6.5506413,8.36490446 L6.5506413,13.0501986 L7.45078382,13.0501986 L7.45078382,8.36632542 L6.93950829,8.36609482 C6.89893086,8.36605639 6.85902973,8.36601155 6.82115747,8.36595924 L6.5716063,8.36525783 C6.55808049,8.36515107 6.5506413,8.36503363 6.5506413,8.36490446 Z M2.80028503,5.99662395 L2.80028503,13.0501986 L3.70042753,13.0501986 L3.70042753,5.99804492 L3.53608897,5.9980161 C3.50362703,5.99800649 3.46778364,5.99799368 3.42991138,5.99797659 L2.87873471,5.99726664 C2.83004181,5.99709369 2.80028503,5.99688231 2.80028503,5.99662395 Z M3.74518089,0.940681024 L6.83176239,3.86932244 L9.0374033,2.49810536 C9.2205717,2.32808986 9.50460961,2.32891858 9.68677701,2.5 L11.9635723,4.92995043 L12.6780258,4.24220178 C12.7427531,4.17972531 12.8373577,4.15913875 12.9223053,4.189045 C13.0072529,4.21895126 13.0679206,4.2942022 13.0789559,4.38335129 L13.373478,6.73268553 C13.3829499,6.8067047 13.3568814,6.88084612 13.3031293,6.93276434 C13.2493772,6.98468256 13.1742286,7.00830496 13.1003325,6.99651199 L10.7550816,6.62042903 C10.6663246,6.60615281 10.5932586,6.54313192 10.5663107,6.45761021 C10.5393628,6.3720885 10.5631521,6.27872548 10.6277721,6.21640039 L11.279521,5.58880605 L9.35947745,3.49373049 L7.14718604,4.87063144 C6.96140316,5.04342628 6.67215064,5.03987851 6.49068681,4.86257928 L3.08013102,1.61706193 C2.89729547,1.43315246 2.89647575,1.13692707 3.0782907,0.952014382 C3.26010564,0.767101693 3.55715178,0.76205359 3.74518089,0.940681024 Z"></path></clipPath></defs><g transform="translate(-847.0 -459.0)"><g clip-path="url(#i0)"><g transform="translate(743.0 302.0)"><g transform="translate(104.0 154.0)"><g transform="translate(0.0 3.000000000000048)"><g clip-path="url(#i1)"><polygon points="0,0 14,0 14,14 0,14 0,0" stroke="none" fill="#9D9DA1"></polygon></g></g></g></g></g></g></svg>