<?xml version="1.0" standalone="no"?><!DOCTYPE svg PUBLIC "-//W3C//DTD SVG 1.1//EN" "http://www.w3.org/Graphics/SVG/1.1/DTD/svg11.dtd"><svg t="1657092441321" class="icon" viewBox="0 0 1024 1024" version="1.1" xmlns="http://www.w3.org/2000/svg" p-id="13625" xmlns:xlink="http://www.w3.org/1999/xlink" width="64" height="64"><defs><style type="text/css">@font-face { font-family: feedback-iconfont; src: url("//at.alicdn.com/t/font_1031158_u69w8yhxdu.woff2?t=1630033759944") format("woff2"), url("//at.alicdn.com/t/font_1031158_u69w8yhxdu.woff?t=1630033759944") format("woff"), url("//at.alicdn.com/t/font_1031158_u69w8yhxdu.ttf?t=1630033759944") format("truetype"); }
</style></defs><path d="M723.7632 819.2H290.9184A34.9696 34.9696 0 0 1 256 784.2816V239.7184C256 220.416 271.616 204.8 290.9184 204.8h305.5104c9.216 0 18.1248 3.6352 24.6784 10.24l127.3344 127.3344c6.6048 6.5536 10.24 15.4624 10.24 24.6784v417.28a34.9696 34.9696 0 0 1-34.9184 34.8672zM290.9184 232.704a6.9632 6.9632 0 0 0-7.0144 7.0144v544.5632c0 3.8912 3.1232 7.0144 7.0144 7.0144h432.8448a6.9632 6.9632 0 0 0 7.0144-7.0144V372.3776h-104.7552a34.9696 34.9696 0 0 1-34.9184-34.9184V232.704H290.9184z m328.1408 19.7632v84.992c0 3.84 3.1232 6.9632 6.9632 6.9632h84.992l-91.9552-91.9552z" p-id="13626"></path><path d="M409.6 512h204.8v61.44H409.6z" p-id="13627"></path><path d="M542.72 440.32v204.8H481.28v-204.8z" p-id="13628"></path></svg>