<?xml version="1.0" standalone="no"?><!DOCTYPE svg PUBLIC "-//W3C//DTD SVG 1.1//EN" "http://www.w3.org/Graphics/SVG/1.1/DTD/svg11.dtd"><svg t="1657092420544" class="icon" viewBox="0 0 1024 1024" version="1.1" xmlns="http://www.w3.org/2000/svg" p-id="12878" xmlns:xlink="http://www.w3.org/1999/xlink" width="64" height="64"><defs><style type="text/css">@font-face { font-family: feedback-iconfont; src: url("//at.alicdn.com/t/font_1031158_u69w8yhxdu.woff2?t=1630033759944") format("woff2"), url("//at.alicdn.com/t/font_1031158_u69w8yhxdu.woff?t=1630033759944") format("woff"), url("//at.alicdn.com/t/font_1031158_u69w8yhxdu.ttf?t=1630033759944") format("truetype"); }
</style></defs><path d="M742.4 819.2h-460.8c-42.3424 0-76.8-37.3248-76.8-83.2V652.8c0-107.0592 80.384-194.2016 179.2-194.2016h256c98.8672 0 179.2 87.04 179.2 194.0992v83.2512C819.2 781.824 784.8448 819.2 742.4 819.2z m-358.4-305.0496c-70.5536 0-128 62.2592-128 138.7008v83.2c0 15.3088 11.4688 27.7504 25.6 27.7504h460.8c14.1312 0 25.6512-12.4416 25.6512-27.7504v-83.2c0-76.4416-57.4464-138.7008-128-138.7008h-256zM577.8432 225.28c15.36 16.64 23.808 38.7584 23.808 62.2592 0 23.5008-8.448 45.568-23.808 62.208a77.824 77.824 0 0 1-57.4464 25.8048c-21.7088 0-42.0864-9.1136-57.4464-25.8048-9.8816-10.7008-20.48-55.7056-11.9296-137.3184a435.4048 435.4048 0 0 1 51.8656-3.3792c58.2656 0 73.3696 14.5408 74.9568 16.2304zM502.8864 153.6c-29.2864 0-57.1392 3.328-75.4176 6.144a30.6176 30.6176 0 0 0-25.0368 27.136c-6.2976 48.3328-15.4624 158.8736 24.32 202.0352a126.976 126.976 0 0 0 93.6448 41.984c33.8944 0 67.7376-14.0288 93.6448-41.984 51.712-56.0128 51.712-146.8928 0-202.9056-23.552-25.4976-68.8128-32.4096-111.104-32.4096z" p-id="12879"></path><path d="M619.264 645.6832c0-14.08-12.4416-25.6-27.7504-25.6H433.664c-15.2576 0-27.7504 11.4688-27.7504 25.6 0 14.08 12.4416 25.6 27.7504 25.6h157.8496c15.3088 0 27.7504-11.52 27.7504-25.6z" p-id="12880"></path></svg>