<?xml version="1.0" encoding="UTF-8"?><svg version="1.1" width="32px" height="32px" viewBox="0 0 32.0 32.0" xmlns="http://www.w3.org/2000/svg" xmlns:xlink="http://www.w3.org/1999/xlink"><defs><clipPath id="i0"><path d="M1124,0 L1124,915 L0,915 L0,0 L1124,0 Z"></path></clipPath><clipPath id="i1"><path d="M16,0 C24.836556,-1.623249e-15 32,7.163444 32,16 C32,24.836556 24.836556,32 16,32 C7.163444,32 1.082166e-15,24.836556 0,16 C-1.082166e-15,7.163444 7.163444,1.623249e-15 16,0 Z"></path></clipPath><clipPath id="i2"><path d="M15.2757202,9.48279387 C15.674341,9.48279387 15.9982204,9.86863525 16,10.3413969 C16,10.8162786 15.6761206,11.2 15.2774997,11.2 L5.51128907,11.2 C5.11266822,11.2 4.78878879,10.8162786 4.78878879,10.3413969 C4.78878879,9.86651524 5.11266822,9.48279387 5.51128907,9.48279387 Z M2.25469914,9.48279387 C2.65331999,9.48279387 2.97719942,9.86863525 2.97719942,10.3413969 C2.97719942,10.8162786 2.65331999,11.2 2.25469914,11.2 L0.722500278,11.2 C0.323879435,11.2 0,10.8162786 0,10.3413969 C0,9.86651524 0.323879435,9.48279387 0.722500278,9.48279387 Z M15.2757202,4.74245694 C15.674341,4.74245694 15.9982204,5.12617831 16,5.60106 C16,6.0759417 15.6761206,6.45966307 15.2774997,6.45966307 L5.51128907,6.45966307 C5.11266822,6.45966307 4.78878879,6.0759417 4.78878879,5.60106 C4.78878879,5.12617831 5.11266822,4.74245694 5.51128907,4.74245694 Z M2.25469914,4.74245694 C2.65331999,4.74245694 2.97719942,5.12617831 2.97719942,5.60106 C2.97719942,6.0759417 2.65331999,6.45966307 2.25469914,6.45966307 L0.722500278,6.45966307 C0.323879435,6.45966307 0,6.0759417 0,5.60106 C0,5.12617831 0.323879435,4.74245694 0.722500278,4.74245694 Z M15.2757202,0 C15.674341,0 15.9982204,0.38372137 16,0.858603066 C16,1.33348476 15.6761206,1.71720613 15.2774997,1.71720613 L5.51128907,1.71720613 C5.11266822,1.71720613 4.78878879,1.33348476 4.78878879,0.858603066 C4.78878879,0.38372137 5.11266822,0 5.51128907,0 Z M2.25469914,0 C2.65331999,0 2.97719942,0.38372137 2.97719942,0.858603066 C2.97719942,1.33348476 2.65331999,1.71720613 2.25469914,1.71720613 L0.722500278,1.71720613 C0.323879435,1.71720613 0,1.33348476 0,0.858603066 C0,0.38372137 0.323879435,0 0.722500278,0 Z"></path></clipPath></defs><g transform="translate(-364.0 -207.0)"><g clip-path="url(#i0)"><g transform="translate(364.0 207.0)"><g clip-path="url(#i1)"><polygon points="0,0 32,0 32,32 0,32 0,0" stroke="none" fill="#0B0C11"></polygon></g><g transform="translate(8.0 10.00000000000002)"><g clip-path="url(#i2)"><polygon points="0,0 16,0 16,11.2 0,11.2 0,0" stroke="none" fill="#B8B8BA"></polygon></g></g></g></g></g></svg>