<?xml version="1.0" encoding="UTF-8"?><svg version="1.1" width="20px" height="20px" viewBox="0 0 20.0 20.0" xmlns="http://www.w3.org/2000/svg" xmlns:xlink="http://www.w3.org/1999/xlink"><defs><clipPath id="i0"><path d="M1440,0 L1440,1024 L0,1024 L0,0 L1440,0 Z"></path></clipPath><clipPath id="i1"><path d="M5.5,0 C7.17911396,0 8.57358267,1.18285549 8.72930041,2.71427635 L10.5770892,2.71427635 C10.8027989,2.71441028 10.988662,2.89390779 10.9995037,3.12227243 C11.0103455,3.35063707 10.8422986,3.54734438 10.6176961,3.56944256 L10.5770892,3.57140127 L9.85525436,3.57140127 L9.39269566,11.1371162 C9.364484,11.6085441 8.98171784,11.9731139 8.51722547,11.9985603 L8.46498351,12 L2.53495056,12 C2.06444236,12 1.66592592,11.6522884 1.61201473,11.1896831 L1.60756896,11.13797 L1.14441528,3.57140127 L0.422844867,3.57140127 C0.197217763,3.5713343 0.0113547096,3.39176982 0.000496446572,3.16347215 C-0.0103452894,2.93510751 0.157635511,2.73833323 0.382237938,2.71630201 L0.422844867,2.71427635 L2.27065019,2.71427635 C2.42635141,1.18285549 3.82088623,0 5.5,0 Z M9.00715295,3.57140127 L1.99251669,3.57140127 L2.45231538,11.0857211 C2.45340616,11.1085392 2.47626306,11.1331318 2.51209367,11.1405816 L2.53468613,11.1428751 L8.46498351,11.1428751 C8.50559044,11.1428751 8.53497551,11.1222668 8.54452814,11.099114 L8.54794923,11.0848673 L9.00715295,3.57140127 Z M5.50000009,0.85712492 C4.27642094,0.85712492 3.27989021,1.67371976 3.12359403,2.71427635 L7.87634005,2.71427635 C7.71979596,1.67371976 6.72357925,0.85712492 5.50000009,0.85712492 Z"></path></clipPath><clipPath id="i2"><path d=""></path></clipPath></defs><g transform="translate(-850.0 -545.0)"><g clip-path="url(#i0)"><g transform="translate(841.0 320.0)"><g transform="translate(9.0 225.0)"><g transform="translate(5.0 4.0)"><g clip-path="url(#i1)"><polygon points="-1.08420217e-19,0 11,0 11,12 -1.08420217e-19,12 -1.08420217e-19,0" stroke="none"></polygon></g><path d="M5.5,0 C7.17911396,0 8.57358267,1.18285549 8.72930041,2.71427635 L10.5770892,2.71427635 C10.8027989,2.71441028 10.988662,2.89390779 10.9995037,3.12227243 C11.0103455,3.35063707 10.8422986,3.54734438 10.6176961,3.56944256 L10.5770892,3.57140127 L9.85525436,3.57140127 L9.39269566,11.1371162 C9.364484,11.6085441 8.98171784,11.9731139 8.51722547,11.9985603 L8.46498351,12 L2.53495056,12 C2.06444236,12 1.66592592,11.6522884 1.61201473,11.1896831 L1.60756896,11.13797 L1.14441528,3.57140127 L0.422844867,3.57140127 C0.197217763,3.5713343 0.0113547096,3.39176982 0.000496446572,3.16347215 C-0.0103452894,2.93510751 0.157635511,2.73833323 0.382237938,2.71630201 L0.422844867,2.71427635 L2.27065019,2.71427635 C2.42635141,1.18285549 3.82088623,0 5.5,0 Z M9.00715295,3.57140127 L1.99251669,3.57140127 L2.45231538,11.0857211 C2.45340616,11.1085392 2.47626306,11.1331318 2.51209367,11.1405816 L2.53468613,11.1428751 L8.46498351,11.1428751 C8.50559044,11.1428751 8.53497551,11.1222668 8.54452814,11.099114 L8.54794923,11.0848673 L9.00715295,3.57140127 Z M5.50000009,0.85712492 C4.27642094,0.85712492 3.27989021,1.67371976 3.12359403,2.71427635 L7.87634005,2.71427635 C7.71979596,1.67371976 6.72357925,0.85712492 5.50000009,0.85712492 Z" stroke="#676C7F" stroke-width="0.2" fill="none" stroke-miterlimit="10"></path></g><g transform="translate(8.677009344100952 7.281697273254394)"><g clip-path="url(#i2)"><polygon points="0.403337717,0 0.596662283,0 0.596662283,8.06893253 0.403337717,8.06893253 0.403337717,0" stroke="none" ></polygon></g><path d="M0.403337717,0 L0.596662283,8.06893253" stroke="#676C7F" stroke-width="1" fill="none" stroke-linecap="round" stroke-miterlimit="10"></path></g><g transform="translate(12.77367162704468 6.763063430786133) scale(-1.0 1.0)"><g clip-path="url(#i2)"><polygon points="1.27367163,0.736936569 1.27367163,0.736936569 1.27367163,8.73693657 1.27367163,8.73693657 1.27367163,0.736936569" stroke="none" ></polygon></g><path d="M1.27367163,0.736936569 L1.27367163,8.73693657" stroke="#676C7F" stroke-width="1" fill="none" stroke-linecap="round" stroke-miterlimit="10"></path></g></g></g></g></g></svg>