<?xml version="1.0" standalone="no"?><!DOCTYPE svg PUBLIC "-//W3C//DTD SVG 1.1//EN" "http://www.w3.org/Graphics/SVG/1.1/DTD/svg11.dtd"><svg t="1663661425181" class="icon" viewBox="0 0 1024 1024" version="1.1" xmlns="http://www.w3.org/2000/svg" p-id="1090" xmlns:xlink="http://www.w3.org/1999/xlink" width="64" height="64"><path d="M592.1 537.65C564.14375001 555.93125001 554.1875 591.59375001 554.1875 610.4375L554.1875 624.5C554.1875 647.7875 535.2875 666.6875 512 666.6875 488.7125 666.6875 469.8125 647.7875 469.8125 624.5L469.8125 610.184375C469.925 567.51875001 495.153125 521.84375001 526.79375001 497.15 575.309375 459.321875 596.375 446.075 596.375 399.5 596.375 352.925 558.575 315.125 512 315.125 465.5375 315.125 427.765625 352.784375 427.625 399.5L427.625 413.5625C427.625 436.85 408.725 455.75 385.4375 455.75 362.15 455.75 343.25 436.85 343.25 413.5625L343.25 399.5C343.25 306.35 418.878125 230.75 512 230.75 605.15 230.75 680.75 306.35 680.75 399.5 680.75 454.484375 663.65 490.821875 592.1 537.65M512 793.25C488.7125 793.25 469.8125 774.35 469.8125 751.0625 469.8125 727.775 488.7125 708.875 512 708.875 535.2875 708.875 554.1875 727.775 554.1875 751.0625 554.1875 774.35 535.2875 793.25 512 793.25M512 118.25C294.678125 118.25 118.25 294.678125 118.25 512 118.25 729.321875 294.678125 905.75 512 905.75 729.321875 905.75 905.75 729.321875 905.75 512 905.75 294.678125 729.321875 118.25 512 118.25" p-id="1091"></path></svg>