<?xml version="1.0" encoding="UTF-8"?>
<svg width="15px" height="15px" viewBox="0 0 15 15" version="1.1" xmlns="http://www.w3.org/2000/svg" xmlns:xlink="http://www.w3.org/1999/xlink">
    <title>编组 11</title>
    <g id="用工" stroke="none" stroke-width="1" fill="none" fill-rule="evenodd">
        <g id="工人详情/MP3" transform="translate(-1073.000000, -500.000000)" stroke="#666A7A">
            <g id="编组-11" transform="translate(1073.000000, 500.000000)">
                <g id="编组" transform="translate(8.463816, 9.000000)">
                    <path d="M2.63736474,0.372801318 L2.49936346,0.499522381 L2.36136219,0.372335432 C1.82412476,-0.122202831 0.950031827,-0.12429932 0.41024825,0.367909513 L0.405410567,0.372335432 C-0.135136856,0.868737241 -0.135136856,1.67192515 0.405410567,2.16902579 L2.27657543,3.9147016 C2.3975175,4.02698019 2.59509866,4.02861079 2.71858689,3.91842869 L2.72291534,3.9147016 L4.59458943,2.16902579 C5.13513686,1.67239104 5.13513686,0.86943607 4.59458943,0.372335432 C4.05735201,-0.122202831 3.18325907,-0.12429932 2.64347549,0.367210683 L2.63736474,0.372801318 Z" id="Fill-1"></path>
                </g>
                <circle id="椭圆形" cx="7.96381608" cy="4.5" r="3"></circle>
                <path d="M3,13 C3,9.14915349 4.71374517,7.30304618 8.14123551,7.46167808" id="路径-24" stroke-linecap="round"></path>
            </g>
        </g>
    </g>
</svg>