<?xml version="1.0" encoding="UTF-8"?>
<svg width="20px" height="20px" viewBox="0 0 20 20" version="1.1" xmlns="http://www.w3.org/2000/svg" xmlns:xlink="http://www.w3.org/1999/xlink">
    <title>编组 39</title>
    <g id="2-项目" stroke="none" stroke-width="1" fill="none" fill-rule="evenodd">
        <g id="2-5-2项目-我参与的项目-操作-无操作权限" transform="translate(-566.000000, -651.000000)">
            <g id="编组-39" transform="translate(566.000000, 651.000000)">
                <rect id="矩形" fill="#603434" opacity="0" x="0" y="0" width="20" height="20"></rect>
                <path d="M10,14.9999198 C7.79993489,14.9999198 5.83724925,13.6115415 4.11617279,10.8992435 C3.96127574,10.6555601 3.96127574,10.3443597 4.11617279,10.1006763 C5.83724925,7.38837825 7.79993489,6 10,6 C12.2000519,6 14.1627376,7.38837825 15.8838668,10.1006763 C16.0387111,10.3443597 16.0387111,10.6555601 15.8838668,10.8992435 C14.1627376,13.6115415 12.2000519,14.9999198 10,14.9999198 Z M9.99999341,6.8999744 C8.17868737,6.8999744 6.49195826,8.07913968 4.93588619,10.4999599 C6.49195826,12.9207801 8.17868737,14.0999454 9.99999341,14.0999454 C11.8212994,14.0999454 13.5080286,12.9207801 15.0641006,10.4999599 C13.5080286,8.07913968 11.8212994,6.8999744 9.99999341,6.8999744 Z M9.99999341,12.5999119 C8.82982805,12.5999119 7.88123299,11.6597543 7.88123299,10.4999599 C7.88123299,9.34016555 8.82982805,8.40000791 9.99999341,8.40000791 C11.1701588,8.40000791 12.1187538,9.34016555 12.1187538,10.4999599 C12.1187538,11.6597543 11.1701588,12.5999119 9.99999341,12.5999119 Z M9.99999341,11.6999375 C10.6687121,11.6999375 11.2108166,11.1626317 11.2108166,10.4999599 C11.2108166,9.83728807 10.6687121,9.29998231 9.99999341,9.29998231 C9.33127476,9.29998231 8.78917021,9.83728807 8.78917021,10.4999599 C8.78917021,11.1626317 9.33127476,11.6999375 9.99999341,11.6999375 Z" id="yanjing-(1)" stroke="#000000" stroke-width="0.2" fill="#000000"></path>
            </g>
        </g>
    </g>
</svg>