<?xml version="1.0" standalone="no"?><!DOCTYPE svg PUBLIC "-//W3C//DTD SVG 1.1//EN" "http://www.w3.org/Graphics/SVG/1.1/DTD/svg11.dtd"><svg t="1657092513347" class="icon" viewBox="0 0 1024 1024" version="1.1" xmlns="http://www.w3.org/2000/svg" p-id="16473" xmlns:xlink="http://www.w3.org/1999/xlink" width="64" height="64"><defs><style type="text/css">@font-face { font-family: feedback-iconfont; src: url("//at.alicdn.com/t/font_1031158_u69w8yhxdu.woff2?t=1630033759944") format("woff2"), url("//at.alicdn.com/t/font_1031158_u69w8yhxdu.woff?t=1630033759944") format("woff"), url("//at.alicdn.com/t/font_1031158_u69w8yhxdu.ttf?t=1630033759944") format("truetype"); }
</style></defs><path d="M298.0864 410.4704l239.616 121.856 239.5136-121.856-239.5648-117.6576-239.5648 117.6576z m33.5872 189.1328l-50.432-25.1904c-16.7936-8.448-25.2416-21.0432-25.2416-37.888 0-16.7936 8.448-29.3888 25.2416-37.8368l50.432-25.2416-50.432-25.1904c-21.0432-8.448-29.44-33.6384-21.0432-54.6816 4.1472-8.3968 12.5952-16.7936 16.7936-16.7936l239.6672-117.6576c12.6464-4.1472 25.2416-4.1472 37.888 0l239.5136 117.6576c20.992 8.448 29.44 33.6384 16.8448 54.6816-4.1984 8.3968-12.6464 16.7936-16.8448 16.7936l-50.432 25.1904 46.1824 21.0944c20.992 8.3968 29.44 20.992 29.44 41.984 0 16.8448-8.448 33.6384-29.44 42.0352l-46.1824 21.0432 46.1824 21.0432c20.992 8.448 29.44 20.992 29.44 42.0352 0 16.7936-8.448 33.6384-29.44 42.0352l-231.168 113.5104c-4.1984 4.1472-12.5952 4.1472-21.0432 4.1472-8.448 0-12.5952 0-21.0432-4.1472l-239.5136-117.76c-16.7936-8.3968-21.0432-20.992-21.0432-37.8368 0-16.7936 8.448-29.3888 25.2416-37.888l50.432-25.088z m46.2848 25.2416l-79.872 37.888 239.616 121.856 239.5136-117.7088-79.872-37.888-138.6496 67.328c-4.1984 4.1472-12.5952 4.1472-20.992 4.1472-8.4992 0-12.6464 0-21.0944-4.1472l-138.6496-71.4752z m319.488-126.1056l-138.752 67.2256a58.624 58.624 0 0 1-37.8368 0L378.0096 498.688l-79.872 37.888 239.5136 121.856 239.616-121.9584-79.872-37.7856z" p-id="16474"></path></svg>