<?xml version="1.0" standalone="no"?><!DOCTYPE svg PUBLIC "-//W3C//DTD SVG 1.1//EN" "http://www.w3.org/Graphics/SVG/1.1/DTD/svg11.dtd"><svg t="1659059572277" class="icon" viewBox="0 0 1024 1024" version="1.1" xmlns="http://www.w3.org/2000/svg" p-id="1386" xmlns:xlink="http://www.w3.org/1999/xlink" width="64" height="64"><defs><style type="text/css">@font-face { font-family: feedback-iconfont; src: url("//at.alicdn.com/t/font_1031158_u69w8yhxdu.woff2?t=1630033759944") format("woff2"), url("//at.alicdn.com/t/font_1031158_u69w8yhxdu.woff?t=1630033759944") format("woff"), url("//at.alicdn.com/t/font_1031158_u69w8yhxdu.ttf?t=1630033759944") format("truetype"); }
</style></defs><path d="M456.0896 256h311.2448C796.0064 256 819.2 279.2448 819.2 307.8656v311.296c0 28.6208-23.2448 51.8144-51.8656 51.8144h-311.296c-28.6208 0-51.8144-23.1936-51.8144-51.8656V307.8656c0-28.672 23.1936-51.8656 51.8656-51.8656z m0 44.4416a7.424 7.424 0 0 0-7.424 7.424v311.296c0 4.0448 3.328 7.3728 7.424 7.3728h311.2448c4.096 0 7.424-3.328 7.424-7.424V307.8656a7.424 7.424 0 0 0-7.424-7.424h-311.296z m170.4448 415.0272a22.2208 22.2208 0 0 1 44.4416 0v51.8656c0 28.672-23.1936 51.8656-51.8656 51.8656H307.8656C279.1936 819.2 256 795.9552 256 767.3344v-311.296c0-28.6208 23.2448-51.8144 51.8656-51.8144h51.8656a22.2208 22.2208 0 1 1 0 44.4416H307.8656a7.424 7.424 0 0 0-7.424 7.424v311.2448c0 4.096 3.328 7.424 7.424 7.424h311.296c4.096 0 7.3728-3.328 7.3728-7.424v-51.8656z" p-id="1387"></path></svg>