<?xml version="1.0" standalone="no"?><!DOCTYPE svg PUBLIC "-//W3C//DTD SVG 1.1//EN" "http://www.w3.org/Graphics/SVG/1.1/DTD/svg11.dtd"><svg t="1657851656939" class="icon" viewBox="0 0 1024 1024" version="1.1" xmlns="http://www.w3.org/2000/svg" p-id="2173" xmlns:xlink="http://www.w3.org/1999/xlink" width="64" height="64"><defs><style type="text/css">@font-face { font-family: feedback-iconfont; src: url("//at.alicdn.com/t/font_1031158_u69w8yhxdu.woff2?t=1630033759944") format("woff2"), url("//at.alicdn.com/t/font_1031158_u69w8yhxdu.woff?t=1630033759944") format("woff"), url("//at.alicdn.com/t/font_1031158_u69w8yhxdu.ttf?t=1630033759944") format("truetype"); }
</style></defs><path d="M519.509333 856.405333c-0.113778 0-0.113778 0 0 0a284.16 284.16 0 0 1-48.64-3.982222c-96.824889-15.587556-155.420444-74.979556-207.189333-127.544889-27.477333-27.875556-61.667556-62.577778-90.851556-107.292444-34.816-53.532444-53.76-108.088889-57.742222-166.627556-2.275556-33.735111-9.159111-136.135111 62.179556-209.578666 19.114667-19.626667 52.963556-46.136889 105.813333-60.871112 10.524444-2.844444 35.271111-9.841778 66.844445-9.841777a210.488889 210.488889 0 0 1 64.398222 9.955555c15.132444 4.892444 54.442667 20.138667 90.794666 57.287111 32.312889 32.995556 40.391111 60.871111 47.502223 85.390223 6.200889 21.390222 11.491556 39.765333 31.630222 62.407111 18.545778 20.935111 34.588444 27.875556 53.077333 35.84 22.186667 9.671111 47.104 20.48 78.449778 54.613333 16.497778 17.976889 43.918222 48.071111 56.888889 96.597333 18.318222 68.835556-5.575111 127.772444-16.725333 150.016-31.004444 61.724444-82.432 89.372444-104.334223 101.262223a278.869333 278.869333 0 0 1-132.096 32.426666zM349.980444 204.060444c-27.136 0-48.696889 5.973333-57.912888 8.647112-45.795556 12.743111-74.752 35.271111-91.022223 51.996444-61.155556 62.691556-54.954667 154.112-52.906666 184.149333 8.192 119.921778 86.983111 199.907556 139.093333 252.814223 50.403556 51.2 102.741333 104.163556 188.814222 117.987555a255.431111 255.431111 0 0 0 43.463111 3.640889c29.127111 0 72.817778-4.835556 116.394667-28.273778 20.764444-11.207111 64.170667-34.531556 90.396444-86.869333 9.386667-18.773333 29.582222-68.835556 14.222223-126.520889-10.808889-40.732444-33.962667-65.991111-49.322667-82.659556-26.567111-29.013333-46.250667-37.489778-67.128889-46.648888-20.252444-8.874667-41.187556-17.92-64.625778-44.259556-25.201778-28.216889-32.426667-53.191111-38.684444-75.207111-6.542222-22.755556-12.856889-44.373333-39.253333-71.395556a194.616889 194.616889 0 0 0-77.368889-48.981333 175.217778 175.217778 0 0 0-54.215111-8.419556z" p-id="2174"></path><path d="M635.335111 878.535111c-15.473778 0-27.761778-1.024-36.067555-1.706667a387.584 387.584 0 0 1-107.52-24.177777l11.832888-31.004445a354.531556 354.531556 0 0 0 98.247112 22.243556c24.689778 1.991111 90.055111 7.111111 160.995555-26.112 32.995556-15.473778 67.299556-31.630222 91.192889-70.997334 9.671111-15.928889 31.004444-58.424889 20.024889-109.624888a144.725333 144.725333 0 0 0-23.779556-53.532445 134.030222 134.030222 0 0 0-54.158222-45.511111 132.551111 132.551111 0 0 0-74.695111-9.784889l-5.176889-32.768a165.319111 165.319111 0 0 1 93.468445 12.288 165.831111 165.831111 0 0 1 67.470222 56.32c9.955556 13.824 22.983111 36.408889 29.297778 65.877333 13.368889 62.862222-12.515556 114.517333-24.234667 133.745778-29.184 48.014222-71.566222 67.925333-105.642667 83.854222a329.671111 329.671111 0 0 1-141.255111 30.890667z" p-id="2175"></path><path d="M861.809778 603.022222a181.589333 181.589333 0 0 0-18.261334-65.991111c-8.305778-16.782222-14.961778-30.094222-29.240888-40.391111-11.491556-8.362667-38.798222-13.141333-59.733334-15.701333a495.445333 495.445333 0 0 0-78.051555-3.185778l-1.365334-33.166222c27.989333-1.137778 56.092444 0.113778 83.399111 3.413333 48.810667 5.973333 66.275556 15.36 75.264 21.902222 20.764444 15.132444 30.264889 34.133333 39.367112 52.508445 11.946667 24.064 19.114667 50.232889 21.560888 77.937777l-32.995555 2.616889z" p-id="2176"></path><path d="M874.837333 532.593778l-32.995555-3.868445c2.332444-19.456 1.592889-46.762667-14.791111-65.706666-13.937778-16.156444-36.067556-21.105778-76.231111-30.094223-12.629333-2.844444-19.114667-3.527111-27.306667-4.380444a385.706667 385.706667 0 0 1-40.96-6.542222c-28.273778-5.745778-50.062222-11.946667-67.584-16.952889-22.528-6.371556-45.226667-13.596444-67.356445-21.333333l10.979556-31.288889c21.447111 7.509333 43.463111 14.506667 65.365333 20.650666 16.896 4.778667 38.058667 10.865778 65.137778 16.270223 19.797333 3.982222 29.411556 5.12 38.058667 6.087111 8.419556 1.024 16.497778 1.877333 30.890666 5.12 43.918222 9.841778 72.988444 16.327111 94.094223 40.675555 24.348444 28.216889 25.770667 65.308444 22.698666 91.363556z m-293.034666-44.999111a10.922667 10.922667 0 0 1-2.673778-0.341334c-36.807111-9.955556-59.847111-36.807111-73.557333-52.906666-17.351111-20.309333-26.168889-43.633778-43.804445-90.339556-5.688889-15.132444-9.159111-25.770667-11.719111-33.564444-4.323556-13.312-5.973333-18.318222-12.401778-26.965334a10.012444 10.012444 0 0 1 1.991111-13.937777 10.012444 10.012444 0 0 1 13.937778 1.991111c8.533333 11.377778 10.808889 18.488889 15.36 32.881777 2.56 7.964444 5.916444 17.92 11.377778 32.654223 16.725333 44.430222 25.144889 66.787556 40.334222 84.366222 13.084444 15.246222 32.711111 38.286222 63.601778 46.648889a9.955556 9.955556 0 0 1 6.940444 12.231111 9.500444 9.500444 0 0 1-9.386666 7.281778zM607.118222 489.585778a10.069333 10.069333 0 1 0 20.138667 0 10.069333 10.069333 0 0 0-20.138667 0z" p-id="2177"></path></svg>