<?xml version="1.0" encoding="UTF-8"?><svg version="1.1" width="14px" height="14px" viewBox="0 0 14.0 14.0" xmlns="http://www.w3.org/2000/svg" xmlns:xlink="http://www.w3.org/1999/xlink"><defs><clipPath id="i0"><path d="M1440,0 L1440,1024 L0,1024 L0,0 L1440,0 Z"></path></clipPath><clipPath id="i1"><path d="M7,0 C10.865625,0 14,3.134375 14,7 C14,10.865625 10.865625,14 7,14 C3.134375,14 0,10.865625 0,7 C0,3.134375 3.134375,0 7,0 Z M7,0.875 C3.6234375,0.875 0.875,3.6234375 0.875,7 C0.875,10.3765625 3.6234375,13.125 7,13.125 C10.3765625,13.125 13.125,10.3765625 13.125,7 C13.125,3.6234375 10.3765625,0.875 7,0.875 Z"></path></clipPath><clipPath id="i2"><path d="M2.65798298,0.0971729257 C2.84412532,-0.0122547787 3.00211167,-0.027453071 3.13350627,0.0424590735 C3.26490086,0.115410876 3.33216238,0.261314482 3.33216238,0.478650062 L3.30869906,0.572879474 C3.28054307,0.627593326 3.25238709,0.680787349 3.22423111,0.730941714 L5.16386558,0.730941714 C5.62843932,0.730941714 5.93033404,0.83732976 6.08675617,1.05314551 C6.21658654,1.23248536 6.22910032,1.46653906 6.12429749,1.74770747 C6.00228822,2.01671724 5.88184318,2.2538106 5.76139813,2.46050738 L6.32921048,2.46050738 C6.71400893,2.4878643 6.98774767,2.60337132 7.16294046,2.80246895 C7.3271837,2.98940795 7.39600944,3.2416996 7.36941768,3.55478442 L7.3709819,4.46820179 C7.39600944,4.81624268 7.31154149,5.09589126 7.11757804,5.28586991 C6.91266504,5.48648737 6.59356389,5.57615729 6.17904523,5.54576071 L5.31715927,5.54728054 L5.31715927,7.26468757 C5.31715927,7.34827817 5.33280148,7.412111 5.35939325,7.43490844 C5.38598501,7.45770588 5.45793919,7.46226537 5.54553559,7.45314639 L7.15042669,7.45010673 C7.28651395,7.474424 7.33031214,7.4485869 7.35690391,7.42578946 C7.42729387,7.36803595 7.58684445,7.13854174 7.54773891,6.27527874 L7.57902334,6.15673206 C7.79957855,5.79957219 8.14370725,5.79957219 8.36426246,6.15673206 L8.39554688,6.25552096 C8.42839553,7.17501764 8.2797945,7.76775104 7.94035847,8.06563757 C7.74326658,8.24041793 7.49611961,8.30729042 7.18953222,8.27081452 L5.57682001,8.27233434 C5.22174177,8.29665161 4.93705348,8.22521964 4.74309003,8.05043928 C4.56007614,7.88781755 4.46778708,7.64312504 4.46778708,7.32852039 L4.46778708,5.54728054 L4.43180999,5.54728054 C3.9124885,6.91056736 2.59072146,7.8695796 0.499357517,8.4 L0.374219809,8.39544051 C0.156793042,8.32552837 0.0332195556,8.213061 0.00506357131,8.06563757 C-0.0215281916,7.91517448 0.0566828758,7.76775104 0.238132552,7.62792675 L0.31634362,7.58841119 C2.02134489,7.12638311 3.08657963,6.4394203 3.48702029,5.54576071 L2.01665223,5.54576071 C1.73352816,5.57311764 1.49263807,5.50776498 1.32057373,5.35578206 C1.13755983,5.1916405 1.04527077,4.93934885 1.04527077,4.60042693 L1.04527077,3.60341896 C1.04527077,3.42255928 1.06873409,3.26145738 1.11566073,3.12163309 C0.95454593,3.2416996 0.791866909,3.3511273 0.627623668,3.45143603 L0.511871288,3.48335245 C0.288187635,3.48335245 0.138022386,3.41951962 0.0629397612,3.29033413 C-0.0121428635,3.16266848 0.00662779265,3.0076459 0.117687508,2.82830605 L0.183384805,2.76295339 C1.15476626,2.1185458 1.96034026,1.24920348 2.57977191,0.174684216 Z M3.84991965,3.28729448 L2.1543037,3.28729448 C1.95564759,3.28729448 1.89464296,3.34656782 1.89464296,3.53958613 L1.89464296,4.46972162 C1.89464296,4.57914932 1.91654206,4.65818044 1.95564759,4.69313651 C1.99475313,4.72809258 2.07922108,4.74025122 2.19497346,4.72505293 L3.74042415,4.7235331 C3.80455723,4.21742996 3.84053432,3.7356441 3.84991965,3.28729448 Z M6.26038474,3.28729448 L4.69772762,3.28729448 C4.68677807,3.68700956 4.65080098,4.16879543 4.58979634,4.7235331 L6.19312322,4.7235331 C6.42149954,4.74785036 6.48250417,4.70377532 6.49658217,4.69009685 C6.52630237,4.6612201 6.5356877,4.59130795 6.52317393,4.49707854 L6.52004549,3.60645861 C6.53725192,3.46815415 6.52473815,3.38608338 6.48876106,3.34656782 C6.45278397,3.30857209 6.37300868,3.28729448 6.26038474,3.28729448 Z M5.02934254,1.55772881 L2.67675363,1.55772881 C2.410836,1.90121022 2.13553305,2.21277521 1.85240898,2.49090396 C1.94626226,2.47114618 2.04793665,2.4620272 2.15586792,2.4620272 L4.7696818,2.4620272 C4.96364524,2.15350187 5.1216316,1.86321449 5.2389482,1.59420472 L5.25302619,1.57292711 C5.20453533,1.56532796 5.13414537,1.55924864 5.02934254,1.55924864 Z"></path></clipPath></defs><g transform="translate(-743.0 -459.0)"><g clip-path="url(#i0)"><g transform="translate(743.0 302.0)"><g transform="translate(0.0 154.0)"><g transform="translate(0.0 3.0)"><g clip-path="url(#i1)"><polygon points="0,0 14,0 14,14 0,14 0,0" stroke="none" fill="#9D9DA1"></polygon></g><g transform="translate(2.8 2.8)"><g clip-path="url(#i2)"><polygon points="0,6.9388939e-18 8.4,6.9388939e-18 8.4,8.4 0,8.4 0,6.9388939e-18" stroke="none" fill="#9D9DA1"></polygon></g></g></g></g></g></g></g></svg>