<?xml version="1.0" standalone="no"?><!DOCTYPE svg PUBLIC "-//W3C//DTD SVG 1.1//EN" "http://www.w3.org/Graphics/SVG/1.1/DTD/svg11.dtd"><svg t="1661736507133" class="icon" viewBox="0 0 1024 1024" version="1.1" xmlns="http://www.w3.org/2000/svg" p-id="1337" xmlns:xlink="http://www.w3.org/1999/xlink" width="64" height="64"><path d="M178.83697303 263.60465423v501.97015939c0 13.15250844 10.71877689 23.87128532 23.87128532 23.87128654h609.46861868a23.92306725 23.92306725 0 0 0 23.92306727-23.87128654V347.23182577a23.92306725 23.92306725 0 0 0-23.87128533-23.92306726H512.62072058L428.94176711 239.73336769H202.70825835a23.97484919 23.97484919 0 0 0-23.87128532 23.87128654zM202.70825835 179.97748149h233.63826727c11.08124801 0 21.74824297 4.40143053 29.56725453 12.22044087l71.45851259 71.4585126h274.85636623c46.18912594 0 83.62717275 37.43804682 83.62717153 83.62717274v418.29120592c0 46.18912594-37.43804682 83.62717275-83.62717153 83.62717275H202.7600403A83.62717275 83.62717275 0 0 1 119.08108682 765.57481362V263.60465423C119.08108682 217.4155283 156.51913364 179.97748149 202.70825835 179.97748149z" p-id="1338"></path></svg>