<?xml version="1.0" encoding="UTF-8"?>
<svg width="20px" height="20px" viewBox="0 0 20 20" version="1.1" xmlns="http://www.w3.org/2000/svg" xmlns:xlink="http://www.w3.org/1999/xlink">
    <title>切片</title>
    <defs>
        <polygon id="path-1" points="0 0 14.1165689 0 14.1165689 12 0 12"></polygon>
    </defs>
    <g id="2-项目" stroke="none" stroke-width="1" fill="none" fill-rule="evenodd">
        <g id="画板" transform="translate(-60.000000, -62.000000)">
            <g id="icon_document2" transform="translate(60.000000, 62.000000)">
                <rect id="矩形" fill="#DEDEDE" opacity="0" x="0" y="0" width="20" height="20"></rect>
                <g id="wenjianjia" transform="translate(3.000000, 4.000000)">
                    <mask id="mask-2" fill="white">
                        <use xlink:href="#path-1"></use>
                    </mask>
                    <g id="Clip-2"></g>
                    <path d="M6.70483556,1.05882667 L11.4694933,1.05882667 C11.85776,1.05882667 12.1753956,1.37646222 12.1753956,1.76472889 L12.1753956,2.64707556 C12.1753956,3.03527111 11.85776,3.35292444 11.4694933,3.35292444 L6.70483556,3.35292444 C6.31656889,3.35292444 5.99893333,3.03527111 5.99893333,2.64707556 L5.99893333,1.76472889 C5.99893333,1.37646222 6.31656889,1.05882667 6.70483556,1.05882667 Z" id="Fill-1" fill="#AFFCFE" mask="url(#mask-2)"></path>
                    <path d="M12.7048356,12 L1.41066667,12 C0.634204444,12 -0.00106666667,11.3647289 -0.00106666667,10.5882667 L-0.00106666667,1.41173333 C-0.00106666667,0.635271111 0.634204444,0 1.41066667,0 L5.46949333,0 C6.44010667,0.264728889 6.24600889,0.758826667 6.88129778,1.41173333 L7.32247111,2.11763556 L12.7048356,2.11763556 C13.4812978,2.11763556 14.1165689,2.75292444 14.1165689,3.52944 L14.1165689,10.5882667 C14.1165689,11.3647289 13.4812978,12 12.7048356,12 Z" id="Fill-3" fill="#2F77F1" mask="url(#mask-2)"></path>
                </g>
            </g>
        </g>
    </g>
</svg>