<?xml version="1.0" standalone="no"?><!DOCTYPE svg PUBLIC "-//W3C//DTD SVG 1.1//EN" "http://www.w3.org/Graphics/SVG/1.1/DTD/svg11.dtd"><svg t="1657092448624" class="icon" viewBox="0 0 1024 1024" version="1.1" xmlns="http://www.w3.org/2000/svg" p-id="13925" xmlns:xlink="http://www.w3.org/1999/xlink" width="64" height="64"><defs><style type="text/css">@font-face { font-family: feedback-iconfont; src: url("//at.alicdn.com/t/font_1031158_u69w8yhxdu.woff2?t=1630033759944") format("woff2"), url("//at.alicdn.com/t/font_1031158_u69w8yhxdu.woff?t=1630033759944") format("woff"), url("//at.alicdn.com/t/font_1031158_u69w8yhxdu.ttf?t=1630033759944") format("truetype"); }
</style></defs><path d="M649.8304 649.8304h110.2848v-110.2848H870.4v165.4272h-110.2848v55.1424h-110.2848V705.024h-110.2848v-165.376h110.2848v110.2336zM153.6 870.4h330.8544v-330.8544H153.6V870.4z m110.2848-110.2848h110.2848v-110.2848H263.8848v110.2848zM153.6 484.4544h330.8544V153.6H153.6v330.8544z m110.2848-110.2848h110.2848V263.8848H263.8848v110.2848z m275.6608 110.2848H870.4V153.6h-330.8544v330.8544z m110.2848-110.2848h110.2848V263.8848h-110.2848v110.2848zM760.1152 870.4H870.4v-110.2848h-110.2848V870.4z m-220.5696 0h110.2848v-110.2848h-110.2848V870.4z" p-id="13926"></path></svg>