<?xml version="1.0" encoding="UTF-8"?>
<svg width="20px" height="20px" viewBox="0 0 20 20" version="1.1" xmlns="http://www.w3.org/2000/svg" xmlns:xlink="http://www.w3.org/1999/xlink">
    <title>切片</title>
    <defs>
        <polygon id="path-1" points="0 0 12.1323171 0 12.1323171 14 0 14"></polygon>
    </defs>
    <g id="2-项目" stroke="none" stroke-width="1" fill="none" fill-rule="evenodd">
        <g id="画板" transform="translate(-60.000000, -261.000000)">
            <g id="icon_file" transform="translate(60.000000, 261.000000)">
                <rect id="矩形" fill="#DEDEDE" opacity="0" x="0" y="0" width="20" height="20"></rect>
                <g id="编组" transform="translate(4.000000, 3.000000)">
                    <mask id="mask-2" fill="white">
                        <use xlink:href="#path-1"></use>
                    </mask>
                    <g id="Clip-2"></g>
                    <path d="M1.86564925,0 L8.39898486,0 L12.1323171,3.73333219 L12.1323171,12.1333424 C12.1323171,13.159999 11.2922989,14 10.2656424,14 L1.86564925,14 C0.838975634,14 -0.00102539188,13.159999 -0.00102539188,12.1333424 L-0.00102539188,1.86667464 C-0.00102539188,0.840001025 0.838975634,0 1.86564925,0 Z" id="Fill-1" fill="#2F77F1" mask="url(#mask-2)"></path>
                    <path d="M8.43844504,8 C8.63413009,7.82319971 8.63413009,7.54315797 8.43844504,7.38103707 L6.34234934,5.11784887 C6.26088687,5.04420007 6.13042353,5 5.99996019,5 C5.86951676,5 5.73913303,5.04420007 5.65757105,5.13260022 L3.59267228,7.38105506 C3.49486956,7.4694552 3.4459682,7.58737603 3.4459682,7.69052753 C3.4459682,7.79369701 3.49486956,7.9115279 3.59267228,8 C3.78835734,8.17680029 4.09808586,8.17680029 4.27745056,8 L5.51086697,6.8021698 L5.51086697,10.5579273 C5.51086697,10.8084484 5.72281267,11 5.99996019,11 C6.27712762,11 6.48913303,10.8084484 6.48913303,10.5579273 L6.48913303,6.8021698 L7.75364685,8 C7.93301155,8.16210292 8.24283959,8.16210292 8.43844504,8 Z" id="Fill-1" fill="#FFFFFF" mask="url(#mask-2)"></path>
                </g>
            </g>
        </g>
    </g>
</svg>