<?xml version="1.0" standalone="no"?><!DOCTYPE svg PUBLIC "-//W3C//DTD SVG 1.1//EN" "http://www.w3.org/Graphics/SVG/1.1/DTD/svg11.dtd"><svg t="1657092434688" class="icon" viewBox="0 0 1024 1024" version="1.1" xmlns="http://www.w3.org/2000/svg" p-id="13326" xmlns:xlink="http://www.w3.org/1999/xlink" width="64" height="64"><defs><style type="text/css">@font-face { font-family: feedback-iconfont; src: url("//at.alicdn.com/t/font_1031158_u69w8yhxdu.woff2?t=1630033759944") format("woff2"), url("//at.alicdn.com/t/font_1031158_u69w8yhxdu.woff?t=1630033759944") format("woff"), url("//at.alicdn.com/t/font_1031158_u69w8yhxdu.ttf?t=1630033759944") format("truetype"); }
</style></defs><path d="M256 276.48v430.08c0 11.3152 9.216 20.48 20.48 20.48h471.0912a20.48 20.48 0 0 0 20.48-20.48v-358.4a20.48 20.48 0 0 0-20.48-20.48H490.8032L419.1232 256H276.48a20.48 20.48 0 0 0-20.48 20.48zM276.48 204.8h148.992a35.84 35.84 0 0 1 25.344 10.496L512.0512 276.48h235.52a71.68 71.68 0 0 1 71.68 71.68v358.4a71.68 71.68 0 0 1-71.68 71.68h-471.04A71.68 71.68 0 0 1 204.8 706.56V276.48A71.68 71.68 0 0 1 276.48 204.8z" p-id="13327"></path></svg>