<?xml version="1.0" encoding="UTF-8"?><svg version="1.1" width="14px" height="14px" viewBox="0 0 14.0 14.0" xmlns="http://www.w3.org/2000/svg" xmlns:xlink="http://www.w3.org/1999/xlink"><defs><clipPath id="i0"><path d="M1440,0 L1440,1024 L0,1024 L0,0 L1440,0 Z"></path></clipPath><clipPath id="i1"><path d="M5.92443872,0.000915595014 C6.1396019,0.00345560073 6.70241281,0.0313956635 8.2661815,0.338736355 C9.047304,0.492446797 9.7141912,0.643951924 9.79314147,0.661814974 C11.0877107,0.943443883 12.0110266,2.08919908 12.0110266,3.41404786 L12.0110266,7.79115669 C12.0110266,8.53434778 11.8522439,9.28812438 11.5390892,10.0339618 C11.2345976,10.7523924 10.8108699,11.4141919 10.2858088,11.9913993 C9.73293638,12.5985224 9.09868784,13.0814864 8.40092623,13.4266181 C7.63281508,13.807476 6.82699305,14 6.00551329,14 C5.18403352,14 4.37799096,13.8065939 3.61010034,13.4266181 C2.91233874,13.0814864 2.2780902,12.5985224 1.72521777,11.9913993 C1.20015665,11.4141919 0.776428981,10.7523924 0.471937369,10.0339618 C0.158782666,9.28812438 0,8.53346565 0,7.79115669 L0,3.4122836 C0,2.09310996 0.915790105,0.950737844 2.20333003,0.663579226 C2.31359577,0.636012791 2.90131216,0.49002095 3.59267835,0.341823795 C4.66490241,0.112029992 5.40919616,0 5.86856324,0 Z M5.86727539,0.999558937 C4.94571739,1.00000771 2.39510874,1.64489636 2.39510874,1.64489636 C1.59143425,1.81763779 1.01755424,2.52820932 1.01782037,3.35023864 L1.01782037,7.80499659 C1.01782037,10.2606895 3.25563343,12.9995589 6.00639541,12.9995589 C8.7571574,12.9995589 10.9949704,10.2606895 10.9949704,7.80499659 L10.9949704,3.35158497 C10.9949704,2.52901144 10.420275,1.81825168 9.61588699,1.64624268 C9.61588699,1.64624268 6.79421867,1.0002321 5.86727539,1.0002321 Z"></path></clipPath><clipPath id="i2"><path d="M1.69191752,2.02866909 L1.69191752,4.31866799 L2.15944426,3.89921711 C2.24875951,4.18105635 2.43444702,4.59367075 2.55816518,4.78641526 C1.25857316,5.96228912 0.997243356,6.19605249 0.866468188,6.38173999 C0.756202448,6.19605249 0.433123828,5.87297387 0.268166281,5.74903517 C0.460690264,5.57018414 0.722020068,5.20586614 0.722020068,4.74495534 L0.722020068,2.98445253 L0,2.98445253 L0,2.02866909 L1.69191752,2.02866909 Z M6.34072114,0.309405668 L6.34072114,1.2378432 L5.21270261,1.2378432 L5.21270261,2.64064395 L6.20994597,2.64064395 L6.20994597,3.56908149 L5.21270261,3.56908149 L5.21270261,5.28150844 L6.47127577,5.28150844 L6.47127577,6.20994597 L2.22825008,6.20994597 L2.22825008,5.28150844 L2.68210387,5.28150844 L2.68210387,2.26243246 L3.67229022,2.26243246 L3.67229022,5.28150844 L4.18127688,5.28150844 L4.18127688,1.2378432 L2.37291873,1.2378432 L2.37291873,0.309405668 L6.34072114,0.309405668 Z M0.887198148,0 C1.25857316,0.308744073 1.78123277,0.756422979 2.02866909,1.05855111 L1.34788841,1.74660933 C1.12735693,1.43036718 0.618811335,0.948946962 0.247656853,0.605138384 L0.887198148,0 Z"></path></clipPath></defs><g transform="translate(-993.0 -459.0)"><g clip-path="url(#i0)"><g transform="translate(743.0 302.0)"><g transform="translate(250.0 154.0)"><g transform="translate(0.0 3.0)"><g transform="translate(1.0000000000000915 0.0)"><g clip-path="url(#i1)"><polygon points="0,0 12.0110266,0 12.0110266,14 0,14 0,0" stroke="none" fill="#9D9DA1"></polygon></g><g transform="translate(2.7707575256367822 3.809019737567496)"><g clip-path="url(#i2)"><polygon points="0,0 6.47127577,0 6.47127577,6.38173999 0,6.38173999 0,0" stroke="none" fill="#9D9DA1"></polygon></g></g></g></g></g></g></g></g></svg>