<?xml version="1.0" encoding="UTF-8"?><svg version="1.1" width="32px" height="32px" viewBox="0 0 32.0 32.0" xmlns="http://www.w3.org/2000/svg" xmlns:xlink="http://www.w3.org/1999/xlink"><defs><clipPath id="i0"><path d="M1440,0 L1440,1024 L0,1024 L0,0 L1440,0 Z"></path></clipPath><clipPath id="i1"><path d="M16,0 C24.836556,0 32,7.163444 32,16 C32,24.836556 24.836556,32 16,32 C7.163444,32 0,24.836556 0,16 C0,7.163444 7.163444,0 16,0 Z"></path></clipPath><clipPath id="i2"><path d="M9.625,0 C10.1082625,0 10.5,0.391752083 10.5,0.875 L10.5,11.125 C10.5,11.6082625 10.1082625,12 9.625,12 L0.875,12 C0.391752083,12 0,11.6082625 0,11.125 L0,0.875 C0,0.391752083 0.391752083,0 0.875,0 Z"></path></clipPath></defs><g transform="translate(-1344.0 -14.0)"><g clip-path="url(#i0)"><g transform="translate(1344.0 14.0)"><g clip-path="url(#i1)"><polygon points="0,0 32,0 32,32 0,32 0,0" stroke="none" fill="#14151C"></polygon></g><g transform="translate(11.0 10.0)"><g clip-path="url(#i2)"><polygon points="0,0 10.5,0 10.5,12 0,12 0,0" stroke="none" fill="#C5C7D4"></polygon></g><path d="M9.625,0 L0.875,0 C0.391752083,0 0,0.391752083 0,0.875 L0,11.125 C0,11.6082625 0.391752083,12 0.875,12 L9.625,12 C10.1082625,12 10.5,11.6082625 10.5,11.125 L10.5,0.875 C10.5,0.391752083 10.1082625,0 9.625,0 Z" stroke="#C5C7D4" stroke-width="2" fill="none" stroke-linejoin="round"></path><g transform="translate(2.916666666666515 1.0833333333333712)"><path d="M4.66666667,2.33333333 L2.33333333,0 L0,2.33333333" stroke="#15151B" stroke-width="1.2" fill="none" stroke-linecap="round" stroke-linejoin="round"></path></g><g transform="translate(4.875 1.229166666666742)"><path d="M0.375,4.52083333 L0.375,0" stroke="#15151B" stroke-width="1.2" fill="none" stroke-linecap="round" stroke-linejoin="round"></path></g><g transform="translate(2.916666666666515 8.1875)"><path d="M0,0.145833333 L4.66666667,0.145833333" stroke="#15151B" stroke-width="1.2" fill="none" stroke-linecap="round" stroke-linejoin="round"></path></g><g transform="translate(2.916666666666515 10.4375)"><path d="M0,0.145833333 L4.66666667,0.145833333" stroke="#15151B" stroke-width="1.2" fill="none" stroke-linecap="round" stroke-linejoin="round"></path></g></g></g></g></g></svg>