<?xml version="1.0" encoding="UTF-8"?>
<svg width="20px" height="20px" viewBox="0 0 20 20" version="1.1" xmlns="http://www.w3.org/2000/svg" xmlns:xlink="http://www.w3.org/1999/xlink">
    <title>切片</title>
    <defs>
        <linearGradient x1="50%" y1="0%" x2="50%" y2="100%" id="linearGradient-1">
            <stop stop-color="#AFFCFE" offset="0%"></stop>
            <stop stop-color="#11B976" offset="100%"></stop>
        </linearGradient>
    </defs>
    <g id="2-项目" stroke="none" stroke-width="1" fill="none" fill-rule="evenodd">
        <g id="画板" transform="translate(-60.000000, -182.000000)">
            <g id="icon_excel" transform="translate(60.000000, 182.000000)">
                <rect id="矩形" fill="#DEDEDE" opacity="0" x="0" y="0" width="20" height="20"></rect>
                <path d="M15.60003,17 L4.39997003,17 C3.6299777,17 3,16.3647289 3,15.5882667 L3,4.41173333 C3,3.63527111 3.6299777,3 4.39997003,3 L15.60003,3 C16.3700223,3 17,3.63521778 17,4.41173333 L17,15.5882667 C17,16.3647289 16.3700223,17 15.60003,17 Z" id="Fill-3" fill="url(#linearGradient-1)"></path>
                <polygon id="路径" fill="#FFFFFF" fill-rule="nonzero" points="7.14678899 7 9.33944954 9.89915966 7 13 8.31192661 13 10 10.6806723 11.6880734 13 13 13 10.6422018 9.89915966 12.853211 7 11.5412844 7 10 9.11764706 8.4587156 7"></polygon>
            </g>
        </g>
    </g>
</svg>