<?xml version="1.0" encoding="UTF-8"?><svg version="1.1" width="32px" height="32px" viewBox="0 0 32.0 32.0" xmlns="http://www.w3.org/2000/svg" xmlns:xlink="http://www.w3.org/1999/xlink"><defs><clipPath id="i0"><path d="M1124,0 L1124,915 L0,915 L0,0 L1124,0 Z"></path></clipPath><clipPath id="i1"><path d="M16,0 C24.836556,-1.623249e-15 32,7.163444 32,16 C32,24.836556 24.836556,32 16,32 C7.163444,32 1.082166e-15,24.836556 0,16 C-1.082166e-15,7.163444 7.163444,1.623249e-15 16,0 Z"></path></clipPath><clipPath id="i2"><path d="M12.25,9.8 C13.2164983,9.8 14,10.5835017 14,11.55 L14,12.25 C14,13.2164983 13.2164983,14 12.25,14 L9.45,14 C8.98587114,14 8.5407518,13.8156255 8.21256313,13.4874369 C7.88437447,13.1592482 7.7,12.7141289 7.7,12.25 L7.7,11.55 C7.7,10.5835017 8.48350169,9.8 9.45,9.8 Z M4.55,7.7 C5.51649831,7.7 6.3,8.48350169 6.3,9.45 L6.3,12.25 C6.3,13.2164983 5.51649831,14 4.55,14 L1.75,14 C0.783501688,14 0,13.2164983 0,12.25 L0,9.45 C0,8.48350169 0.783501688,7.7 1.75,7.7 Z M12.25,11.2 L9.45,11.2 C9.25670034,11.2 9.1,11.3567003 9.1,11.55 L9.1,12.25 C9.1,12.4432997 9.25670034,12.6 9.45,12.6 L12.25,12.6 C12.4432997,12.6 12.6,12.4432997 12.6,12.25 L12.6,11.55 C12.6,11.3567003 12.4432997,11.2 12.25,11.2 Z M4.55,9.1 L1.75,9.1 C1.55670034,9.1 1.4,9.25670034 1.4,9.45 L1.4,12.25 C1.4,12.4432997 1.55670034,12.6 1.75,12.6 L4.55,12.6 C4.74329966,12.6 4.9,12.4432997 4.9,12.25 L4.9,9.45 C4.9,9.25670034 4.74329966,9.1 4.55,9.1 Z M12.25,0 C13.2164983,0 14,0.783501688 14,1.75 L14,7 C14,7.96649831 13.2164983,8.75 12.25,8.75 L9.45,8.75 C8.48350169,8.75 7.7,7.96649831 7.7,7 L7.7,1.75 C7.7,0.783501688 8.48350169,0 9.45,0 Z M12.25,1.4 L9.45,1.4 C9.25670034,1.4 9.1,1.55670034 9.1,1.75 L9.1,7 C9.1,7.19329966 9.25670034,7.35 9.45,7.35 L12.25,7.35 C12.4432997,7.35 12.6,7.19329966 12.6,7 L12.6,1.75 C12.6,1.55670034 12.4432997,1.4 12.25,1.4 Z M4.55,0 C5.51649831,0 6.3,0.783501688 6.3,1.75 L6.3,4.55 C6.3,5.51649831 5.51649831,6.3 4.55,6.3 L1.75,6.3 C0.783501688,6.3 0,5.51649831 0,4.55 L0,1.75 C0,0.783501688 0.783501688,0 1.75,0 Z M4.55,1.4 L1.75,1.4 C1.55670034,1.4 1.4,1.55670034 1.4,1.75 L1.4,4.55 C1.4,4.74329966 1.55670034,4.9 1.75,4.9 L4.55,4.9 C4.64282577,4.9 4.73184964,4.86312511 4.79748737,4.79748737 C4.86312511,4.73184964 4.9,4.64282577 4.9,4.55 L4.9,1.75 C4.9,1.55670034 4.74329966,1.4 4.55,1.4 Z"></path></clipPath></defs><g transform="translate(-406.0 -207.0)"><g clip-path="url(#i0)"><g transform="translate(406.0 207.0)"><g clip-path="url(#i1)"><polygon points="0,0 32,0 32,32 0,32 0,0" stroke="none" fill="#0B0C11"></polygon></g><g transform="translate(9.0 9.0)"><g clip-path="url(#i2)"><polygon points="0,0 14,0 14,14 0,14 0,0" stroke="none" fill="#B8B8BA"></polygon></g></g></g></g></g></svg>