<?xml version="1.0" encoding="UTF-8"?><svg version="1.1" width="60px" height="54px" viewBox="0 0 60.0 54.0" xmlns="http://www.w3.org/2000/svg" xmlns:xlink="http://www.w3.org/1999/xlink"><defs><clipPath id="i0"><path d="M1440,0 L1440,1024 L0,1024 L0,0 L1440,0 Z"></path></clipPath><clipPath id="i1"><path d="M0,0 L25.8760673,6.27199987 L25.8760673,33.6895993 L0,26.1631995 L0,0 Z"></path></clipPath><linearGradient id="i2" x1="12.9380336px" y1="0px" x2="12.9380336px" y2="33.6895993px" gradientUnits="userSpaceOnUse"><stop stop-color="#1D2026" offset="0%"></stop><stop stop-color="#2A2D36" offset="100%"></stop></linearGradient><clipPath id="i3"><path d="M0,0 L19.9870313,6.98879986 L19.9870313,34.4063993 L0,26.8799995 L0,0 Z"></path></clipPath><linearGradient id="i4" x1="9.99351564px" y1="0px" x2="9.99351564px" y2="34.4063993px" gradientUnits="userSpaceOnUse"><stop stop-color="#1D2026" offset="0%"></stop><stop stop-color="#21232B" offset="100%"></stop></linearGradient><clipPath id="i5"><path d="M20.2769499,0 L27.5285489,10.3121201 L7.04112387,18.7591829 L0,6.95468247 L20.2769499,0 Z"></path></clipPath><clipPath id="i6"><path d="M6.81407187,0 L32.4714511,6.23788248 L25.5433509,18.0423829 L0,10.7489349 L6.81407187,0 Z"></path></clipPath><clipPath id="i7"><path d="M25.5787101,0 L25.5787101,13.7888836 L0,7.55100111 L25.5787101,0 Z"></path></clipPath><linearGradient id="i8" x1="12.789355px" y1="2.89259592px" x2="12.789355px" y2="15.3972558px" gradientUnits="userSpaceOnUse"><stop stop-color="#24262E" offset="0%"></stop><stop stop-color="#1B1C21" offset="100%"></stop></linearGradient><clipPath id="i9"><path d="M20.4145942,0 L20.4145942,13.7888836 L0,6.83420112 L20.4145942,0 Z"></path></clipPath><linearGradient id="i10" x1="10.2072971px" y1="2.89259592px" x2="10.2072971px" y2="15.3972558px" gradientUnits="userSpaceOnUse"><stop stop-color="#24262E" offset="0%"></stop><stop stop-color="#121316" offset="100%"></stop></linearGradient><clipPath id="i11"><path d="M5.25279118,8.16858325 L6.73991111,8.59282762 L5.25279118,10.6053694 L5.25279118,8.16858325 Z M12.2397538,0 L9.91309205,8.85610122 L5.39585243,7.47430332 L9.42843187,2.76174622 L4.2250062,7.13675146 L0,5.8693451 L12.2397538,0 Z"></path></clipPath></defs><g transform="translate(-830.0 -599.0)"><g clip-path="url(#i0)"><g transform="translate(830.0 596.0)"><g transform="translate(0.0 2.9999999999998472)"><g transform="translate(0.0 12.092732899226796)"><g transform="translate(6.892740977582649 7.551001109861804)"><g clip-path="url(#i1)"><polygon points="0,0 25.8760673,0 25.8760673,33.6895993 0,33.6895993 0,0" stroke="none" fill="url(#i2)"></polygon></g></g><g transform="translate(52.75583954437024 6.834201124239577) scale(-1.0 1.0)"><g clip-path="url(#i3)"><polygon points="0,0 19.9870313,0 19.9870313,34.4063993 0,34.4063993 0,0" stroke="none" fill="url(#i4)"></polygon></g></g><g transform="translate(32.47145105656205 6.8342011242395575)"><g clip-path="url(#i5)"><polygon points="0,0 27.5285489,0 27.5285489,18.7591829 0,18.7591829 0,0" stroke="none" fill="#252630"></polygon></g></g><g transform="translate(0.0 7.551001109861804)"><g clip-path="url(#i6)"><polygon points="0,0 32.4714511,0 32.4714511,18.0423829 0,18.0423829 0,0" stroke="none" fill="#2A2D37"></polygon></g></g><g transform="translate(6.892740977582578 -8.881784197001252e-15)"><g clip-path="url(#i7)"><polygon points="0,0 25.5787101,0 25.5787101,13.7888836 0,13.7888836 0,0" stroke="none" fill="url(#i8)"></polygon></g></g><g transform="translate(52.75583954437029 -8.881784197001252e-15) scale(-1.0 1.0)"><g clip-path="url(#i9)"><polygon points="0,0 20.4145942,0 20.4145942,13.7888836 0,13.7888836 0,0" stroke="none" fill="url(#i10)"></polygon></g></g></g><g transform="translate(24.68074537024522 11.17778068597885)"><path d="M0,16.3159529 C2.32541275,10.1162864 4.56712586,7.67396396 6.72513935,8.98898562 C8.57675545,10.4019064 6.88561769,12.5981742 4.81750911,11.6336399 C1.72159691,10.2082575 3.05854713,4.01859991 11.8086339,0" stroke="#2B2C38" stroke-width="1" fill="none" stroke-linecap="round" stroke-miterlimit="10"></path></g><g transform="translate(33.4537628903037 -1.7763568394002505e-14)"><g transform="translate(1.841812940608996 -0.0002421568500547977) rotate(10.0)"><g clip-path="url(#i11)"><polygon points="-2.94358133e-16,0 12.2397538,0 12.2397538,10.6053694 -2.94358133e-16,10.6053694 -2.94358133e-16,0" stroke="none" fill="#252630"></polygon></g></g></g></g></g></g></g></svg>