<?xml version="1.0" standalone="no"?><!DOCTYPE svg PUBLIC "-//W3C//DTD SVG 1.1//EN" "http://www.w3.org/Graphics/SVG/1.1/DTD/svg11.dtd"><svg t="1657092491783" class="icon" viewBox="0 0 1024 1024" version="1.1" xmlns="http://www.w3.org/2000/svg" p-id="15572" xmlns:xlink="http://www.w3.org/1999/xlink" width="64" height="64"><defs><style type="text/css">@font-face { font-family: feedback-iconfont; src: url("//at.alicdn.com/t/font_1031158_u69w8yhxdu.woff2?t=1630033759944") format("woff2"), url("//at.alicdn.com/t/font_1031158_u69w8yhxdu.woff?t=1630033759944") format("woff"), url("//at.alicdn.com/t/font_1031158_u69w8yhxdu.ttf?t=1630033759944") format("truetype"); }
</style></defs><path d="M502.1696 358.5024a19.0464 19.0464 0 0 0-12.5952 5.376L363.8272 487.4752a17.8176 17.8176 0 0 0 0.3072 25.856 19.3536 19.3536 0 0 0 13.312 5.2224 19.3536 19.3536 0 0 0 13.568-5.4784l93.0816-91.4944V762.88c0 8.8576 6.5536 16.2304 15.2576 17.92l3.7888 0.3584c10.5472 0 19.0464-8.192 19.0464-18.2784V420.6592l94.0032 92.416a19.1488 19.1488 0 0 0 9.9328 5.12l3.6864 0.3584a19.3536 19.3536 0 0 0 13.312-5.2224 17.8176 17.8176 0 0 0 0.256-25.856L517.632 363.8784a19.3024 19.3024 0 0 0-12.3392-5.4272h-3.1232z" p-id="15573"></path><path d="M742.4 256a25.6 25.6 0 0 1 0 51.2h-460.8a25.6 25.6 0 0 1 0-51.2h460.8z" p-id="15574"></path></svg>