<?xml version="1.0" encoding="UTF-8"?>
<svg width="24px" height="24px" viewBox="0 0 24 24" version="1.1" xmlns="http://www.w3.org/2000/svg" xmlns:xlink="http://www.w3.org/1999/xlink">
    <title>切片</title>
    <g id="10-人才端-应用主页" stroke-width="1" fill-rule="evenodd">
        <g id="画板" transform="translate(-26.000000, -102.000000)">
            <g id="icon_sucaiku_hi" transform="translate(26.000000, 102.000000)">
                <polygon id="矩形" opacity="0" points="0 0 24 0 24 24 0 24"></polygon>
                <path d="M18.334737,17.0612074 C18.2194919,17.4786355 18.0425089,17.7380899 17.6676926,18.1111738 L17.3259907,18.4420086 L16.1632027,19.5960179 L15.9140337,19.8716879 C15.7030222,20.1001293 15.5298931,20.2474721 15.327516,20.3339292 C15.2665912,20.3599568 15.2044693,20.3790988 15.1407909,20.3903772 C14.8673556,20.4387721 14.6760816,20.372821 14.4929688,20.2204037 L14.3276091,20.0689278 L12.3666807,18.1267132 L12.3163909,18.0746186 C11.6561883,17.3833971 11.4048038,16.7245612 11.743861,15.8646175 C11.8194675,15.672953 11.933702,15.4851069 12.0718871,15.3106941 C12.2647232,15.0671437 12.5534432,14.8680652 12.9085769,14.7344527 L13.0915417,14.6731991 L13.5051983,14.610351 C14.0728192,14.6011466 14.4182832,14.7369364 14.8006299,15.058538 L14.9852206,15.226 L15.0696788,15.1421873 L15.29949,14.9580435 C15.4957167,14.8254366 15.7178278,14.7299165 15.9712024,14.6670008 L16.1671793,14.6258574 L16.3041865,14.6074559 C17.5778172,14.4868449 18.6878531,15.7819175 18.334737,17.0612074 Z M13.6664632,11.3335358 C14.6494761,11.3335358 15.5918218,11.6379005 16.390947,12.2156444 C16.6887194,12.4321025 16.7571356,12.8487641 16.5406571,13.1466178 C16.324199,13.446038 15.9091242,13.5128064 15.609704,13.2963279 C15.0384701,12.8845285 14.3662496,12.6664632 13.6664632,12.6664632 L13.6664632,12.6664632 L9.66603601,12.6664632 C7.82858305,12.6664632 6.33292646,14.1621402 6.33292646,15.9995931 L6.33292646,15.9995931 L6.33292646,17.9981284 C6.33292646,18.3659851 6.63234666,18.6654257 7.00020344,18.6654257 L7.00020344,18.6654257 L10.9989625,18.6654257 C11.3684061,18.6654257 11.6662598,18.9632794 11.6662598,19.332723 C11.6662598,19.7021666 11.3668192,20 10.9989625,20 L10.9989625,20 L7.00020344,20 C5.89671447,20 5,19.1032042 5,17.9997966 L5,17.9997966 L5,15.9995931 C5,13.4264876 7.09295087,11.3318686 9.66603601,11.3335358 L9.66603601,11.3335358 Z M13.5820508,15.7810838 L13.3839022,15.810297 C13.2331152,15.8505514 13.0906909,15.9403179 12.9867721,16.0523847 C12.8150202,16.2375304 12.7413117,16.6314823 12.8583607,16.9015522 C12.8920644,16.9793195 12.9446633,17.0498032 13.0487877,17.1554817 L13.2830219,17.382735 L15.0152206,19.097 L15.1885248,18.9221248 L15.4632358,18.6343115 L16.9465499,17.1707366 C17.0345065,17.0796761 17.0876613,17.0119509 17.1320642,16.935846 C17.2012222,16.8174198 17.2408579,16.5790425 17.2036134,16.4205302 C17.0882757,15.929356 16.5387589,15.623599 16.061414,15.8671458 C15.9594081,15.9191951 15.8764415,15.9885323 15.7290811,16.1439388 L15.4920446,16.3970739 L15.3755094,16.5105283 C15.3570036,16.5273566 15.338631,16.5434319 15.319904,16.5591855 L14.9687864,16.8309703 L14.1672206,16.031 L14.0717959,15.9772681 L13.946511,15.9014542 C13.7990386,15.8126198 13.717453,15.7865835 13.5820508,15.7810838 Z M11.6662598,4 C13.5069678,4 14.9993897,5.49240159 14.9993897,7.3331299 C14.9993897,9.17383786 13.5069678,10.6662598 11.6662598,10.6662598 C9.82553148,10.6662598 8.3331299,9.17383786 8.3331299,7.3331299 C8.3331299,5.49240159 9.82553148,4 11.6662598,4 Z M11.6662598,5.33292646 C10.5628319,5.33292646 9.66603601,6.23130912 9.66603601,7.3331299 C9.66603601,8.43495067 10.5628319,9.33333333 11.6662598,9.33333333 C12.7697488,9.33333333 13.6664632,8.43653748 13.6664632,7.3331299 C13.6664632,6.22972231 12.7697488,5.33292646 11.6662598,5.33292646 Z" id="形状结合"></path>
            </g>
        </g>
    </g>
</svg>