<?xml version="1.0" standalone="no"?><!DOCTYPE svg PUBLIC "-//W3C//DTD SVG 1.1//EN" "http://www.w3.org/Graphics/SVG/1.1/DTD/svg11.dtd"><svg class="icon" width="64px" height="64.00px" viewBox="0 0 1024 1024" version="1.1" xmlns="http://www.w3.org/2000/svg"><path  d="M238.933333 512q0 113.109333 80 193.109333Q398.890667 785.066667 512 785.066667q113.109333 0 193.109333-79.957334Q785.066667 625.066667 785.066667 512t-79.957334-193.066667Q625.066667 238.933333 512 238.933333T318.933333 318.933333Q238.933333 398.890667 238.933333 512z m-51.2 0q0-134.314667 94.976-229.290667Q377.685333 187.733333 512 187.733333q134.314667 0 229.290667 94.976Q836.266667 377.685333 836.266667 512q0 134.314667-94.976 229.290667Q646.314667 836.266667 512 836.266667q-134.314667 0-229.290667-94.976Q187.733333 646.314667 187.733333 512zM406.570667 379.221333q-3.669333-6.101333-7.509334-11.818666l-7.168-10.709334q-6.570667-8.405333-4.949333-15.104 1.664-6.698667 10.069333-14.336 6.613333-5.717333 15.957334-3.626666 9.344 2.133333 15.573333 9.386666 6.954667 8.362667 13.909333 21.205334c4.650667 8.533333 8.789333 16.853333 12.458667 25.002666h31.530667v-43.946666q0-9.941333 7.125333-13.738667 7.168-3.84 14.848-3.84c5.12 0 10.069333 1.28 14.848 3.84q7.125333 3.84 7.125333 13.738667v43.946666h38.485334q7.338667-9.173333 13.738666-20.224c4.266667-7.424 7.978667-14.421333 11.178667-21.034666a23.296 23.296 0 0 1 12.074667-11.477334c5.12-2.048 11.008-1.28 17.578666 2.304q8.832 4.565333 11.946667 11.477334c2.048 4.565333 1.28 10.282667-2.389333 17.194666l-6.229334 10.325334q-3.328 5.333333-7.338666 11.434666h18.688q13.568 0 22.357333 2.133334a26.922667 26.922667 0 0 1 13.909333 7.637333c3.413333 3.712 5.76 8.704 6.954667 15.104 1.237333 6.4 1.621333 14.506667 1.109333 24.448a155.306667 155.306667 0 0 1-3.114666 20.650667c-1.578667 7.381333-3.456 14.506667-5.674667 21.418666-2.432 7.381333-5.845333 12.074667-10.24 14.122667q-6.613333 3.072-15.402667 0-9.514667-3.029333-11.946666-8.96c-1.536-3.968-1.365333-9.130667 0.597333-15.488a169.685333 169.685333 0 0 0 7.338667-32.512q0.725333-6.485333-0.426667-8.576c-0.682667-1.408-2.645333-2.133333-5.845333-2.133333h-254.293334q-3.626667 0-3.626666 4.224v46.250666q0 9.173333-5.674667 13.397334-5.717333 4.181333-14.122667 4.181333-18.688 0-18.688-17.578667V415.573333q0-18.346667 9.173334-27.349333 9.130667-8.96 29.312-8.96h26.752z m246.485333 287.744c1.706667-5.973333 2.56-12.544 2.56-19.669333v-47.018667q0-19.498667-7.125333-27.52c-4.778667-5.376-13.354667-8.064-25.813334-8.064l-93.44 3.84v-23.68h54.613334q19.029333 0 25.984-7.466666c4.650667-4.992 6.954667-13.696 6.954666-26.197334V486.4q0-10.325333-1.450666-17.194667-1.493333-6.912-5.12-10.709333a19.968 19.968 0 0 0-10.112-5.376 72.106667 72.106667 0 0 0-16.298667-1.536h-154.24q-6.954667 0-12.629333 1.536-5.674667 1.536-9.728 5.376-4.010667 3.84-6.229334 10.496c-1.450667 4.48-2.176 10.24-2.176 17.408v24.832c0 12.501333 2.773333 21.205333 8.405334 26.197333 5.632 4.949333 13.056 7.466667 22.357333 7.466667h55.68v23.68l-94.890667-3.84q-18.688 0-25.472 8.064c-4.522667 5.333333-6.784 14.506667-6.784 27.52v72.96c0 6.144 1.792 11.093333 5.333334 14.762667 3.541333 3.669333 8.490667 5.546667 14.848 5.546666q9.514667 0 15.018666-5.546666a19.968 19.968 0 0 0 5.504-14.72V606.72c0-2.56 1.194667-3.84 3.626667-3.84h82.816v86.016c0 7.381333 2.090667 12.885333 6.229333 16.469333 4.181333 3.541333 9.386667 5.333333 15.786667 5.333334a23.338667 23.338667 0 0 0 15.744-5.333334c4.138667-3.584 6.229333-9.088 6.229333-16.469333v-86.016h81.706667c1.962667 0 3.157333 0.426667 3.669333 1.152 0.469333 0.768 0.725333 2.304 0.725334 4.608v36.266667q0 4.266667-2.218667 6.741333c-1.450667 1.664-4.522667 2.474667-9.130667 2.474667q-6.613333 0-15.957333-1.536a232.362667 232.362667 0 0 1-22.186667-4.949334q-9.173333-2.986667-15.274666 0.085334-6.272 3.2-9.258667 12.885333c-2.176 7.893333-2.090667 13.952 0.384 18.176a20.48 20.48 0 0 0 12.458667 8.96c10.965333 3.072 20.608 5.290667 28.928 6.698667 8.32 1.408 15.786667 2.133333 22.357333 2.133333q14.293333 0 23.808-3.669333a37.973333 37.973333 0 0 0 15.36-10.325334 40.149333 40.149333 0 0 0 8.448-15.658666z m-75.52-173.013333c0-2.048-0.298667-3.413333-0.896-4.224q-0.938667-1.152-4.608-1.152h-125.653333c-2.218667 0-3.669333 0.426667-4.394667 1.152-0.725333 0.768-1.109333 2.176-1.109333 4.224v5.717333a12.8 12.8 0 0 0 1.109333 6.144c0.725333 1.28 2.176 1.877333 4.394667 1.877334h125.653333c2.218667 0 3.669333-0.725333 4.394667-2.261334a13.226667 13.226667 0 0 0 1.109333-5.76v-5.717333zM402.901333 381.44q-3.626667-6.016-7.381333-11.690667l-7.168-10.666666 3.541333-2.389334-3.370666 2.645334q-7.850667-10.069333-5.717334-18.773334 1.962667-7.936 11.349334-16.469333 8.277333-7.253333 19.754666-4.650667 10.709333 2.432 17.877334 10.752 7.253333 8.789333 14.421333 21.973334 7.04 12.928 12.586667 25.301333l-3.84 1.749333v-4.266666h31.488v4.266666h-4.266667v-43.946666q0-12.501333 9.386667-17.493334 8.106667-4.352 16.853333-4.352 8.746667 0 16.853333 4.309334 9.386667 5.034667 9.386667 17.536v43.946666h-4.266667v-4.266666h38.485334v4.266666l-3.328-2.645333q7.125333-8.96 13.354666-19.712 6.357333-10.965333 11.050667-20.736v-0.085333l0.042667-0.085334q5.12-9.813333 14.293333-13.44 9.557333-3.797333 21.205333 2.517334 10.026667 5.248 13.781334 13.44 3.968 8.789333-2.517334 20.992l-0.042666 0.085333-0.042667 0.085333-6.272 10.368q-3.328 5.418667-7.381333 11.562667l-3.584-2.346667v-4.266666h18.688q14.08 0 23.338666 2.218666 10.069333 2.432 16.085334 8.917334 5.973333 6.4 8.021333 17.194666 1.92 10.069333 1.152 25.472v0.128q-0.768 9.813333-3.2 21.205334-2.432 11.306667-5.802667 21.802666-4.266667 12.885333-12.501333 16.725334-8.192 3.797333-18.602667 0.170666l1.408-4.053333-1.28 4.053333q-11.477333-3.669333-14.592-11.434666-2.944-7.338667 0.426667-18.346667v-0.042667l0.042667-0.085333q2.858667-8.149333 4.608-16.64 1.792-8.618667 2.517333-14.933333 0.597333-5.205333 0.085333-6.144l-2.090666 0.170666h-254.293334l0.64-0.042666v46.250666q0 11.349333-7.424 16.810667-6.826667 5.034667-16.64 5.034667-22.954667 0-22.954666-21.845334V415.573333q0-20.138667 10.453333-30.378666 10.410667-10.24 32.298667-10.24h26.752v4.266666l-3.669334 2.218667z m11.178667 2.048h-34.261333q-18.432 0-26.325334 7.765333t-7.893333 24.32v51.968q0 13.312 14.421333 13.312 6.997333 0 11.562667-3.370666 3.968-2.901333 3.968-9.941334V421.290667q0-8.490667 7.936-8.490667h254.293333q7.338667 0 9.6 4.394667 1.706667 3.285333 0.853334 11.093333-0.768 6.656-2.645334 15.658667-1.877333 9.088-4.906666 17.749333l-4.010667-1.408 4.053333 1.28q-2.474667 8.106667-0.64 12.586667 1.621333 4.096 9.216 6.528h0.085334q7.210667 2.56 12.202666 0.213333 4.949333-2.304 8.021334-11.605333 3.242667-10.112 5.546666-20.992 2.346667-10.794667 3.029334-20.053334l4.266666 0.298667-4.266666-0.213333q0.725333-14.378667-1.024-23.466667-1.578667-8.32-5.888-12.970667-4.266667-4.608-11.776-6.4-8.32-2.005333-21.376-2.005333h-26.624l4.394666-6.613333q3.968-6.058667 7.253334-11.349334l6.186666-10.24 3.669334 2.133334-3.797334-1.962667q4.522667-8.490667 2.261334-13.44-2.474667-5.546667-10.026667-9.472-8.106667-4.394667-13.994667-2.090667-6.229333 2.474667-9.898666 9.472l-3.754667-1.962666 3.84 1.834666q-4.821333 10.069333-11.306667 21.333334-6.613333 11.349333-14.08 20.778666l-1.322666 1.578667h-44.8v-48.213333q0-7.381333-4.864-9.984-6.229333-3.328-12.842667-3.328t-12.8 3.328q-4.906667 2.602667-4.906667 9.984v48.213333h-38.570666l-1.109334-2.517333q-5.418667-12.074667-12.330666-24.746667-6.741333-12.416-13.397334-20.48-5.290667-6.186667-13.269333-7.978667-7.253333-1.621333-12.117333 2.645334-7.466667 6.784-8.832 12.202666-1.152 4.693333 4.181333 11.434667l0.085333 0.128 7.253334 10.837333q3.882667 5.845333 7.594666 12.032l3.882667 6.442667z m234.88 282.325333q2.389333-8.405333 2.389333-18.517333v-47.018667q0-17.92-6.058666-24.704-5.845333-6.613333-22.613334-6.613333v-4.266667l0.170667 4.266667-97.877333 4.010667v-32.426667h58.88q17.152 0 22.869333-6.058667 5.802667-6.229333 5.802667-23.296V486.4q0-9.898667-1.365334-16.341333-1.194667-5.674667-4.053333-8.618667-2.773333-2.901333-7.978667-4.138667-5.930667-1.450667-15.317333-1.450666h-154.24q-6.4 0-11.52 1.408-4.650667 1.28-7.893333 4.309333-3.242667 3.072-5.12 8.746667-1.962667 6.058667-1.962667 16.085333v24.832q0 16.810667 6.954667 22.997333 7.253333 6.4 19.541333 6.4h59.946667v32.426667l-99.328-4.053333 0.170666-4.266667v4.266667q-16.725333 0-22.186666 6.528-5.802667 6.826667-5.802667 24.746666v73.045334q0 7.466667 4.138667 11.776 4.053333 4.224 11.776 4.224 7.722667 0 11.946666-4.266667 4.266667-4.309333 4.266667-11.733333V606.72q0-3.626667 2.133333-5.802667 2.133333-2.304 5.802667-2.304h87.082667v90.282667q0 9.130667 4.736 13.226667 5.034667 4.309333 12.970666 4.309333 7.978667 0 13.013334-4.309333 4.693333-4.096 4.693333-13.226667v-90.282667h86.016q5.248 0 7.253333 3.114667 1.408 2.218667 1.408 6.912v36.266667q0 5.845333-3.285333 9.557333-3.456 3.925333-12.373333 3.925333-6.912 0-16.64-1.578666-9.514667-1.578667-22.528-5.077334h-0.128l-0.128-0.042666q-7.509333-2.474667-11.989334-0.170667-4.693333 2.389333-7.125333 10.368l-4.096-1.28 4.096 1.152q-2.816 10.112 0 14.890667 2.773333 4.821333 9.984 7.04l-1.28 4.053333 1.152-4.096q16.298667 4.522667 28.544 6.613333 12.074667 2.005333 21.632 2.005334 13.482667 0 22.314667-3.328 8.533333-3.242667 13.653333-9.130667 5.248-5.973333 7.552-14.08z m8.234667 2.346667q-2.858667 9.898667-9.344 17.28-6.570667 7.509333-17.066667 11.52-10.24 3.882667-25.344 3.882667-10.24 0-23.04-2.133334-12.714667-2.133333-29.44-6.826666h-0.042667q-10.410667-3.157333-14.933333-10.922667-4.565333-7.850667-0.768-21.461333v-0.085334q3.541333-11.434667 11.434667-15.445333 7.68-3.925333 18.56-0.341333l-1.365334 4.053333 1.109334-4.138667q12.629333 3.413333 21.76 4.864 9.002667 1.493333 15.274666 1.493334 5.034667 0 5.973334-1.066667 1.109333-1.28 1.109333-3.84v-36.309333q0-2.218667-0.085333-2.304l-0.042667 0.853333h-81.706667v-4.266667h4.266667v85.973334q0 13.056-7.722667 19.669333-7.424 6.4-18.56 6.4-11.093333 0-18.517333-6.4-7.68-6.613333-7.68-19.626667V602.88h4.266667v4.266667H402.389333l0.341334-0.341334 0.298666-0.085333v66.517333q0 10.922667-6.741333 17.706667-6.741333 6.826667-18.048 6.826667-11.349333 0-17.92-6.826667-6.528-6.826667-6.528-17.706667v-73.002666q0-21.077333 7.808-30.293334 8.064-9.557333 28.714667-9.557333h0.085333l94.976 3.84-0.170667 4.266667h-4.266666v-23.68h4.266666v4.266666h-55.68q-15.530667 0-25.173333-8.533333-9.856-8.746667-9.856-29.397333V486.4q0-11.392 2.389333-18.773333 2.56-7.68 7.338667-12.245334 4.821333-4.565333 11.52-6.4 6.272-1.664 13.781333-1.664h154.24q10.410667 0 17.322667 1.664 7.637333 1.834667 12.16 6.528 4.48 4.693333 6.229333 12.8 1.536 7.296 1.536 18.090667v24.832q0 20.437333-8.106666 29.098667-8.234667 8.832-29.141334 8.832h-54.613333v-4.266667h4.266667v23.68h-4.266667l-0.128-4.266667 93.525333-3.84h0.085334q20.565333 0 29.013333 9.472 8.192 9.258667 8.192 30.378667v47.018667q0 11.306667-2.688 20.864z m-83.925334-174.208v-1.536l-1.237333 0.426667h-125.653333l-1.322667-0.128 0.085333 1.237333v5.717333q0 3.072 0.512 4.010667l0.725334-0.256h125.653333l0.554667 0.128q0.682667-1.408 0.682666-3.84v-5.76z m8.533334 0v5.717333q0 4.437333-1.493334 7.594667-2.261333 4.693333-8.277333 4.693333h-125.653333q-5.76 0-8.106667-4.010666-1.664-2.901333-1.664-8.277334v-5.717333q0-4.778667 2.304-7.168 2.346667-2.474667 7.466667-2.474667h125.653333q5.717333 0 7.936 2.773334 1.834667 2.304 1.834667 6.826666z" /></svg>