<?xml version="1.0" standalone="no"?><!DOCTYPE svg PUBLIC "-//W3C//DTD SVG 1.1//EN" "http://www.w3.org/Graphics/SVG/1.1/DTD/svg11.dtd"><svg t="1659579448619" class="icon" viewBox="0 0 1024 1024" version="1.1" xmlns="http://www.w3.org/2000/svg" p-id="1576" xmlns:xlink="http://www.w3.org/1999/xlink" width="64" height="64"><defs><style type="text/css">@font-face { font-family: feedback-iconfont; src: url("//at.alicdn.com/t/font_1031158_u69w8yhxdu.woff2?t=1630033759944") format("woff2"), url("//at.alicdn.com/t/font_1031158_u69w8yhxdu.woff?t=1630033759944") format("woff"), url("//at.alicdn.com/t/font_1031158_u69w8yhxdu.ttf?t=1630033759944") format("truetype"); }
</style></defs><path d="M435.925333 482.304a155.818667 155.818667 0 1 1 0-311.637333 155.818667 155.818667 0 0 1 0 311.637333zM825.472 170.666667c21.546667 0 38.997333 17.450667 38.997333 38.954666v77.909334h77.909334a38.954667 38.954667 0 1 1 0 77.909333H864.426667v77.909333a38.954667 38.954667 0 0 1-77.866667 0V365.44h-77.909333a38.954667 38.954667 0 1 1 0-77.909333h77.866666V209.621333c0-21.504 17.493333-38.954667 38.997334-38.954666zM85.418667 840.704c15.061333-185.941333 165.973333-280.490667 349.909333-280.490667 186.538667 0 339.754667 89.344 351.146667 280.490667 0.512 7.637333 0 31.146667-29.226667 31.146667H113.664c-9.770667 0-29.141333-21.034667-28.288-31.146667z" p-id="1577"></path></svg>