<?xml version="1.0" standalone="no"?><!DOCTYPE svg PUBLIC "-//W3C//DTD SVG 1.1//EN" "http://www.w3.org/Graphics/SVG/1.1/DTD/svg11.dtd"><svg t="1662519752245" class="icon" viewBox="0 0 1024 1024" version="1.1" xmlns="http://www.w3.org/2000/svg" p-id="1134" xmlns:xlink="http://www.w3.org/1999/xlink" width="64" height="64"><path d="M776.35742188 202.08007812L243.29199219 202.08007812c-56.00390625 0-101.32910156 45.40429688-101.32910156 101.32910157l0 391.47363281c0 56.00390625 45.40429688 101.32910156 101.32910156 101.32910156l533.06542969 0c56.00390625 0 101.32910156-45.40429688 101.32910156-101.32910156L877.68652344 303.40917969C877.68652344 247.484375 832.36132813 202.08007812 776.35742188 202.08007812zM349.52539062 331.96484375c28.4765625 0 51.57421875 23.09765625 51.57421876 51.57421875s-23.09765625 51.57421875-51.57421875 51.57421875-51.57421875-23.09765625-51.57421875-51.57421875S321.04882812 331.96484375 349.52539062 331.96484375zM826.58691406 609.453125c-6.64453125 5.14160156-16.21582031 3.796875-21.27832031-2.84765625L691.63964844 456.47070312c-0.31640625-0.47460938-32.03613281-41.1328125-70.55859375-37.25683593-31.32421875 3.55957031-62.09472656 36.94042969-88.98925782 96.58300781-28.4765625 63.36035156-56.39941406 96.42480469-87.80273437 104.17675781-35.59570313 8.62207031-66.28710938-15.50390625-98.79785156-41.21191406l-4.11328125-3.24316406c-38.04785156-29.82128906-56.24121094-23.01855469-129.48925782 48.7265625-2.92675781 2.92675781-6.80273438 4.35058594-10.59960937 4.35058593-3.95507813 0-7.91015625-1.50292969-10.83691406-4.58789062-5.85351563-6.01171875-5.77441406-15.66210938 0.23730469-21.515625C257.21386719 537.3125 297.87207031 502.74511719 360.125 551.62988281l4.19238281 3.24316407c27.76464844 21.91113281 51.73242188 40.81640625 72.7734375 35.59570312 20.96191406-5.14160156 43.58496094-34.40917969 67.31542969-87.09082031 32.03613281-71.11230469 70.16308594-109.63476563 113.51074219-114.38085938 55.76660156-5.93261719 96.34570313 46.90722656 98.00683593 49.20117188l113.51074219 149.9765625C834.49707031 594.8984375 833.23144531 604.390625 826.58691406 609.453125z" p-id="1135"></path></svg>