<?xml version="1.0" encoding="UTF-8"?><svg version="1.1" width="39px" height="31px" viewBox="0 0 39.0 31.0" xmlns="http://www.w3.org/2000/svg" xmlns:xlink="http://www.w3.org/1999/xlink"><defs><clipPath id="i0"><path d="M1440,0 L1440,985 L0,985 L0,0 L1440,0 Z"></path></clipPath><clipPath id="i1"><path d="M14,0 C21.7319865,0 28,6.2680135 28,14 C28,21.7319865 21.7319865,28 14,28 C6.2680135,28 0,21.7319865 0,14 C0,6.2680135 6.2680135,0 14,0 Z"></path></clipPath><clipPath id="i2"><path d="M7.9573407,0 L10.6554153,2.8153388 L2.69807457,11.1185229 L0,11.1185229 L0,8.30318414 L7.9573407,0 Z"></path></clipPath><clipPath id="i3"><path d="M1.3179938,0.218216691 C1.59801019,-0.0733176203 2.0515784,-0.0726654183 2.33096975,0.219738495 L4.01460995,1.97655338 C4.29545972,2.2702617 4.29483469,2.74354298 4.01460995,3.03507729 L2.69807457,4.40883218 L0,1.59349339 L1.31653538,0.219738495 Z"></path></clipPath></defs><g transform="translate(-1025.0 -770.0)"><g clip-path="url(#i0)"><g transform="translate(1025.0 770.0)"><g transform="translate(6.0 2.0)"><g clip-path="url(#i1)"><polygon points="0,0 28,0 28,28 0,28 0,0" stroke="none" fill="#FFFFFF" opacity="13.9346168%"></polygon></g></g><g transform="translate(13.0 9.0)"><g transform="translate(0.0 2.396788897947788)"><g clip-path="url(#i2)"><polygon points="0,0 10.6554153,0 10.6554153,11.1185229 0,11.1185229 0,0" stroke="none" fill="#FFFFFF"></polygon></g></g><g transform="translate(8.726969077442513 0.0)"><g clip-path="url(#i3)"><polygon points="0,-2.77555756e-17 4.22519592,-2.77555756e-17 4.22519592,4.40883218 0,4.40883218 0,-2.77555756e-17" stroke="none" fill="#FFFFFF" opacity="54.2596726%"></polygon></g></g></g></g></g></g></svg>