<?xml version="1.0" standalone="no"?><!DOCTYPE svg PUBLIC "-//W3C//DTD SVG 1.1//EN" "http://www.w3.org/Graphics/SVG/1.1/DTD/svg11.dtd"><svg t="1658998993125" class="icon" viewBox="0 0 1024 1024" version="1.1" xmlns="http://www.w3.org/2000/svg" p-id="1416" xmlns:xlink="http://www.w3.org/1999/xlink" width="64" height="64"><defs><style type="text/css">@font-face { font-family: feedback-iconfont; src: url("//at.alicdn.com/t/font_1031158_u69w8yhxdu.woff2?t=1630033759944") format("woff2"), url("//at.alicdn.com/t/font_1031158_u69w8yhxdu.woff?t=1630033759944") format("woff"), url("//at.alicdn.com/t/font_1031158_u69w8yhxdu.ttf?t=1630033759944") format("truetype"); }
</style></defs><path d="M301.995104 307.329493H423.253518a23.210618 23.210618 0 0 0 0-46.463903H301.995104A87.76515 87.76515 0 0 0 213.333956 347.478743v328.831315a87.807817 87.807817 0 0 0 88.746481 86.570486h121.301081a23.893284 23.893284 0 0 0 20.607957-11.605309 22.613286 22.613286 0 0 0 0-23.210618 23.893284 23.893284 0 0 0-20.607957-11.562643H301.995104a40.789248 40.789248 0 0 1-41.215914-40.234583V347.436076a40.703915 40.703915 0 0 1 41.215914-40.14925v0.042667z m296.959382 409.215148h-31.743934a23.210618 23.210618 0 1 0 0 46.506569h31.701267a23.893284 23.893284 0 0 0 20.607957-11.605309c4.266658-7.167985 4.266658-16.0853 0-23.253285a23.893284 23.893284 0 0 0-20.607957-11.562642v-0.085333z m65.919862-409.172481h23.637284a41.38658 41.38658 0 0 1 24.746615 7.97865c10.495978 7.253318 24.874615 5.119989 32.767932-4.949323a22.783953 22.783953 0 0 0-4.266658-32.085267 89.599813 89.599813 0 0 0-53.247889-17.32263h-23.67995a23.253285 23.253285 0 0 0 0 46.506569v-0.170666z m88.618482 277.332755a23.466618 23.466618 0 0 0-23.765284 23.210619v63.8292a23.80795 23.80795 0 0 0 47.573235 0V607.915534a23.466618 23.466618 0 0 0-23.807951-23.210619z m0-255.316801a23.466618 23.466618 0 0 0-23.765284 23.253285V416.427932a23.210618 23.210618 0 0 0 11.903976 19.882626 24.447949 24.447949 0 0 0 23.765283 0 23.253285 23.253285 0 0 0 11.903976-19.882626V352.556066a23.466618 23.466618 0 0 0-23.807951-23.253285v0.085333z m0 127.6584a23.466618 23.466618 0 0 0-23.765284 23.210619v63.871867a23.80795 23.80795 0 0 0 47.573235 0V480.257133a23.466618 23.466618 0 0 0-23.807951-23.210619z m-40.490582 251.60481a41.685246 41.685246 0 0 1-24.533282 7.893317h-24.06395a23.893284 23.893284 0 0 0-20.565291 11.605309 22.613286 22.613286 0 0 0 0 23.210618 23.893284 23.893284 0 0 0 20.565291 11.605309h24.06395a89.599813 89.599813 0 0 0 52.86389-17.066631 22.783953 22.783953 0 0 0 4.906656-32.383932 24.234616 24.234616 0 0 0-33.151931-4.778657l-0.085333-0.085333zM598.954486 260.99359h-31.743934a23.210618 23.210618 0 1 0 0 46.506569h31.701267a23.253285 23.253285 0 0 0 0-46.506569zM492.288041 213.335022a23.466618 23.466618 0 0 0-23.765284 23.210619l-0.639998 550.910852a23.466618 23.466618 0 0 0 23.722617 23.210618 23.509284 23.509284 0 0 0 23.765284-23.210618L516.053325 236.545641A22.869286 22.869286 0 0 0 509.098673 220.161675 24.106616 24.106616 0 0 0 492.373374 213.505689V213.335022z" p-id="1417"></path></svg>