<?xml version="1.0" encoding="UTF-8"?><svg version="1.1" width="32px" height="32px" viewBox="0 0 32.0 32.0" xmlns="http://www.w3.org/2000/svg" xmlns:xlink="http://www.w3.org/1999/xlink"><defs><clipPath id="i0"><path d="M1440,0 L1440,1024 L0,1024 L0,0 L1440,0 Z"></path></clipPath><clipPath id="i1"><path d="M16,0 C24.836556,0 32,7.163444 32,16 C32,24.836556 24.836556,32 16,32 C7.163444,32 0,24.836556 0,16 C0,7.163444 7.163444,0 16,0 Z"></path></clipPath><clipPath id="i2"><path d="M12.4,0 C13.2836556,-1.62324903e-16 14,0.716344411 14,1.60000002 L14,12.4 C14,13.2836556 13.2836556,14 12.4,14 L1.60000002,14 C0.716344411,14 1.08216602e-16,13.2836556 0,12.4 L0,1.60000002 C-1.08216602e-16,0.716344411 0.716344411,1.62324903e-16 1.60000002,0 L12.4,0 Z"></path></clipPath><clipPath id="i3"><path d="M2.39866667,0.354666667 L2.86533333,0.634666667 C2.576,1.41866667 2.20266667,2.39866667 1.876,3.15466667 C2.59466667,3.948 2.76266667,4.62933333 2.76266667,5.21733333 C2.76266667,5.72133333 2.65066667,6.132 2.38,6.30933333 C2.24,6.412 2.06266667,6.468 1.876,6.496 C1.67066667,6.51466667 1.40933333,6.51466667 1.19466667,6.50533333 C1.18533333,6.31866667 1.12933333,6.05733333 1.01733333,5.87066667 C1.25066667,5.88933333 1.43733333,5.88933333 1.60533333,5.88933333 C1.72666667,5.88 1.83866667,5.852 1.92266667,5.796 C2.072,5.69333333 2.11866667,5.432 2.11866667,5.152 C2.11866667,4.62933333 1.94133333,3.98533333 1.232,3.23866667 C1.512,2.548 1.82,1.66133333 2.02533333,1.008 L0.653333333,1.008 L0.653333333,8.512 L0,8.512 L0,0.382666667 L2.296,0.382666667 L2.39866667,0.354666667 Z M8.05466667,1.54933333 L8.05466667,2.20266667 L4.844,2.20266667 C4.83466667,2.688 4.80666667,3.15466667 4.76933333,3.612 L7.504,3.612 L7.504,3.92933333 C7.392,6.804 7.29866667,7.84 7.00933333,8.16666667 C6.84133333,8.39066667 6.664,8.456 6.37466667,8.484 C6.104,8.52133333 5.6,8.50266667 5.10533333,8.484 C5.08666667,8.26933333 5.02133333,7.98933333 4.9,7.79333333 C5.404,7.84 5.88933333,7.84933333 6.076,7.84933333 C6.244,7.84933333 6.328,7.83066667 6.42133333,7.728 C6.61733333,7.52266667 6.72,6.62666667 6.81333333,4.24666667 L4.71333333,4.24666667 C4.49866667,6.05733333 3.92933333,7.57866667 2.324,8.484 C2.23066667,8.32533333 2.016,8.092 1.85733333,7.97066667 C3.92,6.86 4.10666667,4.68533333 4.16266667,2.20266667 L2.688,2.20266667 L2.688,1.54933333 L8.05466667,1.54933333 Z M5.44133333,0 C5.6,0.429333333 5.81466667,1.008 5.89866667,1.344 L5.236,1.54933333 C5.152,1.19466667 4.97466667,0.597333333 4.80666667,0.149333333 Z"></path></clipPath></defs><g transform="translate(-1292.0 -9.0)"><g clip-path="url(#i0)"><g transform="translate(1292.0 9.0)"><g clip-path="url(#i1)"><polygon points="0,0 32,0 32,32 0,32 0,0" stroke="none" fill="#15161B"></polygon></g><g transform="translate(9.0 9.0)"><g clip-path="url(#i2)"><polygon points="0,0 14,0 14,14 0,14 0,0" stroke="none" fill="#C4C8D3"></polygon></g><g transform="translate(3.1266666666666083 2.706666666666659)"><g clip-path="url(#i3)"><polygon points="0,0 8.05466667,0 8.05466667,8.512 0,8.512 0,0" stroke="none" fill="#262830"></polygon></g><path d="M2.39866667,0.354666667 L2.296,0.382666667 L0,0.382666667 L0,8.512 L0.653333333,8.512 L0.653333333,1.008 L2.02533333,1.008 C1.82,1.66133333 1.512,2.548 1.232,3.23866667 C1.94133333,3.98533333 2.11866667,4.62933333 2.11866667,5.152 C2.11866667,5.432 2.072,5.69333333 1.92266667,5.796 C1.83866667,5.852 1.72666667,5.88 1.60533333,5.88933333 C1.43733333,5.88933333 1.25066667,5.88933333 1.01733333,5.87066667 C1.12933333,6.05733333 1.18533333,6.31866667 1.19466667,6.50533333 C1.40933333,6.51466667 1.67066667,6.51466667 1.876,6.496 C2.06266667,6.468 2.24,6.412 2.38,6.30933333 C2.65066667,6.132 2.76266667,5.72133333 2.76266667,5.21733333 C2.76266667,4.62933333 2.59466667,3.948 1.876,3.15466667 C2.20266667,2.39866667 2.576,1.41866667 2.86533333,0.634666667 L2.39866667,0.354666667 Z M4.80666667,0.149333333 C4.97466667,0.597333333 5.152,1.19466667 5.236,1.54933333 L5.89866667,1.344 C5.81466667,1.008 5.6,0.429333333 5.44133333,0 L4.80666667,0.149333333 Z M8.05466667,2.20266667 L8.05466667,1.54933333 L2.688,1.54933333 L2.688,2.20266667 L4.16266667,2.20266667 C4.10666667,4.68533333 3.92,6.86 1.85733333,7.97066667 C2.016,8.092 2.23066667,8.32533333 2.324,8.484 C3.92933333,7.57866667 4.49866667,6.05733333 4.71333333,4.24666667 L6.81333333,4.24666667 C6.72,6.62666667 6.61733333,7.52266667 6.42133333,7.728 C6.328,7.83066667 6.244,7.84933333 6.076,7.84933333 C5.88933333,7.84933333 5.404,7.84 4.9,7.79333333 C5.02133333,7.98933333 5.08666667,8.26933333 5.10533333,8.484 C5.6,8.50266667 6.104,8.52133333 6.37466667,8.484 C6.664,8.456 6.84133333,8.39066667 7.00933333,8.16666667 C7.29866667,7.84 7.392,6.804 7.504,3.92933333 L7.504,3.612 L4.76933333,3.612 C4.80666667,3.15466667 4.83466667,2.688 4.844,2.20266667 L8.05466667,2.20266667 Z" stroke="#262830" stroke-width="0.3" fill="none" stroke-miterlimit="10"></path></g></g></g></g></g></svg>