<?xml version="1.0" standalone="no"?><!DOCTYPE svg PUBLIC "-//W3C//DTD SVG 1.1//EN" "http://www.w3.org/Graphics/SVG/1.1/DTD/svg11.dtd"><svg t="1657092496426" class="icon" viewBox="0 0 1024 1024" version="1.1" xmlns="http://www.w3.org/2000/svg" p-id="15722" xmlns:xlink="http://www.w3.org/1999/xlink" width="64" height="64"><defs><style type="text/css">@font-face { font-family: feedback-iconfont; src: url("//at.alicdn.com/t/font_1031158_u69w8yhxdu.woff2?t=1630033759944") format("woff2"), url("//at.alicdn.com/t/font_1031158_u69w8yhxdu.woff?t=1630033759944") format("woff"), url("//at.alicdn.com/t/font_1031158_u69w8yhxdu.ttf?t=1630033759944") format("truetype"); }
</style></defs><path d="M600.8832 429.7728a170.8544 170.8544 0 0 0-17.3568-15.0016 34.5088 34.5088 0 1 0-41.8816 54.3744c3.2256 2.7136 6.4512 5.376 9.4208 8.3456l2.8672 2.816c35.7888 35.7888 25.088 97.3312-10.7008 133.12l-152.7296 152.6784a91.904 91.904 0 0 1-129.7408 0l-2.8672-2.8672a91.7504 91.7504 0 0 1 0-129.7408l67.4816-67.4304A37.4272 37.4272 0 0 0 302.08 499.2a37.376 37.376 0 0 0-21.0944 6.5024l-0.0512-0.1536-0.7168 0.6656a37.6832 37.6832 0 0 0-7.168 6.656L203.008 578.56a169.984 169.984 0 0 0 0 239.616l2.8672 2.8672a170.0352 170.0352 0 0 0 239.616 0l152.6784-152.6784c65.8432-65.8944 71.424-169.8816 5.632-235.7248l-2.8672-2.816z" p-id="15723"></path><path d="M820.992 205.8752l-2.8672-2.8672a169.984 169.984 0 0 0-239.616 0L425.8304 355.7376c-65.9456 65.8944-69.5296 161.0752-3.6352 227.0208l2.816 2.7136c2.9696 3.0208 6.0928 5.8368 9.216 8.5504a32.768 32.768 0 0 0 8.0384 6.5024h0.0512a32.6144 32.6144 0 0 0 45.568-42.496c-4.3008-9.5744-12.3392-15.4624-17.92-21.0432l-2.816-2.7648c-35.7888-35.84-22.2208-87.808 13.568-123.5456l152.7808-152.6784a91.7504 91.7504 0 0 1 129.6896 0l2.8672 2.816a91.8528 91.8528 0 0 1 0 129.7408l-67.2768 67.2768a37.1712 37.1712 0 0 0 41.6256 61.5936l0.1536 0.2048 1.024-0.9216a37.376 37.376 0 0 0 8.448-7.8336l70.912-65.3824a169.8304 169.8304 0 0 0 0-239.616z" p-id="15724"></path></svg>