<?xml version="1.0" encoding="UTF-8"?><svg version="1.1" width="32px" height="32px" viewBox="0 0 32.0 32.0" xmlns="http://www.w3.org/2000/svg" xmlns:xlink="http://www.w3.org/1999/xlink"><defs><clipPath id="i0"><path d="M1440,0 L1440,1024 L0,1024 L0,0 L1440,0 Z"></path></clipPath><clipPath id="i1"><path d="M16,0 C24.836556,0 32,7.163444 32,16 C32,24.836556 24.836556,32 16,32 C7.163444,32 0,24.836556 0,16 C0,7.163444 7.163444,0 16,0 Z"></path></clipPath><clipPath id="i2"><path d="M7,0 C8.93298,0 10.68298,0.783503 11.949735,2.050251 C13.21649,3.31702 14,5.06702 14,7 C14,8.93298 13.21649,10.68298 11.949735,11.949735 C10.68298,13.21649 8.93298,14 7,14 C5.06702,14 3.31702,13.21649 2.050251,11.949735 C0.783503,10.68298 0,8.93298 0,7 C0,5.06702 0.783503,3.31702 2.050251,2.050251 C3.31702,0.783503 5.06702,0 7,0 Z"></path></clipPath><clipPath id="i3"><path d="M0.875,0 C1.358245,0 1.75,0.391755 1.75,0.875 C1.75,1.358245 1.358245,1.75 0.875,1.75 C0.391755,1.75 0,1.358245 0,0.875 C0,0.391755 0.391755,0 0.875,0 Z"></path></clipPath></defs><g transform="translate(-1388.0 -74.0)"><g clip-path="url(#i0)"><g transform="translate(1388.0 74.0)"><g clip-path="url(#i1)"><polygon points="0,0 32,0 32,32 0,32 0,0" stroke="none" fill="#15151B"></polygon></g><g transform="translate(9.0 9.0)"><g clip-path="url(#i2)"><polygon points="0,0 14,0 14,14 0,14 0,0" stroke="none" fill="#C5C7D4"></polygon></g><path d="M7,14 C8.93298,14 10.68298,13.21649 11.949735,11.949735 C13.21649,10.68298 14,8.93298 14,7 C14,5.06702 13.21649,3.31702 11.949735,2.050251 C10.68298,0.783503 8.93298,0 7,0 C5.06702,0 3.31702,0.783503 2.050251,2.050251 C0.783503,3.31702 0,5.06702 0,7 C0,8.93298 0.783503,10.68298 2.050251,11.949735 C3.31702,13.21649 5.06702,14 7,14 Z" stroke="#C5C7D4" stroke-width="2" fill="none" stroke-linejoin="round"></path><g transform="translate(6.125 2.45)"><g clip-path="url(#i3)"><polygon points="0,0 1.75,0 1.75,1.75 0,1.75 0,0" stroke="none" fill="#15151B"></polygon></g></g><g transform="translate(6.475 5.6000000000000005)"><path d="M0.7,4.9 L0.7,0 L0.35,0 L0,0" stroke="#15151B" stroke-width="2" fill="none" stroke-linecap="round" stroke-linejoin="round"></path></g><g transform="translate(5.950000000000001 10.325)"><path d="M0,0.175 L2.45,0.175" stroke="#15151B" stroke-width="2" fill="none" stroke-linecap="round" stroke-linejoin="round"></path></g></g></g></g></g></svg>