<?xml version="1.0" standalone="no"?><!DOCTYPE svg PUBLIC "-//W3C//DTD SVG 1.1//EN" "http://www.w3.org/Graphics/SVG/1.1/DTD/svg11.dtd"><svg t="1662519760593" class="icon" viewBox="0 0 1024 1024" version="1.1" xmlns="http://www.w3.org/2000/svg" p-id="1442" xmlns:xlink="http://www.w3.org/1999/xlink" width="64" height="64"><path d="M764.26666667 115.1q57.6 0 87.3 33.75t29.7 82.35l0 477.9q0 22.5-18.9 40.5l-150.3 144q-11.7 9.9-19.8 12.6t-20.7 2.7l-404.1 0q-20.7 0-41.4-8.55t-36.9-24.3-26.55-37.8-10.35-49.05l0-558q0-53.1 29.25-84.6t83.25-31.5l499.5 0zM575.26666667 679.4q11.7 0 19.8-8.1t8.1-19.8q0-12.6-8.1-20.25t-19.8-7.65l-281.7 0q-11.7 0-19.8 7.65t-8.1 20.25q0 11.7 8.1 19.8t19.8 8.1l281.7 0zM687.76666667 510.2q11.7 0 19.8-8.1t8.1-19.8-8.1-19.8-19.8-8.1l-394.2 0q-11.7 0-19.8 8.1t-8.1 19.8 8.1 19.8 19.8 8.1l394.2 0zM743.56666667 341.9q11.7 0 19.8-8.1t8.1-20.7q0-11.7-8.1-19.8t-19.8-8.1l-450 0q-11.7 0-19.8 8.1t-8.1 19.8q0 12.6 8.1 20.7t19.8 8.1l450 0z" p-id="1443"></path></svg>