<?xml version="1.0" encoding="UTF-8"?><svg version="1.1" width="32px" height="32px" viewBox="0 0 32.0 32.0" xmlns="http://www.w3.org/2000/svg" xmlns:xlink="http://www.w3.org/1999/xlink"><defs><clipPath id="i0"><path d="M1124,0 L1124,915 L0,915 L0,0 L1124,0 Z"></path></clipPath><clipPath id="i1"><path d="M16,0 C24.836556,-1.623249e-15 32,7.163444 32,16 C32,24.836556 24.836556,32 16,32 C7.163444,32 1.082166e-15,24.836556 0,16 C-1.082166e-15,7.163444 7.163444,1.623249e-15 16,0 Z"></path></clipPath><clipPath id="i2"><path d="M2,0 C3.10457143,0 4,0.895431429 4,2 C4,3.10457143 3.10457143,4 2,4 C0.895428571,4 0,3.10457143 0,2 C0,0.895431429 0.895428571,0 2,0 Z"></path></clipPath><clipPath id="i3"><path d="M5.94617281,0.000590493122 C7.01454096,0.00442869841 7.6068636,0.0332152381 8.0740485,0.249114286 C8.548218,0.468257143 8.9337465,0.817942857 9.1753515,1.24802857 C9.45,1.73697143 9.45,2.37702857 9.45,3.65714286 L9.45,4 L0,4 L0.000651056,3.17807455 C0.00488292,2.20903314 0.0366219,1.67177905 0.27466425,1.24802857 C0.51626295,0.817942857 0.9017757,0.468257143 1.3759452,0.249114286 C1.84313556,0.0332152381 2.43545893,0.00442869841 3.50382717,0.000590493122 Z"></path></clipPath><clipPath id="i4"><path d=""></path></clipPath></defs><g transform="translate(-455.0 -207.0)"><g clip-path="url(#i0)"><g transform="translate(455.0 207.0)"><g clip-path="url(#i1)"><polygon points="0,0 32,0 32,32 0,32 0,0" stroke="none" fill="#15151B"></polygon></g><g transform="translate(10.0 10.20499999999998)"><g transform="translate(2.7250000000000236 0.0)"><g clip-path="url(#i2)"><polygon points="0,0 4,0 4,4 0,4 0,0" stroke="none" fill="#C5C7D4"></polygon></g><path d="M2,4 C3.10457143,4 4,3.10457143 4,2 C4,0.895431429 3.10457143,0 2,0 C0.895428571,0 0,0.895431429 0,2 C0,3.10457143 0.895428571,4 2,4 Z" stroke="#C5C7D4" stroke-width="2" fill="none" stroke-linecap="round" stroke-linejoin="round"></path></g><g transform="translate(0.0 7.135000000000048)"><g clip-path="url(#i3)"><polygon points="0,0 9.45,0 9.45,4 0,4 0,0" stroke="none" fill="#C5C7D4"></polygon></g><path d="M0,3.65714286 L0,4 L9.45,4 L9.45,3.65714286 C9.45,2.37702857 9.45,1.73697143 9.1753515,1.24802857 C8.9337465,0.817942857 8.548218,0.468257143 8.0740485,0.249114286 C7.534989,0 6.829326,0 5.418,0 L4.032,0 C2.620674,0 1.915011,0 1.3759452,0.249114286 C0.9017757,0.468257143 0.51626295,0.817942857 0.27466425,1.24802857 C0,1.73697143 0,2.37702857 0,3.65714286 Z" stroke="#C5C7D4" stroke-width="2" fill="none" stroke-linecap="round" stroke-linejoin="round"></path></g><g transform="translate(10.55250000000001 1.9999999999999998)"><g clip-path="url(#i4)"><polygon points="0.1575,0 0.1575,0 0.1575,3.78 0.1575,3.78 0.1575,0" stroke="none" fill="#C5C7D4"></polygon></g></g><g transform="translate(8.82000000000005 3.732500000000016)"><g clip-path="url(#i4)"><polygon points="0,0.1575 3.78,0.1575 3.78,0.1575 0,0.1575 0,0.1575" stroke="none" fill="#C5C7D4"></polygon></g></g><g transform="translate(8.82000000000005 1.9999999999999998)"><path d="M1.89,0 L1.89,3.78 M0,1.89 L3.78,1.89" stroke="#C5C7D4" stroke-width="1.6" fill="none" stroke-linecap="round" stroke-linejoin="round"></path></g></g></g></g></g></svg>