<?xml version="1.0" encoding="UTF-8"?>
<svg width="24px" height="24px" viewBox="0 0 24 24" version="1.1" xmlns="http://www.w3.org/2000/svg" xmlns:xlink="http://www.w3.org/1999/xlink">
    <title>切片</title>
    <g id="10-人才端-应用主页" stroke="none" stroke-width="1" fill-rule="evenodd">
        <g id="画板" transform="translate(-130.000000, -102.000000)">
            <g id="icon_Purchased" transform="translate(130.000000, 102.000000)">
                <rect id="矩形"  opacity="0" x="0" y="0" width="24" height="24"></rect>
                <g id="编组-27" transform="translate(4.000000, 4.000000)">
                    <path d="M13.7,3 L1.7,3 C0.761115925,3 0,3.76111593 0,4.7 L0,13.7 C0,14.6388841 0.761115925,15.4 1.7,15.4 L13.7,15.4 C14.6388841,15.4 15.4,14.6388841 15.4,13.7 L15.4,4.7 C15.4,3.76111593 14.6388841,3 13.7,3 Z M1.7,4.4 L13.7,4.4 C13.8656854,4.4 14,4.53431458 14,4.7 L14,13.7 C14,13.8656854 13.8656854,14 13.7,14 L1.7,14 C1.53431458,14 1.4,13.8656854 1.4,13.7 L1.4,4.7 C1.4,4.53431458 1.53431458,4.4 1.7,4.4 Z" id="矩形" fill-rule="nonzero"></path>
                    <polygon id="直线" fill-rule="nonzero" points="15.4 7.5 15.4 8.9 0.5 8.9 0.5 7.5"></polygon>
                    <path d="M4.2,6.7 C4.47614237,6.7 4.7,6.92385763 4.7,7.2 L4.7,9.2 C4.7,9.47614237 4.47614237,9.7 4.2,9.7 C3.92385763,9.7 3.7,9.47614237 3.7,9.2 L3.7,7.2 C3.7,6.92385763 3.92385763,6.7 4.2,6.7 Z" id="矩形" stroke="#9094A6" stroke-width="0.4"></path>
                    <path d="M11.2,6.7 C11.4761424,6.7 11.7,6.92385763 11.7,7.2 L11.7,9.2 C11.7,9.47614237 11.4761424,9.7 11.2,9.7 C10.9238576,9.7 10.7,9.47614237 10.7,9.2 L10.7,7.2 C10.7,6.92385763 10.9238576,6.7 11.2,6.7 Z" id="矩形" stroke="#9094A6" stroke-width="0.4"></path>
                    <path d="M10.7,0 L4.7,0 C3.76111593,0 3,0.761115925 3,1.7 L3,2.7 C3,3.63888407 3.76111593,4.4 4.7,4.4 L10.7,4.4 C11.6388841,4.4 12.4,3.63888407 12.4,2.7 L12.4,1.7 C12.4,0.761115925 11.6388841,0 10.7,0 Z M4.7,1.4 L10.7,1.4 C10.8656854,1.4 11,1.53431458 11,1.7 L11,2.7 C11,2.86568542 10.8656854,3 10.7,3 L4.7,3 C4.53431458,3 4.4,2.86568542 4.4,2.7 L4.4,1.7 C4.4,1.53431458 4.53431458,1.4 4.7,1.4 Z" id="矩形" fill-rule="nonzero"></path>
                </g>
            </g>
        </g>
    </g>
</svg>