<?xml version="1.0" encoding="UTF-8"?><svg version="1.1" width="24px" height="24px" viewBox="0 0 24.0 24.0" xmlns="http://www.w3.org/2000/svg" xmlns:xlink="http://www.w3.org/1999/xlink"><defs><clipPath id="i0"><path d="M1397,0 L1397,915 L0,915 L0,0 L1397,0 Z"></path></clipPath><clipPath id="i1"><path d="M13.1582717,6.55415761e-07 C14.7265336,0.00105378556 15.9978939,1.27155971 16,2.83982054 L16,12.4230146 C15.9989877,13.1771945 15.6984197,13.900083 15.1644176,14.4326524 C14.6304156,14.9652219 13.9067223,15.2638469 13.1525424,15.2628383 L2.83981857,15.2628383 C1.27230244,15.2607291 0.00210404977,13.9905308 0,12.4230146 L0,2.83982054 C0.00210811015,1.27006851 1.27579476,-0.00105367941 2.84554786,6.55415761e-07 Z M13.1582717,1.25853622 L2.83981857,1.25853622 C1.96873762,1.26169234 1.26426355,1.96873387 1.26426355,2.83982054 L1.26426355,12.4230146 C1.26531586,13.2958976 1.9726649,14.0032466 2.84554786,14.0042989 L13.1582717,14.0042989 C14.0314654,14.0032494 14.7393623,13.2962064 14.7414657,12.4230146 L14.7414657,2.83982054 C14.7404119,1.9661925 14.0319003,1.25853622 13.1582717,1.25853622 Z"></path></clipPath><clipPath id="i2"><path d="M3.24153402,0.0564149179 C3.34890148,0.109420915 3.43581042,0.19632985 3.48881641,0.303697315 L4.12063928,1.58422798 L5.53407061,1.79011509 C5.73905879,1.8200717 5.90930597,1.96372257 5.97332488,2.16074828 C6.03734379,2.357774 5.98404953,2.57405945 5.8358205,2.71878576 L4.81346573,3.71554081 L5.05475671,5.12352538 C5.08976769,5.32786002 5.00574565,5.53435327 4.83801471,5.65619228 C4.67028377,5.7780313 4.4479297,5.79408831 4.26443345,5.69761272 L3.00024304,5.03310936 L1.73605263,5.69761272 C1.55255638,5.79408831 1.33020231,5.7780313 1.16247137,5.65619228 C0.994740432,5.53435327 0.910718394,5.32786002 0.945729371,5.12352538 L1.18702035,3.71608548 L0.164665585,2.71933044 C0.0161052609,2.57464184 -0.0374038395,2.35814561 0.0266462523,2.16090833 C0.0906963442,1.96367104 0.261191701,1.81991717 0.466415473,1.79011509 L1.8798468,1.58422798 L2.51166967,0.303697315 C2.57561683,0.174075106 2.68846278,0.075185089 2.82535691,0.0288045425 C2.96225103,-0.017576004 3.11196672,-0.00764343835 3.24153402,0.0564149179 Z M3,1 L2.38198758,2.25199645 L1,2.45297249 L2,3.42768412 L1.76397516,4.80434783 L3,4.15439219 L4.23602484,4.80434783 L4,3.42768412 L5,2.45297249 L3.61801242,2.25199645 L3,1 Z"></path></clipPath><clipPath id="i3"><path d="M7.5,0 C7.77614237,-5.07265313e-17 8,0.223857625 8,0.5 C8,0.776142375 7.77614237,1 7.5,1 L0.5,1 C0.223857625,1 3.38176876e-17,0.776142375 0,0.5 C-3.38176876e-17,0.223857625 0.223857625,5.07265313e-17 0.5,0 L7.5,0 Z"></path></clipPath></defs><g transform="translate(-370.0 -367.0)"><g clip-path="url(#i0)"><g transform="translate(370.0 367.0)"><g transform="translate(4.0 3.999999999999999)"><g clip-path="url(#i1)"><polygon points="0,-3.72745477e-14 16,-3.72745477e-14 16,15.2628409 0,15.2628409 0,-3.72745477e-14" stroke="none" fill="#9094A6"></polygon></g><g transform="translate(5.0 2.999999999999965)"><g clip-path="url(#i2)"><polygon points="0,6.24500451e-17 6,6.24500451e-17 6,5.76018724 0,5.76018724 0,6.24500451e-17" stroke="none" fill="#9094A6"></polygon></g></g><g transform="translate(4.0 11.0)"><g clip-path="url(#i3)"><polygon points="0,0 8,0 8,1 0,1 0,0" stroke="none" fill="#9094A6"></polygon><path d="M0.5,0 L7.5,0 C7.77614237,-5.07265313e-17 8,0.223857625 8,0.5 C8,0.776142375 7.77614237,1 7.5,1 L0.5,1 C0.223857625,1 3.38176876e-17,0.776142375 0,0.5 C-3.38176876e-17,0.223857625 0.223857625,5.07265313e-17 0.5,0 Z" stroke="#9094A6" stroke-width="2" fill="none" stroke-miterlimit="5"></path></g></g></g></g></g></g></svg>