<?xml version="1.0" encoding="UTF-8"?>
<svg version="1.1" width="24px" height="24px" viewBox="0 0 24.0 24.0" xmlns="http://www.w3.org/2000/svg" xmlns:xlink="http://www.w3.org/1999/xlink">
    <defs>
        <clipPath id="i0">
            <path d="M1440,0 L1440,1024 L0,1024 L0,0 L1440,0 Z"></path>
        </clipPath>
        <clipPath id="i1">
            <path d="M13.4090553,0 C13.7176226,-1.67705208e-16 13.9677659,0.250143272 13.9677659,0.558710636 C13.9677659,0.867278 13.7176226,1.11742127 13.4090553,1.11742127 L0.558710636,1.11742127 C0.250143272,1.11742127 3.77886035e-17,0.867278 0,0.558710636 C-3.77886035e-17,0.250143272 0.250143272,5.66829052e-17 0.558710636,0 L13.4090553,0 Z"></path>
        </clipPath>
        <clipPath id="i2">
            <path d="M7.82194891,0 C8.13051627,-1.67705208e-16 8.38065954,0.250143272 8.38065954,0.558710636 C8.38065954,0.867278 8.13051627,1.11742127 7.82194891,1.11742127 L0.558710636,1.11742127 C0.250143272,1.11742127 3.77886035e-17,0.867278 0,0.558710636 C-3.77886035e-17,0.250143272 0.250143272,-5.43393973e-17 0.558710636,0 L7.82194891,0 Z"></path>
        </clipPath>
        <clipPath id="i3">
            <path d="M0.557994809,0.0282730971 L3.3338155,0.168921445 C3.64645255,0.184762484 3.89181031,0.442867063 3.89181031,0.755905178 C3.89181031,1.04923356 3.65402068,1.28702319 3.3606923,1.28702319 C3.35172906,1.28702319 3.34276726,1.28679629 3.3338155,1.28634272 L0.557994809,1.14569437 C0.245357762,1.12985333 3.83361126e-17,0.871748752 0,0.558710636 C-3.59223661e-17,0.265382257 0.237789635,0.027592622 0.531118014,0.027592622 C0.540081252,0.027592622 0.549043055,0.0278195197 0.557994809,0.0282730971 Z"></path>
        </clipPath>
        <clipPath id="i4">
            <path d="M0.557994809,0.0282730971 L3.3338155,0.168921445 C3.64645255,0.184762484 3.89181031,0.442867063 3.89181031,0.755905178 C3.89181031,1.04923356 3.65402068,1.28702319 3.3606923,1.28702319 C3.35172906,1.28702319 3.34276726,1.28679629 3.3338155,1.28634272 L0.557994809,1.14569437 C0.245357762,1.12985333 3.83361126e-17,0.871748752 0,0.558710636 C-3.59223661e-17,0.265382257 0.237789635,0.027592622 0.531118014,0.027592622 C0.540081252,0.027592622 0.549043055,0.0278195197 0.557994809,0.0282730971 Z"></path>
        </clipPath>
        <clipPath id="i5">
            <path d="M7.82194891,0 C8.13051627,3.87406305e-16 8.38065954,0.250143272 8.38065954,0.558710636 C8.38065954,0.867278 8.13051627,1.11742127 7.82194891,1.11742127 L0.558710636,1.11742127 C0.250143272,1.11742127 3.77886035e-17,0.867278 0,0.558710636 C-3.77886035e-17,0.250143272 0.250143272,5.66829052e-17 0.558710636,0 L7.82194891,0 Z"></path>
        </clipPath>
    </defs>
    <g transform="translate(-1030.0 -686.0)">
        <g clip-path="url(#i0)">
            <g transform="translate(664.0 220.0)">
                <g transform="translate(10.0 466.0)">
                    <g transform="translate(356.0 0.0)">
                        <g transform="translate(5.0 6.000000000000001)">
                            <g clip-path="url(#i1)">
                                <polygon points="0,0 13.9677659,0 13.9677659,1.11742127 0,1.11742127 0,0" stroke="none"></polygon>
                            </g>
                            <g transform="translate(0.0 4.101083906091162)">
                                <g clip-path="url(#i2)">
                                    <polygon points="0,0 8.38065954,0 8.38065954,1.11742127 0,1.11742127 0,0" stroke="none" ></polygon>
                                </g>
                            </g>
                            <g transform="translate(10.31850077971558 3.6656405791309234)">
                                <g transform="translate(1.219024881038422e-13 4.614294250351971) rotate(-44.99999999999999)">
                                    <g clip-path="url(#i3)">
                                        <polygon points="-1.13686838e-13,0.027592622 3.89181031,0.027592622 3.89181031,1.28702319 -1.13686838e-13,1.28702319 -1.13686838e-13,0.027592622" stroke="none" ></polygon>
                                    </g>
                                </g>
                                <g transform="translate(1.2212453270876722e-13 0.9295737571238725) rotate(44.99999999999999) scale(1.0 -1.0)">
                                    <g clip-path="url(#i4)">
                                        <polygon points="-4.54747351e-13,0.027592622 3.89181031,0.027592622 3.89181031,1.28702319 -4.54747351e-13,1.28702319 -4.54747351e-13,0.027592622" stroke="none" ></polygon>
                                    </g>
                                </g>
                            </g>
                            <g transform="translate(0.0 7.428677322970772)">
                                <g clip-path="url(#i5)">
                                    <polygon points="0,0 8.38065954,0 8.38065954,1.11742127 0,1.11742127 0,0" stroke="none" ></polygon>
                                </g>
                            </g>
                            <g transform="translate(0.0 11.17823207921197)">
                                <g clip-path="url(#i1)">
                                    <polygon points="0,0 13.9677659,0 13.9677659,1.11742127 0,1.11742127 0,0" stroke="none" ></polygon>
                                </g>
                            </g>
                        </g>
                    </g>
                </g>
            </g>
        </g>
    </g>
</svg>