<?xml version="1.0" encoding="UTF-8"?><svg version="1.1" width="32px" height="32px" viewBox="0 0 32.0 32.0" xmlns="http://www.w3.org/2000/svg" xmlns:xlink="http://www.w3.org/1999/xlink"><defs><clipPath id="i0"><path d="M1440,0 L1440,1024 L0,1024 L0,0 L1440,0 Z"></path></clipPath><clipPath id="i1"><path d="M16,0 C24.836556,0 32,7.163444 32,16 C32,24.836556 24.836556,32 16,32 C7.163444,32 0,24.836556 0,16 C0,7.163444 7.163444,0 16,0 Z"></path></clipPath><clipPath id="i2"><path d="M7.74611809,12.2507816 C7.74611809,13.2152747 6.96139276,14 5.99221009,14 C5.02146422,14 4.2367389,13.2152747 4.2367389,12.2507816 Z M5.99221009,0 C6.5721565,0 7.04267905,0.468959357 7.04267905,1.04890576 L7.04267905,1.16145601 C9.24991442,1.62885217 10.9022146,3.53126396 10.9022146,5.81196963 L10.9022146,8.92273336 C10.9006514,9.46047343 11.174211,9.95913354 11.6259752,10.2483251 C11.5149881,10.176418 11.3852427,10.1420277 11.2539341,10.1482805 C11.6416071,10.1482805 11.9542467,10.4624833 11.9526894,10.8501563 C11.9511203,11.2362662 11.6369176,11.550469 11.2508077,11.5489116 L0.674210986,11.5489116 C0.288101115,11.534837 -0.013596071,11.2096918 0.000472709735,10.823582 C0.00985189687,10.5661754 0.15748725,10.3462855 0.369271611,10.2324616 L0.393,10.221 L0.468598204,10.1685245 C0.801767226,9.90958921 1.02972164,9.51984911 1.07198083,9.07464777 L1.07907923,8.92429656 L1.07907923,5.81196963 C1.07907923,3.52970076 2.72981617,1.62885217 4.93861474,1.15989281 L4.93861474,1.05046896 C4.93861474,0.470522555 5.41070049,0 5.99064689,0 Z"></path></clipPath></defs><g transform="translate(-1388.0 -14.0)"><g clip-path="url(#i0)"><g transform="translate(1388.0 14.0)"><g clip-path="url(#i1)"><polygon points="0,0 32,0 32,32 0,32 0,0" stroke="none" fill="#15151B"></polygon></g><g transform="translate(10.0 9.0)"><g clip-path="url(#i2)"><polygon points="3.7947076e-19,0 11.9526951,0 11.9526951,14 3.7947076e-19,14 3.7947076e-19,0" stroke="none" fill="#C5C7D4"></polygon></g></g></g></g></g></svg>