<?xml version="1.0" standalone="no"?><!DOCTYPE svg PUBLIC "-//W3C//DTD SVG 1.1//EN" "http://www.w3.org/Graphics/SVG/1.1/DTD/svg11.dtd"><svg t="1662432446579" class="icon" viewBox="0 0 1024 1024" version="1.1" xmlns="http://www.w3.org/2000/svg" p-id="1009" xmlns:xlink="http://www.w3.org/1999/xlink" width="64" height="64"><path d="M587.63705381 228.0237831c-121.95463184 0-221.24512881 99.11062266-221.24512881 221.0652545 0 121.77475752 99.20055937 220.9753169 221.24512881 220.97531689 122.04456856 0 221.33506553-99.11062266 221.33506552-220.97531689C809.06205693 327.13440576 709.68162324 228.0237831 587.63705381 228.0237831L587.63705381 228.0237831zM587.63705381 764.31837675c-77.79554297 0-148.93574502-28.33016924-204.06715313-75.09743173L338.15169424 734.63915234l74.55780967 74.55780967-66.73328701 66.64334942-74.55780968-74.55780967-86.51943633 86.33956201-66.73328701-66.64334942 86.42949961-86.33956201-78.96472471-78.87478799 66.73328702-66.64334941 78.9647247 78.87478799 50.18487101-50.0949334c-31.20815391-48.92575166-49.55531133-106.75527099-49.55531133-168.81183193 0-173.84830576 141.56090771-315.22933916 315.67902451-315.22933916 174.11811768 0 315.76896211 141.3810334 315.76896211 315.22933916C903.40601592 622.84740664 761.75517148 764.31837675 587.63705381 764.31837675L587.63705381 764.31837675z" p-id="1010"></path></svg>