<?xml version="1.0" standalone="no"?><!DOCTYPE svg PUBLIC "-//W3C//DTD SVG 1.1//EN" "http://www.w3.org/Graphics/SVG/1.1/DTD/svg11.dtd"><svg class="icon" width="64px" height="64.00px" viewBox="0 0 1024 1024" version="1.1" xmlns="http://www.w3.org/2000/svg"><path d="M349.098667 388.266667H240.469333q-2.517333 0-4.992-0.512-2.474667-0.469333-4.778666-1.450667-2.346667-0.938667-4.437334-2.346667-2.133333-1.408-3.84-3.2-1.834667-1.792-3.2-3.84-1.408-2.133333-2.389333-4.437333-0.981333-2.346667-1.450667-4.821333-0.512-2.474667-0.512-4.992V254.08h51.2V362.666667h-25.6v-25.6h108.629334v51.2z m25.6-25.6q0 2.56-0.512 4.992-0.469333 2.474667-1.450667 4.821333-0.938667 2.304-2.346667 4.394667-1.408 2.133333-3.2 3.882666-1.792 1.792-3.84 3.2-2.133333 1.408-4.48 2.346667-2.304 0.981333-4.778666 1.450667-2.474667 0.512-4.992 0.512-2.56 0-4.992-0.512-2.474667-0.469333-4.821334-1.450667Q336.981333 385.365333 334.933333 384q-2.133333-1.408-3.882666-3.2-1.792-1.792-3.2-3.84-1.408-2.133333-2.346667-4.437333-0.981333-2.346667-1.493333-4.821334-0.469333-2.474667-0.469334-4.992 0-2.56 0.469334-4.992 0.512-2.474667 1.493333-4.821333 0.938667-2.304 2.346667-4.394667 1.408-2.133333 3.2-3.882666 1.749333-1.792 3.84-3.2 2.133333-1.408 4.437333-2.346667 2.346667-0.981333 4.821333-1.450667 2.474667-0.512 4.992-0.512 2.517333 0 4.992 0.512 2.474667 0.469333 4.778667 1.450667 2.346667 0.938667 4.437333 2.346667 2.133333 1.408 3.882667 3.2 1.792 1.792 3.2 3.84 1.408 2.133333 2.346667 4.437333 0.981333 2.346667 1.450666 4.821333 0.512 2.474667 0.512 4.992zM266.069333 254.08q0 2.517333-0.469333 4.992-0.512 2.474667-1.450667 4.778667-0.981333 2.346667-2.389333 4.437333-1.408 2.090667-3.157333 3.84-1.792 1.834667-3.882667 3.2-2.133333 1.408-4.437333 2.389333-2.346667 0.938667-4.821334 1.450667-2.432 0.512-4.992 0.512-2.517333 0-4.992-0.512-2.474667-0.512-4.778666-1.450667-2.346667-0.981333-4.437334-2.389333-2.133333-1.365333-3.84-3.157333-1.834667-1.792-3.2-3.882667-1.408-2.133333-2.389333-4.437333-0.981333-2.304-1.450667-4.778667-0.512-2.474667-0.512-4.992 0-2.56 0.512-5.034667 0.469333-2.432 1.450667-4.778666 0.981333-2.346667 2.389333-4.437334 1.365333-2.090667 3.157334-3.84 1.792-1.792 3.882666-3.2 2.133333-1.408 4.437334-2.389333 2.304-0.938667 4.778666-1.450667 2.474667-0.469333 4.992-0.469333 2.56 0 4.992 0.469333 2.474667 0.512 4.821334 1.450667 2.346667 0.981333 4.437333 2.389333 2.090667 1.408 3.84 3.157334 1.792 1.792 3.2 3.882666 1.408 2.133333 2.389333 4.437334 0.938667 2.346667 1.450667 4.778666 0.469333 2.474667 0.469333 5.034667zM231.168 349.824Q324.949333 187.733333 512 187.733333q134.314667 0 229.290667 94.976Q836.266667 377.685333 836.266667 512q0 134.314667-94.976 229.290667Q646.314667 836.266667 512 836.266667q-134.314667 0-229.290667-94.976Q187.733333 646.314667 187.733333 512h51.2q0 113.109333 80 193.109333Q398.890667 785.066667 512 785.066667q113.109333 0 193.109333-79.957334Q785.066667 625.066667 785.066667 512t-79.957334-193.066667Q625.066667 238.933333 512 238.933333q-157.525333 0-236.544 136.533334l-44.288-25.642667z m47.744 12.8q0 2.56-0.512 4.992-0.469333 2.474667-1.450667 4.821333-0.938667 2.346667-2.346666 4.437334-1.408 2.090667-3.2 3.84-1.792 1.792-3.84 3.2-2.133333 1.408-4.48 2.389333-2.304 0.938667-4.778667 1.450667-2.474667 0.469333-4.992 0.469333-2.56 0-4.992-0.469333-2.474667-0.512-4.821333-1.450667-2.304-0.981333-4.394667-2.389333-2.133333-1.408-3.882667-3.157334-1.792-1.792-3.2-3.882666-1.408-2.133333-2.346666-4.437334-0.981333-2.346667-1.493334-4.821333-0.469333-2.474667-0.469333-4.992 0-2.517333 0.469333-4.992 0.512-2.474667 1.493334-4.778667 0.938667-2.346667 2.346666-4.437333 1.408-2.133333 3.2-3.84 1.749333-1.834667 3.84-3.242667 2.133333-1.365333 4.437334-2.346666 2.346667-0.981333 4.821333-1.450667 2.474667-0.512 4.992-0.512 2.517333 0 4.992 0.512 2.474667 0.469333 4.778667 1.450667 2.346667 0.981333 4.437333 2.346666 2.133333 1.408 3.882667 3.2 1.792 1.792 3.2 3.882667 1.408 2.133333 2.346666 4.437333 0.981333 2.304 1.450667 4.778667 0.512 2.474667 0.512 4.992zM238.933333 512q0 2.56-0.512 4.992-0.469333 2.474667-1.450666 4.821333-0.938667 2.304-2.346667 4.394667-1.408 2.133333-3.2 3.882667-1.792 1.792-3.84 3.2-2.133333 1.408-4.437333 2.346666-2.346667 0.981333-4.821334 1.450667Q215.893333 537.6 213.333333 537.6q-2.56 0-4.992-0.512-2.474667-0.469333-4.821333-1.450667-2.304-0.938667-4.394667-2.346666-2.133333-1.408-3.882666-3.2-1.792-1.792-3.2-3.84-1.408-2.133333-2.346667-4.437334-0.981333-2.346667-1.450667-4.821333Q187.733333 514.517333 187.733333 512q0-2.56 0.512-4.992 0.469333-2.474667 1.450667-4.821333 0.938667-2.304 2.346667-4.394667 1.408-2.133333 3.2-3.882667 1.792-1.792 3.84-3.2 2.133333-1.408 4.437333-2.346666 2.346667-0.981333 4.821333-1.450667Q210.773333 486.4 213.333333 486.4q2.56 0 4.992 0.512 2.474667 0.469333 4.821334 1.450667 2.304 0.938667 4.394666 2.346666 2.133333 1.408 3.882667 3.2 1.792 1.792 3.2 3.84 1.408 2.133333 2.346667 4.437334 0.981333 2.346667 1.450666 4.821333 0.512 2.474667 0.512 4.992zM620.586667 656.853333l-126.634667-126.634666q-3.584-3.584-5.546667-8.277334t-1.962666-9.813333V332.8h51.2v179.328h-25.6l18.133333-18.090667 126.592 126.634667-36.181333 36.181333z m43.690666-18.090666q0 2.517333-0.469333 4.992-0.512 2.474667-1.493333 4.778666-0.938667 2.346667-2.346667 4.437334-1.408 2.133333-3.2 3.882666-1.749333 1.792-3.84 3.2-2.133333 1.408-4.437333 2.346667-2.346667 0.981333-4.821334 1.450667-2.474667 0.512-4.992 0.512-2.517333 0-4.992-0.512-2.474667-0.469333-4.778666-1.450667-2.346667-0.938667-4.437334-2.346667-2.133333-1.408-3.882666-3.2-1.792-1.792-3.2-3.84-1.408-2.133333-2.346667-4.48-0.981333-2.304-1.450667-4.778666-0.512-2.474667-0.512-4.992 0-2.56 0.512-4.992 0.469333-2.474667 1.450667-4.821334 0.938667-2.304 2.346667-4.394666 1.408-2.133333 3.2-3.882667 1.792-1.792 3.84-3.2 2.133333-1.408 4.48-2.346667 2.304-0.981333 4.778666-1.493333 2.474667-0.469333 4.992-0.469333 2.56 0 4.992 0.469333 2.474667 0.512 4.821334 1.493333 2.304 0.938667 4.394666 2.346667 2.133333 1.408 3.882667 3.2 1.792 1.749333 3.2 3.84 1.408 2.133333 2.346667 4.437333 0.981333 2.346667 1.493333 4.821334 0.469333 2.474667 0.469333 4.992zM537.685333 332.8q0 2.56-0.512 4.992-0.469333 2.474667-1.450666 4.821333-0.981333 2.304-2.346667 4.394667-1.408 2.133333-3.2 3.882667-1.792 1.792-3.84 3.2-2.133333 1.408-4.48 2.346666-2.304 0.981333-4.778667 1.450667-2.474667 0.512-4.992 0.512-2.56 0-4.992-0.512-2.474667-0.469333-4.821333-1.450667-2.304-0.938667-4.437333-2.346666-2.090667-1.408-3.84-3.2-1.792-1.792-3.2-3.84-1.408-2.133333-2.389334-4.437334-0.938667-2.346667-1.450666-4.821333-0.469333-2.474667-0.469334-4.992 0-2.56 0.469334-4.992 0.512-2.474667 1.450666-4.821333 0.981333-2.304 2.389334-4.394667 1.408-2.133333 3.157333-3.882667 1.792-1.792 3.882667-3.2 2.133333-1.408 4.437333-2.346666 2.346667-0.981333 4.821333-1.450667 2.474667-0.512 4.992-0.512 2.517333 0 4.992 0.512 2.474667 0.469333 4.778667 1.450667 2.346667 0.938667 4.437333 2.346666 2.133333 1.408 3.882667 3.2 1.792 1.792 3.2 3.84 1.365333 2.133333 2.346667 4.437334 0.981333 2.346667 1.450666 4.821333 0.512 2.474667 0.512 4.992z" /></svg>