<?xml version="1.0" encoding="UTF-8"?><svg version="1.1" width="39px" height="31px" viewBox="0 0 39.0 31.0" xmlns="http://www.w3.org/2000/svg" xmlns:xlink="http://www.w3.org/1999/xlink"><defs><clipPath id="i0"><path d="M1440,0 L1440,985 L0,985 L0,0 L1440,0 Z"></path></clipPath><clipPath id="i1"><path d="M24.8,0 C26.5673112,8.00948658e-16 28,1.4326888 28,3.2 L28,15.8 C28,17.5673112 26.5673112,19 24.8,19 L3.2,19 C1.4326888,19 1.10461162e-15,17.5673112 0,15.8 L0,3.2 C-2.164332e-16,1.4326888 1.4326888,-5.63528619e-16 3.2,0 L24.8,0 Z"></path></clipPath><clipPath id="i2"><path d="M3.03443335,0 C4.71015216,0 6.06886671,1.29956253 6.06886671,2.90249825 C6.06886671,4.50543397 4.71015216,5.8049965 3.03443335,5.8049965 C1.35863506,5.8049965 0,4.50543397 0,2.90249825 C0,1.29956253 1.35863506,0 3.03443335,0 Z"></path></clipPath><clipPath id="i3"><path d="M6.31393293,0 C8.7681722,0 10.7611337,1.90281137 10.7611337,4.25376348 C10.7611337,4.42613115 10.6134422,4.56747721 10.4332394,4.56747721 L0.327973805,4.56747721 C0.147771038,4.56747721 0,4.42613115 0,4.25376348 C0,1.90623287 1.989305,0 4.44704181,0 L6.31393293,0 Z"></path></clipPath><clipPath id="i4"><path d="M7.39374392,0 C7.82768194,4.23050916e-16 8.1794582,0.351776268 8.1794582,0.785714286 C8.1794582,1.2196523 7.82768194,1.57142857 7.39374392,1.57142857 L0.785714286,1.57142857 C0.351776268,1.57142857 5.31420804e-17,1.2196523 0,0.785714286 C-5.31420804e-17,0.351776268 0.351776268,7.97131207e-17 0.785714286,0 L7.39374392,0 Z"></path></clipPath><clipPath id="i5"><path d="M7.39374392,0 C7.82768194,2.53353787e-16 8.1794582,0.351776268 8.1794582,0.785714286 C8.1794582,1.2196523 7.82768194,1.57142857 7.39374392,1.57142857 L0.785714286,1.57142857 C0.351776268,1.57142857 5.31420804e-17,1.2196523 0,0.785714286 C-5.31420804e-17,0.351776268 0.351776268,1.90735423e-16 0.785714286,0 L7.39374392,0 Z"></path></clipPath><clipPath id="i6"><path d="M7.39374392,0 C7.82768194,-3.01757726e-16 8.1794582,0.351776268 8.1794582,0.785714286 C8.1794582,1.2196523 7.82768194,1.57142857 7.39374392,1.57142857 L0.785714286,1.57142857 C0.351776268,1.57142857 5.31420804e-17,1.2196523 0,0.785714286 C-5.31420804e-17,0.351776268 0.351776268,7.97131207e-17 0.785714286,0 L7.39374392,0 Z"></path></clipPath></defs><g transform="translate(-1009.0 -633.0)"><g clip-path="url(#i0)"><g transform="translate(1009.0 633.0)"><g transform="translate(5.0 6.0)"><g clip-path="url(#i1)"><polygon points="0,0 28,0 28,19 0,19 0,0" stroke="none" fill="#FFFFFF" opacity="13.8764881%"></polygon></g><g transform="translate(3.0 4.0)"><g opacity="57.9961868%"><g transform="translate(2.3641537821384095 0.0)"><g clip-path="url(#i2)"><polygon points="0,0 6.06886671,0 6.06886671,5.8049965 0,5.8049965 0,0" stroke="none" fill="#FFFFFF"></polygon></g></g><g transform="translate(0.0 6.432522794461773)"><g clip-path="url(#i3)"><polygon points="0,0 10.7611337,0 10.7611337,4.56747721 0,4.56747721 0,0" stroke="none" fill="#FFFFFF"></polygon></g></g><g transform="translate(13.820541795549211 1.116588631704066)"><g clip-path="url(#i4)"><polygon points="0,0 8.1794582,0 8.1794582,1.57142857 0,1.57142857 0,0" stroke="none" fill="#FFFFFF"></polygon></g></g><g transform="translate(13.820541795549211 5.045160060275631)"><g clip-path="url(#i5)"><polygon points="0,0 8.1794582,0 8.1794582,1.57142857 0,1.57142857 0,0" stroke="none" fill="#FFFFFF"></polygon></g></g><g transform="translate(13.820541795549211 8.973731488847195)"><g clip-path="url(#i6)"><polygon points="0,0 8.1794582,0 8.1794582,1.57142857 0,1.57142857 0,0" stroke="none" fill="#FFFFFF"></polygon></g></g></g></g></g></g></g></g></svg>