<?xml version="1.0" standalone="no"?><!DOCTYPE svg PUBLIC "-//W3C//DTD SVG 1.1//EN" "http://www.w3.org/Graphics/SVG/1.1/DTD/svg11.dtd"><svg t="1657092427389" class="icon" viewBox="0 0 1024 1024" version="1.1" xmlns="http://www.w3.org/2000/svg" p-id="13177" xmlns:xlink="http://www.w3.org/1999/xlink" width="64" height="64"><defs><style type="text/css">@font-face { font-family: feedback-iconfont; src: url("//at.alicdn.com/t/font_1031158_u69w8yhxdu.woff2?t=1630033759944") format("woff2"), url("//at.alicdn.com/t/font_1031158_u69w8yhxdu.woff?t=1630033759944") format("woff"), url("//at.alicdn.com/t/font_1031158_u69w8yhxdu.ttf?t=1630033759944") format("truetype"); }
</style></defs><path d="M558.08 392.8064H286.3616l96-96a23.1936 23.1936 0 0 0 0-33.5872 23.1936 23.1936 0 0 0-33.5872 0L211.968 398.7968A23.7056 23.7056 0 0 0 204.8 415.5904c0 6.0416 2.4064 12.032 7.168 16.8448l135.68 135.5776a23.1936 23.1936 0 0 0 33.5872 0 23.1936 23.1936 0 0 0 0-33.5872L287.5904 440.832H558.08a161.3312 161.3312 0 0 1 162.048 161.9968 161.3312 161.3312 0 0 1-162.048 161.9968H363.2128a24.064 24.064 0 0 0-24.0128 24.064 24.064 24.064 0 0 0 24.064 23.9616h194.7648a209.5104 209.5104 0 0 0 210.0224-210.0224A209.4592 209.4592 0 0 0 558.08 392.8064z" p-id="13178"></path></svg>