<?xml version="1.0" standalone="no"?><!DOCTYPE svg PUBLIC "-//W3C//DTD SVG 1.1//EN" "http://www.w3.org/Graphics/SVG/1.1/DTD/svg11.dtd"><svg t="1662521089730" class="icon" viewBox="0 0 1024 1024" version="1.1" xmlns="http://www.w3.org/2000/svg" p-id="1806" xmlns:xlink="http://www.w3.org/1999/xlink" width="64" height="64"><path d="M319.247059 596.329412C240.941176 596.329412 174.682353 530.070588 174.682353 451.764706c0-78.305882 66.258824-144.564706 144.564706-144.564706 78.305882 0 144.564706 66.258824 144.564706 144.564706 0 78.305882-66.258824 144.564706-144.564706 144.564706m198.77647-144.564706c0-114.447059-90.352941-204.8-198.77647-204.8C210.823529 246.964706 120.470588 337.317647 120.470588 451.764706c0 102.4 72.282353 186.729412 168.658824 204.8v48.188235h-54.211765c-18.070588 0-30.117647 12.047059-30.117647 30.117647s12.047059 30.117647 30.117647 30.117647h54.211765v48.188236c0 18.070588 12.047059 30.117647 30.117647 30.117647s30.117647-12.047059 30.117647-30.117647v-48.188236h54.211765c18.070588 0 30.117647-12.047059 30.117647-30.117647s-12.047059-30.117647-30.117647-30.117647h-54.211765v-48.188235c96.376471-18.070588 168.658824-102.4 168.658823-204.8" p-id="1807"></path><path d="M849.92 638.494118c0 36.141176-12.047059 78.305882-42.164706 102.4-30.117647 30.117647-66.258824 42.164706-102.4 42.164706C627.049412 783.058824 560.790588 722.823529 560.790588 638.494118c0-36.141176 12.047059-78.305882 42.164706-102.4 24.094118-30.117647 60.235294-42.164706 102.4-42.164706 78.305882 0 144.564706 66.258824 144.564706 144.564706M687.284706 246.964706L590.908235 343.341176c-12.047059 12.047059-12.047059 30.117647 0 42.164706 12.047059 12.047059 30.117647 12.047059 42.164706 0l42.164706-42.164706v96.376471c-42.164706 6.023529-78.305882 24.094118-108.423529 54.211765-42.164706 42.164706-60.235294 90.352941-60.235294 144.564706C506.578824 752.941176 596.931765 843.294118 705.355294 843.294118c54.211765 0 102.4-24.094118 138.541177-60.235294 36.141176-36.141176 60.235294-90.352941 60.235294-144.564706 0-102.4-72.282353-186.729412-168.658824-198.776471V337.317647l42.164706 42.164706c12.047059 12.047059 30.117647 12.047059 42.164706 0 12.047059-12.047059 12.047059-30.117647 0-42.164706L723.425882 246.964706C711.378824 240.941176 693.308235 240.941176 687.284706 246.964706" p-id="1808"></path></svg>