<?xml version="1.0" standalone="no"?><!DOCTYPE svg PUBLIC "-//W3C//DTD SVG 1.1//EN" "http://www.w3.org/Graphics/SVG/1.1/DTD/svg11.dtd"><svg t="1657092476539" class="icon" viewBox="0 0 1024 1024" version="1.1" xmlns="http://www.w3.org/2000/svg" p-id="14974" xmlns:xlink="http://www.w3.org/1999/xlink" width="64" height="64"><defs><style type="text/css">@font-face { font-family: feedback-iconfont; src: url("//at.alicdn.com/t/font_1031158_u69w8yhxdu.woff2?t=1630033759944") format("woff2"), url("//at.alicdn.com/t/font_1031158_u69w8yhxdu.woff?t=1630033759944") format("woff"), url("//at.alicdn.com/t/font_1031158_u69w8yhxdu.ttf?t=1630033759944") format("truetype"); }
</style></defs><path d="M767.9488 308.5824a19.0464 19.0464 0 0 1 5.12 12.6976l1.536 176.3328a17.8176 17.8176 0 0 1-18.5344 18.0736 19.3536 19.3536 0 0 1-13.1072-5.7344 19.3536 19.3536 0 0 1-5.7344-13.4656l-1.1264-130.5088-205.1584 205.1072a18.4832 18.4832 0 0 1-23.3984 1.8944l-2.9696-2.4576a18.688 18.688 0 0 1-0.512-26.368l205.7216-205.7728-131.7888-1.1264a19.1488 19.1488 0 0 1-10.6496-3.3792l-2.8672-2.3552a19.3536 19.3536 0 0 1-5.6832-13.1072 17.8176 17.8176 0 0 1 18.0736-18.4832l176.2816 1.536c4.8128 0 9.216 1.8432 12.6464 4.864l0.1024 0.2048 2.048 2.048z" p-id="14975"></path><path d="M441.9584 299.52v46.4384H323.7888a19.0464 19.0464 0 0 0-19.4048 18.5856v390.1952c0 10.24 8.704 18.5856 19.4048 18.5856h389.3248a18.9952 18.9952 0 0 0 19.3536-18.5856V624.64h48.384v130.0992c0 35.9424-30.3104 65.024-67.7376 65.024H323.7888c-37.4784 0-67.7888-29.0816-67.7888-65.024V364.544c0-35.9424 30.3104-65.024 67.7888-65.024h118.1696z" p-id="14976"></path></svg>