<?xml version="1.0" encoding="UTF-8"?>
<svg width="20px" height="20px" viewBox="0 0 20 20" version="1.1" xmlns="http://www.w3.org/2000/svg" xmlns:xlink="http://www.w3.org/1999/xlink">
    <title>切片</title>
    <defs>
        <linearGradient x1="50%" y1="0%" x2="50%" y2="100%" id="linearGradient-1">
            <stop stop-color="#F27C5D" offset="0%"></stop>
            <stop stop-color="#EA683E" offset="100%"></stop>
        </linearGradient>
    </defs>
    <g id="2-项目" stroke="none" stroke-width="1" fill="none" fill-rule="evenodd">
        <g id="画板" transform="translate(-60.000000, -222.000000)">
            <g id="icon_ppt" transform="translate(60.000000, 222.000000)">
                <rect id="矩形" fill="#DEDEDE" opacity="0" x="0" y="0" width="20" height="20"></rect>
                <path d="M15.60003,17 L4.39997003,17 C3.6299777,17 3,16.3647289 3,15.5882667 L3,4.41173333 C3,3.63527111 3.6299777,3 4.39997003,3 L15.60003,3 C16.3700223,3 17,3.63521778 17,4.41173333 L17,15.5882667 C17,16.3647289 16.3700223,17 15.60003,17 Z" id="Fill-3" fill="url(#linearGradient-1)"></path>
                <g id="P" transform="translate(8.000000, 6.000000)" fill="#FFFFFF" fill-rule="nonzero">
                    <path d="M2.27373675e-13,0 L2.27373675e-13,8.14 L1.17,8.14 L1.17,4.4 L2.94,4.4 C4.68,4.4 5.55,3.66 5.55,2.19 C5.55,0.73 4.68,0 2.96,0 L2.27373675e-13,0 Z M1.17,1 L2.87,1 C3.38,1 3.76,1.09 4,1.28 C4.24,1.46 4.37,1.76 4.37,2.19 C4.37,2.62 4.25,2.93 4.01,3.12 C3.77,3.3 3.39,3.4 2.87,3.4 L1.17,3.4 L1.17,1 Z" id="形状"></path>
                </g>
            </g>
        </g>
    </g>
</svg>