<?xml version="1.0" encoding="UTF-8"?><svg version="1.1" width="50px" height="48px" viewBox="0 0 50.0 48.0" xmlns="http://www.w3.org/2000/svg" xmlns:xlink="http://www.w3.org/1999/xlink"><defs><clipPath id="i0"><path d="M1440,0 L1440,1024 L0,1024 L0,0 L1440,0 Z"></path></clipPath><clipPath id="i1"><path d="M49.985,34.363 C49.9930601,34.423682 49.9973252,34.7059836 49.9990964,35.0857141 L50,45.7470565 C49.9983837,46.3693344 49.4923599,46.87339 48.8676522,46.875 L1.14727915,46.875 C0.523752563,46.875 0.0149313368,46.3681578 0.0149313368,45.7470565 L0.0140262895,35.0945033 C0.0120536648,34.6725804 0.00698629124,34.3709403 0.000110560365,34.3709403 C-0.00565680529,34.3709402 0.214930432,33.9197628 0.494340932,33.3631154 L7.83548431,18.8141087 C8.17487368,18.2215739 8.79283857,17.8409849 9.47665336,17.8033541 L15.5030968,17.8033541 C16.1289528,17.803352 16.6367644,18.307878 16.6383858,18.9312976 L16.6383858,20.8297584 C16.6367644,21.4531781 16.1289528,21.9577041 15.5030968,21.9577019 L13.6295758,21.9577019 C12.9447443,21.9943335 12.3239919,22.3706175 11.9766421,22.9596674 L6.56196062,33.4129207 C6.27666779,33.9666384 6.55313713,34.4178159 7.17666372,34.4178159 L15.5648612,34.4178159 C16.1907172,34.4178137 16.6985288,34.9223397 16.7001502,35.5457594 L16.7001502,41.4462224 C16.7001481,42.0696441 17.2066441,42.5754806 17.832498,42.5770957 L32.0824338,42.5770957 C32.3835311,42.5770957 32.6722963,42.4579505 32.8852043,42.2458706 C33.0981123,42.0337907 33.2177228,41.7461487 33.2177227,41.4462224 L33.2177227,35.5457594 C33.2193391,34.9234815 33.7253629,34.4194259 34.3500706,34.4178159 L42.5735629,34.4178159 C43.1970895,34.4178158 43.4794412,33.960779 43.2029718,33.4041315 L38.0265246,22.9831052 C37.7500552,22.4264577 37.0147644,21.9723506 36.3912378,21.9694208 L34.464776,21.9694208 C33.8412493,21.9694208 33.3324281,21.4625787 33.3324281,20.8414773 L33.3324281,18.9254382 C33.332426,18.3020164 33.8389221,17.79618 34.464776,17.7945649 L40.520631,17.7945649 C41.203124,17.8314804 41.8201136,18.2110476 42.1588589,18.8023898 L49.4647083,33.3543262 C49.7441188,33.908044 49.9764707,34.3650808 49.9852942,34.3650808 L49.985,34.363 Z M25.0348012,1.65777206e-05 C25.3231969,-0.0016663576 25.5973229,0.124862214 25.7824622,0.345131981 L36.1000627,11.9409774 C36.5118255,12.4038737 36.3412381,12.7847378 35.7177115,12.7847378 L29.167741,12.7847378 L29.167741,30.1638574 L20.8442491,30.1638574 L20.8442491,12.7818081 L14.6266301,12.7818081 C14.0031035,12.7847378 13.8266338,12.400944 14.2325143,11.9321883 L24.2912924,0.353921151 C24.4738019,0.131484409 24.7464056,0.00173333388 25.0348012,1.65777206e-05 Z"></path></clipPath></defs><g transform="translate(-495.0 -334.0)"><g clip-path="url(#i0)"><g transform="translate(398.0 333.0)"><g transform="translate(97.0 0.0)"><g transform="translate(0.0 1.5469833647237117)"><g clip-path="url(#i1)"><polygon points="-1.75137682e-13,-1.33226763e-15 50,-1.33226763e-15 50,46.875 -1.75137682e-13,46.875 -1.75137682e-13,-1.33226763e-15" stroke="none" fill="#3C3F50" opacity="40.2273996%"></polygon></g></g></g></g></g></g></svg>