<?xml version="1.0" standalone="no"?><!DOCTYPE svg PUBLIC "-//W3C//DTD SVG 1.1//EN" "http://www.w3.org/Graphics/SVG/1.1/DTD/svg11.dtd"><svg t="1657092485325" class="icon" viewBox="0 0 1024 1024" version="1.1" xmlns="http://www.w3.org/2000/svg" p-id="15273" xmlns:xlink="http://www.w3.org/1999/xlink" width="64" height="64"><defs><style type="text/css">@font-face { font-family: feedback-iconfont; src: url("//at.alicdn.com/t/font_1031158_u69w8yhxdu.woff2?t=1630033759944") format("woff2"), url("//at.alicdn.com/t/font_1031158_u69w8yhxdu.woff?t=1630033759944") format("woff"), url("//at.alicdn.com/t/font_1031158_u69w8yhxdu.ttf?t=1630033759944") format("truetype"); }
</style></defs><path d="M280.576 829.6448a24.576 24.576 0 0 1-24.576-24.4736V280.5248A24.576 24.576 0 0 1 280.576 256h462.9504a24.576 24.576 0 0 1 24.4736 24.576v524.5952a24.4736 24.4736 0 0 1-36.864 21.0944l-218.624-127.8976-219.648 127.9488a24.576 24.576 0 0 1-12.288 3.328z m24.4736-524.5952v457.472l195.1744-113.664a24.4736 24.4736 0 0 1 24.6784 0l194.1504 113.6128V305.0496H305.0496z" p-id="15274"></path><path d="M573.4912 456.704H450.56a24.576 24.576 0 1 1 0-48.9984h122.9824a24.5248 24.5248 0 1 1 0 48.9472z" p-id="15275"></path></svg>