<?xml version="1.0" standalone="no"?><!DOCTYPE svg PUBLIC "-//W3C//DTD SVG 1.1//EN" "http://www.w3.org/Graphics/SVG/1.1/DTD/svg11.dtd"><svg t="1662432452995" class="icon" viewBox="0 0 1024 1024" version="1.1" xmlns="http://www.w3.org/2000/svg" p-id="1163" xmlns:xlink="http://www.w3.org/1999/xlink" width="64" height="64"><path d="M896.35733333 415.48373333V127.69066667H608.5632L715.67893333 234.80533333 607.36 343.12533333c-49.568-34.99733333-110.05226667-55.56373333-175.344-55.56373333-168.10133333 0-304.3744 136.27306667-304.3744 304.37333333S263.91573333 896.30933333 432.01493333 896.30933333s304.37546667-136.272 304.37546667-304.37333333c0-61.632-18.336-118.9728-49.82506667-166.90133333l109.67253334-109.66826667 100.11946666 100.1184zM432.016 800.192c-115.01546667 0-208.256-93.24053333-208.256-208.256s93.24053333-208.256 208.256-208.256 208.256 93.24053333 208.256 208.256-93.24053333 208.256-208.256 208.256z" p-id="1164"></path></svg>