<?xml version="1.0" encoding="UTF-8"?>
<svg width="24px" height="24px" viewBox="0 0 24 24" version="1.1" xmlns="http://www.w3.org/2000/svg" xmlns:xlink="http://www.w3.org/1999/xlink">
    <title>切片</title>
    <g id="10-人才端-应用主页" stroke-width="1" fill-rule="evenodd">
        <g id="画板" transform="translate(-233.000000, -102.000000)">
            <g id="icon_Collection_nor" transform="translate(233.000000, 102.000000)">
                <rect id="矩形"  opacity="0" x="0" y="0" width="24" height="24"></rect>
                <g id="renzheng" transform="translate(5.000000, 4.000000)" stroke-width="0.2">
                    <path d="M6.48772359,0.107945787 L0.760491122,2.62472326 C0.298505524,2.82791396 0.000186434866,3.28470268 0,3.78931195 L0,7.73383092 C0,10.1497471 1.08055318,12.308593 2.98449594,13.7964364 L6.26633218,16.1122138 C6.70620195,16.4225346 7.29379803,16.4225346 7.73376101,16.1122138 L10.9906383,13.8149168 C12.9194468,12.3083133 14,10.1494908 14,7.73383092 L14,3.78966151 C14,3.2847959 13.7016809,2.8276343 13.2395089,2.6244436 L7.51227639,0.107666135 C7.18585225,-0.0358887116 6.81414773,-0.0358887116 6.48772359,0.107666135 L6.48772359,0.107945787 Z M1.27272092,3.78966151 L7.0000466,1.27279083 L12.7272791,3.78966151 L12.7272791,7.73383092 C12.7272791,9.75303704 11.8309701,11.5440236 10.2318018,12.7935334 L7.0000466,15.0720704 L3.7430761,12.7747733 C2.16902984,11.5431147 1.27272092,9.75240782 1.27272092,7.73320171 L1.27272092,3.78966151 Z" id="Fill-1" stroke="#9094A6"></path>
                    <path d="M10.1818139,5.35061073 L11.0816884,6.25046192 L6.94523475,10.3867991 C6.69681029,10.6352235 6.29399446,10.6352235 6.04547678,10.3867991 L3.50003495,7.84135723 L4.39979292,6.94157596 L6.49536742,9.0368009 L10.1818139,5.35061073 Z" id="Fill-3"></path>
                </g>
            </g>
        </g>
    </g>
</svg>