<?xml version="1.0" standalone="no"?><!DOCTYPE svg PUBLIC "-//W3C//DTD SVG 1.1//EN" "http://www.w3.org/Graphics/SVG/1.1/DTD/svg11.dtd"><svg t="1662522333725" class="icon" viewBox="0 0 1024 1024" version="1.1" xmlns="http://www.w3.org/2000/svg" p-id="1810" xmlns:xlink="http://www.w3.org/1999/xlink" width="64" height="64"><path d="M735.016 146.032l-317.024 97.146c-38.562 11.124-69.337 51.17-69.337 89.36v334.08s-22.99-15.572-74.158-8.157c-75.27 10.753-136.08 68.226-136.08 128.664s60.81 97.518 136.08 86.765c75.27-10.753 130.147-66.372 130.147-126.81V424.494c0-26.697 32.258-38.191 32.258-38.191l280.316-87.877s31.147-10.382 31.147 18.168v266.227s-28.551-16.315-79.72-10.382c-75.27 9.27-136.08 65.63-136.08 126.068s60.81 98.63 136.08 89.73c75.27-9.27 136.08-65.63 136.08-126.068V195.347c-0.371-37.82-31.517-60.068-69.709-49.315z" p-id="1811"></path></svg>