<?xml version="1.0" encoding="UTF-8"?><svg version="1.1" width="39px" height="31px" viewBox="0 0 39.0 31.0" xmlns="http://www.w3.org/2000/svg" xmlns:xlink="http://www.w3.org/1999/xlink"><defs><clipPath id="i0"><path d="M1440,0 L1440,985 L0,985 L0,0 L1440,0 Z"></path></clipPath><clipPath id="i1"><path d="M13,0 C20.1797017,0 26,5.82029825 26,13 C26,20.1797017 20.1797017,26 13,26 C5.82029825,26 0,20.1797017 0,13 C0,5.82029825 5.82029825,0 13,0 Z"></path></clipPath><clipPath id="i2"><path d="M4.15247971,0 C4.35495294,0 4.52991622,0.139165804 4.57503254,0.334764881 L5.76676355,5.52772861 C5.81468292,5.73613428 5.73648964,5.95326081 5.56649111,6.08384364 L3.21604103,7.88642336 C3.01565715,8.03987791 2.7360519,8.03761789 2.53819587,7.88094439 L0.207552952,6.03782033 C0.0406111074,5.90548354 -0.0344399864,5.68895971 0.0149832964,5.4822532 L1.24302744,0.331477501 C1.28942635,0.13709602 1.46384279,-8.4616045e-05 1.66447987,0 L4.15247971,0 Z"></path></clipPath><clipPath id="i3"><path d="M5.74671611,4.92860842 C6.02692366,4.92860842 6.26905953,5.12120331 6.33149709,5.39189756 L7.98076217,12.5785644 C8.04707894,12.866982 7.93886539,13.1674686 7.70360035,13.3481853 L4.45075619,15.8428186 C4.17344014,16.055188 3.78648775,16.0520603 3.51267005,15.8352361 L0.2872375,13.2844926 C0.0562026841,13.1013485 -0.0476623219,12.801696 0.0207357426,12.5156299 L1.72025544,5.38734808 C1.78446801,5.11833889 2.02584709,4.92849132 2.30351356,4.92860842 L5.74671611,4.92860842 Z M6.63074047,9.01718522e-07 C6.83098867,9.01718522e-07 7.01845979,0.0979571231 7.13218992,0.262084874 C7.24592005,0.426212626 7.27138087,0.63551986 7.20029276,0.821941749 L6.35738582,3.02768283 C6.26885338,3.2592674 6.04581018,3.41226969 5.79697073,3.41211428 L2.2479289,3.41211428 C2.00360037,3.41223191 1.78366679,3.26462299 1.69208242,3.03905654 L0.796636551,0.83407371 C0.720610546,0.646919743 0.74306899,0.434365077 0.856546289,0.267066727 C0.970023588,0.0997683763 1.15964678,-0.000346606579 1.36238168,9.01718522e-07 L6.63074047,9.01718522e-07 Z"></path></clipPath></defs><g transform="translate(-1009.0 -770.0)"><g clip-path="url(#i0)"><g transform="translate(1009.0 770.0)"><g transform="translate(6.0 2.0)"><g opacity="58.3821615%"><g clip-path="url(#i1)"><polygon points="0,0 26,0 26,26 0,26 0,0" stroke="none" fill="#FFFFFF" opacity="13.4137835%"></polygon></g><g transform="translate(11.17287726372413 11.34867393667666) rotate(-14.999999999999998)"><g clip-path="url(#i2)"><polygon points="1.81896165e-12,-3.91239073e-08 5.78066448,-3.91239073e-08 5.78066448,8 1.81896165e-12,8 1.81896165e-12,-3.91239073e-08" stroke="none" fill="#FFFFFF" opacity="53.7597656%"></polygon></g></g><g transform="translate(17.0 5.00000000000063) scale(-1.0 1.0)"><g clip-path="url(#i3)"><polygon points="-5.55111512e-17,7.1942452e-13 8,7.1942452e-13 8,16 -5.55111512e-17,16 -5.55111512e-17,7.1942452e-13" stroke="none" fill="#FFFFFF"></polygon></g></g></g></g></g></g></g></svg>