<?xml version="1.0" standalone="no"?><!DOCTYPE svg PUBLIC "-//W3C//DTD SVG 1.1//EN" "http://www.w3.org/Graphics/SVG/1.1/DTD/svg11.dtd"><svg t="1657092506691" class="icon" viewBox="0 0 1024 1024" version="1.1" xmlns="http://www.w3.org/2000/svg" p-id="16172" xmlns:xlink="http://www.w3.org/1999/xlink" width="64" height="64"><defs><style type="text/css">@font-face { font-family: feedback-iconfont; src: url("//at.alicdn.com/t/font_1031158_u69w8yhxdu.woff2?t=1630033759944") format("woff2"), url("//at.alicdn.com/t/font_1031158_u69w8yhxdu.woff?t=1630033759944") format("woff"), url("//at.alicdn.com/t/font_1031158_u69w8yhxdu.ttf?t=1630033759944") format("truetype"); }
</style></defs><path d="M641.4848 256H382.208a47.8208 47.8208 0 0 0-41.5232 24.1152L211.0976 507.2896a47.8208 47.8208 0 0 0 0 47.36l129.5872 227.1744a47.8208 47.8208 0 0 0 41.5232 24.064h259.2768c17.152 0 32.9728-9.1648 41.472-24.064l129.9456-227.1232a47.8208 47.8208 0 0 0 0-47.4624L682.9568 280.064a47.8208 47.8208 0 0 0-41.472-24.064z m-259.2768 47.8208h259.2768l129.8944 227.1232-129.8944 227.1744H382.208L252.6208 530.944l129.5872-227.1232z" p-id="16173"></path><path d="M512 423.3728a107.5712 107.5712 0 1 0 0 215.1936 107.5712 107.5712 0 0 0 0-215.1936z m0 47.8208a59.8016 59.8016 0 1 1 0 119.552 59.8016 59.8016 0 0 1 0-119.552z" p-id="16174"></path></svg>