<?xml version="1.0" standalone="no"?><!DOCTYPE svg PUBLIC "-//W3C//DTD SVG 1.1//EN" "http://www.w3.org/Graphics/SVG/1.1/DTD/svg11.dtd"><svg t="1658997677154" class="icon" viewBox="0 0 1024 1024" version="1.1" xmlns="http://www.w3.org/2000/svg" p-id="1971" xmlns:xlink="http://www.w3.org/1999/xlink" width="64" height="64"><defs><style type="text/css">@font-face { font-family: feedback-iconfont; src: url("//at.alicdn.com/t/font_1031158_u69w8yhxdu.woff2?t=1630033759944") format("woff2"), url("//at.alicdn.com/t/font_1031158_u69w8yhxdu.woff?t=1630033759944") format("woff"), url("//at.alicdn.com/t/font_1031158_u69w8yhxdu.ttf?t=1630033759944") format("truetype"); }
</style></defs><path d="M289.408 769.365333a19.84 19.84 0 0 1-19.797333-19.797333v-49.493333c0-49.450667 15.786667-96.938667 43.52-136.533334a240.682667 240.682667 0 0 1 110.805333-87.04l7.936-1.962666-5.973333-3.968a142.421333 142.421333 0 0 1-55.381334-112.768A145.28 145.28 0 0 1 514.986667 213.333333a145.237333 145.237333 0 0 1 144.426666 144.469334c0 43.52-19.797333 85.077333-55.381333 112.768l-5.973333 3.968 7.936 1.962666a240.682667 240.682667 0 0 1 110.805333 87.04c27.733333 39.594667 43.52 87.082667 43.52 136.533334v49.493333a19.84 19.84 0 0 1-19.754667 19.797333H289.408z m223.573333-271.104c-112.768 0-203.818667 91.050667-203.818666 201.813334v29.696H716.8v-29.653334c0-110.805333-91.008-201.813333-203.818667-201.813333z m0-247.338666c-57.386667 0-104.874667 45.525333-104.874666 102.912s47.488 102.869333 104.874666 102.869333c57.386667 0 104.874667-45.482667 104.874667-102.869333S570.368 250.88 512.981333 250.88z m-322.56 445.226666A19.84 19.84 0 0 1 170.666667 676.352v-37.589333c0-73.216 39.594667-138.496 104.874666-170.154667l5.973334-2.005333-4.010667-3.968c-19.754667-21.76-31.658667-49.450667-31.658667-79.146667 0-65.28 53.461333-116.736 116.778667-118.698667 0 0 0 1.962667-2.005333 1.962667-9.898667 13.866667-17.792 27.733333-23.722667 43.52-31.658667 11.904-53.461333 39.594667-53.461333 73.216 0 31.658667 17.834667 59.392 45.525333 71.253333 7.936 3.968 13.866667 9.898667 13.866667 17.792 0 7.936-5.973333 15.829333-13.866667 19.797334l-1.962667-1.962667c-67.285333 17.792-116.736 77.184-116.736 148.394667v17.792h23.722667c-1.962667 13.866667-3.968 27.733333-3.968 39.594666h-39.552z m605.525334 0a243.2 243.2 0 0 0-3.968-39.594666h23.765333v-17.792c0-69.248-47.488-130.56-116.736-148.394667l-3.968-2.005333c-7.936-3.925333-13.866667-9.856-13.866667-19.754667 0-7.936 5.973333-15.829333 13.866667-17.834667 27.733333-11.861333 45.525333-41.557333 45.525333-71.253333 0-33.621333-21.76-63.274667-53.461333-73.173333a186.197333 186.197333 0 0 0-23.722667-43.52s0-2.005333-2.005333-2.005334c65.28 1.962667 116.778667 53.418667 116.778667 118.741334 0 29.653333-11.904 57.386667-31.658667 79.146666l-3.968 3.925334 5.930667 2.005333c65.28 33.621333 104.874667 98.944 104.874666 170.154667v37.589333a19.84 19.84 0 0 1-19.797333 19.797333h-37.546667v3.968z" p-id="1972"></path></svg>