<?xml version="1.0" encoding="UTF-8"?><svg version="1.1" width="25px" height="24px" viewBox="0 0 25.0 24.0" xmlns="http://www.w3.org/2000/svg" xmlns:xlink="http://www.w3.org/1999/xlink"><defs><clipPath id="i0"><path d="M1397,0 L1397,915 L0,915 L0,0 L1397,0 Z"></path></clipPath><clipPath id="i1"><path d="M13.6486393,13.4538807 C14.7696918,13.4538807 15.6797345,14.3649234 15.6807345,15.4839758 L15.6807345,16 L6.04928336,16 L6.04928336,15.4839758 C6.04928336,14.3649234 6.96032604,13.4538807 8.0803785,13.4538807 Z M6.50830486,0.269263135 C6.86732168,-0.0887536351 7.49335101,-0.0907537288 7.85336787,0.269263135 L8.83941406,1.25430928 C8.93241842,1.34531354 8.9834208,1.4683193 8.9834208,1.60032549 C8.9834208,1.68232933 8.96241982,1.76233307 8.92441804,1.8333364 L13.0826128,5.99053113 C13.278622,5.88052598 13.512633,5.92352799 13.6596398,6.07353502 L14.645686,7.05958121 C15.0167034,7.43059859 15.0167034,8.03362684 14.6466861,8.40564426 L11.4125346,11.6387957 C11.0525177,11.9988126 10.4254884,11.9968125 10.0674716,11.6387957 L9.0814254,10.6527495 C8.98942109,10.5617453 8.9384187,10.4377395 8.9384187,10.3077334 C8.93838418,10.2381218 8.95303731,10.1692861 8.98142071,10.1057239 L7.97437354,9.09767668 L2.19710292,14.8749473 C2.06209659,15.0109537 1.88108811,15.0859572 1.69007917,15.0859572 C1.49907022,15.0859572 1.31906179,15.0109537 1.18305542,14.8759473 L0.211009884,13.9029018 C0.0750035133,13.7688955 0,13.587887 0,13.3968781 C0,13.2048691 0.0750035133,13.0248606 0.211009884,12.8888543 L5.98728046,7.11158365 L4.80822523,5.93352846 C4.63321703,6.01453226 4.40220621,5.97653048 4.2611996,5.83352378 L3.27515342,4.84747759 C2.90313599,4.47646021 2.90313599,3.87343196 3.27515342,3.50241458 Z M13.6486393,14.4859291 L8.07937846,14.4859291 C7.72236173,14.4859291 7.40234674,14.6729378 7.22433841,14.9689517 L14.5036794,14.9689517 C14.3266711,14.6729378 14.0066561,14.4859291 13.6486393,14.4859291 Z M8.21038459,2.57937135 L5.56226055,5.22649534 L7.44734885,7.11158365 L7.32434309,7.23358936 L1.4260668,13.1328657 C1.35506347,13.203869 1.31606165,13.2968734 1.31606165,13.3968781 C1.31606165,13.4958827 1.35606352,13.5888871 1.4260668,13.6588903 C1.56807345,13.800897 1.81208488,13.7998969 1.95409153,13.6598904 L7.97437354,7.63860833 L9.68845383,9.35368867 L12.3375779,6.70656467 L8.21038459,2.57937135 Z M13.3276243,7.26259072 C13.2896225,7.26259072 13.2526208,7.27759142 13.2256195,7.30459269 L10.310483,10.2197292 C10.2834817,10.2477306 10.268481,10.2837322 10.268481,10.321734 C10.268481,10.3596543 10.2835812,10.3960134 10.310483,10.4227387 L10.6384983,10.7517542 C10.6925009,10.8057567 10.7885054,10.8057567 10.8425079,10.7517542 L13.7576444,7.83661761 C13.7846457,7.8086163 13.7996464,7.77261461 13.7996464,7.73461283 C13.7996464,7.69669251 13.7845462,7.66033349 13.7576444,7.6336081 L13.4296291,7.30459269 C13.4026278,7.27759142 13.3656261,7.26259072 13.3276243,7.26259072 Z M7.18233644,1.11530277 C7.14333461,1.11530277 7.10633288,1.13030347 7.07933161,1.15730473 L4.16419506,4.07244129 C4.10819244,4.12844391 4.10819244,4.22044822 4.16419506,4.27645084 L4.50521103,4.61846686 C4.55721347,4.67246939 4.65421801,4.67246939 4.70822054,4.61846686 L7.62435714,1.70233026 C7.65135841,1.675329 7.66635911,1.63832727 7.66635911,1.60032549 C7.66628646,1.56261813 7.6515879,1.52640949 7.62535719,1.49932075 L7.28334117,1.15730473 C7.25733995,1.13030347 7.22033822,1.11530277 7.18233644,1.11530277 Z"></path></clipPath></defs><g transform="translate(-472.0 -367.0)"><g clip-path="url(#i0)"><g transform="translate(472.42857142857247 367.0)"><g transform="translate(4.000000000000001 4.0)"><g clip-path="url(#i1)"><polygon points="0,0 15.6807345,0 15.6807345,16 0,16 0,0" stroke="none" fill="#9094A6"></polygon></g></g></g></g></g></svg>