<?xml version="1.0" standalone="no"?><!DOCTYPE svg PUBLIC "-//W3C//DTD SVG 1.1//EN" "http://www.w3.org/Graphics/SVG/1.1/DTD/svg11.dtd"><svg class="icon" width="64px" height="64.00px" viewBox="0 0 1024 1024" version="1.1" xmlns="http://www.w3.org/2000/svg"><path d="M238.933333 512q0 113.109333 80 193.109333Q398.890667 785.066667 512 785.066667q113.109333 0 193.109333-79.957334Q785.066667 625.066667 785.066667 512t-79.957334-193.066667Q625.066667 238.933333 512 238.933333T318.933333 318.933333Q238.933333 398.890667 238.933333 512z m-51.2 0q0-134.314667 94.976-229.290667Q377.685333 187.733333 512 187.733333q134.314667 0 229.290667 94.976Q836.266667 377.685333 836.266667 512q0 134.314667-94.976 229.290667Q646.314667 836.266667 512 836.266667q-134.314667 0-229.290667-94.976Q187.733333 646.314667 187.733333 512zM430.378667 605.098667Q453.12 650.666667 512 650.666667q58.88 0 81.621333-45.568l45.824 22.869333Q602.453333 701.866667 512 701.866667q-90.453333 0-127.445333-73.898667l45.824-22.869333z m2.688 11.434666q0 2.56-0.512 4.992-0.469333 2.474667-1.450667 4.821334-0.938667 2.304-2.346667 4.394666-1.408 2.133333-3.2 3.882667-1.792 1.792-3.84 3.2-2.133333 1.408-4.437333 2.346667-2.346667 0.981333-4.821333 1.450666-2.474667 0.512-4.992 0.512-2.56 0-4.992-0.512-2.474667-0.469333-4.821334-1.450666-2.304-0.938667-4.394666-2.346667-2.133333-1.408-3.882667-3.2-1.792-1.792-3.2-3.84-1.408-2.133333-2.346667-4.437333-0.981333-2.346667-1.450666-4.821334-0.512-2.474667-0.512-4.992 0-2.56 0.512-4.992 0.469333-2.474667 1.450666-4.821333 0.938667-2.304 2.346667-4.394667 1.408-2.133333 3.2-3.882666 1.792-1.792 3.84-3.2 2.133333-1.408 4.437333-2.346667 2.346667-0.981333 4.821334-1.450667 2.474667-0.512 4.992-0.512 2.56 0 4.992 0.512 2.474667 0.469333 4.821333 1.450667 2.304 0.938667 4.394667 2.346667 2.133333 1.408 3.882666 3.2 1.792 1.792 3.2 3.84 1.408 2.133333 2.346667 4.437333 0.981333 2.346667 1.450667 4.821333 0.512 2.474667 0.512 4.992z m209.066666 0q0 2.56-0.512 4.992-0.469333 2.474667-1.450666 4.821334-0.938667 2.304-2.346667 4.394666-1.408 2.133333-3.2 3.882667-1.792 1.792-3.84 3.2-2.133333 1.408-4.437333 2.346667-2.346667 0.981333-4.821334 1.450666-2.474667 0.512-4.992 0.512-2.56 0-4.992-0.512-2.474667-0.469333-4.821333-1.450666-2.304-0.938667-4.394667-2.346667-2.133333-1.408-3.882666-3.2-1.792-1.792-3.2-3.84-1.408-2.133333-2.346667-4.437333-0.981333-2.346667-1.450667-4.821334-0.512-2.474667-0.512-4.992 0-2.56 0.512-4.992 0.469333-2.474667 1.450667-4.821333 0.938667-2.304 2.346667-4.394667 1.408-2.133333 3.2-3.882666 1.792-1.792 3.84-3.2 2.133333-1.408 4.437333-2.346667 2.346667-0.981333 4.821333-1.450667 2.474667-0.512 4.992-0.512 2.56 0 4.992 0.512 2.474667 0.469333 4.821334 1.450667 2.304 0.938667 4.394666 2.346667 2.133333 1.408 3.882667 3.2 1.792 1.792 3.2 3.84 1.408 2.133333 2.346667 4.437333 0.981333 2.346667 1.450666 4.821333 0.512 2.474667 0.512 4.992zM590.933333 482.133333V422.4h51.2v59.733333h-51.2z m51.2 0q0 2.56-0.512 4.992-0.469333 2.474667-1.450666 4.821334-0.938667 2.304-2.346667 4.394666-1.408 2.133333-3.2 3.882667-1.792 1.792-3.84 3.2-2.133333 1.408-4.437333 2.346667-2.346667 0.981333-4.821334 1.450666-2.474667 0.512-4.992 0.512-2.56 0-4.992-0.512-2.474667-0.469333-4.821333-1.450666-2.304-0.938667-4.394667-2.346667-2.133333-1.408-3.882666-3.2-1.792-1.792-3.2-3.84-1.408-2.133333-2.346667-4.437333-0.981333-2.346667-1.450667-4.821334-0.512-2.474667-0.512-4.992 0-2.56 0.512-4.992 0.469333-2.474667 1.450667-4.821333 0.938667-2.304 2.346667-4.394667 1.408-2.133333 3.2-3.882666 1.792-1.792 3.84-3.2 2.133333-1.408 4.437333-2.346667 2.346667-0.981333 4.821333-1.450667 2.474667-0.512 4.992-0.512 2.56 0 4.992 0.512 2.474667 0.469333 4.821334 1.450667 2.304 0.938667 4.394666 2.346667 2.133333 1.408 3.882667 3.2 1.792 1.792 3.2 3.84 1.408 2.133333 2.346667 4.437333 0.981333 2.346667 1.450666 4.821333 0.512 2.474667 0.512 4.992z m0-59.733333q0 2.56-0.512 4.992-0.469333 2.474667-1.450666 4.821333-0.938667 2.304-2.346667 4.394667-1.408 2.133333-3.2 3.882667-1.792 1.792-3.84 3.2-2.133333 1.408-4.437333 2.346666-2.346667 0.981333-4.821334 1.450667-2.474667 0.512-4.992 0.512-2.56 0-4.992-0.512-2.474667-0.469333-4.821333-1.450667-2.304-0.938667-4.394667-2.346666-2.133333-1.408-3.882666-3.2-1.792-1.792-3.2-3.84-1.408-2.133333-2.346667-4.437334-0.981333-2.346667-1.450667-4.821333-0.512-2.474667-0.512-4.992 0-2.56 0.512-4.992 0.469333-2.474667 1.450667-4.821333 0.938667-2.304 2.346667-4.394667 1.408-2.133333 3.2-3.882667 1.792-1.792 3.84-3.2 2.133333-1.408 4.437333-2.346666 2.346667-0.981333 4.821333-1.450667 2.474667-0.512 4.992-0.512 2.56 0 4.992 0.512 2.474667 0.469333 4.821334 1.450667 2.304 0.938667 4.394666 2.346666 2.133333 1.408 3.882667 3.2 1.792 1.792 3.2 3.84 1.408 2.133333 2.346667 4.437334 0.981333 2.346667 1.450666 4.821333 0.512 2.474667 0.512 4.992zM381.866667 482.133333V422.4h51.2v59.733333h-51.2z m51.2 0q0 2.56-0.512 4.992-0.469333 2.474667-1.450667 4.821334-0.938667 2.304-2.346667 4.394666-1.408 2.133333-3.2 3.882667-1.792 1.792-3.84 3.2-2.133333 1.408-4.437333 2.346667-2.346667 0.981333-4.821333 1.450666-2.474667 0.512-4.992 0.512-2.56 0-4.992-0.512-2.474667-0.469333-4.821334-1.450666-2.304-0.938667-4.394666-2.346667-2.133333-1.408-3.882667-3.2-1.792-1.792-3.2-3.84-1.408-2.133333-2.346667-4.437333-0.981333-2.346667-1.450666-4.821334-0.512-2.474667-0.512-4.992 0-2.56 0.512-4.992 0.469333-2.474667 1.450666-4.821333 0.938667-2.304 2.346667-4.394667 1.408-2.133333 3.2-3.882666 1.792-1.792 3.84-3.2 2.133333-1.408 4.437333-2.346667 2.346667-0.981333 4.821334-1.450667 2.474667-0.512 4.992-0.512 2.56 0 4.992 0.512 2.474667 0.469333 4.821333 1.450667 2.304 0.938667 4.394667 2.346667 2.133333 1.408 3.882666 3.2 1.792 1.792 3.2 3.84 1.408 2.133333 2.346667 4.437333 0.981333 2.346667 1.450667 4.821333 0.512 2.474667 0.512 4.992z m0-59.733333q0 2.56-0.512 4.992-0.469333 2.474667-1.450667 4.821333-0.938667 2.304-2.346667 4.394667-1.408 2.133333-3.2 3.882667-1.792 1.792-3.84 3.2-2.133333 1.408-4.437333 2.346666-2.346667 0.981333-4.821333 1.450667-2.474667 0.512-4.992 0.512-2.56 0-4.992-0.512-2.474667-0.469333-4.821334-1.450667-2.304-0.938667-4.394666-2.346666-2.133333-1.408-3.882667-3.2-1.792-1.792-3.2-3.84-1.408-2.133333-2.346667-4.437334-0.981333-2.346667-1.450666-4.821333Q381.866667 424.96 381.866667 422.4q0-2.56 0.512-4.992 0.469333-2.474667 1.450666-4.821333 0.938667-2.304 2.346667-4.394667 1.408-2.133333 3.2-3.882667 1.792-1.792 3.84-3.2 2.133333-1.408 4.437333-2.346666 2.346667-0.981333 4.821334-1.450667 2.474667-0.512 4.992-0.512 2.56 0 4.992 0.512 2.474667 0.469333 4.821333 1.450667 2.304 0.938667 4.394667 2.346666 2.133333 1.408 3.882666 3.2 1.792 1.792 3.2 3.84 1.408 2.133333 2.346667 4.437334 0.981333 2.346667 1.450667 4.821333 0.512 2.474667 0.512 4.992z" /></svg>