<?xml version="1.0" encoding="UTF-8"?><svg version="1.1" width="20px" height="20px" viewBox="0 0 20.0 20.0" xmlns="http://www.w3.org/2000/svg" xmlns:xlink="http://www.w3.org/1999/xlink"><defs><clipPath id="i0"><path d="M1124,0 L1124,915 L0,915 L0,0 L1124,0 Z"></path></clipPath><clipPath id="i1"><path d="M10,0 C15.5228281,0 20,4.47717195 20,10 C20,15.5228281 15.5228281,20 10,20 C4.47717195,20 0,15.5228281 0,10 C0,4.47717195 4.47717195,0 10,0 Z M14.9044749,7.21116139 C14.6229264,6.92961287 14.1658671,6.92961287 13.8843185,7.21116139 L8.272,12.823 L6.23131774,10.782318 C5.94976921,10.5007695 5.49270992,10.5007695 5.21116139,10.782318 C4.92961287,11.0638665 4.92961287,11.5209258 5.21116139,11.8024743 L7.76216166,14.3534746 C7.90354534,14.4942489 8.08819729,14.564636 8.27345866,14.564636 C8.45811061,14.564636 8.64276257,14.4942489 8.78353683,14.3534746 L9.29300559,13.8440059 L14.9056937,8.23131774 C15.1872422,7.94976921 15.1872422,7.49270992 14.9044749,7.21116139 Z"></path></clipPath></defs><g transform="translate(-847.0 -511.0)"><g clip-path="url(#i0)"><g transform="translate(847.0 511.0)"><g clip-path="url(#i1)"><polygon points="0,0 20,0 20,20 0,20 0,0" stroke="none" fill="#3ECF42"></polygon></g></g></g></g></svg>