<?xml version="1.0" encoding="UTF-8"?><svg version="1.1" width="25px" height="24px" viewBox="0 0 25.0 24.0" xmlns="http://www.w3.org/2000/svg" xmlns:xlink="http://www.w3.org/1999/xlink"><defs><clipPath id="i0"><path d="M1397,0 L1397,915 L0,915 L0,0 L1397,0 Z"></path></clipPath><clipPath id="i1"><path d="M13.2765957,0 C13.8406312,0 14.2978723,0.457241105 14.2978723,1.02127659 L14.2978723,14.9787234 C14.2978723,15.5427589 13.8406312,16 13.2765957,16 L1.02127659,16 C0.457241105,16 0,15.5427589 0,14.9787234 L0,1.02127659 C0,0.457241105 0.457241105,0 1.02127659,0 L13.2765957,0 Z M13.0094013,0.999999991 L1.28847105,0.999999991 C1.10865741,0.999999991 0.96288965,1.14576775 0.96288965,1.32558139 L0.96288965,14.6744186 C0.96288965,14.8542322 1.10865741,15 1.28847105,15 L13.0094013,15 C13.1892149,15 13.3349827,14.8542322 13.3349827,14.6744186 L13.3349827,1.32558139 C13.3349827,1.14576776 13.1892149,0.999999991 13.0094013,0.999999991 Z M9.40425532,7.86059385 C11.2844255,7.86059385 12.8085106,9.38467896 12.8085106,11.2648492 C12.8085106,13.1450194 11.2844255,14.6691045 9.40425532,14.6691045 C7.52408511,14.6691045 6,13.1450194 6,11.2648492 C6,9.38467896 7.52408511,7.86059385 9.40425532,7.86059385 Z M9.39359204,8.8162126 C8.01288016,8.8162126 6.89359204,9.93550073 6.89359204,11.3162126 C6.89359204,12.6969245 8.01288016,13.8162126 9.39359204,13.8162126 C10.7743039,13.8162126 11.893592,12.6969245 11.893592,11.3162126 C11.893592,9.93550073 10.7743039,8.8162126 9.39359204,8.8162126 Z M9.46703733,9.23855116 C9.7270408,9.23855116 9.96434423,9.38663039 10.0786118,9.62017851 L10.3492501,10.1730296 L10.9586118,10.2625615 C11.2143513,10.3000615 11.4268025,10.4791399 11.507044,10.7248434 C11.5872855,10.970547 11.5214779,11.2404987 11.337165,11.4217104 L10.8925693,11.8588168 L10.9970799,12.4736253 C11.0405661,12.7293964 10.9349122,12.987652 10.7246246,13.1396027 C10.5143369,13.2915534 10.2359688,13.3107864 10.006782,13.1891998 L9.46720756,12.9032423 L8.92729266,13.1891998 C8.69812977,13.3105911 8.41990572,13.2912584 8.20973415,13.1393393 C7.99956258,12.9874202 7.89394341,12.7292982 7.93733521,12.4736253 L8.04184586,11.8588168 L7.59690968,11.4217104 C7.41259674,11.2404987 7.34678917,10.970547 7.42703069,10.7248434 C7.5072722,10.4791399 7.71972336,10.3000615 7.97546286,10.2625615 L8.58482457,10.1730296 L8.85546286,9.62017851 C8.96973044,9.38663039 9.20703387,9.23855116 9.46703733,9.23855116 Z M9.46720756,9.91582784 L9.19656926,10.4686789 C9.09789289,10.6704157 8.90608204,10.8105166 8.6838884,10.843147 L8.07418627,10.9323385 L8.51912245,11.3697853 C8.67805206,11.5259351 8.75052525,11.7499663 8.713165,11.9696151 L8.60831393,12.5840832 L9.14822882,12.2981257 C9.34772375,12.1923337 9.58669135,12.1923337 9.78618628,12.2981257 L10.3257607,12.5840832 L10.2212501,11.9696151 C10.1838898,11.7499663 10.256363,11.5259351 10.4152926,11.3697853 L10.8598884,10.9323385 L10.2505267,10.843147 C10.0282065,10.8106216 9.83624785,10.6705058 9.73750543,10.4686789 L9.46720756,9.91582784 Z M3.13584763,6.21276596 C3.3907162,6.21282878 3.59729725,6.436668 3.59729725,6.71276596 C3.59729725,6.98886392 3.3907162,7.21270315 3.13584763,7.21276596 L2.67429301,7.21276596 C2.41942444,7.21270315 2.21284339,6.98886392 2.21284339,6.71276596 C2.21284339,6.436668 2.41942444,6.21282878 2.67429301,6.21276596 L3.13584763,6.21276596 Z M5.44362069,6.21276596 C5.69848926,6.21282878 5.90507031,6.436668 5.90507031,6.71276596 C5.90507031,6.98886392 5.69848926,7.21270315 5.44362069,7.21276596 L4.98206609,7.21276596 C4.72719753,7.21270315 4.52061648,6.98886392 4.52061648,6.71276596 C4.52061648,6.436668 4.72719753,6.21282878 4.98206609,6.21276596 L5.44362069,6.21276596 Z M7.75139378,6.21276596 C8.00626234,6.21282878 8.21284339,6.436668 8.21284339,6.71276596 C8.21284339,6.98886392 8.00626234,7.21270315 7.75139378,7.21276596 L7.28983915,7.21276596 C7.03497059,7.21270315 6.82838954,6.98886392 6.82838954,6.71276596 C6.82838954,6.436668 7.03497059,6.21282878 7.28983915,6.21276596 L7.75139378,6.21276596 Z M11.7446809,4.17021276 C11.9326927,4.17021276 12.0851064,4.39407038 12.0851064,4.67021276 C12.0851064,4.94635513 11.9326927,5.17021276 11.7446809,5.17021276 L2.55319148,5.17021276 C2.36517965,5.17021276 2.21276595,4.94635513 2.21276595,4.67021276 C2.21276595,4.39407038 2.36517965,4.17021276 2.55319148,4.17021276 L11.7446809,4.17021276 Z M11.7446809,2.21276596 C11.9326624,2.21282878 12.0850289,2.436668 12.0850289,2.71276596 C12.0850289,2.98886392 11.9326624,3.21270315 11.7446809,3.21276596 L2.55319148,3.21276596 C2.3652099,3.21270315 2.21284339,2.98886392 2.21284339,2.71276596 C2.21284339,2.436668 2.3652099,2.21282878 2.55319148,2.21276596 L11.7446809,2.21276596 Z"></path></clipPath></defs><g transform="translate(-540.0 -367.0)"><g clip-path="url(#i0)"><g transform="translate(540.7142857142871 367.0)"><g transform="translate(5.0 4.0)"><g clip-path="url(#i1)"><polygon points="0,0 14.2978723,0 14.2978723,16 0,16 0,0" stroke="none" fill="#9094A6"></polygon></g></g></g></g></g></svg>