<?xml version="1.0" standalone="no"?><!DOCTYPE svg PUBLIC "-//W3C//DTD SVG 1.1//EN" "http://www.w3.org/Graphics/SVG/1.1/DTD/svg11.dtd"><svg t="1657092401464" class="icon" viewBox="0 0 1024 1024" version="1.1" xmlns="http://www.w3.org/2000/svg" p-id="12430" xmlns:xlink="http://www.w3.org/1999/xlink" width="64" height="64"><defs><style type="text/css">@font-face { font-family: feedback-iconfont; src: url("//at.alicdn.com/t/font_1031158_u69w8yhxdu.woff2?t=1630033759944") format("woff2"), url("//at.alicdn.com/t/font_1031158_u69w8yhxdu.woff?t=1630033759944") format("woff"), url("//at.alicdn.com/t/font_1031158_u69w8yhxdu.ttf?t=1630033759944") format("truetype"); }
</style></defs><path d="M512 768c-112.64 0-213.1456-71.0656-301.2608-209.92a38.0928 38.0928 0 0 1 0-40.96C298.8544 378.3168 399.36 307.2 512 307.2s213.1456 71.0656 301.2608 209.92a38.0928 38.0928 0 0 1 0 40.96C725.1456 696.8832 624.64 768 512 768z m0-414.72c-93.2352 0-179.6096 60.416-259.2768 184.32 79.6672 123.904 166.0416 184.32 259.2768 184.32 93.2352 0 179.6096-60.416 259.2768-184.32C691.6096 413.696 605.2352 353.28 512 353.28z m0 291.84a108.032 108.032 0 0 1-108.4928-107.52c0-59.392 48.5888-107.52 108.4928-107.52 59.904 0 108.4928 48.128 108.4928 107.52 0 59.392-48.5888 107.52-108.4928 107.52z m0-46.08c34.2528 0 61.952-27.4944 61.952-61.44 0-33.9456-27.6992-61.44-61.952-61.44-34.2528 0-61.952 27.4944-61.952 61.44 0 33.9456 27.6992 61.44 61.952 61.44z" p-id="12431"></path></svg>