<?xml version="1.0" encoding="UTF-8"?>
<svg width="24px" height="24px" viewBox="0 0 24 24" version="1.1" xmlns="http://www.w3.org/2000/svg" xmlns:xlink="http://www.w3.org/1999/xlink">
    <g id="10-人才端-应用主页" stroke-width="1" fill-rule="evenodd">
        <g id="画板" transform="translate(-78.000000, -102.000000)">
            <g id="icon_order_nor" transform="translate(78.000000, 102.000000)">
                <g id="编组" transform="translate(5.000000, 5.000000)">
                    <rect id="矩形" x="3" y="7" width="8" height="1.4" rx="0.7"></rect>
                    <rect id="矩形" x="3" y="10" width="8" height="1.4" rx="0.7"></rect>
                    <circle id="椭圆形" cx="4" cy="4" r="1"></circle>
                    <circle id="椭圆形" cx="7" cy="4" r="1"></circle>
                    <circle id="椭圆形" cx="10" cy="4" r="1"></circle>
                    <circle id="椭圆形" cx="10" cy="4" r="1"></circle>
                    <rect id="矩形" x="3" y="7" width="8" height="1.4" rx="0.7"></rect>
                    <circle id="椭圆形" cx="4" cy="4" r="1"></circle>
                    <circle id="椭圆形" cx="7" cy="4" r="1"></circle>
                    <rect id="矩形" x="3" y="10" width="8" height="1.4" rx="0.7"></rect>
                    <path d="M13,0 C13.5522847,7.68579428e-16 14,0.44771525 14,1 L14,13 C14,13.5522847 13.5522847,14 13,14 L1,14 C0.44771525,14 9.37667865e-16,13.5522847 0,13 L0,1 C-1.78657678e-16,0.44771525 0.44771525,-9.5692398e-18 1,0 L13,0 Z M12.493403,1.29732404 L1.53943504,1.29732404 C1.42897808,1.29732404 1.33943503,1.3868671 1.33943503,1.49732405 L1.33943503,1.49732405 L1.33943503,12.492325 C1.33943503,12.602782 1.42897808,12.692325 1.53943504,12.692325 L1.53943504,12.692325 L12.493403,12.692325 C12.6038599,12.692325 12.693403,12.602782 12.693403,12.492325 L12.693403,12.492325 L12.693403,1.49732405 C12.693403,1.3868671 12.6038599,1.29732404 12.493403,1.29732404 L12.493403,1.29732404 Z" id="形状结合"></path>
                </g>
            </g>
        </g>
    </g>
</svg>