<?xml version="1.0" encoding="UTF-8"?><svg version="1.1" width="14px" height="14px" viewBox="0 0 14.0 14.0" xmlns="http://www.w3.org/2000/svg" xmlns:xlink="http://www.w3.org/1999/xlink"><defs><clipPath id="i0"><path d="M1124,0 L1124,915 L0,915 L0,0 L1124,0 Z"></path></clipPath><clipPath id="i1"><path d="M5.74702457,0 C8.71216085,0 11.1590797,2.25710286 11.4618658,5.14309439 L11.7593975,4.84556272 C11.9517585,4.65325975 12.2635758,4.65325975 12.4559369,4.84556272 C12.648021,5.03755771 12.648021,5.34912191 12.4559369,5.54144529 L11.3495525,6.64815802 C11.1571543,6.84006143 10.8457397,6.84006143 10.6533415,6.64815802 L9.54728561,5.54144529 C9.41708533,5.41823456 9.36409335,5.23402161 9.40892225,5.06046076 C9.45375115,4.88689991 9.58932381,4.75139118 9.76290578,4.70664414 C9.93648775,4.6618971 10.1206757,4.71497595 10.243825,4.84523433 L10.4526883,5.05442602 C10.1157484,2.75660139 8.13712998,0.984875809 5.74702457,0.984875809 C5.60384156,0.984875809 5.46230056,0.993414247 5.32207315,1.0065503 C5.18300042,1.02005761 5.04452336,1.03912012 4.90697378,1.06369215 C4.85147394,1.07387259 4.7949889,1.08241103 4.73981747,1.09456188 C4.62553378,1.11919199 4.5132205,1.14874811 4.40254922,1.18158826 C4.31946367,1.20621837 4.23834852,1.23446089 4.15690497,1.26401701 C4.03057745,1.30805515 3.90631385,1.35780442 3.78449778,1.41311125 L3.75756886,1.4262473 C3.46886707,1.56016539 3.1941795,1.72242578 2.93755055,1.91063938 L2.89157435,1.94512152 C2.64571442,2.13036505 2.41818548,2.33875913 2.21211186,2.56744218 L2.16416526,2.6203148 C2.10176899,2.69157791 2.04167154,2.76513983 1.98354448,2.84067215 C1.77480244,3.11026442 1.59577182,3.40160206 1.44956379,3.70962227 C1.14478805,4.3456332 0.986128459,5.04176058 0.985204215,5.74702458 C0.985204215,8.3725938 3.12145535,10.5088449 5.74702457,10.5088449 C7.42482734,10.5088449 8.94729624,9.65171727 9.81985878,8.21594633 C9.96114686,7.9834286 10.2641763,7.90947235 10.4966941,8.05076042 C10.7292118,8.1920485 10.8031681,8.49507798 10.66188,8.72759571 C9.60902508,10.4595847 7.77161923,11.4940491 5.74702457,11.4940491 C2.57795102,11.4940491 0,8.91609813 0,5.74702458 C0.000824894353,4.91703699 0.18271955,4.0972222 0.532995474,3.34476831 C0.535622687,3.33885709 0.536279498,3.33261746 0.539563508,3.32670623 L0.58356929,3.24066506 C0.734427257,2.93104236 0.91281012,2.63560605 1.11656478,2.35792208 C1.20877144,2.23036243 1.30662286,2.10697978 1.40982722,1.9881421 C1.44332417,1.94971914 1.47780632,1.91293819 1.51228846,1.87550043 C1.74729763,1.61874253 2.00492673,1.38364499 2.28206136,1.17304982 C2.4035991,1.07979453 2.5289363,0.99159834 2.65775257,0.908686694 L2.68500988,0.892266615 C2.88861875,0.76320486 3.10109446,0.647935971 3.3211234,0.54448953 C3.34214108,0.534637486 3.36315876,0.523800239 3.38417646,0.5142766 C3.48335369,0.469285602 3.58351612,0.428235426 3.68564895,0.388827261 C3.73523756,0.369451591 3.78581137,0.351389514 3.83572839,0.333327437 C3.93063639,0.300158887 4.0245592,0.266661946 4.12143762,0.238091028 C4.25673899,0.197369243 4.39401077,0.162230304 4.53292457,0.131688968 C4.59794805,0.117896103 4.66428513,0.107387262 4.73062222,0.0955648137 C4.83965149,0.0758607384 4.94933756,0.0584554576 5.06000884,0.0453194027 C5.28788043,0.0162667608 5.51731118,0.00113222427 5.74702457,0 Z"></path></clipPath></defs><g transform="translate(-690.0 -450.0)"><g clip-path="url(#i0)"><g transform="translate(690.0 450.0)"><g transform="translate(1.0 1.0)"><g clip-path="url(#i1)"><polygon points="0,0 12.6,0 12.6,11.4940491 0,11.4940491 0,0" stroke="none" fill="#E1E1E1"></polygon></g></g></g></g></g></svg>