<?xml version="1.0" standalone="no"?><!DOCTYPE svg PUBLIC "-//W3C//DTD SVG 1.1//EN" "http://www.w3.org/Graphics/SVG/1.1/DTD/svg11.dtd"><svg class="icon" width="64px" height="64.00px" viewBox="0 0 1024 1024" version="1.1" xmlns="http://www.w3.org/2000/svg"><path d="M457.301333 256h-179.626666C242.133333 256 213.333333 284.8 213.333333 320.341333v385.962667c0 35.541333 28.8 64.341333 64.341334 64.341333h468.650666c35.541333 0 64.341333-28.8 64.341334-64.341333V384.64c0-35.541333-28.8-64.298667-64.341334-64.298667h-211.370666L480.042667 265.386667a32.170667 32.170667 0 0 0-22.741334-9.386667zM259.285333 706.304V320.341333c0-10.154667 8.234667-18.389333 18.346667-18.389333h173.994667l64.298666 64.341333h230.4c10.154667 0 18.389333 8.234667 18.389334 18.346667v321.664c0 10.112-8.234667 18.346667-18.346667 18.346667H277.632a18.432 18.432 0 0 1-18.389333-18.346667zM457.301333 253.44h-179.626666q-66.901333 0-66.901334 66.901333v385.962667q0 66.858667 66.901334 66.858667h468.650666q66.901333 0 66.901334-66.858667V384.64q0-27.733333-19.584-47.274667-19.626667-19.626667-47.317334-19.626666h-211.370666v2.56l1.834666-1.792-54.912-54.912q-10.154667-10.154667-24.576-10.154667z m0 5.12q12.288 0 20.906667 8.661333l55.722667 55.68h212.394666q61.781333 0 61.781334 61.738667v321.664q0 61.781333-61.781334 61.781333H277.674667q-61.781333 0-61.781334-61.781333V320.341333q0-61.781333 61.781334-61.781333h179.626666zM261.845333 706.304V320.341333q0-15.829333 15.786667-15.829333h173.994667v-2.56l-1.834667 1.792 65.109333 65.109333h231.424q15.829333 0 15.829334 15.786667v321.664q0 15.786667-15.786667 15.786667H277.632q-15.829333 0-15.829333-15.786667z m-5.12 0q0 20.906667 20.906667 20.906667h468.693333q8.661333 0 14.805334-6.101334 6.144-6.144 6.144-14.805333V384.64q0-20.906667-20.906667-20.906667h-230.4v2.56l1.792-1.834666-65.066667-65.066667H277.674667q-20.949333 0-20.949334 20.906667v386.005333zM452.266667 445.610667h204.8a25.6 25.6 0 0 1 0 51.2h-204.8a25.6 25.6 0 1 1 0-51.2M366.933333 445.610667a25.6 25.6 0 1 1 0 51.2 25.6 25.6 0 0 1 0-51.2M452.266667 573.610667h204.8a25.6 25.6 0 0 1 0 51.2h-204.8a25.6 25.6 0 1 1 0-51.2M366.933333 573.610667a25.6 25.6 0 1 1 0 51.2 25.6 25.6 0 0 1 0-51.2" /></svg>