<?xml version="1.0" encoding="UTF-8"?><svg version="1.1" width="25px" height="24px" viewBox="0 0 25.0 24.0" xmlns="http://www.w3.org/2000/svg" xmlns:xlink="http://www.w3.org/1999/xlink"><defs><clipPath id="i0"><path d="M1397,0 L1397,915 L0,915 L0,0 L1397,0 Z"></path></clipPath><clipPath id="i1"><path d="M8.00071976,0 C8.29617606,0 8.5362901,0.24011404 8.5362901,0.535570348 L8.5362901,1.12648297 C11.6006451,1.29340239 13.3885575,2.87869062 14.3606176,4.22118696 C15.5808254,5.90466309 15.9664361,7.76398482 15.9994629,8.59501147 C16.0089568,8.80715816 15.8919192,9.00479058 15.7013287,9.0984476 C15.5107661,9.19214102 15.2828568,9.16448382 15.1202349,9.02793084 C14.0517721,8.13085051 11.9166316,7.99963577 10.9481419,9.12611874 C10.9347526,9.14307846 10.9240412,9.15378987 10.9124372,9.16450128 C10.8910144,9.18503148 10.8758399,9.19752812 10.8597728,9.20913214 C10.8428131,9.2225214 10.826746,9.23234019 10.8106789,9.24215898 C10.7901487,9.25287039 10.7740815,9.26090394 10.7562292,9.2689375 L10.6723232,9.29750125 L10.5839541,9.31178312 C10.5759205,9.31178312 10.57235,9.31267574 10.5687796,9.31267574 C10.5598534,9.31356836 10.5509272,9.31356836 10.5420011,9.31356836 L10.5286118,9.31267574 L10.5134373,9.31222943 C10.4946923,9.31089051 10.4830883,9.30999789 10.4705917,9.30821266 L10.4509541,9.3055348 C10.4366722,9.30285695 10.423283,9.3001791 10.4098937,9.29660863 C10.404538,9.29571601 10.4000749,9.29393078 10.3956118,9.29303816 C10.3590145,9.28321937 10.3233098,9.2689375 10.290283,9.25108515 L10.278679,9.24394421 C10.2661823,9.23769589 10.2545783,9.23055496 10.2429743,9.2225214 L10.2269072,9.21091738 C10.217981,9.20466905 10.2081622,9.19752812 10.199236,9.18949456 L10.1831689,9.17521269 L10.1438938,9.13593753 C10.1313971,9.12165565 10.1189005,9.10737377 10.1081891,9.09219928 C9.80112874,8.66820609 9.26645101,8.36739408 8.63894109,8.24689075 L8.63894109,14.4407618 C8.63894109,15.2512583 7.97929694,15.9109024 7.16880048,15.9109024 C6.35830402,15.9109024 5.69865987,15.2512583 5.69865987,14.4407618 L5.69865987,14.3497149 C5.69865987,14.0542586 5.93877391,13.8141445 6.23423022,13.8141445 C6.52968653,13.8141445 6.76980057,14.0542586 6.76980057,14.3497149 L6.76980057,14.4407618 C6.76980057,14.6612383 6.94832402,14.8397617 7.16880048,14.8397617 C7.38927694,14.8397617 7.56780039,14.6603457 7.56780039,14.4407618 L7.56780039,8.22100485 C6.8903039,8.31740751 6.31813624,8.6271457 5.98786786,9.09041405 C5.97804907,9.10380331 5.97358599,9.11005163 5.96823028,9.11629995 C5.96198196,9.12344089 5.95573364,9.13147444 5.94948532,9.13861538 C5.94502224,9.14397108 5.93966653,9.14932679 5.93431083,9.15468249 L5.91288801,9.1761053 L5.89592829,9.19038718 C5.88789473,9.1966355 5.88075379,9.20288382 5.87272024,9.20913214 L5.85219004,9.22341402 C5.8450491,9.22876972 5.83790817,9.23412542 5.82987461,9.23858851 L5.80577394,9.25197777 C5.79863301,9.25554824 5.79149207,9.26001132 5.78435113,9.26358179 C5.77542496,9.26804488 5.76649879,9.27161535 5.75757261,9.27518582 C5.75043168,9.27786367 5.74329074,9.28143414 5.73525718,9.28411199 C5.72811624,9.28678984 5.72008269,9.28857508 5.71204913,9.29125293 L5.684378,9.29928648 L5.67098874,9.30196433 C5.6584921,9.3055348 5.64599546,9.30821266 5.63349882,9.30999789 C5.61296862,9.31267574 5.59511627,9.31446098 5.57637131,9.31535359 L5.55807266,9.3157999 C5.54959279,9.31624621 5.54602233,9.31535359 5.54245186,9.31535359 C5.48710959,9.31446098 5.43444517,9.30464219 5.3844586,9.28857508 C5.35232438,9.27786367 5.32643848,9.26625964 5.3014452,9.25287039 C5.27377407,9.23769589 5.24699555,9.22073617 5.22200226,9.20109859 C2.96814372,7.48191777 0.968681081,9.11808518 0.88477506,9.18860194 C0.730352276,9.31803145 0.515231519,9.35105828 0.330459749,9.27250797 C0.145207703,9.19419345 0.019398669,9.01875016 0.00465445395,8.81816579 C-0.0605066051,7.90501834 0.550936209,5.41193837 2.31742574,3.51512672 C3.66349255,2.06908678 5.43533779,1.25144938 7.46514941,1.12916082 L7.46514941,0.535570348 C7.46514941,0.24011404 7.70526345,0 8.00071976,0 Z M6.49844493,2.32973102 C5.17647879,2.59930142 4.03749918,3.23930799 3.10114369,4.24439501 C2.03535869,5.38962294 1.4560501,6.78121323 1.21236559,7.74702509 C1.73454668,7.51762246 2.36919754,7.34981041 3.065439,7.34981041 C3.6813449,7.34981041 4.34455951,7.48102515 5.02116338,7.81664924 C5.06936472,6.43130727 5.3273311,3.91055616 6.49844493,2.32973102 Z M9.53691404,2.32169746 C10.7365916,3.79273068 10.9418936,5.92430067 11.0311553,7.71221302 C12.1451416,7.10434067 13.5956447,7.11951517 14.7596176,7.58903184 C14.5632418,6.80620651 14.1785237,5.79397855 13.4938863,4.84869689 C12.5039738,3.48209988 11.1766519,2.63679135 9.53691404,2.32169746 Z M7.9926862,2.34490551 C6.62519658,3.26519389 6.1913846,5.85110606 6.10033764,7.59974324 C6.64661939,7.29179029 7.30537092,7.12040778 8.00875331,7.11772993 L8.02482042,7.11772993 C8.05070632,7.11772993 8.0756996,7.11951517 8.1015855,7.11951517 L8.11318953,7.11951517 C8.7897934,7.13290442 9.42176641,7.29625338 9.95198106,7.5818909 C9.84486699,5.60920678 9.57529658,3.41426097 7.9926862,2.34490551 Z"></path></clipPath></defs><g transform="translate(-506.0 -399.0)"><g clip-path="url(#i0)"><g transform="translate(506.57142857142935 399.0)"><g transform="translate(4.0 3.0000000000004556)"><g clip-path="url(#i1)"><polygon points="0,0 16,0 16,15.9109024 0,15.9109024 0,0" stroke="none" fill="#FFFFFF"></polygon></g></g></g></g></g></svg>