<?xml version="1.0" encoding="UTF-8"?>
<svg width="15px" height="15px" viewBox="0 0 15 15" version="1.1" xmlns="http://www.w3.org/2000/svg" xmlns:xlink="http://www.w3.org/1999/xlink">
    <title>编组 10</title>
    <g id="用工" stroke="none" stroke-width="1" fill="none" fill-rule="evenodd">
        <g id="工人详情/MP3" transform="translate(-1074.000000, -328.000000)" stroke="#666A7A">
            <g id="编组-10" transform="translate(1074.000000, 328.000000)">
                <path d="M3,4 L3,11.7303072 C3,12.2825919 3.44771525,12.7303072 4,12.7303072 C4.24979481,12.7303072 4.49054504,12.6368186 4.67487634,12.468238 L6.82512366,10.5017244 C7.20719645,10.1522989 7.79280355,10.1522989 8.17487634,10.5017244 L10.3251237,12.468238 C10.7326716,12.8409619 11.3652069,12.8127315 11.7379308,12.4051835 C11.9065114,12.2208522 12,11.980102 12,11.7303072 L12,4 C12,2.8954305 11.1045695,2 10,2 L5,2 C3.8954305,2 3,2.8954305 3,4 Z" id="路径-22"></path>
                <line x1="4.75327728" y1="6.01935144" x2="10.1997263" y2="6.01935144" id="路径-23" stroke-linecap="round"></line>
            </g>
        </g>
    </g>
</svg>