<?xml version="1.0" standalone="no"?><!DOCTYPE svg PUBLIC "-//W3C//DTD SVG 1.1//EN" "http://www.w3.org/Graphics/SVG/1.1/DTD/svg11.dtd"><svg t="1657092473427" class="icon" viewBox="0 0 1024 1024" version="1.1" xmlns="http://www.w3.org/2000/svg" p-id="14825" xmlns:xlink="http://www.w3.org/1999/xlink" width="64" height="64"><defs><style type="text/css">@font-face { font-family: feedback-iconfont; src: url("//at.alicdn.com/t/font_1031158_u69w8yhxdu.woff2?t=1630033759944") format("woff2"), url("//at.alicdn.com/t/font_1031158_u69w8yhxdu.woff?t=1630033759944") format("woff"), url("//at.alicdn.com/t/font_1031158_u69w8yhxdu.ttf?t=1630033759944") format("truetype"); }
</style></defs><path d="M742.4 716.8a25.6 25.6 0 0 1 0 51.2h-460.8a25.6 25.6 0 0 1 0-51.2h460.8zM581.3248 212.3264l102.4 102.4a25.6 25.6 0 0 1 0 36.1984l-281.6 281.6a25.5488 25.5488 0 0 1-18.1248 7.4752h-102.4A25.6 25.6 0 0 1 256 614.4v-102.4c0-6.7584 2.7136-13.312 7.4752-18.0736l281.6-281.6a25.6 25.6 0 0 1 36.2496 0zM563.2 266.5984l-256 256V588.8h66.2016l256-256L563.2 266.5984z" p-id="14826"></path></svg>