<?xml version="1.0" standalone="no"?><!DOCTYPE svg PUBLIC "-//W3C//DTD SVG 1.1//EN" "http://www.w3.org/Graphics/SVG/1.1/DTD/svg11.dtd"><svg t="1657092480126" class="icon" viewBox="0 0 1024 1024" version="1.1" xmlns="http://www.w3.org/2000/svg" p-id="15124" xmlns:xlink="http://www.w3.org/1999/xlink" width="64" height="64"><defs><style type="text/css">@font-face { font-family: feedback-iconfont; src: url("//at.alicdn.com/t/font_1031158_u69w8yhxdu.woff2?t=1630033759944") format("woff2"), url("//at.alicdn.com/t/font_1031158_u69w8yhxdu.woff?t=1630033759944") format("woff"), url("//at.alicdn.com/t/font_1031158_u69w8yhxdu.ttf?t=1630033759944") format("truetype"); }
</style></defs><path d="M528.1792 562.688v164.864h145.5104c64.6656-6.4512 113.152-61.44 113.152-129.3312a129.7408 129.7408 0 0 0-129.3312-129.3312h-3.2256c-16.1792-74.3936-80.8448-129.3312-158.464-129.3312a160.1024 160.1024 0 0 0-161.6896 161.6384C279.1936 507.6992 237.1584 556.1856 237.1584 614.4c0 61.44 51.712 113.152 113.152 113.152h145.5104v-164.864l-74.3424 74.3424L398.7968 614.4 512 501.248 625.152 614.4l-22.6304 22.6304-74.3424-74.3936z m0 164.864v32.3584h-32.3584v-32.3072h-48.4864v32.3072H350.3104A144.896 144.896 0 0 1 204.8 614.4c0-64.6656 42.0352-119.6544 97.024-139.0592A195.584 195.584 0 0 1 495.872 307.2c84.0192 0 158.4128 54.9888 184.32 129.3312C757.76 446.2592 819.2 514.1504 819.2 598.2208s-64.6656 152.0128-145.5104 161.6896h-97.024v-32.3072h-48.4864z" p-id="15125"></path></svg>