<?xml version="1.0" encoding="UTF-8"?><svg version="1.1" width="51px" height="59px" viewBox="0 0 51.0 59.0" xmlns="http://www.w3.org/2000/svg" xmlns:xlink="http://www.w3.org/1999/xlink"><defs><clipPath id="i0"><path d="M1124,0 L1124,915 L0,915 L0,0 L1124,0 Z"></path></clipPath><clipPath id="i1"><path d="M38.4912753,0 L51,12.5805438 L51,57 C51,58.1045695 50.1045695,59 49,59 L2,59 C0.8954305,59 -1.41904148e-15,58.1045695 0,57 L0,2 C-1.3527075e-16,0.8954305 0.8954305,1.53517375e-15 2,0 L38.4912753,0 Z"></path></clipPath><clipPath id="i2"><path d="M0,0 L13,13 L4,13 C1.790861,13 2.705415e-16,11.209139 0,9 L0,0 Z"></path></clipPath><clipPath id="i3"><path d="M51,0 L51,14 C51,15.1045695 50.1045695,16 49,16 L2,16 C0.8954305,16 -1.19699688e-15,15.1045695 0,14 L0,0 L51,0 Z"></path></clipPath><clipPath id="i4"><path d="M5.66262938,1.43547539e-05 L5.94204948,0.00614946993 C7.61437345,0.0837528684 8.9448148,0.888448107 9.43220913,2.11711427 C9.91960352,3.34578041 9.48990412,4.81175387 8.30497452,5.96281663 C7.12004492,7.11387939 5.35990413,7.77515763 3.68758016,7.69755423 C2.0152562,7.61995084 0.684814847,6.81525561 0.197420505,5.58658945 C-0.289973898,4.35792332 0.139725505,2.89194985 1.32465511,1.74088708 C2.5095847,0.589824316 4.2697255,-0.0714539286 5.94204948,0.00614946993 Z"></path></clipPath><clipPath id="i5"><path d="M5.66262129,1.42350191e-05 L5.94204473,0.00615205918 C7.61438823,0.0837724346 8.94482075,0.888494634 9.43215871,2.11717397 C9.91962388,3.34580551 9.48996267,4.81177273 8.30503158,5.96283514 C7.12010049,7.11389756 5.35992839,7.77517202 3.68758489,7.69755164 C2.01524139,7.61993127 0.684808876,6.81520907 0.197470921,5.58652974 C-0.289994246,4.3578982 0.139666963,2.89193097 1.32459805,1.74086856 C2.50952914,0.589806147 4.26970123,-0.0714683162 5.94204473,0.00615205918 Z"></path></clipPath><clipPath id="i6"><path d="M13.6569894,0.123516558 C15.4881721,-0.419966001 17.3333333,0.897979236 17.3333333,2.74582002 L17.3333333,19.0502974 L15.0967743,19.0502974 L15.0967743,5.73497419 C15.0967743,5.38171053 14.7892474,5.15073044 14.495699,5.15073044 C14.4397851,5.15073044 14.3838711,5.16431748 14.3279571,5.17790456 L2.66989302,8.79206371 C2.40430162,8.85999905 2.23655969,9.09097914 2.23655969,9.34913337 L2.23655969,22.1481481 L0,22.1481481 L0,6.35997917 C-0.000826227478,5.14591091 0.817115052,4.07481931 2.01290378,3.72408867 Z"></path></clipPath></defs><g transform="translate(-474.0 -443.0)"><g clip-path="url(#i0)"><g transform="translate(474.0 443.0)"><g clip-path="url(#i1)"><polygon points="0,0 51,0 51,59 0,59 0,0" stroke="none" fill="#666B7E"></polygon><path d="M2,0 L38.4912753,0 L38.4912753,0 L51,12.5805438 L51,57 C51,58.1045695 50.1045695,59 49,59 L2,59 C0.8954305,59 -1.41904148e-15,58.1045695 0,57 L0,2 C-1.3527075e-16,0.8954305 0.8954305,1.53517375e-15 2,0 Z" stroke="#80869B" stroke-width="2" fill="none" stroke-miterlimit="5"></path></g><g transform="translate(38.0 0.0)"><g clip-path="url(#i2)"><polygon points="0,0 13,0 13,13 0,13 0,0" stroke="none" fill="#81869C"></polygon></g></g><g transform="translate(0.0 43.0)"><g clip-path="url(#i3)"><polygon points="0,0 51,0 51,16 0,16 0,0" stroke="none" fill="#585C6C"></polygon></g></g><g transform="translate(6.0 42.0)"><text transform="translate(0.8419999999999987 13.0)" font-family="PingFangSC-Regular, PingFang SC" font-size="12.0" font-weight="normal" fill="#676B7E" text-anchor="center">MUSIC</text></g><g transform="translate(11.000000000000032 10.0)"><g transform="translate(0.0 18.2962962962963)"><g clip-path="url(#i4)"><polygon points="0,-1.55171015e-15 9.62962963,-1.55171015e-15 9.62962963,7.7037037 0,7.7037037 0,-1.55171015e-15" stroke="none" fill="#585C6C" opacity="99%"></polygon></g></g><g transform="translate(14.444444444444438 15.407407407407412)"><g clip-path="url(#i5)"><polygon points="1.33226763e-15,-9.05525654e-16 9.62962963,-9.05525654e-16 9.62962963,7.7037037 1.33226763e-15,7.7037037 1.33226763e-15,-9.05525654e-16" stroke="none" fill="#585C6C" opacity="99%"></polygon></g></g><g transform="translate(6.7407407407407405 0.0)"><g clip-path="url(#i6)"><polygon points="-6.25373211e-07,8.8817842e-16 17.3333333,8.8817842e-16 17.3333333,22.1481481 -6.25373211e-07,22.1481481 -6.25373211e-07,8.8817842e-16" stroke="none" fill="#585C6C" opacity="99%"></polygon></g></g></g></g></g></g></svg>