<?xml version="1.0" encoding="UTF-8"?><svg version="1.1" width="32px" height="32px" viewBox="0 0 32.0 32.0" xmlns="http://www.w3.org/2000/svg" xmlns:xlink="http://www.w3.org/1999/xlink"><defs><clipPath id="i0"><path d="M1440,0 L1440,1024 L0,1024 L0,0 L1440,0 Z"></path></clipPath><clipPath id="i1"><path d="M16,0 C24.836556,0 32,7.163444 32,16 C32,24.836556 24.836556,32 16,32 C7.163444,32 0,24.836556 0,16 C0,7.163444 7.163444,0 16,0 Z"></path></clipPath><linearGradient id="i2" x1="1.0658141e-14px" y1="-6.66133815e-15px" x2="32px" y2="32px" gradientUnits="userSpaceOnUse"><stop stop-color="#01E16E" offset="0%"></stop><stop stop-color="#02C560" offset="100%"></stop></linearGradient><clipPath id="i3"><path d="M6.7956,0 C10.1376,0 13.0644,2.034 13.6524,4.7724 C13.434,4.7484 13.2168,4.7316 12.996,4.7316 C9.7692,4.7316 7.2204,7.1412 7.2192,10.11 C7.2192,10.6056 7.2972,11.0808 7.4292,11.5356 C7.2204,11.5512 7.0092,11.5608 6.7956,11.5608 C5.9472,11.5608 5.2656,11.388 4.416,11.2212 L2.04,12.4116 L2.7192,10.368 C1.0176,9.1776 0,7.6452 0,5.7792 C0,2.5452 3.06,0 6.7956,0 Z M9.3432,2.8896 C8.8344,2.8896 8.3244,3.2256 8.3244,3.738 C8.3244,4.2468 8.8356,4.5876 9.3432,4.5876 C9.8568,4.5876 10.194,4.2468 10.194,3.738 C10.194,3.2268 9.8568,2.8896 9.3432,2.8896 Z M4.5876,2.8896 C4.0776,2.8896 3.564,3.2268 3.564,3.738 C3.564,4.2468 4.0776,4.5876 4.5876,4.5876 C5.0976,4.5876 5.436,4.2468 5.436,3.738 C5.436,3.2256 5.0976,2.8896 4.5876,2.8896 Z"></path></clipPath><clipPath id="i4"><path d="M5.7792,0 C8.8332,0 11.5524,2.214 11.5524,4.9308 C11.5524,6.4632 10.5348,7.8204 9.1704,8.8452 L9.6816,10.5444 L7.818,9.522 C7.1388,9.6924 6.456,9.8616 5.7792,9.8616 C2.5464,9.8616 0,7.6548 0,4.9308 C0,2.2152 2.5452,0 5.7792,0 Z M3.9048,2.7216 C3.5676,2.7216 3.2256,3.0624 3.2256,3.4008 C3.2256,3.744 3.5676,4.08 3.9048,4.08 C4.4208,4.08 4.7556,3.744 4.7556,3.4008 C4.7556,3.0624 4.4208,2.7216 3.9048,2.7216 Z M7.6428,2.7216 C7.3068,2.7216 6.9672,3.0624 6.9672,3.4008 C6.9672,3.744 7.308,4.08 7.6428,4.08 C8.154,4.08 8.4936,3.744 8.4936,3.4008 C8.4936,3.0624 8.154,2.7216 7.6428,2.7216 Z"></path></clipPath></defs><g transform="translate(-1130.0 -665.0)"><g clip-path="url(#i0)"><g transform="translate(990.0 254.0)"><g transform="translate(140.0 411.0)"><g clip-path="url(#i1)"><polygon points="0,0 32,0 32,32 0,32 0,0" stroke="none" fill="url(#i2)"></polygon></g><g transform="translate(6.4 8.00000000000014)"><g clip-path="url(#i3)"><polygon points="0,0 13.6524,0 13.6524,12.4116 0,12.4116 0,0" stroke="none" fill="#FFFFFF"></polygon></g><g transform="translate(7.647600000000003 5.0976)"><g clip-path="url(#i4)"><polygon points="0,0 11.5524,0 11.5524,10.5444 0,10.5444 0,0" stroke="none" fill="#FFFFFF"></polygon></g></g></g></g></g></g></g></svg>
