<?xml version="1.0" standalone="no"?><!DOCTYPE svg PUBLIC "-//W3C//DTD SVG 1.1//EN" "http://www.w3.org/Graphics/SVG/1.1/DTD/svg11.dtd"><svg t="1657092521070" class="icon" viewBox="0 0 1024 1024" version="1.1" xmlns="http://www.w3.org/2000/svg" p-id="16773" xmlns:xlink="http://www.w3.org/1999/xlink" width="64" height="64"><defs><style type="text/css">@font-face { font-family: feedback-iconfont; src: url("//at.alicdn.com/t/font_1031158_u69w8yhxdu.woff2?t=1630033759944") format("woff2"), url("//at.alicdn.com/t/font_1031158_u69w8yhxdu.woff?t=1630033759944") format("woff"), url("//at.alicdn.com/t/font_1031158_u69w8yhxdu.ttf?t=1630033759944") format("truetype"); }
</style></defs><path d="M315.904 527.9232h268.9024c28.416 0 49.3568-14.9504 55.8592-40.448 0.512-2.4576 1.536-5.9904 2.5088-9.9328a334.336 334.336 0 0 1 7.9872-29.4912h103.7824c10.9568 0 19.968 9.0112 19.968 19.968v1.536l-7.4752 93.7984a19.968 19.968 0 0 0 39.8848 0v-0.512l7.4752-95.2832c0-32.9216-26.9312-59.904-59.904-59.904h-11.4688v-95.744A55.808 55.808 0 0 0 687.616 256H382.7712a55.808 55.808 0 0 0-55.9104 55.8592v176.128H315.904A60.416 60.416 0 0 0 256 549.376l19.968 183.0912c0 32.9216 26.9312 59.904 59.8528 59.904h290.4064a20.0704 20.0704 0 0 0 18.432-19.968 20.0704 20.0704 0 0 0-18.432-19.968H335.8208c-10.9568 0-19.968-9.0112-19.968-21.4528l-19.968-183.0912a19.968 19.968 0 0 1 19.968-19.968z m50.8416-216.064c0-8.96 7.4752-16.384 16.4864-16.384h304.8448c9.0112 0 16.4352 7.424 16.4352 16.384v96.3072h-64.8704c-0.4608 0-0.9728 0.512-1.4336 0.512a15.36 15.36 0 0 0-6.5536 1.536c-0.4608 0-0.4608 0.4608-0.9216 0.4608a20.6336 20.6336 0 0 0-5.5296 3.4816c-10.496 9.984-15.4624 29.952-21.4528 54.8864-1.024 3.4816-1.4848 6.5024-2.048 9.0112-0.9728 3.4304-2.4576 10.4448-16.896 10.4448H366.7456V311.808z m385.6384 321.1776l60.8768 56.3712a19.8656 19.8656 0 0 1 0 28.4672 19.712 19.712 0 0 1-13.9776 5.9904 19.712 19.712 0 0 1-13.9776-5.9904l-25.9584-26.4704v99.7888a19.968 19.968 0 0 1-19.968 19.968 20.0192 20.0192 0 0 1-19.9168-19.968v-99.328l-25.9584 26.4704a18.8928 18.8928 0 0 1-13.9776 5.9904 19.712 19.712 0 0 1-13.9264-5.9904 19.8656 19.8656 0 0 1 0-28.416l60.3136-55.9104a20.48 20.48 0 0 1 13.9776-5.4784c4.5056 0 9.0112 1.536 12.4928 4.5056z" p-id="16774"></path></svg>