<?xml version="1.0" standalone="no"?><!DOCTYPE svg PUBLIC "-//W3C//DTD SVG 1.1//EN" "http://www.w3.org/Graphics/SVG/1.1/DTD/svg11.dtd"><svg t="1652664089363" class="icon" viewBox="0 0 1024 1024" version="1.1" xmlns="http://www.w3.org/2000/svg" p-id="2251" xmlns:xlink="http://www.w3.org/1999/xlink" width="64" height="64"><defs><style type="text/css">@font-face { font-family: feedback-iconfont; src: url("//at.alicdn.com/t/font_1031158_u69w8yhxdu.woff2?t=1630033759944") format("woff2"), url("//at.alicdn.com/t/font_1031158_u69w8yhxdu.woff?t=1630033759944") format("woff"), url("//at.alicdn.com/t/font_1031158_u69w8yhxdu.ttf?t=1630033759944") format("truetype"); }
</style></defs><path d="M248.832 63.488q28.672 0 48.64 19.968t19.968 48.64l0 116.736q0 28.672-19.968 48.64t-48.64 19.968l-116.736 0q-28.672 0-48.64-19.968t-19.968-48.64l0-116.736q0-28.672 19.968-48.64t48.64-19.968l116.736 0zM572.416 63.488q28.672 0 48.64 19.968t19.968 48.64l0 116.736q0 28.672-19.968 48.64t-48.64 19.968l-118.784 0q-28.672 0-48.64-19.968t-19.968-48.64l0-116.736q0-28.672 19.968-48.64t48.64-19.968l118.784 0zM891.904 63.488q28.672 0 48.64 19.968t19.968 48.64l0 116.736q0 28.672-19.968 48.64t-48.64 19.968l-118.784 0q-28.672 0-48.64-19.968t-19.968-48.64l0-116.736q0-28.672 19.968-48.64t48.64-19.968l118.784 0zM248.832 385.024q28.672 0 48.64 19.968t19.968 48.64l0 116.736q0 28.672-19.968 48.64t-48.64 19.968l-116.736 0q-28.672 0-48.64-19.968t-19.968-48.64l0-116.736q0-28.672 19.968-48.64t48.64-19.968l116.736 0zM572.416 385.024q28.672 0 48.64 19.968t19.968 48.64l0 116.736q0 28.672-19.968 48.64t-48.64 19.968l-118.784 0q-28.672 0-48.64-19.968t-19.968-48.64l0-116.736q0-28.672 19.968-48.64t48.64-19.968l118.784 0zM891.904 385.024q28.672 0 48.64 19.968t19.968 48.64l0 116.736q0 28.672-19.968 48.64t-48.64 19.968l-118.784 0q-28.672 0-48.64-19.968t-19.968-48.64l0-116.736q0-28.672 19.968-48.64t48.64-19.968l118.784 0zM248.832 706.56q28.672 0 48.64 19.968t19.968 48.64l0 116.736q0 28.672-19.968 48.64t-48.64 19.968l-116.736 0q-28.672 0-48.64-19.968t-19.968-48.64l0-116.736q0-28.672 19.968-48.64t48.64-19.968l116.736 0zM572.416 706.56q28.672 0 48.64 19.968t19.968 48.64l0 116.736q0 28.672-19.968 48.64t-48.64 19.968l-118.784 0q-28.672 0-48.64-19.968t-19.968-48.64l0-116.736q0-28.672 19.968-48.64t48.64-19.968l118.784 0zM891.904 706.56q28.672 0 48.64 19.968t19.968 48.64l0 116.736q0 28.672-19.968 48.64t-48.64 19.968l-118.784 0q-28.672 0-48.64-19.968t-19.968-48.64l0-116.736q0-28.672 19.968-48.64t48.64-19.968l118.784 0z" p-id="2252"></path></svg>