<?xml version="1.0" standalone="no"?><!DOCTYPE svg PUBLIC "-//W3C//DTD SVG 1.1//EN" "http://www.w3.org/Graphics/SVG/1.1/DTD/svg11.dtd"><svg t="1652665477318" class="icon" viewBox="0 0 1024 1024" version="1.1" xmlns="http://www.w3.org/2000/svg" p-id="2281" xmlns:xlink="http://www.w3.org/1999/xlink" width="64" height="64"><defs><style type="text/css">@font-face { font-family: feedback-iconfont; src: url("//at.alicdn.com/t/font_1031158_u69w8yhxdu.woff2?t=1630033759944") format("woff2"), url("//at.alicdn.com/t/font_1031158_u69w8yhxdu.woff?t=1630033759944") format("woff"), url("//at.alicdn.com/t/font_1031158_u69w8yhxdu.ttf?t=1630033759944") format("truetype"); }
</style></defs><path d="M863.57333333 488.10666667h-228.69333333c-51.2 0-92.16-40.96-92.16-92.16V167.25333333c0-51.2 40.96-92.16 92.16-92.16h228.69333333c51.2 0 92.16 40.96 92.16 92.16v228.69333334c0 51.2-40.96 92.16-92.16 92.16z m-225.28-341.33333334c-13.65333333 0-23.89333333 10.24-23.89333333 23.89333334v228.69333333c0 13.65333333 10.24 23.89333333 23.89333333 23.89333333h228.69333334c13.65333333 0 23.89333333-10.24 23.89333333-23.89333333V167.25333333c0-13.65333333-10.24-23.89333333-23.89333333-23.89333333h-228.69333334zM385.70666667 488.10666667H160.42666667c-51.2 0-92.16-40.96-92.16-92.16V167.25333333c0-51.2 40.96-92.16 92.16-92.16h228.69333333c51.2 0 92.16 40.96 92.16 92.16v228.69333334c-3.41333333 51.2-44.37333333 92.16-95.57333333 92.16z m-225.28-341.33333334c-13.65333333 0-23.89333333 10.24-23.89333334 20.48v228.69333334c0 13.65333333 10.24 23.89333333 23.89333334 23.89333333h228.69333333c13.65333333 0 23.89333333-10.24 23.89333333-23.89333333V167.25333333c0-13.65333333-10.24-23.89333333-23.89333333-23.89333333H160.42666667zM863.57333333 965.97333333h-228.69333333c-51.2 0-92.16-40.96-92.16-92.16v-228.69333333c0-51.2 40.96-92.16 92.16-92.16h228.69333333c51.2 0 92.16 40.96 92.16 92.16v228.69333333c0 51.2-40.96 92.16-92.16 92.16z m-225.28-344.74666666c-13.65333333 0-23.89333333 10.24-23.89333333 23.89333333v228.69333333c0 13.65333333 10.24 23.89333333 23.89333333 23.89333334h228.69333334c13.65333333 0 23.89333333-10.24 23.89333333-23.89333334v-228.69333333c0-13.65333333-10.24-23.89333333-23.89333333-23.89333333h-228.69333334zM385.70666667 965.97333333H160.42666667c-51.2 0-92.16-40.96-92.16-92.16v-228.69333333c0-51.2 40.96-92.16 92.16-92.16h228.69333333c51.2 0 92.16 40.96 92.16 92.16v228.69333333c-3.41333333 51.2-44.37333333 92.16-95.57333333 92.16zM160.42666667 621.22666667c-13.65333333 0-23.89333333 10.24-23.89333334 23.89333333v228.69333333c0 13.65333333 10.24 23.89333333 23.89333334 23.89333334h228.69333333c13.65333333 0 23.89333333-10.24 23.89333333-23.89333334v-228.69333333c0-13.65333333-10.24-23.89333333-23.89333333-23.89333333H160.42666667z" fill="#333333" p-id="2282"></path></svg>