<?xml version="1.0" encoding="UTF-8"?>
<svg width="20px" height="20px" viewBox="0 0 20 20" version="1.1" xmlns="http://www.w3.org/2000/svg" xmlns:xlink="http://www.w3.org/1999/xlink">
    <title>编组 3</title>
    <g id="用工" stroke="none" stroke-width="1" fill="none" fill-rule="evenodd">
        <g id="工人详情/MP3" transform="translate(-1142.000000, -240.000000)">
            <g id="编组-3" transform="translate(1142.000000, 240.000000)">
                <path d="M16.7790273,3 C17.441769,3 17.9790273,3.5372583 17.9790273,4.2 L17.979,11.168 L18,11.1597206 L18,15.8401429 C18,16.5028846 17.4627417,17.0401429 16.8,17.0401429 C16.5405024,17.0401429 16.2879966,16.9560244 16.0803429,16.8004 L13.718,15.03 L3.2,15.0308461 C2.5372583,15.0308461 2,14.4935878 2,13.8308461 L2,4.2 C2,3.5372583 2.5372583,3 3.2,3 L16.7790273,3 Z" id="Combined-Shape" fill="#3468FE"></path>
                <path d="M5.78450646,10.2185077 C5.08779806,10.2185077 4.52300431,9.67986836 4.52300431,9.01542307 C4.52300431,8.35097779 5.08779806,7.81233846 5.78450646,7.81233846 C6.48121486,7.81233846 7.04600861,8.35097779 7.04600861,9.01542307 C7.04600861,9.67986836 6.48121486,10.2185077 5.78450646,10.2185077 Z M9.98951363,10.2185077 C9.29280523,10.2185077 8.72801148,9.67986836 8.72801148,9.01542307 C8.72801148,8.35097779 9.29280523,7.81233846 9.98951363,7.81233846 C10.686222,7.81233846 11.2510158,8.35097779 11.2510158,9.01542307 C11.2510158,9.67986836 10.686222,10.2185077 9.98951363,10.2185077 Z M14.1945208,10.2185077 C13.4978124,10.2185077 12.9330187,9.67986836 12.9330187,9.01542307 C12.9330187,8.35097779 13.4978124,7.81233846 14.1945208,7.81233846 C14.8912292,7.81233846 15.456023,8.35097779 15.456023,9.01542307 C15.456023,9.67986836 14.8912292,10.2185077 14.1945208,10.2185077 Z" id="Combined-Shape" fill="#1F2844"></path>
            </g>
        </g>
    </g>
</svg>