<?xml version="1.0" encoding="UTF-8"?>
<svg width="23px" height="22px" viewBox="0 0 23 22" version="1.1" xmlns="http://www.w3.org/2000/svg" xmlns:xlink="http://www.w3.org/1999/xlink">
    <title>编组 4</title>
    <g id="用工" stroke="none" stroke-width="1" fill="none" fill-rule="evenodd">
        <g id="招募管理" transform="translate(-1169.000000, -84.000000)">
            <g id="编组-4" transform="translate(1169.000000, 84.000000)">
                <rect id="矩形" stroke="#979797" fill="#D8D8D8" opacity="0" x="0.5" y="0.5" width="22" height="21"></rect>
                <path d="M14.5,3 C18.6421356,3 22,6.35786438 22,10.5 C22,14.6421356 18.6421356,18 14.5,18 L8.5,18 C4.35786438,18 1,14.6421356 1,10.5 C1,6.35786438 4.35786438,3 8.5,3 L14.5,3 Z M11.5409273,6.59752422 C11.2647849,6.59752422 11.0409273,6.82138184 11.0409273,7.09752422 L11.0409273,7.09752422 L11.0401653,9.99952422 L8.04016528,10 L7.95028964,10.0080557 C7.71704044,10.0503916 7.54016528,10.2545401 7.54016528,10.5 C7.54016528,10.7761424 7.7640229,11 8.04016528,11 L8.04016528,11 L11.0401653,10.9995242 L11.0409273,13.8199445 L11.0489829,13.9098202 C11.0913189,14.1430694 11.2954674,14.3199445 11.5409273,14.3199445 C11.8170696,14.3199445 12.0409273,14.0960869 12.0409273,13.8199445 L12.0409273,13.8199445 L12.0401653,10.9995242 L15.0416893,11 L15.1315649,10.9919443 C15.3648141,10.9496084 15.5416893,10.7454599 15.5416893,10.5 C15.5416893,10.2238576 15.3178316,10 15.0416893,10 L15.0416893,10 L12.0401653,9.99952422 L12.0409273,7.09752422 L12.0328716,7.00764859 C11.9905356,6.77439938 11.7863872,6.59752422 11.5409273,6.59752422 Z" id="形状结合备份" fill="#3468FE"></path>
            </g>
        </g>
    </g>
</svg>