<?xml version="1.0" encoding="UTF-8"?>
<svg width="24px" height="24px" viewBox="0 0 24 24" version="1.1" xmlns="http://www.w3.org/2000/svg" xmlns:xlink="http://www.w3.org/1999/xlink">
    <title>切片</title>
    <g id="项目" stroke="none" stroke-width="1" fill="none" fill-rule="evenodd">
        <g id="2-10-3项目-文件夹编辑-版本管理-删除" transform="translate(-1001.000000, -574.000000)">
            <g id="编组-9" transform="translate(465.000000, 262.000000)">
                <g id="编组-8" transform="translate(12.000000, 289.000000)">
                    <g id="icon_close_jiaohu备份-3" transform="translate(524.000000, 23.000000)">
                        <rect id="矩形" fill="#D8D8D8" opacity="0" x="0" y="0" width="24" height="24" rx="2"></rect>
                        <path d="M14.6666667,9.66666667 C15.4030463,9.66666667 16,9.069713 16,8.33333333 C16,7.59695367 15.4030463,7 14.6666667,7 C13.930287,7 13.3333333,7.59695367 13.3333333,8.33333333 C13.3333333,9.069713 13.930287,9.66666667 14.6666667,9.66666667 Z M14.6666667,13.6666667 C15.4030463,13.6666667 16,13.069713 16,12.3333333 C16,11.5969537 15.4030463,11 14.6666667,11 C13.930287,11 13.3333333,11.5969537 13.3333333,12.3333333 C13.3333333,13.069713 13.930287,13.6666667 14.6666667,13.6666667 Z M14.6666667,17.6666667 C15.4030463,17.6666667 16,17.069713 16,16.3333333 C16,15.5969537 15.4030463,15 14.6666667,15 C13.930287,15 13.3333333,15.5969537 13.3333333,16.3333333 C13.3333333,17.069713 13.930287,17.6666667 14.6666667,17.6666667 Z M9.33333333,9.66666667 C10.069713,9.66666667 10.6666667,9.069713 10.6666667,8.33333333 C10.6666667,7.59695367 10.069713,7 9.33333333,7 C8.59695367,7 8,7.59695367 8,8.33333333 C8,9.069713 8.59695367,9.66666667 9.33333333,9.66666667 Z M9.33333333,13.6666667 C10.069713,13.6666667 10.6666667,13.069713 10.6666667,12.3333333 C10.6666667,11.5969537 10.069713,11 9.33333333,11 C8.59695367,11 8,11.5969537 8,12.3333333 C8,13.069713 8.59695367,13.6666667 9.33333333,13.6666667 Z M9.33333333,17.6666667 C10.069713,17.6666667 10.6666667,17.069713 10.6666667,16.3333333 C10.6666667,15.5969537 10.069713,15 9.33333333,15 C8.59695367,15 8,15.5969537 8,16.3333333 C8,17.069713 8.59695367,17.6666667 9.33333333,17.6666667 Z" id="形状结合" fill="#ABABAB"></path>
                    </g>
                </g>
            </g>
        </g>
    </g>
</svg>