<?xml version="1.0" encoding="UTF-8"?>
<svg width="24px" height="24px" viewBox="0 0 24 24" version="1.1" xmlns="http://www.w3.org/2000/svg" xmlns:xlink="http://www.w3.org/1999/xlink">
    <title>icon_search.png</title>
    <g id="用工" stroke="none" stroke-width="1" fill="none" fill-rule="evenodd">
        <g id="招募管理" transform="translate(-1375.000000, -83.000000)">
            <g id="编组-8" transform="translate(1217.000000, 76.000000)">
                <g id="icon_search.png" transform="translate(158.000000, 7.000000)">
                    <rect id="矩形" fill="#D8D8D8" opacity="0" x="0" y="0" width="24" height="24"></rect>
                    <path d="M18.9234958,18.5525054 L14.84453,14.4679606 C15.8849284,13.4632783 16.5294813,12.0782389 16.5294813,10.5507307 C16.5294813,7.48989918 13.9435834,5 10.7647407,5 C7.58589795,5 5,7.48989918 5,10.5507307 C5,13.6115621 7.58589795,16.1014613 10.7647407,16.1014613 C12.1600824,16.1014613 13.4406784,15.621191 14.438802,14.8242646 L18.5276502,18.9188536 C18.5814545,18.9730393 18.6533765,19 18.725573,19 C18.7942009,19 18.8625542,18.9754182 18.9158095,18.9262546 C19.025065,18.8250198 19.0283592,18.6577049 18.9234958,18.5525054 Z M10.7647407,15.5728203 C7.8886841,15.5728203 5.54902292,13.3200166 5.54902292,10.5507307 C5.54902292,7.7814447 7.8886841,5.52864101 10.7647407,5.52864101 C13.6407972,5.52864101 15.9804584,7.7814447 15.9804584,10.5507307 C15.9804584,13.3200166 13.6405227,15.5728203 10.7647407,15.5728203 Z" id="Shape" stroke="#676C7F" stroke-width="1.3" opacity="0.518508185"></path>
                </g>
            </g>
        </g>
    </g>
</svg>