<?xml version="1.0" encoding="UTF-8"?>
<svg width="20px" height="20px" viewBox="0 0 20 20" version="1.1" xmlns="http://www.w3.org/2000/svg" xmlns:xlink="http://www.w3.org/1999/xlink">
    <title>编组</title>
    <defs>
        <polygon id="path-1" points="0 0 14 0 14 13.6949129 0 13.6949129"></polygon>
    </defs>
    <g id="用工" stroke="none" stroke-width="1" fill="none" fill-rule="evenodd">
        <g id="报名管理" transform="translate(-745.000000, -151.000000)">
            <g id="编组" transform="translate(745.000000, 151.000000)">
                <g transform="translate(3.000000, 3.000000)">
                    <mask id="mask-2" fill="white">
                        <use xlink:href="#path-1"></use>
                    </mask>
                    <g id="Clip-2"></g>
                    <path d="M2.88550526,10.8722528 C1.78626952,9.79697508 1.18107231,8.36819362 1.18107231,6.84768017 C1.18107231,5.32671926 1.78626952,3.89793779 2.88550526,2.82221256 C3.98474101,1.74693481 5.44627168,1.15492796 6.99974841,1.15492796 C8.55368258,1.15492796 10.0152133,1.74738228 11.1149064,2.82221256 C12.2141422,3.89704284 12.8193394,5.32716673 12.8193394,6.84768017 C12.8193394,8.36819362 12.2141422,9.79697508 11.1149064,10.8722528 C10.0161281,11.9475306 8.55459747,12.5395374 7.00066329,12.5395374 C5.44627168,12.5395374 3.98474101,11.9470831 2.88550526,10.8722528 M12.8545625,10.6006367 C13.598365,9.49493077 14,8.20218111 14,6.84768017 C14,5.01885779 13.2717506,3.29921884 11.9497401,2.00557424 C10.6272721,0.712377105 8.8702332,0 6.99974841,0 C5.1301785,0 3.37222471,0.712377105 2.05021418,2.00557424 C0.728203654,3.29877137 -4.57443089e-05,5.01885779 -4.57443089e-05,6.84768017 C-4.57443089e-05,8.67650255 0.728203654,10.3961415 2.04975674,11.6893386 C3.37176727,12.9825358 5.12972106,13.6949129 6.99974841,13.6949129 C8.38442864,13.6949129 9.70598172,13.3020315 10.8358662,12.5744403 C11.966208,11.8464017 12.8545625,10.6006367 12.8545625,10.6006367" id="Fill-1" fill="#F88212" mask="url(#mask-2)"></path>
                </g>
                <path d="M12.3684345,7.9414897 C12.3684345,9.22081517 11.3080814,10.2580577 9.99979415,10.2580577 C8.69196436,10.2580577 7.63161128,9.22081517 7.63161128,7.9414897 C7.63161128,6.66171676 8.69196436,5.62447422 9.99979415,5.62447422 C11.3080814,5.62447422 12.3684345,6.66171676 12.3684345,7.9414897" id="Fill-3" fill="#F88212"></path>
                <path d="M12.3369166,10.979429 L7.6632206,10.979429 C7.09278906,10.979429 6.6303141,11.4318243 6.6303141,11.9898232 L6.6303141,12.4878607 C6.72912181,12.6077835 6.83296139,12.7245739 6.94594983,12.8350998 C7.7620283,13.6329442 8.84662587,14.0723628 9.99983989,14.0723628 C11.1535114,14.0723628 12.2376515,13.6329442 13.0532725,12.8350998 C13.166261,12.7245739 13.2710154,12.6077835 13.3698235,12.4874132 L13.3698235,11.9902707 C13.3702806,11.4318243 12.9078056,10.979429 12.3369166,10.979429 Z" id="Fill-5" fill="#F88212"></path>
                <line x1="14.4713003" y1="14.6393559" x2="16.0471918" y2="16.2699477" id="Fill-7" fill="#F88212"></line>
                <path d="M16.0472833,17 C15.8492104,17 15.651595,16.9234821 15.5047558,16.7713413 L13.9288643,15.1411969 C13.6457071,14.8481021 13.6589729,14.3858624 13.9585981,14.1088766 C14.2582234,13.8318908 14.7303046,13.8448675 15.0139193,14.1375149 L16.5893533,15.7681067 C16.8729681,16.0612015 16.8597022,16.5234412 16.560077,16.800427 C16.415525,16.933774 16.2311754,17 16.0472833,17" id="Fill-9" fill="#F88212"></path>
            </g>
        </g>
    </g>
</svg>