<?xml version="1.0" encoding="UTF-8"?>
<svg width="20px" height="20px" viewBox="0 0 20 20" version="1.1" xmlns="http://www.w3.org/2000/svg" xmlns:xlink="http://www.w3.org/1999/xlink">
    <title>编组</title>
    <defs>
        <polygon id="path-1" points="0 0 14 0 14 13.5111511 0 13.5111511"></polygon>
    </defs>
    <g id="用工" stroke="none" stroke-width="1" fill="none" fill-rule="evenodd">
        <g id="报名管理" transform="translate(-1319.000000, -151.000000)">
            <g id="编组" transform="translate(1319.000000, 151.000000)">
                <path d="M16.3259652,16.1495999 L15.4232401,14.6375378 C14.111913,15.7751506 12.4833124,16.4241961 10.7940022,16.5816177 C10.7438508,16.58875 10.6857808,16.5958824 10.6208479,16.5958824 L11.8556281,18.6515329 C11.9854938,18.8675417 12.2241089,19 12.4764496,19 L12.4838403,19 C12.7367089,19 12.9747961,18.8675417 13.1046618,18.6444005 L13.9424541,17.2367766 L15.7188694,17.1950013 C15.971738,17.187869 16.2098251,17.0554107 16.332828,16.8394018 C16.4558309,16.623393 16.4558309,16.3656088 16.3259652,16.1495999 Z" id="Fill-3" fill="#3468FE"></path>
                <path d="M4.61989012,14.6372322 L3.71716498,16.1492943 C3.58729925,16.3653031 3.58729925,16.6235968 3.71030215,16.8396056 C3.83277714,17.0556145 4.07139221,17.1880728 4.32373292,17.1946957 L6.10014819,17.236471 L6.93794047,18.6446043 C7.06833411,18.8677455 7.30642126,18.9996943 7.56615271,18.9996943 C7.81902133,18.9996943 8.0576364,18.8672361 8.18750212,18.6512272 L9.41489157,16.5955767 C7.97686625,16.5955767 5.675709,15.655123 4.61989012,14.6372322 Z" id="Fill-5" fill="#3468FE"></path>
                <g transform="translate(3.000000, 2.000000)">
                    <mask id="mask-2" fill="white">
                        <use xlink:href="#path-1"></use>
                    </mask>
                    <g id="Clip-8"></g>
                    <path d="M7.00007919,-0.000101890977 C10.86596,-0.000101890977 14.0001584,3.02453175 14.0001584,6.75526986 C14.0001584,10.4865174 10.86596,13.5111511 7.00007919,13.5111511 C3.13419835,13.5111511 -2.77111667e-13,10.4865174 -2.77111667e-13,6.75526986 C-2.77111667e-13,3.02453175 3.13419835,-0.000101890977 7.00007919,-0.000101890977 Z M10.2113523,4.1012137 C9.86873909,3.82559861 9.35877857,3.87043064 9.07317956,4.20106686 L9.07317956,4.20106686 L6.27261998,7.4447661 L4.87735532,6.09929575 C4.5627213,5.79464173 4.04959332,5.79464173 3.73495929,6.09929575 C3.41926945,6.40293086 3.41926945,6.89812101 3.73495929,7.20175612 L3.73495929,7.20175612 L5.75526872,9.15143996 C5.91575319,9.30631424 6.13589143,9.38986484 6.36289249,9.37916629 C6.58936564,9.3699961 6.80158524,9.26810513 6.94728824,9.09947556 L6.94728824,9.09947556 L10.3148226,5.19959843 C10.6004216,4.86896221 10.5539655,4.37682879 10.2113523,4.1012137 Z" id="形状结合" fill="#3468FE" mask="url(#mask-2)"></path>
                </g>
            </g>
        </g>
    </g>
</svg>