<?xml version="1.0" encoding="UTF-8"?>
<svg width="20px" height="20px" viewBox="0 0 20 20" version="1.1" xmlns="http://www.w3.org/2000/svg" xmlns:xlink="http://www.w3.org/1999/xlink">
    <title>编组</title>
    <g id="用工" stroke="none" stroke-width="1" fill="none" fill-rule="evenodd" opacity="0.658296131">
        <g id="报名管理" transform="translate(-753.000000, -433.000000)" fill="#E91E19">
            <g id="编组" transform="translate(753.000000, 433.000000)">
                <path d="M12.4750319,7.10015953 C12.9445835,7.10015953 13.3247979,7.48090338 13.3247979,7.94992024 L13.3247979,9.22509306 C13.3247979,9.69464168 12.9445835,10.0748538 12.4750319,10.0748538 C12.0054803,10.0748538 11.6252659,9.69464168 11.6252659,9.22509306 L11.6252659,7.94992024 C11.6252659,7.48090338 12.0054803,7.10015953 12.4750319,7.10015953 M6.52507445,7.10015953 C6.99462601,7.10015953 7.37484047,7.48090338 7.37484047,7.94992024 L7.37484047,9.22509306 C7.37484047,9.69464168 6.99462601,10.0748538 6.52507445,10.0748538 C6.05552288,10.0748538 5.67530843,9.69464168 5.67530843,9.22509306 L5.67530843,7.94992024 C5.67530843,7.72445181 5.76464553,7.50855516 5.92417607,7.34902562 C6.08370661,7.18949607 6.29960461,7.10015953 6.52507445,7.10015953 M9.50510498,11.3500194 C11.1780486,11.3500194 12.7308125,12.0966249 13.7746741,13.3585036 C14.0533207,13.7211674 13.9948262,14.2396384 13.6422637,14.5310457 C13.2897012,14.822453 12.7696316,14.7831024 12.4654601,14.4417092 C11.7364055,13.5579155 10.6500025,13.0474209 9.50404144,13.0500798 C8.36127099,13.0479527 7.27699507,13.556852 6.54794049,14.437455 C6.24802307,14.7985236 5.71200045,14.8479777 5.35092966,14.5480622 C4.98985886,14.2481466 4.93987263,13.7121274 5.23979005,13.3510588 C6.29215986,12.0812037 7.85609094,11.3473678 9.50510498,11.3500194 M9.49978729,3.70005318 C5.74443833,3.70005318 2.70006381,6.74440865 2.70006381,10.5002659 C2.70006381,14.2555914 5.74443833,17.2999468 9.49978729,17.2999468 C13.255668,17.2999468 16.3000425,14.2555914 16.3000425,10.5002659 C16.3000425,6.74440865 13.255668,3.70005318 9.49978729,3.70005318 M9.49978729,2 C14.1947712,2 18.0001064,5.80584316 18.0001064,10.5002659 C18.0001064,15.1946886 14.1947712,19 9.49978729,19 C4.8053352,19 1,15.1946886 1,10.5002659 C1,5.80584316 4.8053352,2 9.49978729,2" id="Fill-1"></path>
            </g>
        </g>
    </g>
</svg>