<?xml version="1.0" encoding="UTF-8"?>
<svg version="1.1" width="24px" height="24px" viewBox="0 0 24.0 24.0" xmlns="http://www.w3.org/2000/svg"
     xmlns:xlink="http://www.w3.org/1999/xlink">
    <defs>
        <clipPath id="i0">
            <path d="M1124,0 L1124,915 L0,915 L0,0 L1124,0 Z"></path>
        </clipPath>
        <clipPath id="i1">
            <path d="M6.80284727,1.29438641 C6.93674512,1.38811491 7.05319618,1.50456596 7.14692467,1.63846381 L10.4580069,6.36858133 C10.9014072,7.00201033 10.7473585,7.87495296 10.1139295,8.31835326 C9.87861258,8.48307513 9.5983232,8.57142857 9.31108226,8.57142857 L2.68891774,8.57142857 C1.9157191,8.57142857 1.28891776,7.94462723 1.28891776,7.1714286 C1.28891776,6.88418765 1.37727121,6.60389827 1.54199307,6.36858133 L4.85307533,1.63846381 C5.29647563,1.00503481 6.16941826,0.85098611 6.80284727,1.29438641 Z"></path>
        </clipPath>
    </defs>
    <g transform="translate(-657.0 -331.0)">
        <g clip-path="url(#i0)">
            <g transform="translate(657.0 331.0)">
                <g transform="translate(17.99999999999966 16.571428571428676) rotate(-180.0)">
                    <g clip-path="url(#i1)">
                        <polygon
                                points="1.28891776,1.0411909 10.7112024,1.0411909 10.7112024,8.57142857 1.28891776,8.57142857 1.28891776,1.0411909"
                                stroke="none" ></polygon>
                    </g>
                </g>
            </g>
        </g>
    </g>
</svg>
