<?xml version="1.0" standalone="no"?><!DOCTYPE svg PUBLIC "-//W3C//DTD SVG 1.1//EN" "http://www.w3.org/Graphics/SVG/1.1/DTD/svg11.dtd"><svg t="1658908271694" class="icon" viewBox="0 0 1024 1024" version="1.1" xmlns="http://www.w3.org/2000/svg" p-id="1457" xmlns:xlink="http://www.w3.org/1999/xlink" width="64" height="64"><defs><style type="text/css">@font-face { font-family: feedback-iconfont; src: url("//at.alicdn.com/t/font_1031158_u69w8yhxdu.woff2?t=1630033759944") format("woff2"), url("//at.alicdn.com/t/font_1031158_u69w8yhxdu.woff?t=1630033759944") format("woff"), url("//at.alicdn.com/t/font_1031158_u69w8yhxdu.ttf?t=1630033759944") format("truetype"); }
</style></defs><path d="M417.04 877.789c0 18.152-14.851 33.004-33.004 33.004H254.422c-18.152 0-33.004-14.852-33.004-33.004V150.267c0-18.152 14.852-33.004 33.004-33.004h129.614c18.153 0 33.005 14.852 33.005 33.004V877.79zM794.31 877.789c0 18.152-14.851 33.004-33.004 33.004H631.692c-18.152 0-33.004-14.852-33.004-33.004V150.267c0-18.152 14.852-33.004 33.004-33.004h129.614c18.153 0 33.005 14.852 33.005 33.004V877.79z" p-id="1458"></path></svg>