<?xml version="1.0" encoding="UTF-8"?><svg version="1.1" width="22px" height="22px" viewBox="0 0 22.0 22.0" xmlns="http://www.w3.org/2000/svg" xmlns:xlink="http://www.w3.org/1999/xlink"><defs><clipPath id="i0"><path d="M1397,0 L1397,915 L0,915 L0,0 L1397,0 Z"></path></clipPath><clipPath id="i1"><path d="M6.35928665,0 C9.8738582,0 12.7272727,2.84471509 12.7272727,6.35928665 C12.7272727,7.67290126 12.3270987,8.8908221 11.6485428,9.8999565 C10.5089169,11.6050457 8.56024358,12.7272727 6.35928665,12.7272727 C4.02783819,12.7272727 1.99217051,11.4745542 0.896041757,9.60417573 C0.321879078,8.65593736 0,7.54240974 0,6.35928665 C0,2.84471509 2.84471509,0 6.35928665,0 Z M5.86011403,3.87981956 L5.55758034,4.48081615 C5.43166326,4.73095602 5.19129841,4.90363721 4.91405298,4.94313445 L4.22044151,5.0419485 C4.0989236,5.05926032 3.98675202,5.11691667 3.90194739,5.20565492 C3.69310192,5.4241876 3.70095495,5.77064605 3.91948762,5.97949152 L4.40379543,6.44233074 C4.61026169,6.63964468 4.70466101,6.92696786 4.65544772,7.20828469 L4.54187545,7.85749521 C4.52103081,7.976649 4.53974693,8.09935066 4.59516709,8.2068715 C4.73538389,8.47890662 5.0695801,8.58576649 5.34161523,8.44554969 L5.97165787,8.12080279 C6.21760261,7.99403393 6.50967012,7.99403393 6.75561486,8.12080279 L7.3856575,8.44554969 C7.49317834,8.50096984 7.61588,8.51968597 7.73503379,8.49884132 C8.03650107,8.44610293 8.23813567,8.15896249 8.18539727,7.85749521 L8.07182501,7.20828469 C8.02261171,6.92696786 8.11701104,6.63964468 8.3234773,6.44233074 L8.8077851,5.97949152 C8.89652336,5.89468689 8.9541797,5.78251532 8.97149152,5.6609974 C9.01412475,5.36173936 8.80608925,5.08458173 8.50683121,5.0419485 L7.81321975,4.94313445 C7.53597431,4.90363721 7.29560946,4.73095602 7.16969238,4.48081615 L6.8671587,3.87981956 C6.81278524,3.77180429 6.72511808,3.68413712 6.61710281,3.62976367 C6.3390151,3.48977802 6.00009968,3.60173186 5.86011403,3.87981956 Z"></path></clipPath><clipPath id="i2"><path d="M10.7525011,0 L10.7525011,9.21693642 L0,9.21693642 L0,0 L10.7525011,0 Z"></path></clipPath><clipPath id="i3"><path d="M0,0 C1.09612875,1.94017969 3.13179643,3.23964888 5.46324489,3.23964888 C7.66420183,3.23964888 9.61287516,2.07554106 10.7525011,0.306819114 L10.9220531,6.94420914 C10.9220531,7.3141969 10.5305785,7.53077509 10.2347977,7.33224508 L6.41574598,4.78745126 C5.94597651,4.47160805 5.32831666,4.48063214 4.86724663,4.80549944 L0.865506742,7.61199192 C0.569725968,7.82857012 0.169551979,7.60296783 0.169551979,7.23298007 L0,0 Z"></path></clipPath></defs><g transform="translate(-226.0 -297.0)"><g clip-path="url(#i0)"><g transform="translate(226.0 297.0)"><g transform="translate(4.999999999999658 1.0)"><g clip-path="url(#i1)"><polygon points="0,0 12.7272727,0 12.7272727,12.7272727 0,12.7272727 0,0" stroke="none" fill="#9094A6"></polygon></g><g transform="translate(0.896128751631049 10.783063584926328)"><g clip-path="url(#i2)"><g clip-path="url(#i3)"><polygon points="0,0 10.7525011,0 10.7525011,7.69657738 0,7.69657738 0,0" stroke="none" fill="#9094A6" opacity="50%"></polygon></g></g></g></g></g></g></g></svg>