<?xml version="1.0" encoding="UTF-8"?><svg version="1.1" width="22px" height="22px" viewBox="0 0 22.0 22.0" xmlns="http://www.w3.org/2000/svg" xmlns:xlink="http://www.w3.org/1999/xlink"><defs><clipPath id="i0"><path d="M1397,0 L1397,915 L0,915 L0,0 L1397,0 Z"></path></clipPath><clipPath id="i1"><path d="M9.1876,0 C9.46294969,1.2156945e-15 9.72223019,0.129640249 9.88744,0.34992 L10.47512,1.13349333 C10.6200616,1.32674881 10.5808955,1.60091172 10.38764,1.74585333 C10.3119277,1.80263753 10.2198403,1.83333333 10.1252,1.83333333 L0.8748,1.83333333 C0.63323065,1.83333333 0.4374,1.63750268 0.4374,1.39593333 C0.4374,1.301293 0.468095801,1.2092056 0.52488,1.13349333 L1.11256,0.34992 C1.27776981,0.129640249 1.53705031,5.05809173e-17 1.8124,0 L9.1876,0 Z"></path></clipPath><clipPath id="i2"><path d="M12.9170667,0 C13.8833441,-3.99546883e-16 14.6666667,0.783322602 14.6666667,1.7496 L14.6666667,10.1670667 C14.6666667,11.1333441 13.8833441,11.9166667 12.9170667,11.9166667 L1.7496,11.9166667 C0.783322602,11.9166667 -1.03709753e-16,11.1333441 0,10.1670667 L0,1.7496 C-3.40379457e-16,0.783322602 0.783322602,-4.45423265e-17 1.7496,0 L12.9170667,0 Z M10.1252,2.75 L4.54146667,2.75 C4.05832797,2.75 3.66666667,3.1416613 3.66666667,3.6248 L3.66666667,3.70853333 C3.66666667,4.19167203 4.05832797,4.58333333 4.54146667,4.58333333 L10.1252,4.58333333 C10.6083387,4.58333333 11,4.19167203 11,3.70853333 L11,3.6248 C11,3.1416613 10.6083387,2.75 10.1252,2.75 Z"></path></clipPath></defs><g transform="translate(-226.0 -491.0)"><g clip-path="url(#i0)"><g transform="translate(226.0 491.0)"><g transform="translate(5.499999999999995 4.124999999999963)"><g clip-path="url(#i1)"><polygon points="0.4374,0 10.5626257,0 10.5626257,1.83333333 0.4374,1.83333333 0.4374,0" stroke="none" fill="#51545D"></polygon></g></g><g transform="translate(3.666666666666665 7.333333333333294)"><g clip-path="url(#i2)"><polygon points="0,0 14.6666667,0 14.6666667,11.9166667 0,11.9166667 0,0" stroke="none" fill="#9094A6"></polygon></g></g></g></g></g></svg>