<?xml version="1.0" encoding="UTF-8"?><svg version="1.1" width="22px" height="22px" viewBox="0 0 22.0 22.0" xmlns="http://www.w3.org/2000/svg" xmlns:xlink="http://www.w3.org/1999/xlink"><defs><clipPath id="i0"><path d="M1397,0 L1397,915 L0,915 L0,0 L1397,0 Z"></path></clipPath><clipPath id="i1"><path d="M5.17692979,0.157654789 C5.08137544,1.54428075 5.44860395,1.44134029 5.44860395,2.26522511 C5.44860395,2.99882912 5.05924335,3.64466267 4.46881819,4.02122766 C5.04640982,4.20517866 5.56418464,4.51862523 5.9849824,4.92423118 C6.17646584,5.10880161 6.34808896,5.31504371 6.49685398,5.53645598 C6.56955023,5.64445316 6.49348147,5.78748621 6.35970537,5.78748621 L0.167783045,5.78748621 C0.039253067,5.78748621 -0.0443101549,5.65023227 0.0250135942,5.54620824 C0.5003932,4.83512107 1.22140674,4.28753579 2.06959698,4.01799282 C1.50402754,3.65855018 1.11757316,3.05046698 1.08495498,2.36455362 C1.02724764,1.15744136 2.02550963,0.160905541 3.26546793,0.160905541 C3.52627512,0.160905541 4.43460359,0.201359333 4.97607828,0.00884262621 C5.07837765,-0.0272768309 5.18442425,0.0521859747 5.17692979,0.157654789 Z"></path></clipPath><clipPath id="i2"><path d="M14,0 L14,6.57287433 L0,6.57287433 L0,0 L14,0 Z"></path></clipPath><clipPath id="i3"><path d="M11.3264538,0 C11.6588331,0 11.972851,0.149895747 12.1744519,0.404899114 C12.3760529,0.660263676 12.4420041,0.991479097 12.3531948,1.30066165 L11.8531108,5.81956693 C11.7909068,6.03592248 11.6563813,6.22663321 11.4712681,6.36280356 C11.2857802,6.49861272 11.0590728,6.57265761 10.8263699,6.5730188 L1.54298307,6.5730188 C1.30990538,6.57265761 1.08357271,6.49861272 0.89808484,6.36280356 C0.712596971,6.22663321 0.578446148,6.03592248 0.515867412,5.81956693 L0.0386091246,1.30066165 C-0.0502002189,0.991479097 0.0161257465,0.660263676 0.217726703,0.404899114 C0.41932766,0.149895747 0.732970785,0 1.06572478,0 L11.3264538,0 Z M6.9180468,1.11674137 C6.57779834,1.16297428 6.39905548,1.22726691 6.08691125,1.3945 C6.08691125,1.3945 5.80774264,1.52705841 5.36744315,1.94893367 C5.08565148,2.21874601 4.929392,2.57524505 4.85632102,2.73019752 C4.85444741,2.73453186 4.85294852,2.738505 4.8510749,2.74247814 C4.83683543,2.76992893 4.82521902,2.79593494 4.81660039,2.82013497 C4.81285316,2.82988722 4.80985538,2.83963948 4.80760704,2.84939173 C4.73715912,3.0509383 4.75626999,3.18494149 4.78699728,3.26043115 C4.84545406,3.40635376 4.96499069,3.51218377 5.11900183,3.62162572 C5.28650299,3.74081993 5.81261404,4.1489698 5.7271772,4.53797635 C5.70132132,4.65608698 5.61738337,4.86702461 5.5476849,5.00391735 C5.45587777,5.18523702 5.58590664,5.28564911 5.62825034,5.31418348 C5.71181356,5.37016864 5.83659631,5.33802233 5.92877816,5.30443123 C6.04569173,5.26181027 6.24317073,5.16464893 6.46238367,5.04292636 C6.93078738,4.78286627 7.34185847,4.30681183 7.54795611,3.76899311 C7.57830867,3.6895303 7.60191621,3.58442268 7.60866123,3.49304046 C7.62702265,3.23334156 7.44715563,3.17843999 7.16498923,2.98014417 C7.07580517,2.91729631 6.98362332,2.85733801 6.86408669,2.73380947 C6.64449903,2.50625689 6.61714425,2.35636114 6.6733527,2.18551611 C6.71869418,2.04826217 6.84085386,1.86730369 6.89406453,1.79217522 C6.99411556,1.65022576 7.11515108,1.54258977 7.16648812,1.44470605 C7.22044823,1.34068201 7.16911118,1.21932063 7.1106544,1.17055937 C7.07205794,1.13805185 7.00685614,1.10482195 6.9180468,1.11674137 Z"></path></clipPath></defs><g transform="translate(-226.0 -605.0)"><g clip-path="url(#i0)"><g transform="translate(226.0 605.0)"><g transform="translate(4.0 3.999999999999975)"><g transform="translate(3.7345196596288583 4.440892098500626e-16)"><g clip-path="url(#i1)"><polygon points="2.77555756e-17,2.27248775e-16 6.52500134,2.27248775e-16 6.52500134,5.78748621 2.77555756e-17,5.78748621 2.77555756e-17,2.27248775e-16" stroke="none" fill="#676C7F"></polygon></g></g><g transform="translate(0.0 6.427125674913896)"><g clip-path="url(#i2)"><g transform="translate(0.8155359523325387 0.0)"><g clip-path="url(#i3)"><polygon points="-6.9388939e-18,0 12.3918811,0 12.3918811,6.57287433 -6.9388939e-18,6.57287433 -6.9388939e-18,0" stroke="none" fill="#676C7F"></polygon></g></g></g></g></g></g></g></g></svg>