<?xml version="1.0" encoding="UTF-8"?><svg version="1.1" width="22px" height="22px" viewBox="0 0 22.0 22.0" xmlns="http://www.w3.org/2000/svg" xmlns:xlink="http://www.w3.org/1999/xlink"><defs><clipPath id="i0"><path d="M1397,0 L1397,915 L0,915 L0,0 L1397,0 Z"></path></clipPath><clipPath id="i1"><path d="M14,0 C15.1045695,-2.02906125e-16 16,0.8954305 16,2 L16,16 C16,17.1045695 15.1045695,18 14,18 L2,18 C0.8954305,18 1.3527075e-16,17.1045695 0,16 L0,2 C-1.3527075e-16,0.8954305 0.8954305,2.02906125e-16 2,0 L14,0 Z"></path></clipPath><clipPath id="i2"><path d="M12,0 C13.1045695,-2.02906125e-16 14,0.8954305 14,2 L14,11 C14,12.1045695 13.1045695,13 12,13 L2,13 C0.8954305,13 1.3527075e-16,12.1045695 0,11 L0,2 C-1.3527075e-16,0.8954305 0.8954305,2.02906125e-16 2,0 L12,0 Z"></path></clipPath><clipPath id="i3"><path d="M5.3,0 C5.68659932,-9.1621684e-17 6,0.313400675 6,0.7 C6,1.08659932 5.68659932,1.4 5.3,1.4 L0.7,1.4 C0.313400675,1.4 4.73447626e-17,1.08659932 0,0.7 C-4.73447626e-17,0.313400675 0.313400675,7.10171439e-17 0.7,0 L5.3,0 Z"></path></clipPath><clipPath id="i4"><path d="M7.3,0 C7.68659932,-2.93061749e-16 8,0.313400675 8,0.7 C8,1.08659932 7.68659932,1.4 7.3,1.4 L0.7,1.4 C0.313400675,1.4 4.73447626e-17,1.08659932 0,0.7 C-4.73447626e-17,0.313400675 0.313400675,7.10171439e-17 0.7,0 L7.3,0 Z"></path></clipPath><clipPath id="i5"><path d="M9.3,0 C9.68659932,-1.51132636e-16 10,0.313400675 10,0.7 C10,1.08659932 9.68659932,1.4 9.3,1.4 L0.7,1.4 C0.313400675,1.4 4.73447626e-17,1.08659932 0,0.7 C-4.73447626e-17,0.313400675 0.313400675,7.10171439e-17 0.7,0 L9.3,0 Z"></path></clipPath></defs><g transform="translate(-270.0 -635.0)"><g clip-path="url(#i0)"><g transform="translate(270.0 635.0)"><g transform="translate(3.0 2.0)"><g clip-path="url(#i1)"><polygon points="0,0 16,0 16,18 0,18 0,0" stroke="none" fill="#86868B"></polygon></g><g transform="translate(1.0 1.0)"><g clip-path="url(#i2)"><polygon points="0,0 14,0 14,13 0,13 0,0" stroke="none" fill="#FFFFFF"></polygon></g></g><g transform="translate(3.0 4.000000000000455)"><g clip-path="url(#i3)"><polygon points="0,0 6,0 6,1.4 0,1.4 0,0" stroke="none" fill="#535563"></polygon></g></g><g transform="translate(3.0 10.0)"><g clip-path="url(#i4)"><polygon points="0,0 8,0 8,1.4 0,1.4 0,0" stroke="none" fill="#535563"></polygon></g></g><g transform="translate(3.0 15.0)"><g clip-path="url(#i5)"><polygon points="0,0 10,0 10,1.4 0,1.4 0,0" stroke="none" fill="#535563"></polygon></g></g><g transform="translate(3.0 7.0)"><g clip-path="url(#i5)"><polygon points="0,0 10,0 10,1.4 0,1.4 0,0" stroke="none" fill="#535563"></polygon></g></g></g></g></g></g></svg>