<?xml version="1.0" encoding="UTF-8"?><svg version="1.1" width="22px" height="22px" viewBox="0 0 22.0 22.0" xmlns="http://www.w3.org/2000/svg" xmlns:xlink="http://www.w3.org/1999/xlink"><defs><clipPath id="i0"><path d="M1397,0 L1397,915 L0,915 L0,0 L1397,0 Z"></path></clipPath><clipPath id="i1"><path d="M3.19408828,0 C3.527792,-6.13003788e-17 3.84345405,0.151484179 4.05222667,0.411815063 L4.50866501,0.980974955 C4.71743762,1.24130584 5.03309968,1.39279002 5.3668034,1.39279002 L13.2210805,1.39279002 C13.8285937,1.39279002 14.3210805,1.88527679 14.3210805,2.49279002 L14.3210805,3.19923596 L0,3.19923596 L0,1.1 C1.47645692e-16,0.492486775 0.492486775,1.11598369e-16 1.1,0 L3.19408828,0 Z"></path></clipPath><clipPath id="i2"><path d="M14.9348711,0.000939166695 L14.9802389,0.00375506308 C15.5856783,0.0539098115 16.0358254,0.585373845 15.9856706,1.19081321 L15.4968674,7.09136599 C15.4496194,7.6617167 14.9729268,8.10055278 14.4006224,8.10055278 L1.79297911,8.10055278 C1.23405958,8.10055278 0.763990415,7.68141496 0.700173018,7.12615071 L0.0220131738,1.22559793 C0.0172211639,1.18390347 0.0148192683,1.14196893 0.0148192683,1.1 C0.0148192683,0.492486775 0.507306043,5.55687579e-16 1.11481927,0 L14.9348711,0.000939166695 Z M5.70894452,2.35539151 L2.77734247,2.35539151 C2.24851498,2.35539151 1.81981559,2.78409089 1.81981559,3.31291839 C1.81981559,3.84174588 2.24851498,4.27044526 2.77734247,4.27044526 L5.70894452,4.27044526 C6.23777201,4.27044526 6.6664714,3.84174588 6.6664714,3.31291839 C6.6664714,2.78409089 6.23777201,2.35539151 5.70894452,2.35539151 Z"></path></clipPath></defs><g transform="translate(-226.0 -268.0)"><g clip-path="url(#i0)"><g transform="translate(226.0 268.0)"><g transform="translate(3.0 4.999999999999989)"><g transform="translate(0.8121625861133559 0.0)"><g clip-path="url(#i1)"><polygon points="0,0 14.3210805,0 14.3210805,3.19923596 0,3.19923596 0,0" stroke="none" fill="#D7D7D7" opacity="40%"></polygon></g></g><g transform="translate(0.0 4.347296648706683)"><g clip-path="url(#i2)"><polygon points="0.0148192683,0 15.9894862,0 15.9894862,8.10055278 0.0148192683,8.10055278 0.0148192683,0" stroke="none" fill="#9094A6"></polygon></g></g></g></g></g></g></svg>