<?xml version="1.0" encoding="UTF-8"?><svg version="1.1" width="22px" height="22px" viewBox="0 0 22.0 22.0" xmlns="http://www.w3.org/2000/svg" xmlns:xlink="http://www.w3.org/1999/xlink"><defs><clipPath id="i0"><path d="M1397,0 L1397,915 L0,915 L0,0 L1397,0 Z"></path></clipPath><clipPath id="i1"><path d="M6.60222406,0.257878784 C6.44831102,2.52723742 7.04013146,2.35868703 7.04013146,3.70709019 C7.04013146,5.66314911 5.37340226,7.23790525 3.35416256,7.14707262 C1.56132398,7.06644044 0.0867378211,5.62331876 0.0038233807,3.86981176 C-0.0890209328,1.89383767 1.52110799,0.26322188 3.51999145,0.26322188 C3.94052157,0.26322188 5.40517785,0.329281977 6.2780137,0.0145250423 C6.44334609,-0.044734751 6.6141399,0.0854424998 6.60222406,0.257878784 Z"></path></clipPath><clipPath id="i2"><path d="M12.5670625,0 L12.5670625,7.17432087 L0,7.17432087 L0,0 L12.5670625,0 Z"></path></clipPath><clipPath id="i3"><path d="M7.17790083,0 C9.26863561,0 11.1498501,0.851980962 12.4819425,2.22418519 C12.6025905,2.34853361 12.5931571,2.54817111 12.4670477,2.66717643 L10.9939511,4.05832437 C10.9105401,4.13652787 10.7799623,4.14041375 10.6925794,4.06706762 L9.87386138,3.38072263 C8.9404533,2.5938303 7.53041132,2.70069222 6.7260916,3.61873328 C5.92177188,4.53191698 6.03100049,5.91626461 6.96440856,6.69829958 L7.53041132,7.17432087 L1.38878481,7.17432087 C0.514955979,7.17432087 -0.160275392,6.38742854 0.0333571335,5.5519626 C0.788027489,2.37039173 3.69748031,0 7.17790083,0 Z"></path></clipPath><clipPath id="i4"><path d="M9.32156263,0.468570606 C9.72173652,0.968878697 9.61747285,1.69942566 9.14828635,2.13901675 L4.81538622,6.19491243 C4.4415265,6.5465853 3.95992765,6.72436468 3.47733582,6.72436468 C3.03098802,6.72436468 2.58364724,6.57330079 2.2187244,6.2672871 L0.474542194,4.80522171 C-0.0184760054,4.39186036 -0.162459165,3.66714223 0.21040757,3.14691897 C0.638881594,2.54800647 1.48639626,2.45425942 2.03800071,2.91716583 L3.22164159,3.9095245 C3.35470189,4.02124379 3.55230636,4.01590069 3.67841575,3.8973811 L7.48255013,0.336450411 C8.00784042,-0.154628696 8.86131301,-0.106055095 9.32156263,0.468570606 Z"></path></clipPath></defs><g transform="translate(-272.0 -518.0)"><g clip-path="url(#i0)"><g transform="translate(272.0 518.0)"><g transform="translate(2.999999999999682 3.0000000000000195)"><g transform="translate(3.6569236365830875 2.842170943040401e-14)"><g clip-path="url(#i1)"><polygon points="-5.46437895e-17,1.06512021e-15 7.04013146,1.06512021e-15 7.04013146,7.15081423 -5.46437895e-17,7.15081423 -5.46437895e-17,1.06512021e-15" stroke="none" fill="#FFFFFF"></polygon></g></g><g transform="translate(0.0 7.873927986277067)"><g clip-path="url(#i2)"><g transform="translate(-0.00019135733549546785 0.0)"><g clip-path="url(#i3)"><polygon points="0.000191357335,0 12.5672538,0 12.5672538,7.17432087 0.000191357335,7.17432087 0.000191357335,0" stroke="none" fill="#FFFFFF"></polygon></g></g></g></g><g transform="translate(7.430828378870501 9.275635315276787)"><g clip-path="url(#i4)"><polygon points="-5.55111512e-17,0 9.56917162,0 9.56917162,6.72436468 -5.55111512e-17,6.72436468 -5.55111512e-17,0" stroke="none" fill="#A6A8B0"></polygon></g></g></g></g></g></g></svg>