<?xml version="1.0" encoding="UTF-8"?><svg version="1.1" width="22px" height="22px" viewBox="0 0 22.0 22.0" xmlns="http://www.w3.org/2000/svg" xmlns:xlink="http://www.w3.org/1999/xlink"><defs><clipPath id="i0"><path d="M1397,0 L1397,915 L0,915 L0,0 L1397,0 Z"></path></clipPath><clipPath id="i1"><path d="M6.80620252,0 C7.30767782,0 7.7142319,0.42248269 7.7142319,0.943927642 L7.7142319,3.05425218 C7.7142319,3.54645235 8.09793458,3.94543476 8.57128508,3.94543476 L11.0919706,3.94543476 C11.5934459,3.94543476 12,4.36817857 12,4.88962352 L12,10.9992862 C12,12.4125959 11.0919706,12.8580439 10.1082246,12.8580439 L1.98443168,12.8580439 C0.477992092,12.8580439 0,11.9668614 0,10.9992862 L0,1.80608051 C0,1.17316308 0.633818834,0 1.98443168,0 Z M8.57103396,9.36955894 L2.91217277,9.36955894 C2.77581769,9.36955894 2.65252056,9.42700405 2.56337498,9.51996069 C2.47397828,9.61265621 2.41873313,9.74112437 2.41873313,9.88290935 C2.41873313,10.1664793 2.63971373,10.3962598 2.91217277,10.3962598 L8.57103396,10.3962598 C8.70738904,10.3962598 8.83068617,10.3388147 8.92008287,10.245858 C9.00947957,10.1531625 9.06472472,10.0246943 9.06472472,9.88290935 C9.06472472,9.59933939 8.84374411,9.36955894 8.57103396,9.36955894 Z M8.57103396,6.74118394 L2.91217277,6.74118394 C2.77581769,6.74118394 2.65252056,6.79862905 2.56337498,6.89158568 C2.47397828,6.98428121 2.41873313,7.11274937 2.41873313,7.25453435 C2.41873313,7.5378432 2.63971373,7.76762365 2.91217277,7.76762365 L8.57103396,7.76762365 C8.70738904,7.76762365 8.83068617,7.71017854 8.92008287,7.6172219 C9.00947957,7.52452638 9.06472472,7.39631933 9.06472472,7.25453435 C9.06472472,6.97096439 8.84374411,6.74118394 8.57103396,6.74118394 Z"></path></clipPath><clipPath id="i2"><path d="M0.428903258,0.0770430772 L2.99968611,2.75019916 C3.15796346,2.91477941 3.04586603,3.19618212 2.82202273,3.19618212 L0.437114696,3.19618212 C0.372728985,3.19618212 0.308318162,3.1840142 0.249934082,3.15581387 C0.0933140812,3.08016911 0,2.92023669 0,2.75046027 L0,0.261781336 C0,0.0290241855 0.270625902,-0.0875371698 0.428903258,0.0770430772 Z"></path></clipPath></defs><g transform="translate(-226.0 -400.0)"><g clip-path="url(#i0)"><g transform="translate(226.0 400.0)"><g transform="translate(5.0 3.9999999999999947)"><g transform="translate(0.0 0.14195605413533485)"><g clip-path="url(#i1)"><polygon points="0,0 12,0 12,12.8580439 0,12.8580439 0,0" stroke="none" fill="#9094A6"></polygon></g></g><g transform="translate(8.57133530039573 0.0)"><g clip-path="url(#i2)"><polygon points="0,3.33066907e-16 3.07377868,3.33066907e-16 3.07377868,3.19618212 0,3.19618212 0,3.33066907e-16" stroke="none" fill="#51535D"></polygon></g></g></g></g></g></g></svg>