<?xml version="1.0" encoding="UTF-8"?><svg version="1.1" width="22px" height="22px" viewBox="0 0 22.0 22.0" xmlns="http://www.w3.org/2000/svg" xmlns:xlink="http://www.w3.org/1999/xlink"><defs><clipPath id="i0"><path d="M1397,0 L1397,915 L0,915 L0,0 L1397,0 Z"></path></clipPath><clipPath id="i1"><path d="M9.41664221,0 C9.96798182,0 10.2913116,0.593044681 9.97610568,1.02552705 L8.05074978,3.66600022 C7.88014863,3.89959249 7.88827249,4.21243003 8.07024706,4.43773522 L9.87374499,6.66851551 C10.2203632,7.09737228 9.90082454,7.71993971 9.33432038,7.71993971 L1.06964217,7.71993971 C0.478766418,7.71993971 0,7.2615602 0,6.69700238 L0,1.02293733 C0,0.45786157 0.478766418,0 1.06964217,0 L9.41664221,0 Z"></path></clipPath></defs><g transform="translate(-270.0 -366.0)"><g clip-path="url(#i0)"><g transform="translate(270.0 366.0)"><g transform="translate(3.9999999999997984 5.0000000000000115)"><g transform="translate(4.445757802547632 0.0)"><g clip-path="url(#i1)"><polygon points="0,0 10.0998553,0 10.0998553,7.71993971 0,7.71993971 0,0" stroke="none" fill="#FFFFFF"></polygon></g></g><g transform="translate(1.2607925345464537 0.3266666201846533)"><path d="M0.559440559,0 L0.559440559,10.7696686" stroke="#A6A8B0" stroke-width="2.16" fill="none" stroke-linecap="round" stroke-miterlimit="10"></path></g><g transform="translate(0.0 11.30023886561366)"><path d="M0,0.258971476 L3.64057451,0.258971476" stroke="#A6A8B0" stroke-width="2.16" fill="none" stroke-linecap="round" stroke-miterlimit="10"></path></g></g></g></g></g></svg>