<?xml version="1.0" encoding="UTF-8"?><svg version="1.1" width="22px" height="22px" viewBox="0 0 22.0 22.0" xmlns="http://www.w3.org/2000/svg" xmlns:xlink="http://www.w3.org/1999/xlink"><defs><clipPath id="i0"><path d="M1397,0 L1397,915 L0,915 L0,0 L1397,0 Z"></path></clipPath><clipPath id="i1"><path d="M8.34593794,0.213231797 L13.3386963,2.02878009 C14.5821046,2.48091634 14.5821046,4.23939634 13.3386963,4.69152551 L8.34593794,6.50707592 C7.56415044,6.79138676 6.70713794,6.79138676 5.92528669,6.50707592 L0.932528359,4.69152551 C-0.310847391,4.23938926 -0.310838182,2.48091634 0.932528359,2.02878009 L5.92528669,0.213231797 C6.70713794,-0.0710776198 7.56415044,-0.0710769115 8.34593794,0.213231797 Z"></path></clipPath><clipPath id="i2"><path d="M14.125932,0.471228216 C14.2569736,0.839821684 14.0644487,1.24487521 13.6958321,1.37593111 L8.03270937,3.38947582 C7.41872628,3.60777717 6.74829613,3.60777717 6.1343272,3.38947582 L0.471227805,1.37593111 C0.102631825,1.24487521 -0.0899320573,0.839821684 0.0411242911,0.471228216 C0.172180923,0.102631915 0.57722843,-0.0899321357 0.945822994,0.041124327 L6.60892452,2.0546706 C6.91590898,2.16382482 7.25113468,2.16382482 7.55812623,2.0546706 L13.221249,0.041124327 C13.5897947,-0.0899321357 13.9948904,0.102631915 14.125932,0.471228216 Z"></path></clipPath><clipPath id="i3"><path d="M14.125932,0.471228216 C14.2569736,0.839821684 14.0644487,1.24487521 13.6958321,1.37593111 L8.03270937,3.38947582 C7.41872628,3.60777717 6.74829613,3.60777717 6.1343272,3.38947582 L0.471227805,1.37593111 C0.102631825,1.24487521 -0.0899320573,0.839821684 0.0411242911,0.471228216 C0.172180923,0.102631915 0.57722843,-0.0899321357 0.945822994,0.041124327 L6.60892452,2.0546706 C6.91590898,2.16382482 7.25113468,2.16382482 7.55812623,2.0546706 L13.221249,0.041124327 C13.5897947,-0.0899321357 13.9948904,0.102631915 14.125932,0.471228216 Z"></path></clipPath></defs><g transform="translate(-270.0 -434.0)"><g clip-path="url(#i0)"><g transform="translate(270.0 434.0)"><g transform="translate(4.000000000000001 4.999999999999999)"><g clip-path="url(#i1)"><polygon points="1.11022302e-16,0 14.2712525,0 14.2712525,6.72030905 1.11022302e-16,6.72030905 1.11022302e-16,0" stroke="none" fill="#FFFFFF"></polygon></g><g transform="translate(0.05210094650647079 6.179123550653458)"><g clip-path="url(#i2)"><polygon points="-1.11022302e-16,-5.55111512e-17 14.1670531,-5.55111512e-17 14.1670531,3.55320183 -1.11022302e-16,3.55320183 -1.11022302e-16,-5.55111512e-17" stroke="none" fill="#A6A8B0"></polygon></g></g><g transform="translate(0.05210094650647079 9.189540217320143)"><g clip-path="url(#i3)"><polygon points="-1.11022302e-16,6.9388939e-18 14.1670531,6.9388939e-18 14.1670531,3.55320183 -1.11022302e-16,3.55320183 -1.11022302e-16,6.9388939e-18" stroke="none" fill="#A6A8B0"></polygon></g></g></g></g></g></g></svg>