<?xml version="1.0" encoding="UTF-8"?><svg version="1.1" width="22px" height="22px" viewBox="0 0 22.0 22.0" xmlns="http://www.w3.org/2000/svg" xmlns:xlink="http://www.w3.org/1999/xlink"><defs><clipPath id="i0"><path d="M1397,0 L1397,915 L0,915 L0,0 L1397,0 Z"></path></clipPath><clipPath id="i1"><path d="M1.19149544,0.594590128 C1.98502183,-0.198196596 3.27158213,-0.198196596 4.06511529,0.594589451 L5.33340829,1.86169768 C5.5981248,2.12616 5.59785388,2.55500957 5.33289353,2.81918768 L2.81671135,5.27612809 C2.55212353,5.53990695 2.12365843,5.53970394 1.85934832,5.27561381 L0.595146317,4.01259343 C-0.198382106,3.21980874 -0.198382106,1.93444421 0.595146317,1.14165951 Z"></path></clipPath><clipPath id="i2"><path d="M3.93391732,0.198192888 L5.06951002,1.33272417 C5.862989,2.12552917 5.862989,3.4108937 5.06951002,4.20363103 L4.20347444,5.00924902 C3.40999546,5.80198635 2.1234284,5.80198635 1.32988169,5.00924902 L0.198352893,3.87877785 C-0.0659369041,3.61473508 -0.0661400997,3.18666369 0.19787877,2.92228258 L2.97551121,0.198734237 C3.23993647,-0.0660528871 3.6691534,-0.0662558929 3.93391732,0.198192888 Z"></path></clipPath><clipPath id="i3"><path d="M2.59309811,0.396393616 L3.55096236,1.35337136 C4.08001607,1.88189675 4.08001607,2.73880418 3.55096236,3.26732957 L3.07203023,3.74586141 C2.80746951,4.01012072 2.37865897,4.01012072 2.11409825,3.74586141 L0.198369744,1.83190321 C-0.0661232482,1.5676439 -0.0661232482,1.1391868 0.198369744,0.87492749 L0.677369602,0.396392939 C1.20635559,-0.132131093 2.06411212,-0.132131093 2.59309811,0.396393616 Z"></path></clipPath><clipPath id="i4"><path d="M7.33495633,0.198194482 C7.59951705,-0.0660648273 8.02832759,-0.0660648273 8.29282058,0.198194482 L10.2086168,2.11215269 C10.4731098,2.37641199 10.4731098,2.80486909 10.2086168,3.0691284 L3.86444251,9.40733908 C3.78470854,9.48698499 3.68633476,9.5455183 3.57824145,9.5775932 L0.870937238,10.3804131 C0.356990439,10.5328704 -0.122064959,10.056619 0.0279260035,9.54240555 L0.820761461,6.82429433 C0.852629311,6.71507725 0.911556046,6.61560445 0.992096025,6.53514652 Z"></path></clipPath></defs><g transform="translate(-226.0 -465.0)"><g clip-path="url(#i0)"><g transform="translate(226.0 465.0)"><g transform="translate(5.0 5.0)"><g transform="translate(0.014205290977309382 0.05104880099314091)"><g clip-path="url(#i1)"><polygon points="-1.11022302e-16,-1.11022302e-16 5.53177984,-1.11022302e-16 5.53177984,5.47382191 -1.11022302e-16,5.47382191 -1.11022302e-16,-1.11022302e-16" stroke="none" fill="#4E5262"></polygon></g><g transform="translate(7.179964020247111 7.211025154391768)"><g clip-path="url(#i2)"><polygon points="0,0 5.66461926,0 5.66461926,5.60380202 0,5.60380202 0,0" stroke="none" fill="#4E5262"></polygon></g></g></g><g transform="translate(9.052247355517114 0.0)"><g clip-path="url(#i3)"><polygon points="5.82867088e-16,0 3.94775264,0 3.94775264,3.94405589 5.82867088e-16,3.94405589 5.82867088e-16,0" stroke="none" fill="#9094A6"></polygon></g></g><g transform="translate(0.0 2.59070474533614)"><g clip-path="url(#i4)"><polygon points="1.04083409e-17,5.27355937e-16 10.4069866,5.27355937e-16 10.4069866,10.4092953 1.04083409e-17,10.4092953 1.04083409e-17,5.27355937e-16" stroke="none" fill="#9094A6"></polygon></g></g></g></g></g></g></svg>