<?xml version="1.0" encoding="UTF-8"?><svg version="1.1" width="22px" height="22px" viewBox="0 0 22.0 22.0" xmlns="http://www.w3.org/2000/svg" xmlns:xlink="http://www.w3.org/1999/xlink"><defs><clipPath id="i0"><path d="M1397,0 L1397,915 L0,915 L0,0 L1397,0 Z"></path></clipPath><clipPath id="i1"><path d="M13.5,0 C17.6421356,-7.6089797e-16 21,3.35786438 21,7.5 C21,11.6421356 17.6421356,15 13.5,15 L7.5,15 C3.35786438,15 5.07265313e-16,11.6421356 0,7.5 C-5.07265313e-16,3.35786438 3.35786438,7.6089797e-16 7.5,0 L13.5,0 Z M10.5409273,3.59752422 C10.2647849,3.59752422 10.0409273,3.82138184 10.0409273,4.09752422 L10.0401653,6.99952422 L7.04016528,7 L6.95028964,7.00805567 C6.71704044,7.05039163 6.54016528,7.25454011 6.54016528,7.5 C6.54016528,7.77614237 6.7640229,8 7.04016528,8 L10.0401653,7.99952422 L10.0409273,10.8199445 L10.0489829,10.9098202 C10.0913189,11.1430694 10.2954674,11.3199445 10.5409273,11.3199445 C10.8170696,11.3199445 11.0409273,11.0960869 11.0409273,10.8199445 L11.0401653,7.99952422 L14.0416893,8 L14.1315649,7.99194433 C14.3648141,7.94960837 14.5416893,7.74545989 14.5416893,7.5 C14.5416893,7.22385763 14.3178316,7 14.0416893,7 L11.0401653,6.99952422 L11.0409273,4.09752422 L11.0328716,4.00764859 C10.9905356,3.77439938 10.7863872,3.59752422 10.5409273,3.59752422 Z"></path></clipPath></defs><g transform="translate(-226.0 -547.0)"><g clip-path="url(#i0)"><g transform="translate(226.0 547.0)"><g transform="translate(1.0 4.0)"><g clip-path="url(#i1)"><polygon points="0,0 21,0 21,15 0,15 0,0" stroke="none" fill="#9094A6"></polygon></g></g></g></g></g></svg>