<?xml version="1.0" encoding="UTF-8"?><svg version="1.1" width="22px" height="22px" viewBox="0 0 22.0 22.0" xmlns="http://www.w3.org/2000/svg" xmlns:xlink="http://www.w3.org/1999/xlink"><defs><clipPath id="i0"><path d="M1397,0 L1397,915 L0,915 L0,0 L1397,0 Z"></path></clipPath><clipPath id="i1"><path d="M6.35763752,6.67440569 C6.91909209,6.67440569 7.40679016,7.06062782 7.53544303,7.60714375 L9.39346507,15.5 C9.41567212,15.6399772 9.36042098,15.7846082 9.24980026,15.8908708 L5.10448405,19.7567639 C4.99948911,19.8581659 4.85025773,19.9112714 4.70108556,19.9112714 C4.54634683,19.9112714 4.39711545,19.8581142 4.29212051,19.7567639 L0.146804304,15.8908708 C0.0362427985,15.784815 -0.013500996,15.6399772 0.00313948764,15.5 L1.71937745,7.62669902 C1.8405547,7.0707942 2.33265692,6.67440569 2.9016157,6.67440569 Z M1.25118269,1.39719908 C3.36738053,-0.465733026 5.79607333,-0.465733026 7.91218066,1.39719908 C8.02621749,1.49860108 8.08540804,1.65310856 8.07681003,1.81713056 C8.02588358,2.5777612 7.8544693,3.35850137 7.56256718,4.15935107 C7.38789537,4.63695177 6.93339468,4.95459917 6.42485513,4.95423232 L2.73841771,4.95423232 C2.22820627,4.95468901 1.77253112,4.63505908 1.59995977,4.15491784 C1.31046184,3.35745814 1.13929618,2.57819572 1.08646282,1.81713056 C1.07795531,1.65290172 1.13719111,1.49860108 1.25118269,1.39719908 Z"></path></clipPath><clipPath id="i2"><path d="M0.0330172787,0.214890169 C-0.0309262554,-0.0194043684 -0.00199170303,-0.0621105801 0.119820936,0.086771534 C1.07921672,1.25936638 2.5183104,3.01825866 4.43710198,5.36344836 C4.52405564,5.4695042 4.55783235,5.60772325 4.53143093,5.73984059 L4.02210801,8.53659152 C3.9919655,8.68835841 3.89512467,8.81504627 3.75445961,8.88159618 C3.69150238,8.91432819 3.62752971,8.92792775 3.55773163,8.9321162 C3.47296918,8.93723543 3.3870844,8.92301536 3.30472694,8.88449191 L2.04019343,7.569354 Z"></path></clipPath></defs><g transform="translate(-226.0 -330.0)"><g clip-path="url(#i0)"><g transform="translate(226.0 330.0)"><g transform="translate(4.999999999999809 0.9999999999999787)"><g clip-path="url(#i1)"><polygon points="0,-2.22044605e-16 9.39830724,-2.22044605e-16 9.39830724,19.9112714 0,19.9112714 0,-2.22044605e-16" stroke="none" fill="#9094A6"></polygon></g><g transform="translate(7.956363093515393 7.136551637151343)"><g clip-path="url(#i2)"><polygon points="1.38777878e-17,-1.38777878e-17 4.54019343,-1.38777878e-17 4.54019343,8.93312129 1.38777878e-17,8.93312129 1.38777878e-17,-1.38777878e-17" stroke="none" fill="#51535D"></polygon></g></g></g></g></g></g></svg>