<?xml version="1.0" encoding="UTF-8"?><svg version="1.1" width="22px" height="22px" viewBox="0 0 22.0 22.0" xmlns="http://www.w3.org/2000/svg" xmlns:xlink="http://www.w3.org/1999/xlink"><defs><clipPath id="i0"><path d="M1397,0 L1397,915 L0,915 L0,0 L1397,0 Z"></path></clipPath><clipPath id="i1"><path d="M5.89495273,0.220556351 C5.81698731,1.31788591 5.95199358,1.7489951 6.0841286,2.12472627 L6.14412416,2.29643276 C6.22175053,2.52606328 6.28571429,2.77031068 6.28571429,3.17152877 C6.28571429,4.84482098 4.79769428,6.1924659 2.9943297,6.11444243 C1.39377037,6.04557664 0.0769039322,4.8111207 0.00344075974,3.31072558 C-0.0797914516,1.62021693 1.35782031,0.225318347 3.1428191,0.225318347 C3.51834095,0.225318347 4.82582911,0.281729687 5.60500766,0.012493747 C5.75271552,-0.0384229817 5.90511253,0.0733007756 5.89495273,0.220556351 Z"></path></clipPath><clipPath id="i2"><path d="M7.74446883,0 C9.57894084,0.963833428 10.558748,1.93908067 10.6838903,2.92574174 L10.9867915,4.54650374 C11.097713,5.25416039 10.4961768,5.89333413 9.70266105,5.96181703 C7.06614081,6.16346113 4.38695843,6.16346113 1.70777606,5.99605849 C1.55845857,5.99605849 1.44753701,5.96181703 1.2939533,5.96181703 C0.504703718,5.92757558 -0.101098666,5.28840184 0.014089111,4.54650374 L0.312724089,2.92574174 C0.440710508,1.96444471 1.41909558,0.989197466 3.2478793,0 L4.60880156,3.00183385 L4.80078119,3.42414507 L5.28513659,4.493479 C5.33889831,4.61217125 5.47869989,4.66480785 5.59739215,4.61104613 C5.64965046,4.5873757 5.69149365,4.54547512 5.71509246,4.49318443 L6.19583316,3.42794968 L7.74446883,0 Z"></path></clipPath><clipPath id="i3"><path d="M1.35732648,0 C1.46235769,0 1.57142857,0.0717978017 1.57142857,0.211404638 L1.57142857,0.917416356 C1.57142857,1.02511306 1.49871465,1.12882099 1.35732648,1.12882099 L1.14322438,1.12882099 L1.42600073,3.73747446 L0.985614724,4.81789922 C0.936432422,4.93856104 0.798746558,4.99650664 0.678084739,4.94732434 C0.619381078,4.92339646 0.572776419,4.8768513 0.548773567,4.81817826 L0.105031216,3.73348569 L0.428204187,1.12882099 L0.214102093,1.12882099 C0.105031216,1.12882099 0,1.06101196 0,0.917416356 L0,0.211404638 C0,0.107696703 0.0686742563,0 0.214102093,0 L1.35732648,0 Z"></path></clipPath></defs><g transform="translate(-270.0 -580.0)"><g clip-path="url(#i0)"><g transform="translate(270.0 580.0)"><g transform="translate(5.0 4.000000000000025)"><g transform="translate(2.3571527044987306 0.0)"><g clip-path="url(#i1)"><polygon points="1.67834496e-16,3.74700271e-16 6.28571429,3.74700271e-16 6.28571429,6.11766786 1.67834496e-16,6.11766786 1.67834496e-16,3.74700271e-16" stroke="none" fill="#FFFFFF"></polygon></g></g><g transform="translate(0.0 6.882371433137677)"><g clip-path="url(#i2)"><polygon points="2.22044605e-16,0 11,0 11,6.11762857 2.22044605e-16,6.11762857 2.22044605e-16,0" stroke="none" fill="#FFFFFF"></polygon></g></g><g transform="translate(4.714295561642757 6.882371433137678)"><g clip-path="url(#i3)"><polygon points="0,0 1.57142857,0 1.57142857,4.96483863 0,4.96483863 0,0" stroke="none" fill="#FFFFFF"></polygon></g></g></g></g></g></g></svg>