<?xml version="1.0" standalone="no"?><!DOCTYPE svg PUBLIC "-//W3C//DTD SVG 1.1//EN" "http://www.w3.org/Graphics/SVG/1.1/DTD/svg11.dtd"><svg t="1652664102599" class="icon" viewBox="0 0 1024 1024" version="1.1" xmlns="http://www.w3.org/2000/svg" p-id="2559" xmlns:xlink="http://www.w3.org/1999/xlink" width="64" height="64"><defs><style type="text/css">@font-face { font-family: feedback-iconfont; src: url("//at.alicdn.com/t/font_1031158_u69w8yhxdu.woff2?t=1630033759944") format("woff2"), url("//at.alicdn.com/t/font_1031158_u69w8yhxdu.woff?t=1630033759944") format("woff"), url("//at.alicdn.com/t/font_1031158_u69w8yhxdu.ttf?t=1630033759944") format("truetype"); }
</style></defs><path d="M422.22933333 475.59111111L128.45511111 475.59111111c-29.46844445 0-53.36177778-23.89333333-53.36177778-53.36177778L75.09333333 128.45511111c0-29.46844445 23.89333333-53.36177778 53.36177778-53.36177778l293.77422222 0c29.46844445 0 53.36177778 23.89333333 53.36177778 53.36177778l0 293.77422222C475.59111111 451.69777778 451.69777778 475.59111111 422.22933333 475.59111111z" p-id="2560"></path><path d="M422.22933333 948.90666667L128.45511111 948.90666667c-29.46844445 0-53.36177778-23.89333333-53.36177778-53.36177778L75.09333333 601.77066667c0-29.46844445 23.89333333-53.36177778 53.36177778-53.36177778l293.77422222 0c29.46844445 0 53.36177778 23.89333333 53.36177778 53.36177778l0 293.77422222C475.59111111 925.01333333 451.69777778 948.90666667 422.22933333 948.90666667z" p-id="2561"></path><path d="M895.54488889 475.59111111L601.77066667 475.59111111c-29.46844445 0-53.36177778-23.89333333-53.36177778-53.36177778L548.40888889 128.45511111c0-29.46844445 23.89333333-53.36177778 53.36177778-53.36177778l293.77422222 0c29.46844445 0 53.36177778 23.89333333 53.36177778 53.36177778l0 293.77422222C948.90666667 451.69777778 925.01333333 475.59111111 895.54488889 475.59111111z" p-id="2562"></path><path d="M895.54488889 948.90666667L601.77066667 948.90666667c-29.46844445 0-53.36177778-23.89333333-53.36177778-53.36177778L548.40888889 601.77066667c0-29.46844445 23.89333333-53.36177778 53.36177778-53.36177778l293.77422222 0c29.46844445 0 53.36177778 23.89333333 53.36177778 53.36177778l0 293.77422222C948.90666667 925.01333333 925.01333333 948.90666667 895.54488889 948.90666667z" p-id="2563"></path></svg>