<?xml version="1.0" encoding="UTF-8"?><svg version="1.1" width="11px" height="12px" viewBox="0 0 11.0 12.0" xmlns="http://www.w3.org/2000/svg" xmlns:xlink="http://www.w3.org/1999/xlink"><defs><clipPath id="i0"><path d="M1440,0 L1440,1409 L0,1409 L0,0 L1440,0 Z"></path></clipPath><clipPath id="i1"><path d="M4.8,0 C7.4509668,0 9.6,2.1490332 9.6,4.8 C9.6,7.4509668 7.4509668,9.6 4.8,9.6 C2.1490332,9.6 0,7.4509668 0,4.8 C0,2.1490332 2.1490332,0 4.8,0 Z"></path></clipPath><clipPath id="i2"><path d="M4.2,0 C6.51959595,0 8.4,1.88040405 8.4,4.2 C8.4,6.51959595 6.51959595,8.4 4.2,8.4 C1.88040405,8.4 0,6.51959595 0,4.2 C0,1.88040405 1.88040405,0 4.2,0 Z"></path></clipPath><clipPath id="i3"><path d="M5.39062661,0 C8.36779267,0 10.7812532,2.41383554 10.7812532,5.39145696 C10.7812532,6.62365376 10.3679495,7.75931481 9.67245824,8.66731062 L9.67232431,10.9830702 C9.67232384,11.0784714 9.65889753,11.1733978 9.63244037,11.2650569 C9.47828854,11.7991241 8.92446695,12.1093429 8.39003822,11.9643786 L8.37385964,11.9598518 L6.01950179,11.2800569 C5.63642689,11.169446 5.23018194,11.1672346 4.84592555,11.2736685 L4.82335858,11.2800569 L2.46900074,11.9598518 C2.37735576,11.986311 2.28244233,11.9997373 2.18705422,11.9997357 C1.63125049,11.9997357 1.17964321,11.5536195 1.17066999,10.9998783 L1.17040213,8.74622136 C0.437785845,7.82551573 0,6.6596002 0,5.39145696 C0,2.41383554 2.41346054,0 5.39062661,0 Z M5.39062661,0.801013632 C2.85578657,0.801013632 0.800893096,2.85624192 0.800893096,5.39147036 C0.800893096,7.92671218 2.85578657,9.98191369 5.39062661,9.98191369 C7.92546665,9.98191369 9.98036012,7.92669879 9.98036012,5.39145696 C9.98036012,2.85622853 7.92546665,0.801013632 5.39062661,0.801013632 Z"></path></clipPath><clipPath id="i4"><path d="M2.20924619,0 L2.20913905,1.47474151 L2.20889798,1.48483973 C2.2081078,1.50166116 2.20536226,1.51834867 2.20067476,1.53455403 C2.16764797,1.64898263 2.04811668,1.71496926 1.93370147,1.68192907 L0,1.12371462 C0.827317211,0.92359849 1.58014333,0.532634087 2.20924619,0 Z"></path></clipPath><clipPath id="i5"><path d="M0,0 C0.625071615,0.513509082 1.36767898,0.889125265 2.18136226,1.08036193 L0.275531332,1.63054066 L0.265754544,1.63311209 C0.249375074,1.63702281 0.232580426,1.63900495 0.215718814,1.63900495 C0.0966294931,1.63900495 9.37500279e-05,1.54245582 9.37500279e-05,1.4233531 Z"></path></clipPath><clipPath id="i6"><path d="M2.67886346,0.0412395938 C2.75744017,0.0800288451 2.82103815,0.14363987 2.85981128,0.22222453 L3.41730477,1.35202241 L4.66393178,1.53319295 C4.87874545,1.5644109 5.02847531,1.76160492 5.00209534,1.97602264 C4.98832024,2.07155743 4.94748465,2.15171088 4.88473415,2.21288561 L3.98266771,3.09228407 L4.19562537,4.33408548 C4.23231235,4.54802064 4.09112009,4.75135184 3.87916467,4.79257983 C3.78393347,4.80900486 3.6950981,4.79493611 3.61754263,4.75416059 L2.5025309,4.16786195 L1.38751917,4.75414822 C1.19553433,4.85508998 0.958733232,4.78377001 0.853930988,4.59515072 C0.808692945,4.50929031 0.794624637,4.42044471 0.809436435,4.33407311 L1.02236935,3.0922717 L0.120315285,2.21287323 C-0.0348217307,2.06162145 -0.0403402431,1.81471132 0.106135431,1.65671606 C0.174274004,1.58662861 0.254415714,1.54579234 0.341130024,1.53319295 L1.58771992,1.35201004 L2.14525053,0.22222453 C2.24262877,0.0248696567 2.48153334,-0.0561633883 2.67886346,0.0412395938 Z"></path></clipPath></defs><g transform="translate(-370.0 -164.0)"><g clip-path="url(#i0)"><g transform="translate(370.0 164.0)"><g opacity="70.1357887%"><g transform="translate(0.5999999999999996 0.5999999999999996)"><g clip-path="url(#i1)"><polygon points="0,0 9.6,0 9.6,9.6 0,9.6 0,0" stroke="none" fill="#FFCB6C"></polygon></g></g><g transform="translate(1.2000000000000002 1.2000000000000002)"><g clip-path="url(#i2)"><polygon points="0,0 8.4,0 8.4,8.4 0,8.4 0,0" stroke="none" fill="#A87E33"></polygon></g></g><g clip-path="url(#i3)"><polygon points="0,0 10.7812532,0 10.7812532,12 0,12 0,0" stroke="none" fill="#FFCB6B"></polygon></g><g transform="translate(6.662292164654157 9.508328727367005)"><g clip-path="url(#i4)"><polygon points="0,0 2.20924619,0 2.20924619,1.69044823 0,1.69044823 0,0" stroke="none" fill="#A87F33"></polygon></g></g><g transform="translate(1.9713354090992372 9.559717135543355)"><g clip-path="url(#i5)"><polygon points="0,0 2.18136226,0 2.18136226,1.63900495 0,1.63900495 0,0" stroke="none" fill="#A87F33"></polygon></g></g><g transform="translate(2.918901160145519 3.009220933410507)"><g clip-path="url(#i6)"><polygon points="1.38777878e-17,5.55111512e-17 5.00510737,5.55111512e-17 5.00510737,4.8 1.38777878e-17,4.8 1.38777878e-17,5.55111512e-17" stroke="none" fill="#FFCB6C"></polygon></g></g></g></g></g></g></svg>